<svg width="208" height="64" viewBox="0 0 208 64" fill="none" xmlns="http://www.w3.org/2000/svg">
<path d="M145.028 46.8331C148.534 46.8331 151.405 44.7427 151.405 41.2748C151.405 35.1823 142.519 36.352 142.519 32.8962C142.519 31.7265 143.532 30.9338 144.832 30.9338C146.067 30.9338 147.157 31.6492 147.792 32.8962L150.533 31.2214C149.274 28.986 147.21 28 144.948 28C141.857 28 139.22 29.8173 139.22 33.0653C139.22 39.0393 148.104 37.7658 148.104 41.572C148.104 42.8722 147.041 43.9113 145.078 43.9113C143.131 43.9113 141.507 42.8963 141.272 40.6126L138 41.4415C138.585 45.0544 141.78 46.8331 145.028 46.8331Z" fill="#013B23"/>
<path d="M154.092 52.3141H157.314V45.3275C158.222 46.444 159.651 46.8838 161.016 46.8838C164.6 46.8838 166.574 43.7277 166.574 40.1317C166.574 36.5187 164.6 33.3771 160.963 33.3771C159.573 33.3771 158.222 33.8314 157.314 34.9479V33.6502H154.092V52.3141ZM160.185 43.9621C158.015 43.9621 157.029 42.3139 157.029 40.1317C157.029 37.9494 158.015 36.2215 160.185 36.2215C162.367 36.2215 163.353 37.9494 163.353 40.1317C163.353 42.3139 162.367 43.9621 160.185 43.9621Z" fill="#013B23"/>
<path d="M172.823 46.8838C174.367 46.8838 175.745 46.3908 176.861 44.7668L177.069 46.6252H179.679V38.7542C179.679 35.5859 177.603 33.3771 174.07 33.3771C171.511 33.3771 169.86 34.5202 168.613 36.2215L171.042 37.9736C171.6 37.0262 172.6 36.1442 174.094 36.1442C175.771 36.1442 176.653 37.2341 176.653 38.8847H173.277C170.367 38.8847 168.108 39.8199 168.108 42.6377C168.108 45.3517 170.16 46.8838 172.823 46.8838ZM173.277 44.2086C172.042 44.2086 171.353 43.5996 171.353 42.7417C171.353 41.9224 172.016 41.1708 173.458 41.1708H176.653C176.602 42.7924 175.082 44.2086 173.277 44.2086Z" fill="#013B23"/>
<path d="M188.201 46.8838C190.772 46.8838 192.797 45.4556 193.655 43.0413L190.772 41.949C190.434 43.1694 189.448 44.0152 188.174 44.0152C185.965 44.0152 185.134 42.1302 185.134 40.1558C185.134 38.2225 185.992 36.2481 188.174 36.2481C189.472 36.2481 190.434 37.1302 190.772 38.3772L193.786 37.2075C192.797 34.6241 190.746 33.3771 188.174 33.3771C183.94 33.3771 181.913 36.7532 181.913 40.1558C181.913 43.5996 183.967 46.8838 188.201 46.8838Z" fill="#013B23"/>
<path d="M201.5 46.8838C203.682 46.8838 205.41 46.1177 206.826 44.5469L204.644 42.6377C203.735 43.6503 202.696 44.0152 201.526 44.0152C199.487 44.0152 198.551 42.8722 198.278 41.1708H207.188C207.254 40.9872 207.307 40.4555 207.307 39.9238C207.307 37.0262 205.838 33.3771 201.292 33.3771C196.903 33.3771 194.929 36.8063 194.929 40.1824C194.929 43.6769 197.031 46.8838 201.5 46.8838ZM198.278 38.8847C198.578 37.2607 199.397 36.0402 201.265 36.0402C202.916 36.0402 203.982 37.0262 204.189 38.8847H198.278Z" fill="#013B23"/>
<path d="M73.8837 39.9104C76.3245 39.9104 78.3255 38.7939 79.3139 37.066L79.5991 39.6518H82.2091V29.729H74.8455V32.3922H79.0142C78.6517 35.1834 76.5203 36.9621 73.8837 36.9621C69.9469 36.9621 68.2722 33.9896 68.2722 30.338C68.2722 26.9353 69.9469 23.8831 73.8329 23.8831C76.1698 23.8831 78.0911 24.9996 78.9369 27.4936L81.8587 26.2732C80.3772 22.8439 77.4676 21 73.8571 21C67.7913 21 65 25.4418 65 30.4685C65 35.5073 67.8444 39.9104 73.8837 39.9104Z" fill="#27A348"/>
<path d="M85.7412 39.6518H88.808V34.1708C88.808 30.872 90.3522 29.4945 91.8336 29.4945C92.3411 29.4945 92.822 29.6492 93.2498 29.9368L94.6901 27.3389C94.069 26.7009 93.1725 26.4036 92.3145 26.4036C90.8597 26.4036 89.3928 27.2857 88.8345 28.859V26.6767H85.7412V39.6518Z" fill="#27A348"/>
<path d="M101.73 39.9104C103.912 39.9104 105.64 39.1443 107.056 37.5735L104.874 35.6643C103.966 36.6769 102.926 37.0418 101.757 37.0418C99.717 37.0418 98.7818 35.8987 98.5087 34.1974H107.419C107.484 34.0137 107.537 33.482 107.537 32.9504C107.537 30.0528 106.068 26.4036 101.522 26.4036C97.1336 26.4036 95.1592 29.8329 95.1592 33.209C95.1592 36.7035 97.2617 39.9104 101.73 39.9104ZM98.5087 31.9112C98.8083 30.2872 99.6276 29.0668 101.496 29.0668C103.146 29.0668 104.212 30.0528 104.42 31.9112H98.5087Z" fill="#27A348"/>
<path d="M115.589 39.9104C117.771 39.9104 119.499 39.1443 120.915 37.5735L118.733 35.6643C117.824 36.6769 116.785 37.0418 115.616 37.0418C113.576 37.0418 112.641 35.8987 112.368 34.1974H121.278C121.343 34.0137 121.396 33.482 121.396 32.9504C121.396 30.0528 119.927 26.4036 115.381 26.4036C110.992 26.4036 109.018 29.8329 109.018 33.209C109.018 36.7035 111.121 39.9104 115.589 39.9104ZM112.368 31.9112C112.667 30.2872 113.486 29.0668 115.355 29.0668C117.005 29.0668 118.071 30.0528 118.279 31.9112H112.368Z" fill="#27A348"/>
<path d="M124.044 39.6518H127.188V32.5468C127.188 30.2872 128.331 29.3254 130.11 29.3254C131.734 29.3254 132.592 30.5603 132.592 32.2616V39.6518H135.721V31.858C135.721 29.1441 134.424 26.4036 131.021 26.4036C129.747 26.4036 128.227 26.9087 127.188 28.1823V26.6767H124.044V39.6518Z" fill="#27A348"/>
<mask id="mask0_47_24" style="mask-type:luminance" maskUnits="userSpaceOnUse" x="0" y="0" width="58" height="64">
<path d="M0 0H57.3611V63.4905H0V0Z" fill="white"/>
</mask>
<g mask="url(#mask0_47_24)">
<path d="M57.3498 35.6668C57.358 36.3054 57.3038 36.9407 57.2677 37.5792C57.248 37.8977 57.2004 38.2145 57.1692 38.5313C57.1315 38.8497 57.1036 39.1682 57.0445 39.4817C56.3074 44.5474 54.0799 49.3965 50.7525 53.341C47.4268 57.2889 42.9915 60.3421 38.0357 61.9836C36.7947 62.3841 35.5341 62.7387 34.2471 62.9636L33.7645 63.0555C33.6053 63.0867 33.4428 63.1048 33.2803 63.1278L32.3085 63.2656L31.3318 63.3559L30.8426 63.4002L30.3534 63.4216L29.3718 63.461L28.3885 63.4528L27.8977 63.4462C27.7336 63.4413 27.5711 63.4281 27.4069 63.4199L26.4253 63.3592L24.9578 63.1967L24.4719 63.1163L23.4985 62.9554L22.5349 62.7486C17.4019 61.5929 12.5922 58.9846 8.79541 55.2961C4.99367 51.6142 2.22115 46.8571 0.906293 41.6945L0.668273 40.7227L0.477858 39.7427C0.44831 39.5786 0.410555 39.4161 0.387574 39.2519L0.316989 38.7562C0.271027 38.4262 0.216856 38.0963 0.180743 37.7663C0.126573 37.1015 0.0428557 36.4384 0.0313655 35.7719C0.0215162 35.4387 0.000176566 35.1054 -0.00146484 34.7706L0.0116673 33.7709C0.0576297 31.1002 0.507405 28.4327 1.29369 25.867C2.06684 23.2931 3.24545 20.8456 4.69819 18.577C4.87055 18.2881 5.0741 18.0173 5.26452 17.7399C5.4615 17.4657 5.64699 17.1834 5.85218 16.9175C6.27241 16.3889 6.67129 15.8423 7.12599 15.3433C7.34924 15.0888 7.56756 14.8311 7.79573 14.5816C7.96152 14.4109 8.08956 14.2073 8.17985 13.9874C13.8414 0.0935764 33.4937 -5.18882 48.6054 6.87632C48.8402 7.06509 48.7187 7.44264 48.4183 7.45577C43.3641 7.65768 39.7708 12.0898 34.6247 16.059C29.1715 20.2645 21.9801 23.9481 9.46515 21.5219C9.41427 21.5137 9.36502 21.5022 9.31742 21.4907C8.7987 21.3643 8.64275 20.7044 9.06134 20.3745C9.50291 20.0281 9.95104 19.6851 10.4025 19.3485C11.5367 18.5015 12.7039 17.689 13.8923 16.9027C14.4865 16.5104 15.0857 16.1246 15.6881 15.7454C16.2939 15.3662 16.9012 14.9952 17.5151 14.6308C18.743 13.9004 19.9873 13.2011 21.2512 12.533C22.5152 11.8649 23.7972 11.2313 25.1006 10.6436C26.4039 10.0543 27.7303 9.50931 29.0829 9.04147C29.7608 8.80674 30.4454 8.59334 31.1381 8.40949C31.5238 8.30608 31.9129 8.21251 32.3036 8.13207C32.3495 8.12058 32.338 8.05328 32.2921 8.05985C31.8932 8.11073 31.4959 8.17475 31.1003 8.24862C30.3912 8.38158 29.6853 8.54245 28.9877 8.7263C27.5891 9.09236 26.2119 9.53885 24.8511 10.0329C23.4919 10.5254 22.1475 11.0655 20.8212 11.6416C19.4932 12.2194 18.18 12.8301 16.8815 13.4736C16.2331 13.7953 15.588 14.1236 14.9445 14.4601C14.3027 14.7983 13.6658 15.143 13.0305 15.4959C12.1704 15.9752 11.3168 16.471 10.4714 16.9831L10.4074 17.0455C10.2006 17.2573 10.0036 17.4805 9.80002 17.6972C9.38308 18.124 9.02194 18.5951 8.63455 19.0481C8.44577 19.278 8.2767 19.5242 8.09613 19.7606C7.91885 20.0002 7.73171 20.2317 7.57249 20.4828C6.22973 22.4494 5.11514 24.585 4.36004 26.8519C3.59345 29.1139 3.11413 31.4826 3.00251 33.8825L2.96147 34.7837C2.95326 35.0825 2.96475 35.3829 2.96475 35.6849C2.95655 36.2857 3.01564 36.8848 3.04519 37.4856C3.06817 37.786 3.10921 38.0848 3.1404 38.3836L3.18964 38.8317C3.2077 38.9811 3.23724 39.1288 3.25858 39.2782L3.40468 40.1695L3.59345 41.0527C4.6391 45.7572 7.0275 50.1811 10.4254 53.6775C13.8185 57.1773 18.2013 59.7397 22.9683 60.9659L23.8645 61.1875L24.7706 61.3648L25.2253 61.4534L25.6817 61.5174L26.5976 61.6471L27.5202 61.7308C27.6728 61.7456 27.8271 61.762 27.9814 61.7719L28.4427 61.7899L29.3702 61.8277L30.296 61.8178L30.7605 61.8113L31.2234 61.7833L32.1493 61.7259L33.0718 61.6241C33.2261 61.6044 33.3804 61.5929 33.533 61.57L33.9927 61.4944C35.2189 61.3188 36.4238 61.0168 37.6155 60.6737C42.3742 59.2554 46.7243 56.4632 50.0565 52.7402C53.3905 49.0222 55.7148 44.3669 56.5898 39.4079C56.6571 39.1009 56.6948 38.7874 56.7408 38.4771C56.7818 38.1652 56.8376 37.855 56.8655 37.5415C56.9214 36.9144 56.9936 36.2873 57.0051 35.657C57.0363 35.0283 57.051 34.3963 57.0297 33.766C57.0149 33.1356 56.9788 32.5053 56.9181 31.8766C56.6833 29.3618 56.1006 26.8733 55.183 24.5078C56.1712 26.8453 56.8344 29.324 57.1462 31.852C57.2267 32.4839 57.2825 33.1176 57.317 33.7545C57.358 34.3914 57.3613 35.0283 57.3498 35.6668Z" fill="#013B23"/>
</g>
<mask id="mask1_47_24" style="mask-type:luminance" maskUnits="userSpaceOnUse" x="50" y="18" width="4" height="4">
<path d="M50.5981 18.6296H53.1162V21.21H50.5981V18.6296Z" fill="white"/>
</mask>
<g mask="url(#mask1_47_24)">
<mask id="mask2_47_24" style="mask-type:luminance" maskUnits="userSpaceOnUse" x="50" y="18" width="4" height="4">
<path d="M51.8572 18.6296C51.1612 18.6296 50.5981 19.2074 50.5981 19.9198C50.5981 20.6322 51.1612 21.21 51.8572 21.21C52.5532 21.21 53.1162 20.6322 53.1162 19.9198C53.1162 19.2074 52.5532 18.6296 51.8572 18.6296Z" fill="white"/>
</mask>
<g mask="url(#mask2_47_24)">
<path d="M50.5981 18.6296H53.1162V21.21H50.5981V18.6296Z" fill="#013B23"/>
</g>
</g>
<mask id="mask3_47_24" style="mask-type:luminance" maskUnits="userSpaceOnUse" x="44" y="13" width="5" height="5">
<path d="M44.5854 13.1797H48.7106V17.3065H44.5854V13.1797Z" fill="white"/>
</mask>
<g mask="url(#mask3_47_24)">
<mask id="mask4_47_24" style="mask-type:luminance" maskUnits="userSpaceOnUse" x="44" y="13" width="5" height="5">
<path d="M46.6472 13.1797C45.508 13.1797 44.5854 14.1039 44.5854 15.2431C44.5854 16.3823 45.508 17.3065 46.6472 17.3065C47.788 17.3065 48.7106 16.3823 48.7106 15.2431C48.7106 14.1039 47.788 13.1797 46.6472 13.1797Z" fill="white"/>
</mask>
<g mask="url(#mask4_47_24)">
<path d="M44.5854 13.1797H48.7106V17.3065H44.5854V13.1797Z" fill="#013B23"/>
</g>
</g>
<path d="M41.0708 32.9747C41.0708 32.9747 39.8643 31.975 39.4752 34.874C39.2717 36.4071 38.6167 37.5496 37.8271 38.3687C38.4657 38.2702 39.1338 38.1324 39.8117 37.9108C40.9345 35.6898 40.6867 33.4573 41.0708 32.9747ZM45.1713 29.8312C45.1713 29.8312 43.5445 28.8857 43.6644 32.607C43.7185 34.2518 43.4822 35.483 43.0866 36.4203C43.5675 36.261 43.9763 36.2052 44.3078 36.2578C44.5015 36.2873 44.6723 36.3546 44.8134 36.4547C45.7196 33.3391 44.8102 30.542 45.1713 29.8312ZM43.1374 31.2774C43.1374 31.2774 41.6404 30.3007 41.5731 33.6363C41.5419 35.2088 40.9854 36.6353 40.2566 37.7532C40.6949 37.5874 41.1332 37.3838 41.5682 37.1343C41.8883 36.9488 42.1903 36.7912 42.471 36.6632C43.2803 34.1435 42.7812 31.8454 43.1374 31.2774Z" fill="#013B23"/>
<mask id="mask5_47_24" style="mask-type:luminance" maskUnits="userSpaceOnUse" x="30" y="30" width="21" height="25">
<path d="M30.0859 30.6766H50.4309V54.0863H30.0859V30.6766Z" fill="white"/>
</mask>
<g mask="url(#mask5_47_24)">
<path d="M32.1063 54.0699C33.8331 50.2238 35.2087 48.6447 42.5988 44.0008C50.1104 39.2815 47.4725 33.0913 50.4305 31.3874C50.4305 31.3874 47.7794 29.3552 46.783 34.0648C45.6438 39.4489 42.74 40.465 39.0334 41.7815C39.0334 41.7815 43.61 39.879 44.5604 37.9847C45.1415 36.8258 44.4028 36.0608 41.8109 37.5579C38.8594 39.2618 35.7553 38.8071 34.2386 39.3718C27.1374 42.0097 32.1063 54.0699 32.1063 54.0699Z" fill="#013B23"/>
</g>
<path d="M20.0791 37.9108C20.757 38.1324 21.4251 38.2702 22.0636 38.3687C21.2741 37.5496 20.6191 36.4071 20.4139 34.874C20.0265 31.975 18.82 32.9747 18.82 32.9747C19.2041 33.4573 18.9563 35.6898 20.0791 37.9108ZM15.0774 36.4547C15.2185 36.3546 15.3892 36.2873 15.5829 36.2578C15.9145 36.2052 16.3233 36.261 16.8042 36.4203C16.4086 35.483 16.1723 34.2518 16.2264 32.607C16.3463 28.8857 14.7195 29.8312 14.7195 29.8312C15.0806 30.542 14.1712 33.3391 15.0774 36.4547ZM17.4182 36.6632C17.7005 36.7912 18.0025 36.9488 18.3226 37.1343C18.7576 37.3838 19.1959 37.5874 19.6342 37.7532C18.9054 36.6353 18.3489 35.2088 18.3177 33.6363C18.2488 30.3007 16.7533 31.2774 16.7533 31.2774C17.1096 31.8454 16.6105 34.1435 17.4182 36.6632Z" fill="#013B23"/>
<mask id="mask6_47_24" style="mask-type:luminance" maskUnits="userSpaceOnUse" x="9" y="30" width="21" height="25">
<path d="M9.4585 30.6766H29.6655V54.0863H9.4585V30.6766Z" fill="white"/>
</mask>
<g mask="url(#mask6_47_24)">
<path d="M27.7842 54.0699C26.0573 50.2238 24.6817 48.6446 17.29 44.0008C9.77841 39.2814 12.418 33.0913 9.45996 31.3874C9.45996 31.3874 12.111 29.3536 13.1074 34.0647C14.2466 39.4489 17.1488 40.465 20.857 41.7815C20.857 41.7815 16.2805 39.879 15.33 37.9846C14.7473 36.8257 15.4876 36.0608 18.0796 37.5579C21.0294 39.2617 24.1351 38.807 25.6519 39.3717C32.7531 42.0096 27.7842 54.0699 27.7842 54.0699Z" fill="#013B23"/>
</g>
<mask id="mask7_47_24" style="mask-type:luminance" maskUnits="userSpaceOnUse" x="25" y="24" width="13" height="18">
<path d="M25.2173 24.608H37.1938V41.312H25.2173V24.608Z" fill="white"/>
</mask>
<g mask="url(#mask7_47_24)">
<mask id="mask8_47_24" style="mask-type:luminance" maskUnits="userSpaceOnUse" x="25" y="24" width="13" height="18">
<path d="M31.7651 32.1574C31.7783 32.1426 31.7914 32.1278 31.8029 32.1131C31.798 32.1196 31.7881 32.1344 31.7651 32.1574C31.7438 32.1771 31.7159 32.2001 31.6748 32.2312C31.688 32.2214 31.706 32.2066 31.729 32.1886C31.7405 32.1787 31.7504 32.1705 31.7651 32.1574ZM30.511 34.3964C30.5094 34.4062 30.5077 34.4145 30.5077 34.4194C30.5094 34.4062 30.511 34.4013 30.511 34.3964ZM29.1108 29.3192C29.1108 29.3569 29.1092 29.3783 29.1092 29.3881C29.1124 29.3471 29.1124 29.3143 29.1108 29.3192ZM30.7622 36.0018C30.7638 36.0002 30.7638 35.9985 30.7655 35.9969C30.7605 36.0034 30.7556 36.01 30.749 36.0166C30.754 36.0116 30.7572 36.0067 30.7622 36.0018ZM30.7671 35.9952C30.7671 35.9952 30.7671 35.9936 30.7687 35.9936C30.7671 35.9936 30.7671 35.9952 30.7655 35.9969C30.7655 35.9952 30.7671 35.9952 30.7671 35.9952ZM29.5836 39.1831C29.5836 39.2142 29.5836 39.2454 29.5836 39.2783C29.5836 39.2471 29.5836 39.2159 29.5836 39.1831ZM30.749 36.0166C30.7458 36.0182 30.7441 36.0215 30.7408 36.0248C30.7441 36.0215 30.7458 36.0199 30.749 36.0166ZM30.6702 36.0872C30.6571 36.1019 30.644 36.1183 30.6308 36.1348C30.644 36.1183 30.6571 36.1019 30.6686 36.0888C30.6817 36.0757 30.6981 36.0625 30.7129 36.0494C30.7228 36.0412 30.7326 36.033 30.7408 36.0248C30.7343 36.0313 30.7261 36.0396 30.7178 36.0445C30.7014 36.0593 30.6834 36.074 30.6702 36.0872ZM30.3436 36.445C30.3354 36.4549 30.3255 36.4647 30.3157 36.4778V36.4762C30.3272 36.4647 30.3354 36.4532 30.3436 36.445ZM31.1085 35.8853C31.1102 35.8853 31.1118 35.8836 31.1135 35.8836C31.1102 35.8836 31.1085 35.8853 31.1069 35.8853H31.1085ZM31.102 35.8869C31.1036 35.8869 31.1052 35.8853 31.1069 35.8853C31.1036 35.8869 31.0987 35.8869 31.0954 35.8869C31.0987 35.8869 31.1003 35.8869 31.102 35.8869ZM29.9316 36.8636H29.9332C29.9332 36.8636 29.9332 36.8636 29.9316 36.8636ZM36.9737 32.8452C36.9687 32.855 36.9638 32.8649 36.9589 32.8731C36.9638 32.8649 36.9687 32.8567 36.9737 32.8452ZM30.7835 35.964V35.9624C30.7835 35.9624 30.7835 35.964 30.7819 35.9657C30.7835 35.9657 30.7835 35.964 30.7835 35.964ZM32.7714 30.1006C32.7697 30.1153 32.7697 30.1285 32.7681 30.14C32.7697 30.1268 32.7714 30.1137 32.7714 30.1006ZM32.3495 33.6183C32.3544 33.615 32.3577 33.6101 32.3626 33.6068C32.3577 33.6101 32.3544 33.6134 32.3495 33.6183ZM29.8314 32.2788C29.8281 32.2756 29.8265 32.2706 29.8232 32.2674C29.8249 32.2706 29.8265 32.2723 29.8281 32.2756C29.8331 32.2821 29.8429 32.292 29.8511 32.2985C29.8561 32.3035 29.861 32.3051 29.8643 32.3084C29.8528 32.3002 29.8396 32.2903 29.8314 32.2788ZM37.1805 32.3839C37.1788 32.3888 37.1772 32.3938 37.1772 32.397C37.1723 32.4102 37.1674 32.4233 37.1608 32.4364C37.1427 32.4791 37.1148 32.5267 37.0918 32.5776C37.0525 32.6712 37.0114 32.7729 36.9737 32.8452C37.0065 32.7828 37.0508 32.6777 37.0459 32.6859C37.0229 32.7385 36.9983 32.7894 36.9737 32.8402C36.972 32.8419 36.9704 32.8452 36.9687 32.8484C36.9671 32.8501 36.9671 32.8517 36.9655 32.8534C36.9605 32.8632 36.9556 32.8731 36.9507 32.8813C36.9474 32.8895 36.9425 32.8961 36.9392 32.9026C36.9113 32.9486 36.8817 32.9945 36.8522 33.0421C36.8768 33.0044 36.862 33.0323 36.8276 33.0898C36.7882 33.1587 36.7324 33.2769 36.67 33.3721C36.6585 33.3869 36.688 33.3311 36.711 33.2933C36.711 33.2933 36.711 33.2933 36.711 33.2917C36.7045 33.3032 36.6979 33.3146 36.6897 33.3261C36.6404 33.4049 36.6043 33.4919 36.5534 33.5691C36.5009 33.6479 36.4418 33.725 36.3876 33.8038C36.3335 33.8826 36.2744 33.9598 36.2186 34.0369C36.212 34.0468 36.2038 34.0582 36.1956 34.0681C36.166 34.1075 36.1184 34.1715 36.0692 34.2322C36.015 34.3061 35.9543 34.3734 35.9214 34.4112C35.8903 34.4473 35.8886 34.4522 35.9444 34.3948C36.0084 34.3258 36.0446 34.2799 36.0659 34.2503C36.0872 34.2224 36.0971 34.2093 36.1037 34.1978C36.1184 34.1764 36.1266 34.1682 36.2087 34.0648C36.1562 34.1403 36.0971 34.2109 36.0446 34.2864C36.0577 34.2684 36.0675 34.2569 36.0758 34.2454C36.0561 34.2716 36.0364 34.2979 36.015 34.3242C36.0429 34.2913 36.0807 34.2421 36.1332 34.1814C36.1595 34.1502 36.1874 34.1173 36.2169 34.0779C36.2448 34.0385 36.2744 33.9975 36.3056 33.9532C36.2842 33.986 36.253 34.0303 36.2153 34.0812C36.1775 34.1321 36.1316 34.1863 36.0856 34.2421C36.0429 34.2979 35.992 34.357 35.9461 34.4062C35.8985 34.4555 35.8591 34.5031 35.8279 34.5441C35.818 34.5523 35.7803 34.595 35.731 34.6508C35.6834 34.7083 35.6145 34.769 35.557 34.8232C35.5176 34.8593 35.4832 34.9003 35.4405 34.9332L35.319 35.0366C35.2402 35.1105 35.1483 35.1679 35.058 35.2237C35.0416 35.227 35.2156 35.1318 35.3042 35.0481C35.3387 35.0153 35.3092 35.0366 35.2369 35.094C35.2008 35.1219 35.1499 35.1548 35.0892 35.1909C35.0285 35.227 34.9595 35.268 34.8889 35.3206C34.948 35.2795 34.8824 35.3304 34.8134 35.3747C34.779 35.3961 34.7412 35.4125 34.7231 35.4223C34.7067 35.4289 34.7084 35.4306 34.7461 35.4125C34.6263 35.4699 34.5229 35.5077 34.4047 35.5373C34.3456 35.552 34.2832 35.5635 34.2126 35.5766C34.1437 35.5898 34.0682 35.6095 33.9795 35.6308C34.1043 35.6029 34.06 35.6144 33.9976 35.6308C33.9336 35.6489 33.8499 35.6636 33.8991 35.6571C33.822 35.6702 33.7267 35.6866 33.643 35.7014C33.5593 35.7145 33.492 35.7359 33.4641 35.7457C33.4034 35.7572 33.3787 35.7589 33.4346 35.7375C33.3476 35.7638 33.2999 35.7736 33.272 35.7802C33.2458 35.7851 33.2376 35.7868 33.2294 35.79C33.2113 35.7933 33.1883 35.8048 32.9815 35.813C33.0472 35.8114 33.1112 35.8097 33.1752 35.8032C33.1112 35.8097 33.0603 35.813 33.0143 35.8163C32.9667 35.8212 32.9224 35.8196 32.8748 35.818C32.8256 35.8147 32.7714 35.8097 32.7057 35.8081C32.6401 35.8081 32.558 35.813 32.4513 35.818C32.4529 35.8196 32.4776 35.8196 32.4841 35.8196C32.4858 35.8196 32.4858 35.8212 32.4743 35.8212C32.4628 35.8229 32.4431 35.8245 32.4086 35.8262C32.4119 35.8262 32.4152 35.8245 32.4201 35.8245C32.4234 35.8245 32.4234 35.8245 32.4234 35.8245C32.425 35.8229 32.4135 35.8229 32.407 35.8229C32.4004 35.8245 32.3856 35.8278 32.3676 35.8344C32.3479 35.8426 32.3232 35.8557 32.2839 35.859C32.2527 35.859 32.2182 35.8557 32.1837 35.8491C32.1492 35.8426 32.1131 35.8344 32.0787 35.8327C32.0606 35.8311 32.0425 35.8327 32.0245 35.8344C32.0064 35.836 31.9851 35.8393 31.9638 35.8409C31.9227 35.8442 31.8833 35.8426 31.8423 35.8426C31.7602 35.8409 31.688 35.8393 31.6223 35.8508C31.5534 35.8623 31.4828 35.8606 31.4188 35.8541C31.3564 35.8475 31.294 35.8393 31.2366 35.8409C31.2136 35.8426 31.1873 35.8557 31.1561 35.8705C31.143 35.8754 31.1282 35.8803 31.1135 35.8836C31.1348 35.8787 31.1545 35.8705 31.1725 35.8623C31.1906 35.8541 31.2087 35.8459 31.2251 35.8426C31.2382 35.8393 31.2579 35.8409 31.276 35.8409C31.3137 35.8426 31.3449 35.8459 31.3695 35.8475C31.381 35.8475 31.3909 35.8491 31.3974 35.8491C31.404 35.8508 31.4073 35.8508 31.4073 35.8491C31.3515 35.8442 31.2973 35.8376 31.2431 35.8376C31.2218 35.8376 31.1988 35.8459 31.1742 35.8573C31.1496 35.8688 31.1217 35.882 31.0855 35.8853C31.0544 35.8869 31.0248 35.882 31.0002 35.882C30.9739 35.8803 30.9477 35.882 30.923 35.8869C30.8984 35.8935 30.8738 35.9017 30.8508 35.9132C30.8278 35.923 30.7983 35.9411 30.7884 35.946C30.7884 35.9493 30.7868 35.9558 30.7835 35.9624C30.7868 35.9542 30.7868 35.9509 30.7884 35.946C30.7934 35.9427 30.7983 35.9411 30.8032 35.9361C30.8114 35.9312 30.818 35.9279 30.8229 35.9246C30.818 35.9263 30.8114 35.9296 30.8032 35.9345C30.7966 35.9378 30.7917 35.9394 30.7851 35.9443C30.7851 35.9476 30.7835 35.9509 30.7819 35.9558C30.7802 35.9591 30.7769 35.969 30.7737 35.9755C30.7671 35.9903 30.7572 36.0034 30.7458 36.0166C30.7211 36.0396 30.6965 36.0576 30.6752 36.0773C30.6555 36.097 30.6391 36.1216 30.621 36.1413C30.6161 36.1463 30.6111 36.1512 30.6062 36.1561C30.6029 36.1594 30.5997 36.1627 30.5947 36.166C30.5882 36.1742 30.5832 36.1807 30.5783 36.1856C30.5849 36.1774 30.5931 36.1676 30.6029 36.1577C30.6144 36.1463 30.6276 36.1315 30.6391 36.1167C30.6505 36.1019 30.662 36.0872 30.6735 36.0757C30.685 36.0642 30.6998 36.0527 30.7113 36.0428C30.7359 36.0231 30.754 36.0018 30.7572 35.9952C30.7605 35.9887 30.754 36.0018 30.7228 36.0297C30.6965 36.051 30.6686 36.0707 30.6456 36.1003C30.6341 36.1151 30.621 36.1315 30.6046 36.1479C30.5898 36.161 30.5767 36.1758 30.5635 36.1922C30.5389 36.225 30.5127 36.2644 30.4798 36.2989C30.4486 36.3334 30.4142 36.3662 30.3797 36.399C30.3452 36.4319 30.3173 36.468 30.2828 36.5041C30.25 36.5386 30.2139 36.5698 30.1811 36.601C30.1121 36.6617 30.0629 36.7323 30.012 36.7947C30.076 36.7077 30.0366 36.752 30.1006 36.6666C30.0793 36.6912 30.0547 36.7241 30.0251 36.7618C30.0104 36.7799 29.9956 36.7996 29.9775 36.8176C29.9693 36.8275 29.9611 36.8373 29.9529 36.8472L29.9365 36.8636C29.9348 36.8636 29.9348 36.8652 29.9348 36.8652C29.9365 36.8652 29.9365 36.8652 29.9381 36.8652H29.9398C29.9447 36.8669 29.948 36.8669 29.9496 36.8685L29.9677 36.8505L29.9989 36.8144C30.0202 36.7897 30.0383 36.7667 30.058 36.7421C30.0957 36.6945 30.1335 36.6518 30.1712 36.6157C30.2106 36.5796 30.2484 36.5484 30.2779 36.5172C30.2927 36.5041 30.3042 36.4893 30.3157 36.4778C30.3042 36.491 30.2911 36.5057 30.2763 36.5189C30.25 36.5468 30.2188 36.5747 30.1893 36.6026C30.1285 36.6568 30.0777 36.7224 30.0383 36.7684C29.948 36.8833 30.0317 36.7848 30.1023 36.6978C30.1384 36.6568 30.1761 36.6223 30.1876 36.6124C30.1991 36.6042 30.1778 36.619 30.1154 36.6912C30.0859 36.7257 30.058 36.7618 30.0301 36.7947C30.0169 36.8127 30.0021 36.8291 29.9874 36.8455L29.966 36.8685L29.9578 36.8767C29.9595 36.9375 29.9595 36.9966 29.9595 37.0557C29.9595 37.0852 29.9611 37.1147 29.9611 37.1459C29.9611 37.1771 29.9578 37.2083 29.9545 37.2395C29.948 37.3035 29.9381 37.3675 29.9381 37.4348C29.9365 37.5038 29.9431 37.5777 29.9447 37.6597C29.9414 37.6105 29.9365 37.6614 29.9332 37.7664C29.9365 37.8354 29.948 37.9257 29.9414 38.0307C29.9381 38.0832 29.9348 38.1374 29.9332 38.1949C29.9299 38.2507 29.9299 38.3098 29.9299 38.3705C29.9283 38.4312 29.9266 38.4936 29.9266 38.5544C29.9299 38.6151 29.9414 38.6758 29.9496 38.7366C29.9726 38.8613 29.9348 38.9844 29.9463 39.0878C29.9398 39.0222 29.9463 38.9697 29.948 38.9286C29.9513 38.8859 29.9513 38.8548 29.948 38.8252C29.9447 38.7792 29.9365 38.7415 29.9266 38.6808C29.9316 38.7136 29.9348 38.7448 29.9381 38.7776C29.9381 38.7825 29.9398 38.7858 29.9398 38.7907C29.9398 38.794 29.9398 38.7973 29.9414 38.8022C29.9414 38.8055 29.9414 38.8088 29.9414 38.8121C29.9414 38.8154 29.9414 38.817 29.9414 38.8203C29.9414 38.8285 29.9431 38.8367 29.9431 38.8449C29.9431 38.8465 29.9431 38.8482 29.9431 38.8482C29.9414 38.881 29.9398 38.9138 29.9365 38.9467C29.9381 38.9352 29.9381 38.9237 29.9381 38.9122C29.9332 38.9729 29.925 39.0337 29.9316 39.0928C29.9545 39.1814 30.0087 39.2651 30.0218 39.3571C30.035 39.4473 30.0054 39.5425 30.0136 39.6345C30.0202 39.7264 30.0317 39.8167 30.0383 39.9086C30.0432 40.0005 30.0514 40.0925 30.0596 40.1827C30.0678 40.2763 30.0941 40.3649 30.1088 40.4552C30.1236 40.5472 30.1302 40.6407 30.1564 40.7277C30.1778 40.795 30.227 40.9066 30.2582 41.0068C30.2943 41.1184 30.314 41.2054 30.1876 41.23C30.1368 41.2432 29.9595 41.3023 29.9151 41.2776C29.9069 41.2481 29.902 41.2185 29.8971 41.1873C29.8922 41.166 29.8889 41.1463 29.8872 41.1299C29.8922 41.1693 29.8954 41.2021 29.9004 41.2267C29.9053 41.2514 29.9086 41.2694 29.9102 41.2776C29.9102 41.2842 29.9151 41.2842 29.9151 41.2842C29.9151 41.2842 29.9102 41.2858 29.9086 41.2793C29.9086 41.2809 29.9069 41.2743 29.9037 41.2661C29.9053 41.2694 29.9053 41.2743 29.9069 41.2793C29.9086 41.2842 29.9135 41.2858 29.9184 41.2875C29.9234 41.2891 29.9283 41.2891 29.9348 41.2908C29.9463 41.2924 29.9578 41.2908 29.9693 41.2908C29.9923 41.2875 30.0153 41.2842 30.0399 41.2776C30.0875 41.2678 30.1384 41.253 30.1893 41.2382C30.2123 41.2333 30.2385 41.2251 30.2582 41.2087C30.2796 41.1939 30.2911 41.166 30.2927 41.143C30.296 41.0921 30.2796 41.0495 30.2697 41.0117C30.2451 40.9346 30.2221 40.8771 30.2155 40.8558C30.25 40.9428 30.273 41.0101 30.2878 41.0609C30.3009 41.1118 30.3009 41.1529 30.2878 41.1824C30.2746 41.2103 30.2549 41.2218 30.2418 41.23C30.2254 41.2382 30.2123 41.2432 30.1909 41.2481H30.1926C30.1761 41.253 30.1515 41.2612 30.1138 41.2727C30.0957 41.2793 30.0727 41.2842 30.0465 41.2908C30.0317 41.294 30.0169 41.2973 30.0005 41.3006C29.9923 41.3023 29.9841 41.3039 29.9742 41.3055C29.9627 41.3055 29.9513 41.3072 29.9381 41.3055C29.9447 41.3072 29.9578 41.3072 29.9759 41.3055C29.9923 41.3055 30.0104 41.3023 30.0333 41.2973C30.076 41.2891 30.1335 41.2727 30.1942 41.2546L30.1926 41.2563C30.2172 41.2497 30.2451 41.2432 30.2714 41.2235C30.2976 41.2021 30.3108 41.166 30.3108 41.1348C30.3075 41.079 30.3009 41.0757 30.296 41.0544C30.2878 41.0347 30.2779 40.9986 30.2385 40.8984C30.2057 40.8049 30.1663 40.7179 30.1532 40.6194C30.145 40.5685 30.1384 40.5176 30.1302 40.4667C30.122 40.4142 30.1088 40.3633 30.099 40.3108C30.0744 40.209 30.0711 40.099 30.0596 39.9858C30.0497 39.8741 30.0399 39.7576 30.0301 39.6361C30.0317 39.6115 30.0383 39.6837 30.0465 39.7625C30.0497 39.8003 30.0547 39.8413 30.058 39.8725C30.0612 39.9037 30.0629 39.9234 30.0645 39.9234C30.0694 39.9874 30.0744 40.0481 30.0793 40.1072C30.0842 40.1663 30.0875 40.2221 30.099 40.2763C30.1105 40.3321 30.122 40.3846 30.1335 40.4372C30.1433 40.4897 30.1482 40.5406 30.1564 40.5898C30.1647 40.6391 30.1729 40.685 30.1876 40.7277C30.2024 40.7704 30.2205 40.8131 30.2369 40.8541C30.2533 40.8968 30.2697 40.9378 30.2828 40.9789C30.2976 41.0199 30.3108 41.0593 30.3173 41.1053C30.319 41.12 30.319 41.1381 30.3157 41.1562C30.3124 41.1742 30.3042 41.1923 30.2911 41.2087C30.2648 41.2399 30.227 41.2514 30.1942 41.2579C30.1532 41.2678 30.1088 41.2809 30.0612 41.2924C30.0383 41.2973 30.0136 41.3023 29.9874 41.3072C29.9775 41.3088 29.9562 41.3105 29.9398 41.3088C29.9299 41.3088 29.9217 41.3072 29.9135 41.3055C29.9069 41.3023 29.8954 41.3006 29.8922 41.294C29.8741 41.2267 29.8708 41.1923 29.8643 41.143C29.8577 41.0971 29.8511 41.0511 29.8413 41.0051C29.8232 40.9099 29.8052 40.8082 29.7838 40.7064C29.7608 40.6079 29.7165 40.5012 29.7132 40.3846C29.7116 40.3272 29.7132 40.2714 29.7083 40.2156C29.705 40.1614 29.6952 40.1039 29.687 40.0449C29.6755 39.9808 29.6689 39.9349 29.6656 39.9053C29.6607 39.8774 29.6591 39.8626 29.6574 39.861C29.6574 39.8561 29.6624 39.8905 29.6656 39.9316C29.6706 39.971 29.6755 40.0137 29.6755 40.0186C29.6771 40.0252 29.6689 39.9907 29.6541 39.8807C29.6591 39.8856 29.6509 39.8249 29.6328 39.7034C29.6279 39.6739 29.6246 39.6378 29.6213 39.6033C29.6164 39.5672 29.6098 39.5278 29.6033 39.4835C29.5951 39.4408 29.5885 39.3932 29.5852 39.3423C29.5836 39.3242 29.5836 39.3062 29.5836 39.2865C29.5852 39.3177 29.5852 39.3472 29.5885 39.3784C29.5951 39.4424 29.6098 39.5064 29.6197 39.5688C29.623 39.5918 29.6197 39.5803 29.623 39.6049C29.6312 39.7182 29.6558 39.8085 29.664 39.8676C29.6689 39.8971 29.6722 39.9201 29.6755 39.9365C29.6788 39.9529 29.6804 39.9595 29.6804 39.9595C29.6755 39.9201 29.6706 39.8741 29.6607 39.8232C29.6509 39.7724 29.6394 39.7165 29.6328 39.6591C29.623 39.5442 29.5901 39.4276 29.5901 39.3275C29.5901 39.3209 29.5918 39.3521 29.5967 39.3833C29.5983 39.3997 29.6 39.4162 29.6016 39.4276C29.6049 39.4391 29.6065 39.4473 29.6065 39.4473C29.5852 39.339 29.5983 39.211 29.5951 39.1043C29.5951 39.0977 29.5951 39.0911 29.5951 39.0846C29.5951 39.0796 29.5934 39.0731 29.5918 39.0665C29.5901 39.0534 29.5885 39.0402 29.5852 39.0288C29.5819 39.0058 29.5786 38.9828 29.5737 38.9631C29.5671 38.9221 29.5606 38.8909 29.5573 38.8728L29.5639 38.9221L29.5376 38.7612C29.531 38.707 29.5343 38.6512 29.536 38.597C29.5327 38.6331 29.5294 38.6824 29.5277 38.684C29.5261 38.684 29.5245 38.6725 29.5245 38.643C29.5245 38.6135 29.5294 38.5642 29.5294 38.4903C29.5294 38.359 29.49 38.2408 29.4867 38.1243C29.4818 38.0143 29.4588 37.9109 29.4588 37.8025L29.4654 37.819L29.467 37.8042H29.4736L29.4785 37.8025C29.4785 37.8025 29.4801 37.8025 29.4801 37.8009V37.7993L29.4769 37.7943C29.4736 37.7911 29.4654 37.7779 29.4604 37.7697C29.4539 37.7582 29.449 37.7484 29.4424 37.7385C29.4309 37.7172 29.4211 37.6975 29.4112 37.6761C29.3915 37.6351 29.3702 37.5924 29.3488 37.5497C29.3258 37.5071 29.3029 37.4611 29.2815 37.4135C29.2585 37.3659 29.2405 37.3117 29.2208 37.2592C29.2323 37.2887 29.2421 37.3183 29.2553 37.3495C29.2667 37.3807 29.2815 37.4102 29.2947 37.4398C29.2717 37.3905 29.2536 37.3429 29.2372 37.2904C29.2191 37.2379 29.1945 37.1804 29.1633 37.1016C29.1715 37.1312 29.1781 37.1541 29.1633 37.123C29.1551 37.1082 29.142 37.0786 29.1223 37.0294C29.101 36.9785 29.0796 36.903 29.055 36.8045C29.0468 36.7684 29.0369 36.7274 29.0222 36.6847C29.0074 36.6436 28.9844 36.5911 28.9664 36.5402C28.9467 36.4877 28.927 36.4319 28.904 36.3744C28.8826 36.3186 28.8547 36.2644 28.8235 36.2086C28.794 36.1528 28.7595 36.0921 28.73 36.0346C28.7136 36.0067 28.6955 35.9772 28.6807 35.9427L28.661 35.8967L28.6512 35.8754C28.6495 35.8688 28.643 35.8557 28.6463 35.8573C28.6463 35.8541 28.643 35.8541 28.6397 35.8524L28.6282 35.8442C28.6134 35.836 28.6003 35.8294 28.5872 35.8212C28.5625 35.8065 28.5297 35.79 28.5018 35.7703C28.446 35.731 28.4033 35.6866 28.3606 35.6522C28.3491 35.639 28.3672 35.6505 28.4017 35.6784C28.4361 35.7063 28.4854 35.7539 28.5527 35.7884C28.5822 35.8048 28.6118 35.8212 28.6397 35.836C28.6446 35.8393 28.6495 35.8409 28.6528 35.8442C28.6577 35.8442 28.6594 35.8491 28.6577 35.8541C28.6643 35.8656 28.6692 35.8787 28.6742 35.8885C28.6939 35.9361 28.7136 35.9706 28.7136 35.9657C28.6922 35.923 28.6824 35.8902 28.6692 35.8606L28.6643 35.8491C28.6676 35.8508 28.6676 35.8459 28.666 35.8442C28.666 35.8409 28.6643 35.8393 28.6627 35.8393L28.6561 35.8344C28.6463 35.8278 28.6364 35.8229 28.6266 35.818C28.6069 35.8048 28.5888 35.795 28.5724 35.7851C28.556 35.7753 28.5379 35.7654 28.5215 35.7539C28.487 35.731 28.4558 35.6998 28.4099 35.6587C28.3869 35.6374 28.3606 35.6128 28.3245 35.5898C28.2884 35.5684 28.2457 35.5438 28.1948 35.5143C28.1669 35.4979 28.1243 35.4749 28.0799 35.4486C28.034 35.424 27.9814 35.4043 27.9355 35.3846C27.8436 35.3485 27.7779 35.3124 27.8156 35.3353C27.9191 35.3879 28.0028 35.4125 28.0783 35.4519C28.1522 35.4946 28.2244 35.5356 28.3196 35.5881C28.313 35.5881 28.2162 35.534 28.1177 35.4765C28.0684 35.447 28.0176 35.424 27.9749 35.4059C27.9322 35.3895 27.901 35.3764 27.8912 35.3731C27.9617 35.4059 28.0323 35.4322 28.0963 35.4716C28.0208 35.4289 27.9765 35.4158 27.9486 35.4043C27.9207 35.3944 27.9092 35.3912 27.8961 35.3862C27.8846 35.3829 27.8682 35.378 27.8321 35.3616C27.7959 35.3452 27.7369 35.3124 27.6515 35.25C27.6269 35.2336 27.6023 35.2155 27.5776 35.1991C27.553 35.181 27.5317 35.1696 27.5054 35.1581C27.4529 35.1351 27.3921 35.1203 27.3347 35.0908C27.2657 35.0546 27.2362 35.0218 27.2181 35.0087C27.2001 34.9939 27.1968 34.9906 27.2017 34.9972C27.2083 35.0038 27.2313 35.0267 27.2559 35.0481C27.2083 35.0103 27.1673 34.9676 27.1246 34.9365C27.0737 34.902 27.0113 34.8757 26.9588 34.8478C26.9079 34.8248 26.8636 34.7953 26.8291 34.7756C26.857 34.7904 26.8767 34.8035 26.8931 34.8133C26.921 34.8281 26.9309 34.8314 26.9309 34.8298C26.9079 34.8183 26.8849 34.8051 26.8652 34.7904C26.8455 34.7772 26.8258 34.7657 26.8061 34.7542C26.7667 34.7329 26.729 34.7116 26.6929 34.6886C26.6173 34.641 26.5599 34.5885 26.5008 34.5343C26.4417 34.4801 26.3859 34.4145 26.3284 34.3472C26.3005 34.3127 26.2693 34.2831 26.2316 34.247C26.1938 34.2109 26.1528 34.1715 26.115 34.1206C26.1544 34.1732 26.202 34.2175 26.248 34.2602C26.2923 34.3012 26.3301 34.3439 26.3678 34.3898C26.4417 34.4801 26.5189 34.554 26.5714 34.595C26.6141 34.6295 26.5287 34.554 26.4811 34.5031C26.4581 34.4785 26.4433 34.4604 26.4532 34.4719C26.463 34.4801 26.4975 34.5195 26.5862 34.5967C26.5303 34.5474 26.4778 34.4965 26.4302 34.4407C26.381 34.3849 26.3383 34.3275 26.289 34.2766C26.2267 34.224 26.0428 34.0402 26.2513 34.2487C26.202 34.2043 26.1446 34.1535 26.1035 34.0878C26.0625 34.0271 26.0248 33.963 25.9919 33.9072C25.9279 33.7923 25.8754 33.707 25.8622 33.6938C25.8754 33.707 25.8393 33.6512 25.7818 33.5576C25.7539 33.51 25.7244 33.4525 25.6915 33.3902C25.6603 33.3278 25.6259 33.2605 25.5914 33.1948C25.5569 33.1374 25.5208 33.075 25.511 33.0569C25.5028 33.0421 25.5126 33.0701 25.5618 33.1571C25.5356 33.1127 25.5093 33.0651 25.488 33.0142C25.4601 32.9437 25.4404 32.8731 25.4223 32.8025L25.4437 32.8846C25.4338 32.8534 25.4256 32.8205 25.4174 32.7877C25.4108 32.7565 25.401 32.7237 25.3961 32.6876C25.3862 32.617 25.3895 32.5497 25.3862 32.4857C25.3878 32.5021 25.3895 32.5431 25.3895 32.5957C25.3911 32.6219 25.3928 32.6515 25.3977 32.6827C25.3993 32.6974 25.4026 32.7122 25.4059 32.7286C25.4092 32.7418 25.4125 32.7565 25.4158 32.7697C25.442 32.878 25.4699 32.9666 25.4584 32.919C25.4486 32.8829 25.4371 32.8435 25.4272 32.8041C25.4174 32.7647 25.4075 32.7286 25.401 32.6909C25.3911 32.6203 25.3944 32.5743 25.3944 32.5924C25.3928 32.5415 25.3928 32.4857 25.3862 32.4364C25.3796 32.3872 25.3632 32.3412 25.3485 32.3018C25.3189 32.223 25.3074 32.1705 25.3156 32.2148C25.3304 32.2706 25.3501 32.3182 25.3616 32.356C25.3731 32.3954 25.378 32.4249 25.378 32.4414C25.3714 32.3921 25.3567 32.3494 25.3435 32.3117C25.332 32.2756 25.3205 32.2427 25.3123 32.2132C25.2959 32.1541 25.2943 32.1114 25.291 32.0704C25.2861 32.0277 25.2828 31.9817 25.2795 31.9161C25.2779 31.8997 25.2779 31.8816 25.2762 31.8619C25.2746 31.8406 25.2746 31.8159 25.2779 31.7913C25.2828 31.7404 25.2992 31.6879 25.3041 31.6288C25.3025 31.6403 25.3008 31.6501 25.2992 31.6616C25.2976 31.6797 25.3074 31.6436 25.3074 31.5993C25.3074 31.5533 25.2943 31.4893 25.2828 31.4499C25.2565 31.3448 25.2631 31.3744 25.2729 31.4187C25.2844 31.463 25.2959 31.5188 25.2844 31.4745C25.2746 31.4367 25.2647 31.3974 25.2549 31.358C25.2467 31.3169 25.2368 31.2792 25.2385 31.2299C25.2401 31.1823 25.2549 31.1413 25.2631 31.1068C25.268 31.0887 25.2697 31.074 25.2713 31.0559C25.2729 31.0379 25.2729 31.0214 25.2729 31.0034C25.2713 31.0444 25.2697 31.0723 25.2647 31.092C25.2598 31.1134 25.2549 31.1298 25.2516 31.1429C25.2434 31.1692 25.2368 31.1856 25.2319 31.2283C25.2335 31.1872 25.2434 31.1528 25.2516 31.1249C25.2598 31.0953 25.2631 31.074 25.2647 31.0493C25.268 30.9985 25.2664 30.9509 25.2647 30.9082C25.2631 30.8868 25.2631 30.8655 25.2615 30.8458C25.2615 30.8245 25.2598 30.813 25.2565 30.7949C25.25 30.7621 25.2401 30.7276 25.2335 30.6931C25.2253 30.6587 25.2188 30.6193 25.2221 30.5815C25.2237 30.5454 25.2286 30.5093 25.2352 30.4699C25.2418 30.4321 25.25 30.3927 25.2549 30.3501C25.2582 30.3287 25.2598 30.3057 25.2598 30.2828C25.2598 30.2565 25.2647 30.2253 25.2697 30.1974C25.2811 30.1449 25.3025 30.0874 25.3156 30.0283C25.3238 29.9971 25.3271 29.9676 25.3255 29.9331C25.3238 29.9003 25.3173 29.8642 25.3123 29.8248C25.3074 29.7854 25.3041 29.7394 25.3074 29.6967C25.3091 29.6541 25.3156 29.6114 25.3205 29.5687C25.3238 29.549 25.3271 29.5277 25.3304 29.5063L25.337 29.4751C25.3386 29.4604 25.3435 29.4456 25.3501 29.4325C25.3649 29.4062 25.3813 29.3898 25.3944 29.375C25.4092 29.3602 25.419 29.3438 25.419 29.3405C25.4223 29.3307 25.419 29.329 25.4075 29.3061C25.401 29.2962 25.3961 29.288 25.3895 29.2699C25.3829 29.2535 25.3813 29.2338 25.3862 29.2174C25.3944 29.1862 25.4043 29.1698 25.4125 29.1485C25.4223 29.1288 25.4322 29.1107 25.4404 29.091C25.4765 29.0303 25.4617 28.9531 25.4896 28.8711C25.4699 28.9334 25.4732 28.9794 25.465 29.0204C25.4617 29.0418 25.4584 29.0566 25.4519 29.073C25.4437 29.0894 25.4355 29.1074 25.4272 29.1239C25.4174 29.1419 25.4092 29.16 25.401 29.178C25.3977 29.1879 25.3944 29.1977 25.3911 29.2076C25.3862 29.2207 25.3829 29.2371 25.3862 29.2519C25.3878 29.265 25.3961 29.2814 25.3993 29.2896L25.4141 29.3143L25.419 29.3258C25.419 29.3274 25.4207 29.329 25.4207 29.3307C25.4223 29.334 25.4223 29.3372 25.4207 29.3405C25.4207 29.3422 25.419 29.3455 25.4174 29.3471C25.4158 29.352 25.4125 29.3553 25.4075 29.3602C25.401 29.3701 25.3911 29.3799 25.3796 29.3931C25.3698 29.4046 25.3567 29.4193 25.3485 29.4407C25.3435 29.4505 25.3402 29.462 25.337 29.4735C25.3353 29.4817 25.3353 29.4899 25.3337 29.4981C25.3222 29.5671 25.3074 29.6442 25.3074 29.7443C25.3074 29.7181 25.3091 29.7312 25.3107 29.7558C25.3123 29.7805 25.3173 29.8166 25.3205 29.8396C25.3238 29.8625 25.3271 29.874 25.3238 29.851C25.3222 29.8396 25.3205 29.8199 25.3173 29.7854C25.3156 29.769 25.3156 29.7493 25.3156 29.7246C25.3173 29.7017 25.3189 29.6754 25.3222 29.6459C25.3271 29.5933 25.3353 29.5408 25.3435 29.4866C25.3452 29.4751 25.3501 29.4522 25.3583 29.4374C25.3665 29.421 25.378 29.4078 25.3878 29.398C25.3977 29.3865 25.4059 29.375 25.4141 29.3668C25.4174 29.3619 25.4207 29.3569 25.424 29.352C25.4256 29.3487 25.4272 29.3455 25.4289 29.3422C25.4305 29.3356 25.4289 29.329 25.4256 29.3241C25.424 29.3192 25.4158 29.3061 25.4108 29.2946C25.4075 29.288 25.4043 29.2831 25.401 29.2749C25.3961 29.2667 25.3928 29.2568 25.3928 29.247C25.3895 29.2289 25.3977 29.2076 25.401 29.1961C25.4207 29.1452 25.4502 29.0976 25.4634 29.0582C25.4765 29.0155 25.4765 28.963 25.4863 28.9088C25.4896 28.8957 25.4929 28.8809 25.4995 28.8661C25.506 28.8514 25.511 28.8415 25.5225 28.8251C25.5471 28.7939 25.5881 28.7841 25.6209 28.7726C25.6374 28.789 25.6554 28.8103 25.6685 28.8235C25.68 28.8333 25.6899 28.8432 25.7014 28.8546C25.7112 28.8645 25.7227 28.876 25.7342 28.8858L25.749 28.9022L25.7687 28.9236L25.7736 28.9334C25.7736 28.9351 25.7752 28.9367 25.7752 28.9384C25.7785 28.9416 25.7802 28.9449 25.7835 28.9482C25.7884 28.9548 25.7999 28.9663 25.8048 28.9728C25.8064 28.9761 25.8064 28.9778 25.8081 28.9794C25.8097 28.9794 25.8114 28.981 25.813 28.981C25.8294 28.9892 25.8409 29.0007 25.8491 29.0089L25.8606 29.0188C25.8655 29.0204 25.8737 29.0319 25.877 29.0352C25.8918 29.0516 25.9049 29.068 25.9197 29.0861C25.9476 29.1189 25.9755 29.1518 25.9985 29.1846C26.0477 29.2535 26.074 29.3159 26.1052 29.3569C26.097 29.3422 26.0838 29.3208 26.0691 29.2913C26.0527 29.2601 26.0313 29.2207 26.0034 29.1813C25.9755 29.1436 25.9427 29.1058 25.9131 29.073C25.8967 29.0549 25.8819 29.0369 25.8672 29.0204C25.8606 29.0155 25.8606 29.0139 25.8557 29.0106L25.8442 29.0007C25.8376 28.9942 25.8278 28.986 25.8146 28.9794C25.813 28.9778 25.8114 28.9778 25.8097 28.9761C25.8081 28.9745 25.8081 28.9728 25.8064 28.9712C25.7966 28.9564 25.7851 28.9449 25.7818 28.9384C25.7802 28.9351 25.7785 28.9334 25.7785 28.9302C25.7785 28.9302 25.7769 28.9269 25.7769 28.9252C25.7769 28.9236 25.7752 28.9219 25.7752 28.9203C25.7802 28.9302 25.7802 28.9318 25.7818 28.9334C25.7835 28.9367 25.7867 28.94 25.7884 28.9433L25.7982 28.9548L25.8048 28.963C25.8064 28.9646 25.8114 28.9696 25.8097 28.9696C25.8114 28.9696 25.8114 28.9712 25.813 28.9728C25.8146 28.9728 25.8163 28.9745 25.8163 28.9745C25.8409 28.9876 25.854 29.004 25.8639 29.0122C25.8655 29.0139 25.8737 29.0188 25.877 29.0254L25.8869 29.0369L25.9033 29.0566C25.9263 29.0828 25.9525 29.1124 25.9755 29.1419C26.0001 29.1731 26.0231 29.2059 26.0412 29.2388C26.0609 29.2716 26.0756 29.3028 26.0937 29.329C26.1101 29.3569 26.1265 29.3799 26.1429 29.3963C26.1594 29.4128 26.1791 29.4259 26.1971 29.4374C26.2349 29.4587 26.2628 29.4817 26.2661 29.4866C26.2644 29.485 26.271 29.4883 26.2825 29.4998C26.294 29.5096 26.3087 29.5277 26.3219 29.5506C26.3498 29.595 26.3678 29.6557 26.4056 29.6967C26.445 29.7411 26.5024 29.7837 26.5418 29.8313C26.5779 29.8773 26.6026 29.9101 26.6141 29.9233C26.5763 29.874 26.5566 29.8461 26.5418 29.8264C26.5254 29.81 26.5205 29.8051 26.5221 29.8051C26.5221 29.8034 26.5418 29.8215 26.5238 29.8018C26.5468 29.8231 26.5911 29.8888 26.6354 29.9479C26.6814 30.0086 26.7224 30.0677 26.7306 30.0759C26.7405 30.094 26.7158 30.0677 26.6961 30.0431C26.7552 30.1268 26.793 30.1777 26.8373 30.2352C26.8586 30.2631 26.8816 30.2943 26.9079 30.3304C26.9374 30.3681 26.9703 30.4108 27.0129 30.465C26.9522 30.3911 27.0097 30.46 27.0753 30.5585C27.1065 30.6078 27.1393 30.662 27.164 30.7046C27.1771 30.7243 27.1886 30.7424 27.1952 30.7555C27.2034 30.767 27.2083 30.7752 27.2083 30.7752C27.228 30.8031 27.2378 30.8146 27.2411 30.8195C27.246 30.8245 27.246 30.8228 27.2493 30.8261C27.2526 30.8294 27.2592 30.836 27.2739 30.8639C27.2887 30.8901 27.3084 30.9377 27.338 31.0132C27.3199 30.9689 27.2969 30.9147 27.292 30.9082C27.2904 30.9049 27.2936 30.9131 27.3035 30.941C27.315 30.9673 27.3298 31.0149 27.3609 31.0789C27.3577 31.0805 27.338 31.0428 27.3133 30.9788C27.3002 30.9476 27.2854 30.9098 27.2641 30.8704C27.2543 30.8507 27.2428 30.8294 27.2296 30.8097C27.2181 30.7916 27.205 30.7736 27.1935 30.7555C27.1459 30.6817 27.1016 30.6061 27.0655 30.5536C27.031 30.5011 27.0064 30.4715 27.0129 30.483C27.0343 30.5109 27.0671 30.5569 27.0967 30.6061C27.1279 30.6554 27.1607 30.7079 27.1886 30.7539C27.2034 30.7752 27.2165 30.7966 27.228 30.813C27.2395 30.831 27.2493 30.8474 27.2543 30.8589C27.2657 30.8803 27.2657 30.8819 27.2477 30.8524C27.2838 30.9147 27.3068 30.9804 27.3347 31.0411C27.3609 31.1117 27.4036 31.1757 27.4512 31.2381C27.4742 31.271 27.5005 31.3021 27.5267 31.3333C27.5546 31.3629 27.5842 31.399 27.6088 31.4351C27.6597 31.509 27.7024 31.591 27.7516 31.6748C27.8025 31.7601 27.8534 31.8521 27.9125 31.9489C28.0849 32.2263 28.0849 32.2115 27.9207 31.944C28.0143 32.0917 28.0356 32.1245 28.0586 32.1607C28.0701 32.1787 28.0799 32.1951 28.1013 32.228C28.1226 32.2608 28.1571 32.3068 28.208 32.3872C28.1948 32.3675 28.203 32.3806 28.2162 32.4052C28.231 32.4299 28.2474 32.466 28.2572 32.4873C28.4033 32.7795 28.295 32.5497 28.3869 32.7335C28.4148 32.7861 28.3853 32.7352 28.4509 32.8632C28.4788 32.9141 28.5067 32.9601 28.533 33.0126C28.5773 33.1226 28.5691 33.1078 28.5428 33.0454C28.5363 33.0307 28.5281 33.0126 28.5166 32.9913C28.5067 32.9732 28.4952 32.9519 28.4837 32.9305C28.4608 32.8862 28.4361 32.8402 28.4148 32.8008C28.4509 32.8714 28.4837 32.9355 28.5149 32.9929C28.5445 33.0553 28.5658 33.1127 28.5855 33.1669C28.5954 33.1932 28.6069 33.2178 28.6151 33.2424C28.6216 33.2539 28.6266 33.267 28.6315 33.2785C28.6364 33.29 28.6413 33.3031 28.6463 33.3146C28.666 33.3639 28.6824 33.4115 28.6971 33.4575C28.6873 33.4279 28.6709 33.3836 28.6577 33.3475C28.6446 33.3114 28.6315 33.2851 28.6364 33.2982C28.6643 33.3655 28.6824 33.423 28.6988 33.4722C28.7152 33.5215 28.73 33.5609 28.7464 33.5953C28.7776 33.6626 28.8038 33.7102 28.8268 33.7562C28.8711 33.8498 28.9138 33.9433 28.9434 34.1764C28.9352 34.0829 28.9187 33.986 28.8843 33.8842C28.8514 33.7808 28.7891 33.684 28.7415 33.5674C28.7283 33.5297 28.7185 33.4919 28.7086 33.4525C28.7218 33.4919 28.7398 33.551 28.7628 33.6003C28.7841 33.6512 28.8088 33.6971 28.8186 33.7119C28.7923 33.6561 28.7661 33.6035 28.7464 33.5494C28.7743 33.6249 28.8285 33.7168 28.8744 33.8334C28.9187 33.9499 28.9401 34.0829 28.9565 34.1994L28.9713 34.3422C28.9762 34.3915 28.9828 34.4374 28.991 34.4834C28.9877 34.4719 28.9811 34.4456 28.9746 34.4079C28.9696 34.3701 28.9631 34.3209 28.9549 34.2684C28.9483 34.2158 28.9401 34.1584 28.9319 34.1026C28.9237 34.0468 28.9122 33.9926 28.899 33.9483C28.9155 34.0189 28.9138 34.0205 28.9073 33.9926C28.9007 33.9647 28.8859 33.9056 28.8646 33.8531C28.8449 33.8022 28.8219 33.7595 28.8203 33.7546C28.8153 33.7496 28.835 33.7808 28.8728 33.8925C28.9138 34.0172 28.9253 34.1403 28.9401 34.247C28.9483 34.3012 28.9549 34.3537 28.9614 34.4013C28.968 34.4489 28.9795 34.4932 28.9893 34.5326C28.9778 34.4785 28.9664 34.4259 28.9598 34.3701C28.9762 34.4998 29.014 34.6114 29.032 34.7263C29.0517 34.8412 29.0534 34.9463 29.0681 35.0464C29.0813 35.1466 29.0927 35.2483 29.1059 35.3518C29.1108 35.4043 29.119 35.4585 29.1223 35.5143C29.1256 35.5701 29.1272 35.6275 29.1256 35.6866C29.1256 35.772 29.1289 35.726 29.1305 35.6538C29.1321 35.5799 29.1272 35.4782 29.1239 35.4535C29.1141 35.3633 29.0977 35.2254 29.0829 35.1088C29.0813 35.0793 29.0763 35.053 29.073 35.03C29.0698 35.0054 29.0681 34.9841 29.0665 34.9644C29.0648 34.9463 29.0648 34.9315 29.0632 34.92C29.0632 34.9102 29.0632 34.9036 29.0632 34.9036C29.0698 34.9972 29.0845 35.094 29.096 35.1975C29.1075 35.3025 29.1223 35.4026 29.1289 35.5061C29.1354 35.6062 29.1338 35.7014 29.1305 35.7818C29.1305 35.8459 29.1584 35.9115 29.1683 35.9657C29.1666 35.964 29.1683 35.9706 29.1732 36.0034C29.1748 36.0199 29.1748 36.0379 29.1748 36.056C29.1748 36.0609 29.1715 36.0757 29.1699 36.0773V36.079C29.1683 36.0806 29.1699 36.0822 29.1699 36.0839L29.1715 36.0855L29.1748 36.0954L29.1847 36.1167L29.2011 36.1594L29.183 36.1151C29.2175 36.2004 29.2536 36.312 29.3029 36.4089C29.3537 36.5074 29.4161 36.6059 29.4424 36.6863C29.4227 36.6239 29.3931 36.5681 29.3652 36.514C29.3899 36.5583 29.4145 36.6075 29.4358 36.66C29.4407 36.6732 29.4457 36.6863 29.4506 36.7011L29.4555 36.7175L29.4621 36.7438C29.467 36.7602 29.4719 36.7782 29.4769 36.7947L29.4818 36.8111L29.4834 36.8176C29.4834 36.8193 29.4834 36.8144 29.4834 36.8127C29.4851 36.7947 29.4884 36.7815 29.4884 36.7684L29.49 36.7602C29.49 36.7503 29.49 36.7405 29.49 36.7306C29.49 36.7126 29.49 36.6945 29.49 36.6781C29.49 36.642 29.49 36.6124 29.49 36.5862C29.4884 36.5238 29.49 36.4762 29.4966 36.4352C29.5015 36.3941 29.508 36.3613 29.5146 36.3285C29.5212 36.2956 29.5277 36.2612 29.5343 36.2185C29.5343 36.207 29.536 36.1971 29.5376 36.1856V36.1758C29.5376 36.1692 29.5392 36.1643 29.5392 36.161C29.5409 36.1545 29.5425 36.1463 29.5425 36.1397C29.5491 36.1085 29.5557 36.0757 29.5639 36.0379C29.5786 35.992 29.5754 36.0133 29.5622 36.0757C29.5557 36.1085 29.5458 36.1479 29.5425 36.1988C29.5392 36.2431 29.5277 36.294 29.5163 36.3482C29.5048 36.4023 29.4949 36.4663 29.4949 36.5254C29.4949 36.5829 29.4982 36.6387 29.4998 36.688C29.4998 36.7109 29.5015 36.7339 29.5015 36.7553C29.5015 36.7651 29.5015 36.7733 29.5015 36.7815C29.5015 36.7947 29.4998 36.8061 29.5015 36.8144C29.5031 36.7979 29.5048 36.7815 29.5048 36.7667C29.5048 36.7356 29.5048 36.6945 29.5031 36.6568C29.5015 36.5813 29.4966 36.5041 29.5097 36.4253C29.5212 36.3482 29.5409 36.2759 29.5491 36.207C29.554 36.1315 29.5754 36.0593 29.5901 35.9903C29.5983 35.9542 29.6065 35.9197 29.6131 35.8869C29.618 35.8541 29.6213 35.8212 29.6246 35.7868C29.6279 35.7523 29.6295 35.7162 29.6344 35.6801C29.6377 35.6456 29.6459 35.6078 29.6541 35.575C29.6689 35.5077 29.6837 35.442 29.6968 35.378C29.705 35.3468 29.7116 35.3156 29.7182 35.2845C29.7247 35.2533 29.7297 35.2237 29.7362 35.1925C29.7198 35.2746 29.7264 35.2303 29.7329 35.1909C29.7395 35.1499 29.7444 35.1137 29.7231 35.2155C29.7313 35.1794 29.7395 35.1318 29.751 35.0809C29.7641 35.0267 29.7805 34.9759 29.7953 34.9266C29.8232 34.8281 29.8462 34.7444 29.8528 34.7313C29.8265 34.8183 29.8052 34.8987 29.7838 34.9791C29.7773 35.0005 29.7723 35.0202 29.7674 35.0399C29.7625 35.0596 29.7576 35.0793 29.7526 35.099C29.7444 35.14 29.7395 35.1778 29.7329 35.2122C29.7231 35.2828 29.7067 35.3436 29.6968 35.3994C29.6853 35.4535 29.6755 35.4995 29.6689 35.5323C29.705 35.3797 29.7214 35.3058 29.7297 35.2713C29.7379 35.2369 29.7379 35.2401 29.7379 35.2451C29.7379 35.2483 29.7379 35.2516 29.7444 35.2155C29.7477 35.1958 29.7543 35.1679 29.7625 35.1236C29.7674 35.1023 29.7723 35.076 29.7805 35.0448C29.7904 35.0169 29.7986 34.9824 29.8101 34.9447C29.8364 34.8527 29.8281 34.8774 29.8249 34.8856C29.8216 34.8889 29.8216 34.8872 29.8281 34.8642C29.8314 34.8527 29.8364 34.8363 29.8429 34.8117C29.8495 34.7871 29.8577 34.7542 29.8725 34.7099C29.8692 34.7214 29.8577 34.7493 29.8446 34.792C29.8314 34.8363 29.8134 34.8971 29.792 34.9775C29.7641 35.0645 29.7986 34.9365 29.8364 34.8035C29.8446 34.7707 29.8561 34.7346 29.8659 34.7034C29.8774 34.6722 29.8872 34.6443 29.8954 34.6229C29.9119 34.5819 29.9168 34.5638 29.9037 34.5934C29.9201 34.5507 29.9332 34.5146 29.9447 34.4719C29.9578 34.4309 29.9726 34.3915 29.9857 34.3554C30.012 34.2799 30.0333 34.2158 30.0481 34.1551C30.0629 34.0944 30.0744 34.0402 30.0859 33.9926C30.099 33.9466 30.1121 33.9089 30.122 33.8826C30.2024 33.6495 30.1105 33.8925 30.0957 33.9351C30.1171 33.8563 30.1466 33.7858 30.1679 33.7168C30.1794 33.6807 30.186 33.6479 30.1909 33.6101C30.1958 33.574 30.1991 33.5362 30.2041 33.4952C30.2073 33.4558 30.2123 33.4148 30.2238 33.3721C30.2352 33.3294 30.2484 33.2917 30.2631 33.2555C30.2763 33.2178 30.2894 33.1833 30.2976 33.1488C30.3058 33.1193 30.3108 33.0766 30.3173 33.0389C30.3239 33.0011 30.3354 32.942 30.3485 32.8665C30.3419 32.8599 30.3337 32.8534 30.3255 32.8452C30.3108 32.8304 30.2943 32.814 30.2796 32.7992C30.2533 32.7713 30.2172 32.7401 30.1827 32.7089C30.1466 32.6777 30.1072 32.6433 30.0694 32.6071C30.0514 32.5891 30.0317 32.5694 30.0136 32.5497C30.0038 32.5382 29.9939 32.5284 29.9857 32.5169C29.9742 32.5037 29.9644 32.489 29.9562 32.4725C29.9414 32.443 29.9348 32.4151 29.9266 32.3938C29.9168 32.3741 29.9086 32.3576 29.8987 32.3494C29.8938 32.3445 29.8872 32.3412 29.8757 32.333C29.8643 32.3264 29.8478 32.3166 29.8347 32.3018C29.8265 32.2953 29.8216 32.2887 29.8167 32.2821C29.8117 32.2772 29.8068 32.2706 29.8019 32.2641C29.7937 32.2526 29.7855 32.2394 29.7773 32.228C29.7198 32.1245 29.6985 32.0261 29.6574 31.9571C29.6886 32.0064 29.71 32.0687 29.7379 32.1344C29.751 32.1672 29.7674 32.2017 29.7887 32.2345C29.7986 32.2526 29.8117 32.269 29.8249 32.2838C29.8396 32.3035 29.8643 32.3215 29.879 32.3297C29.8954 32.3379 29.902 32.3445 29.9102 32.3527C29.9168 32.3609 29.9234 32.3724 29.9283 32.3872C29.9414 32.4151 29.9496 32.4611 29.9824 32.5054C30.0383 32.576 30.1006 32.6301 30.1679 32.6892C30.1121 32.6433 30.0136 32.5481 30.0924 32.6252C30.1466 32.6761 30.1958 32.7171 30.2418 32.7565C30.2533 32.768 30.2648 32.7779 30.273 32.7861L30.3058 32.8189C30.3157 32.8304 30.3272 32.8402 30.3403 32.8517L30.3534 32.8649C30.3485 32.8977 30.3419 32.9322 30.3354 32.9683V33.0044C30.3255 33.0569 30.3206 33.0914 30.3157 33.1127C30.3124 33.1341 30.3091 33.1423 30.3091 33.1439C30.3075 33.1472 30.3124 33.1226 30.3157 33.0947C30.319 33.0684 30.3222 33.0438 30.319 33.0569C30.319 33.0635 30.3157 33.0783 30.3108 33.1078C30.3058 33.1357 30.296 33.1702 30.2746 33.2276C30.25 33.2949 30.2287 33.354 30.2205 33.4016C30.2106 33.4492 30.209 33.4821 30.2073 33.5133C30.2024 33.5707 30.2057 33.615 30.1844 33.702C30.2106 33.6167 30.2106 33.5428 30.2221 33.464C30.227 33.4246 30.2352 33.3819 30.25 33.3393C30.2631 33.2982 30.2812 33.2555 30.2976 33.2096C30.3009 33.1965 30.3075 33.1784 30.3124 33.1571C30.3157 33.1456 30.3173 33.1341 30.3206 33.1209C30.3222 33.1062 30.3239 33.0898 30.3272 33.0733C30.3354 33.0142 30.3469 32.942 30.36 32.8632L30.3551 32.8583L30.3354 32.8419C30.3222 32.8288 30.3075 32.814 30.2943 32.8008L30.2746 32.7811L30.2566 32.7614L30.2139 32.7237C30.1564 32.6728 30.0974 32.6203 30.0448 32.5661C30.1318 32.6564 30.25 32.7467 30.3058 32.8074C30.3354 32.8386 30.3633 32.8616 30.3584 32.8567C30.3584 32.8567 30.3584 32.8567 30.3584 32.855C30.3584 32.855 30.3584 32.855 30.3567 32.855C30.3551 32.8534 30.3534 32.8501 30.3501 32.8484C30.3403 32.8386 30.3255 32.8222 30.3042 32.8008C30.2139 32.7073 30.099 32.6252 30.0054 32.5169C29.9939 32.5054 29.9792 32.484 29.9693 32.466C29.9611 32.4479 29.9545 32.4299 29.9496 32.4134C29.9381 32.3823 29.9266 32.356 29.9119 32.3412C29.9037 32.333 29.8938 32.3281 29.8774 32.3182C29.8741 32.3166 29.8725 32.3133 29.8692 32.3117C29.8725 32.3133 29.8757 32.3166 29.879 32.3182C29.9102 32.3363 29.9201 32.3445 29.9332 32.3724C29.9463 32.3987 29.9545 32.4315 29.971 32.466C29.9792 32.4824 29.989 32.4988 30.0005 32.5103C30.0087 32.5218 30.0186 32.5316 30.0251 32.5398C30.0415 32.5563 30.053 32.5678 30.0596 32.5727C30.0711 32.5842 30.0563 32.571 30.0071 32.5152C29.9972 32.5037 29.9841 32.4857 29.9759 32.4693C29.9677 32.4545 29.9611 32.4381 29.9562 32.4217C29.9447 32.3921 29.9365 32.3658 29.9217 32.3478C29.9151 32.3396 29.9086 32.333 29.8971 32.3248C29.8872 32.3182 29.8708 32.31 29.8544 32.2953C29.838 32.2805 29.8281 32.2674 29.8167 32.2526C29.8068 32.2394 29.7986 32.2247 29.7887 32.2099C29.7559 32.1508 29.7362 32.0901 29.7149 32.0375C29.6919 31.985 29.6706 31.9407 29.6394 31.9046C29.5474 31.7815 29.5671 31.811 29.5918 31.8521C29.618 31.8931 29.6509 31.9407 29.5852 31.8537C29.6016 31.8734 29.5294 31.7815 29.4687 31.66C29.4391 31.6009 29.4096 31.5385 29.3866 31.4811C29.362 31.4253 29.3472 31.3744 29.339 31.3514C29.3226 31.2857 29.3176 31.2595 29.3045 31.2135C29.2963 31.1889 29.2881 31.1643 29.27 31.1232C29.2503 31.0789 29.2274 31.0214 29.2027 30.9443C29.1289 30.7424 29.1863 30.9115 29.1814 30.9C29.1748 30.8819 29.1683 30.8622 29.1617 30.8425C29.1551 30.8228 29.1469 30.8064 29.1371 30.7736C29.1223 30.7161 29.1272 30.6603 29.1272 30.6094C29.1289 30.5832 29.1289 30.5585 29.1272 30.5356C29.1256 30.5093 29.1239 30.483 29.1223 30.4551C29.1174 30.401 29.1141 30.3451 29.1092 30.291C29.1042 30.2384 29.096 30.1843 29.0878 30.1285C29.0845 30.1006 29.0813 30.0743 29.0796 30.0464C29.0796 30.0316 29.0796 30.0185 29.078 30.0053C29.078 29.9922 29.078 29.9807 29.0763 29.9692C29.0698 29.8904 29.0566 29.8051 29.0616 29.7329C29.0616 29.7394 29.0599 29.7394 29.0599 29.7329C29.0599 29.7214 29.0632 29.6885 29.0698 29.6475C29.0747 29.6065 29.0862 29.5572 29.0944 29.5113C29.1042 29.4653 29.1075 29.4242 29.1092 29.3881C29.1092 29.4078 29.1124 29.3832 29.1157 29.3405C29.119 29.2979 29.1223 29.2371 29.1305 29.1895C29.1404 29.1403 29.1535 29.1091 29.1486 29.1271C29.1436 29.1436 29.1256 29.2158 29.1239 29.3537C29.1223 29.3652 29.119 29.4144 29.1207 29.3307C29.119 29.4095 29.1124 29.4784 29.0993 29.5392C29.0878 29.5983 29.0796 29.6459 29.0796 29.6573C29.0927 29.5802 29.1124 29.508 29.1207 29.4423C29.1289 29.3766 29.1289 29.3077 29.1354 29.2437C29.1404 29.2109 29.1436 29.1813 29.1518 29.1501C29.16 29.1206 29.1715 29.0943 29.1814 29.073C29.2027 29.027 29.2208 28.9942 29.2339 28.9712C29.1945 29.05 29.165 29.1091 29.1518 29.1682C29.1387 29.2256 29.1354 29.2765 29.1321 29.3422C29.1289 29.4538 29.1157 29.4965 29.1157 29.508C29.1141 29.5195 29.1207 29.4916 29.1272 29.4554C29.1387 29.3849 29.142 29.2617 29.142 29.3159C29.1469 29.2617 29.1469 29.1895 29.1748 29.1124C29.2027 29.0401 29.2454 28.9745 29.2667 28.9121C29.2897 28.853 29.2963 28.7923 29.3012 28.7529C29.3061 28.7118 29.3094 28.6905 29.3094 28.7036C29.3176 28.6248 29.3373 28.5592 29.3554 28.5149C29.3734 28.4689 29.3849 28.441 29.3915 28.4246C29.4014 28.3934 29.3899 28.4114 29.3554 28.4837C29.3718 28.4426 29.3931 28.3999 29.4096 28.3556C29.4178 28.3326 29.4243 28.3097 29.4293 28.285C29.4342 28.2604 29.4391 28.2342 29.4424 28.2079C29.4522 28.1537 29.4604 28.0963 29.4752 28.0372C29.49 27.9846 29.4982 27.9272 29.5146 27.8697C29.5228 27.8418 29.5327 27.8123 29.5442 27.786C29.554 27.7598 29.5639 27.7351 29.5737 27.7121C29.5934 27.6629 29.6115 27.6186 29.6279 27.5759C29.6361 27.5562 29.6427 27.5365 29.6509 27.5168C29.6574 27.4971 29.664 27.4791 29.6706 27.461C29.6821 27.4282 29.6919 27.3986 29.7001 27.3756C29.7116 27.3445 29.7231 27.31 29.7329 27.2722C29.7379 27.2525 29.7428 27.2345 29.7461 27.2148C29.751 27.1934 29.7543 27.1705 29.7592 27.1475C29.7789 27.0572 29.8101 26.9653 29.8331 26.8865C29.8528 26.8077 29.8626 26.7272 29.8807 26.6649C29.9004 26.6008 29.9184 26.5631 29.9234 26.5516C29.9086 26.591 29.8938 26.632 29.8823 26.6731C29.8725 26.7141 29.8659 26.7535 29.8577 26.7929C29.8511 26.8323 29.8429 26.8701 29.8331 26.9078C29.8216 26.9472 29.8101 26.9882 29.797 27.0326C29.8068 26.9997 29.8167 26.9669 29.8281 26.9324C29.838 26.8996 29.8462 26.8668 29.8544 26.8307C29.8675 26.7617 29.879 26.6829 29.9053 26.6107C29.9299 26.5385 29.9578 26.4761 29.9759 26.4203C29.9857 26.3924 29.9923 26.3661 29.9989 26.3415C30.0054 26.3152 30.012 26.2922 30.0169 26.2709C30.0301 26.2249 30.0432 26.1888 30.0612 26.1396C30.0793 26.0887 30.1072 26.023 30.1597 25.9278C30.1433 25.9475 30.1679 25.9032 30.209 25.8178C30.227 25.7686 30.2615 25.7095 30.2927 25.6455C30.3075 25.6143 30.3222 25.5815 30.3321 25.5454C30.3452 25.5043 30.3584 25.4616 30.3731 25.4173C30.3945 25.3517 30.4125 25.2958 30.4289 25.245C30.4454 25.1973 30.4568 25.1563 30.4683 25.1169C30.4897 25.0398 30.5094 24.979 30.5291 24.9281C30.5471 24.8871 30.557 24.8444 30.5734 24.8001C30.5767 24.7886 30.5816 24.7755 30.5849 24.764C30.5882 24.7574 30.5898 24.7541 30.5947 24.7443C30.5997 24.7344 30.6029 24.7246 30.6095 24.7131C30.6325 24.6688 30.6653 24.6425 30.7064 24.6113C30.7228 24.6294 30.7392 24.6491 30.7589 24.6704C30.7687 24.6819 30.7786 24.6934 30.7868 24.7049C30.7917 24.7115 30.7966 24.718 30.8016 24.7246L30.8098 24.7361C30.8311 24.7689 30.8541 24.8083 30.8721 24.8543C30.859 24.8182 30.8426 24.782 30.8229 24.7476C30.8705 24.8231 30.8935 24.9002 30.9099 24.9577C30.9181 24.9872 30.9263 25.0119 30.9362 25.0332C30.9444 25.0562 30.9542 25.071 30.9657 25.0874C31.015 25.153 31.079 25.1973 31.1315 25.2647C31.1446 25.2811 31.1578 25.3008 31.1693 25.3205C31.1791 25.3385 31.189 25.3582 31.1972 25.3779C31.2152 25.4173 31.2333 25.46 31.2513 25.5076C31.2694 25.5519 31.2924 25.6094 31.3154 25.6701C31.3268 25.6997 31.34 25.7308 31.3548 25.7637C31.3695 25.7949 31.3892 25.8244 31.4138 25.8572C31.4335 25.8802 31.4549 25.9032 31.4762 25.9278C31.5107 25.9689 31.5452 26.0115 31.5747 26.0591C31.6059 26.1084 31.6272 26.156 31.6502 26.2036C31.6716 26.2528 31.6913 26.3037 31.7126 26.353C31.7225 26.3792 31.7339 26.4039 31.7454 26.4301C31.7569 26.4547 31.7717 26.4876 31.7832 26.5188C31.7668 26.4777 31.7553 26.4564 31.7454 26.4383C31.7372 26.4203 31.7274 26.4022 31.711 26.3661C31.7225 26.394 31.7356 26.4219 31.7487 26.4515C31.7635 26.4827 31.7766 26.5138 31.7881 26.5434C31.8095 26.6058 31.8292 26.6665 31.8521 26.7223C31.8374 26.6862 31.8259 26.6583 31.8292 26.6731C31.8341 26.6878 31.8472 26.742 31.9145 26.8602C31.8948 26.8274 31.8685 26.7814 31.8489 26.7371C31.8275 26.6911 31.8095 26.6435 31.798 26.6107C31.7717 26.5417 31.7668 26.5368 31.8242 26.6977C31.8193 26.6747 31.8357 26.7272 31.8784 26.8044C31.9194 26.8799 31.9884 26.9866 32.0343 27.0867C32.0032 27.0293 31.9917 27.0063 31.9933 27.0112C31.9949 27.0161 32.0097 27.0441 32.0278 27.0851C32.0672 27.1655 32.1279 27.2903 32.1575 27.351C32.2428 27.5217 32.1279 27.2837 32.1016 27.2279C32.164 27.3494 32.2231 27.4725 32.2822 27.5972C32.2445 27.5217 32.2724 27.5775 32.3101 27.6596C32.3462 27.7417 32.3938 27.8451 32.4004 27.8632C32.4086 27.8796 32.4185 27.8976 32.4283 27.9173C32.4365 27.937 32.4447 27.9584 32.4529 27.9797C32.4693 28.0224 32.4841 28.0634 32.494 28.093C32.5153 28.1504 32.5219 28.1619 32.4874 28.0388C32.4743 28.0043 32.4611 27.9699 32.4447 27.9354C32.4037 27.8336 32.3577 27.7351 32.315 27.635C32.3512 27.7121 32.3873 27.7893 32.4217 27.8648C32.4398 27.9009 32.4562 27.9403 32.4693 27.9814C32.4825 28.0208 32.4956 28.0602 32.5071 28.0979C32.5186 28.1357 32.5301 28.1734 32.5432 28.2095L32.5842 28.3228C32.5974 28.3605 32.6105 28.3983 32.6236 28.4393L32.6417 28.4984C32.6466 28.5165 32.6532 28.5362 32.6598 28.5542C32.6844 28.6314 32.7156 28.7102 32.7336 28.8005C32.7533 28.899 32.7402 28.9876 32.75 29.068C32.7632 29.1616 32.7681 29.2568 32.7747 29.352C32.7763 29.4522 32.7829 29.5556 32.7812 29.6623C32.7779 29.7854 32.7747 29.7608 32.773 29.7755C32.773 29.7837 32.7714 29.8018 32.7714 29.8527C32.7697 29.8773 32.7697 29.9101 32.7681 29.9528C32.7665 29.9971 32.7681 30.053 32.7632 30.1252C32.7582 30.1695 32.7566 30.2171 32.7566 30.2286C32.7566 30.2352 32.7582 30.2319 32.7599 30.2122C32.7615 30.1974 32.7648 30.1761 32.7681 30.14C32.7681 30.1449 32.7681 30.1482 32.7665 30.1514L32.7615 30.199C32.7599 30.2319 32.7566 30.2647 32.7533 30.2975C32.7484 30.3632 32.7386 30.4354 32.7205 30.5044C32.7041 30.5717 32.686 30.6406 32.663 30.7128C32.6417 30.7834 32.6187 30.854 32.5974 30.9328C32.5793 30.987 32.5646 31.0214 32.5629 31.0198C32.5613 31.0182 32.5646 31.0083 32.5711 30.987C32.5777 30.9656 32.5875 30.9328 32.6023 30.8868C32.5941 30.9147 32.5744 30.9771 32.5481 31.0428C32.5202 31.1101 32.4792 31.179 32.4496 31.2234C32.4102 31.2857 32.3758 31.3366 32.3512 31.3809C32.3249 31.4253 32.3052 31.4663 32.2871 31.5008C32.251 31.573 32.2198 31.6255 32.187 31.6764C32.1525 31.7273 32.1164 31.7765 32.0622 31.8438C32.0294 31.8816 31.9884 31.9144 31.9424 31.9473C31.9211 31.9653 31.8981 31.9817 31.8784 32.0014C31.8587 32.0211 31.8406 32.0457 31.8177 32.0786C31.8571 32.0261 31.8374 32.0572 31.8341 32.0638C31.8308 32.0671 31.8341 32.0654 31.8472 32.0474C31.8636 32.0261 31.8817 31.9998 31.9523 31.9489C31.99 31.9194 32.0327 31.8882 32.0688 31.8438C32.1 31.8061 32.1295 31.7667 32.1591 31.7257C32.2133 31.6518 32.1689 31.7174 32.1295 31.77C32.0902 31.8209 32.0622 31.8619 32.1575 31.7404C32.1279 31.7798 32.0984 31.8176 32.0655 31.8553C32.0278 31.8964 31.9867 31.9259 31.9523 31.9522C31.9162 31.9784 31.8866 32.0014 31.8669 32.0261C31.8456 32.0507 31.8259 32.0835 31.8029 32.1131C31.816 32.0934 31.798 32.1213 31.7651 32.1508C31.7339 32.1787 31.7028 32.2001 31.7093 32.1951C31.6141 32.2674 31.5993 32.2756 31.5796 32.2903C31.5698 32.2969 31.5583 32.3051 31.5353 32.3199C31.514 32.3363 31.4746 32.3593 31.4237 32.3954C31.4007 32.4118 31.445 32.3741 31.5222 32.3232C31.5993 32.2739 31.7011 32.2066 31.7586 32.1524C31.7684 32.1426 31.7701 32.1393 31.7651 32.1442C31.7618 32.1475 31.7569 32.1508 31.7504 32.1557C31.7454 32.1607 31.7389 32.1656 31.7307 32.1721C31.6978 32.1984 31.6437 32.2378 31.5813 32.2788C31.5222 32.3182 31.45 32.3609 31.3991 32.402C31.3449 32.4463 31.3006 32.4955 31.2694 32.5251C31.2497 32.5464 31.2579 32.5415 31.2481 32.5546C31.2431 32.5612 31.2333 32.5727 31.2103 32.594C31.1988 32.6039 31.1857 32.617 31.166 32.6334C31.1479 32.6482 31.1282 32.6646 31.1036 32.6859C31.0872 32.6974 31.0461 32.7303 30.9936 32.7779C30.9674 32.8008 30.9378 32.8271 30.9066 32.855C30.8902 32.8681 30.8738 32.8829 30.8574 32.8961C30.8475 32.9043 30.8393 32.9108 30.8278 32.919L30.818 32.924C30.818 32.9256 30.818 32.9272 30.818 32.9289L30.8147 32.9469C30.8131 32.965 30.8098 32.9814 30.8065 32.9978C30.8016 33.0307 30.7934 33.0618 30.7868 33.0898C30.7802 33.1177 30.7737 33.1439 30.7687 33.1669C30.7638 33.1915 30.7589 33.2145 30.754 33.2326C30.7392 33.2982 30.7228 33.359 30.7178 33.3819C30.7129 33.4033 30.7178 33.3869 30.7458 33.2933C30.7261 33.3639 30.7031 33.4394 30.6932 33.4968C30.6801 33.5527 30.6735 33.5921 30.6752 33.5789C30.6719 33.6035 30.667 33.6315 30.662 33.6643C30.6571 33.6955 30.6505 33.7316 30.644 33.7693C30.6308 33.8432 30.6226 33.9286 30.6046 34.0156C30.5849 34.1026 30.557 34.1797 30.5422 34.2437C30.5258 34.3078 30.5159 34.3652 30.511 34.3964C30.5127 34.3783 30.4995 34.4407 30.4815 34.5244C30.4716 34.5688 30.4618 34.6114 30.4536 34.6574C30.447 34.7034 30.4404 34.7493 30.4322 34.7838C30.4224 34.8511 30.4027 34.9381 30.3797 35.0415C30.3748 35.0678 30.3682 35.0957 30.3633 35.1219C30.3551 35.1515 30.3469 35.1794 30.3387 35.2089C30.319 35.2648 30.2993 35.3206 30.2845 35.3747C30.2533 35.4913 30.2221 35.6062 30.1942 35.7063C30.1647 35.8097 30.1384 35.8918 30.1269 35.9493C30.1285 35.9279 30.1712 35.7786 30.1761 35.7539C30.1761 35.7539 30.1745 35.7589 30.1729 35.7654C30.1712 35.7736 30.1663 35.7835 30.163 35.7966C30.1548 35.8229 30.1433 35.859 30.1335 35.8984C30.1121 35.9788 30.0875 36.0773 30.0694 36.1479L30.0777 36.1118L30.0481 36.2283L30.0432 36.2431L30.0383 36.2776C30.0383 36.2891 30.0383 36.2989 30.0383 36.3055C30.035 36.3153 30.0399 36.3071 30.0383 36.3088C30.0465 36.2989 30.0481 36.3006 30.0432 36.3088C30.0399 36.317 30.0301 36.335 30.0251 36.3432C30.0218 36.3498 30.0202 36.3547 30.0218 36.3514C30.0202 36.3547 30.035 36.335 30.0891 36.271C30.0974 36.2595 30.1056 36.248 30.1138 36.2382C30.1236 36.225 30.1318 36.2136 30.14 36.2021C30.1581 36.1791 30.1745 36.1594 30.1893 36.143C30.2188 36.1101 30.2418 36.0872 30.2582 36.0707C30.2746 36.0527 30.2861 36.0412 30.2927 36.0346C30.296 36.0297 30.2993 36.0281 30.3009 36.0248C30.3025 36.0231 30.3025 36.0231 30.3025 36.0215C30.3042 36.0182 30.3042 36.0182 30.3042 36.0116C30.3042 36.01 30.3042 36.0084 30.3042 36.0067C30.3042 36.0084 30.3042 35.992 30.3075 35.9788C30.3108 35.9657 30.3239 35.9476 30.3321 35.9378C30.3419 35.9263 30.3534 35.9132 30.3666 35.9017C30.3781 35.8935 30.383 35.8869 30.3961 35.877C30.406 35.8672 30.4174 35.8573 30.4273 35.8491C30.4503 35.8327 30.4716 35.818 30.4897 35.8032C30.5258 35.772 30.5668 35.7326 30.6095 35.6998C30.6095 35.6981 30.6177 35.6899 30.6341 35.6751C30.6423 35.6686 30.6522 35.662 30.662 35.6538C30.6752 35.6439 30.6883 35.6341 30.7031 35.6259C30.7326 35.6078 30.7655 35.5931 30.7983 35.5766L30.8098 35.5701C30.8131 35.5684 30.8147 35.5668 30.818 35.5635C30.8229 35.5602 30.8295 35.5553 30.836 35.5487L30.8574 35.529C30.8623 35.5258 30.8672 35.5225 30.8721 35.5192C30.8771 35.5159 30.8754 35.5159 30.8787 35.5143C30.9099 35.4667 30.9395 35.424 30.9559 35.3994C30.9739 35.3715 30.9788 35.3633 30.9624 35.3846C30.9772 35.3633 30.9903 35.3436 31.0018 35.3255C31.015 35.3091 31.0265 35.2943 31.0379 35.2812C31.0593 35.2549 31.0757 35.2336 31.0905 35.2188C31.1151 35.1876 31.1282 35.1728 31.1381 35.1613C31.1479 35.1499 31.1545 35.1433 31.1676 35.1252C31.1808 35.1072 31.2005 35.0776 31.2382 35.0218C31.2612 34.9824 31.2875 34.9447 31.3137 34.9036C31.3268 34.8839 31.34 34.8642 31.3548 34.8429C31.3679 34.8232 31.381 34.8019 31.3942 34.7805C31.4221 34.7346 31.4483 34.6853 31.4894 34.6344C31.532 34.5852 31.5829 34.5441 31.6305 34.4965C31.6059 34.5212 31.5517 34.5704 31.5435 34.5802C31.5993 34.5277 31.6502 34.485 31.6847 34.4391C31.7192 34.3898 31.7438 34.3373 31.7717 34.2864C31.798 34.2372 31.8308 34.1879 31.8702 34.1518C31.9079 34.1141 31.9457 34.0845 31.9769 34.0533C31.9933 34.0369 32.0081 34.0221 32.0212 34.0041L32.0639 33.9499C32.0934 33.9154 32.123 33.8793 32.1525 33.8416C32.21 33.7726 32.2674 33.6938 32.3495 33.6183C32.2953 33.6708 32.1919 33.8005 32.21 33.7825C32.2477 33.7365 32.2921 33.6774 32.3479 33.6232C32.4037 33.5724 32.4595 33.5198 32.5087 33.4739C32.558 33.4263 32.6056 33.3918 32.6335 33.3672C32.663 33.3442 32.6745 33.3327 32.6614 33.3409C32.7468 33.2752 32.7106 33.3064 32.6959 33.3196C32.6893 33.3261 32.686 33.3278 32.7074 33.3114C32.7189 33.3032 32.7353 33.2884 32.7582 33.2687C32.7812 33.249 32.8091 33.2161 32.8518 33.1784C32.8108 33.2161 32.7697 33.2654 32.7189 33.3081C32.668 33.3508 32.6122 33.3934 32.5662 33.4328C32.576 33.4263 32.6483 33.3705 32.7156 33.3163C32.75 33.2884 32.7796 33.2605 32.8026 33.2375C32.8256 33.2145 32.842 33.1997 32.842 33.1997C32.8141 33.226 32.7829 33.2588 32.7582 33.2835C32.732 33.3081 32.7106 33.3245 32.7123 33.3261C32.7747 33.2769 32.8173 33.2244 32.8699 33.1784C32.9273 33.1324 32.993 33.1144 33.0504 33.075C33.0898 33.0487 33.0718 33.0602 33.034 33.0815C32.9996 33.1012 32.9355 33.1259 32.8978 33.1488C32.9454 33.1193 32.9815 33.1078 33.0127 33.0914C33.0455 33.0766 33.0767 33.0536 33.1276 33.0192L33.1145 33.0208C33.2441 32.9338 33.2917 32.9158 33.3393 32.8878C33.364 32.8747 33.3902 32.8567 33.4313 32.8238C33.4723 32.7943 33.5281 32.745 33.625 32.6958C33.561 32.7303 33.5724 32.727 33.5298 32.7549C33.5954 32.7122 33.6857 32.6712 33.7826 32.6252C33.8302 32.6022 33.881 32.576 33.9336 32.5546C33.9877 32.5333 34.0419 32.5152 34.0944 32.4988C34.1979 32.466 34.2832 32.397 34.3751 32.3724C34.4605 32.3478 34.5294 32.3297 34.5672 32.3199C34.4063 32.3675 34.4851 32.3478 34.5803 32.3215C34.605 32.315 34.6296 32.3084 34.6509 32.3035C34.6739 32.2985 34.6936 32.2953 34.7084 32.292C34.7363 32.2871 34.7396 32.2871 34.6887 32.3002C34.7822 32.2772 34.8774 32.2591 34.9661 32.2394C35.0547 32.2181 35.1384 32.1886 35.2205 32.1672C35.3026 32.1426 35.3847 32.1344 35.4602 32.1377C35.5341 32.1393 35.6014 32.1475 35.6621 32.1475C35.7655 32.1492 35.8443 32.1377 35.9083 32.136C35.9723 32.1328 36.0232 32.136 36.0708 32.1311C36.1184 32.1295 36.166 32.1229 36.2235 32.1147C36.2809 32.1081 36.3499 32.0884 36.4435 32.0983C36.4828 32.1032 36.519 32.1081 36.5501 32.1114C36.5961 32.1147 36.6404 32.1163 36.688 32.1098C36.8161 32.0884 36.8932 32.0654 37.0081 32.095C37.1329 32.1278 37.1969 32.1639 37.192 32.3248C37.1903 32.3412 37.1871 32.3576 37.1838 32.3741C37.1821 32.3773 37.1821 32.3806 37.1805 32.3839ZM28.6824 35.8426C28.6791 35.8442 28.6791 35.8442 28.6824 35.8426V35.8426ZM29.9414 37.0458L29.9381 36.8751C29.9381 36.8734 29.9381 36.8718 29.9381 36.8702C29.9381 36.8685 29.9381 36.8685 29.9381 36.8669V36.8685L29.9348 36.8669C29.9332 36.8636 29.9316 36.8636 29.9316 36.8636C29.9316 36.862 29.9332 36.8636 29.9348 36.8669C29.9348 36.8685 29.9332 36.8718 29.9332 36.8751C29.9365 37.0376 29.9414 37.2017 29.9398 37.2165C29.9447 37.1591 29.9414 37.1016 29.9414 37.0458ZM29.9496 37.1082C29.9496 37.0376 29.948 36.9588 29.9463 36.8784C29.9447 36.8751 29.9414 36.8734 29.9398 36.8702C29.9398 36.8718 29.9381 36.8734 29.9398 36.8751C29.9431 36.9112 29.9463 36.9194 29.9496 37.1082ZM29.9595 36.8702C29.9611 36.8702 29.9627 36.8702 29.9595 36.8702V36.8702ZM29.9398 36.8652V36.8669C29.9398 36.8685 29.9398 36.8685 29.9398 36.8702C29.9447 36.8751 29.9496 36.88 29.9431 36.8751H29.9447V36.8734L29.948 36.8718V36.8669L29.9398 36.8652ZM29.9381 36.8652C29.9381 36.8652 29.9381 36.8652 29.9365 36.8652C29.9348 36.8652 29.9348 36.8652 29.9348 36.8652C29.9348 36.8669 29.9348 36.8669 29.9348 36.8669L29.9381 36.8685V36.8669C29.9381 36.8669 29.9398 36.8669 29.9381 36.8652C29.9398 36.8669 29.9398 36.8669 29.9398 36.8669V36.8652H29.9381ZM29.9348 36.8652C29.9348 36.8652 29.9348 36.8652 29.9348 36.8636C29.9332 36.8636 29.9332 36.8636 29.9316 36.8636H29.9332C29.9332 36.8636 29.9332 36.8636 29.9348 36.8636C29.9348 36.8636 29.9348 36.8636 29.9348 36.8652ZM34.6181 35.4552C34.6164 35.4552 34.6066 35.4568 34.5951 35.4617C34.5574 35.4749 34.5196 35.488 34.4818 35.5011C34.4424 35.5126 34.4014 35.5225 34.3604 35.5323L34.3653 35.534C34.2947 35.5471 34.234 35.5586 34.1798 35.5701C34.1256 35.5816 34.0764 35.5963 34.0239 35.6095C34.1125 35.5881 34.1617 35.5783 34.2176 35.5684C34.2717 35.5586 34.3325 35.5504 34.4375 35.5225C34.5097 35.5011 34.5557 35.4831 34.582 35.4732C34.6099 35.4617 34.6181 35.4568 34.6181 35.4552ZM35.1746 35.1302C35.1762 35.1302 35.1778 35.1285 35.1795 35.1269C35.168 35.1351 35.1549 35.1433 35.1434 35.1515C35.1532 35.1449 35.1647 35.1384 35.1746 35.1302ZM35.452 34.9053C35.429 34.925 35.4077 34.9447 35.3847 34.9644C35.406 34.9463 35.429 34.9266 35.452 34.9053ZM35.5587 34.8051C35.5258 34.8363 35.493 34.8675 35.4585 34.8987C35.4914 34.8692 35.5242 34.838 35.5587 34.8051ZM35.9379 34.3882L35.8968 34.4325C35.9477 34.3751 35.9773 34.3406 36.0002 34.311C35.951 34.3685 35.8985 34.4227 35.8492 34.4801C35.7868 34.554 35.7294 34.6295 35.6637 34.6984C35.6309 34.7329 35.5981 34.7657 35.5652 34.7986C35.603 34.7625 35.6424 34.7231 35.6851 34.6787C35.6851 34.6787 35.6785 34.6869 35.6703 34.6968C35.6588 34.7083 35.6457 34.7214 35.6342 34.7346C35.6079 34.7608 35.5849 34.7838 35.5948 34.7772C35.7245 34.6607 35.818 34.5129 35.9379 34.3882ZM29.7904 32.2214C29.7822 32.2083 29.774 32.1935 29.7674 32.1804C29.7723 32.1902 29.7805 32.205 29.7904 32.2214ZM29.9348 36.8636C29.9348 36.8652 29.9348 36.8652 29.9348 36.8652C29.9348 36.8636 29.9332 36.8636 29.9332 36.8636C29.9332 36.8636 29.9332 36.8636 29.9348 36.8636ZM25.5618 33.1587C25.5701 33.1735 25.5799 33.1899 25.5914 33.2079C25.5815 33.1915 25.5717 33.1751 25.5618 33.1587ZM30.0957 33.9351C30.0941 33.9384 30.0941 33.9401 30.0941 33.9401C30.0941 33.9384 30.0957 33.9368 30.0957 33.9351ZM26.8176 34.7674C26.8225 34.7707 26.8258 34.7723 26.8291 34.7756C26.8275 34.7739 26.8242 34.7723 26.8209 34.7707C26.8192 34.769 26.8192 34.769 26.8176 34.7674ZM26.8176 34.7674C26.7963 34.7559 26.7716 34.7411 26.7405 34.7247C26.7552 34.7329 26.7831 34.7477 26.8176 34.7674ZM29.8019 32.2411C29.8084 32.2493 29.815 32.2575 29.8232 32.2674C29.8134 32.2559 29.8068 32.246 29.7986 32.2345C29.8002 32.2362 29.8019 32.2378 29.8019 32.2411ZM29.1732 35.9936C29.1715 35.9854 29.1715 35.9788 29.1699 35.9739C29.1683 35.969 29.1683 35.9657 29.1683 35.9657C29.1748 35.9969 29.1765 36.0281 29.1765 36.0428C29.1781 36.0281 29.1765 36.0084 29.1732 35.9936ZM26.7257 30.0661C26.729 30.0726 26.729 30.0743 26.7306 30.0759C26.7339 30.0809 26.7339 30.0792 26.7257 30.0661ZM36.0758 34.2454L36.125 34.1846C36.1069 34.206 36.0954 34.2224 36.0758 34.2454ZM36.1496 34.1535C36.1398 34.1666 36.1316 34.1764 36.125 34.1846L36.1496 34.1535Z" fill="white"/>
</mask>
<g mask="url(#mask8_47_24)">
<path d="M25.2188 24.6113V41.3104H37.1936V24.6113H25.2188Z" fill="#013B23"/>
</g>
</g>
</svg>
