<svg width="1440" height="1024" viewBox="0 0 1440 1024" fill="none" xmlns="http://www.w3.org/2000/svg">
<g clip-path="url(#clip0_387_2)">
<path d="M1440 0H-9V1025H1440V0Z" fill="white"/>
<path opacity="0.24" d="M-9 1089V474C112.227 491.846 233.453 509.692 320.044 493.931C406.634 478.169 458.588 428.799 556.261 422.75C653.933 416.701 797.324 453.974 889.078 452.171C980.832 450.369 1020.95 409.49 1104.16 406.616C1187.38 403.741 1313.69 438.871 1440 474V1089H-9Z" fill="#27A348"/>
<path opacity="0.36" d="M-9 1025V615C80.9197 644.144 170.84 673.289 267.216 687.13C363.592 700.971 466.424 699.509 571.355 667.199C676.285 634.89 783.314 571.733 874.739 550.463C966.165 529.193 1041.99 549.809 1133.6 567.546C1225.21 585.284 1332.6 600.142 1440 615V1025H-9Z" fill="#27A348"/>
<path opacity="0.48" d="M-9 1025V820C74.81 840.952 158.62 861.905 267.97 863.657C377.321 865.41 512.211 847.964 619.655 853.218C727.098 858.472 807.095 886.426 900.398 894.028C993.702 901.629 1100.31 888.878 1192.46 873.148C1284.61 857.418 1362.31 838.709 1440 820V1025H-9Z" fill="#27A348"/>
</g>
<defs>
<clipPath id="clip0_387_2">
<rect width="1449" height="1025" fill="white" transform="translate(-9)"/>
</clipPath>
</defs>
</svg>
