<svg width="895" height="497" viewBox="0 0 895 497" fill="none" xmlns="http://www.w3.org/2000/svg">
<path d="M440.233 496.485C683.015 496.485 879.83 474.495 879.83 447.37C879.83 420.245 683.015 398.255 440.233 398.255C197.45 398.255 0.635742 420.245 0.635742 447.37C0.635742 474.495 197.45 496.485 440.233 496.485Z" fill="#39B66F"/>
<g opacity="0.6">
<path d="M653.884 341.217C653.884 341.217 700.613 144.414 753.515 159.106C806.417 173.797 692.996 284.041 681.207 341.762L653.884 341.217Z" fill="#ACC9C5"/>
</g>
<path d="M657.666 303.261C657.666 303.261 776.443 155.157 824.109 190.802C871.774 226.447 717.774 271.367 684.858 315.642L657.666 303.261Z" fill="#CCD39C"/>
<path d="M672.816 310.321C694.992 279.331 729.55 253.549 754.635 237.379C781.83 219.848 804.047 209.529 804.268 209.427L803.63 208.045C803.408 208.147 781.094 218.511 753.81 236.099C728.614 252.341 693.894 278.249 671.579 309.434L672.816 310.321Z" fill="#C2C68E"/>
<path d="M846.917 386.228C819.129 390.737 821.515 432.587 790.608 423.226C759.7 413.847 753.738 414.183 746.628 424.796C746.628 424.796 740.075 437.64 727.507 439.173C677.921 445.223 614.548 369.006 667.907 331.632C671.76 328.933 677.207 328.102 683.221 327.48C715.844 324.125 725.149 339.514 752.638 302.7C780.136 265.876 811.869 322.399 833.671 321.612C855.472 320.824 874.937 315.316 890.641 339.208C906.346 363.119 874.707 381.739 846.917 386.228Z" fill="#ACC9C5"/>
<g opacity="0.5">
<path d="M680.791 385.341L679.839 383.753C680.539 383.333 751.528 341.795 894.194 345.945L894.14 347.797C752.01 343.663 681.488 384.924 680.791 385.341Z" fill="#68A1BF"/>
<path d="M772.335 334.947C754.427 317.037 751.825 303.429 751.723 302.859L753.545 302.531C753.569 302.666 756.195 316.185 773.644 333.637L772.335 334.947Z" fill="#68A1BF"/>
<path d="M774.543 355.074C769.751 345.487 770.955 332.096 778.023 316.351C783.316 304.559 790.11 295.451 790.178 295.361L791.659 296.472C791.393 296.827 765.182 332.201 776.199 354.248L774.543 355.074Z" fill="#68A1BF"/>
<path d="M812.213 353.827C810.074 351.837 808.929 350.556 808.877 350.497L810.267 349.274C810.505 349.546 834.651 376.491 872.329 377.333L872.288 379.184C841.928 378.506 820.18 361.242 812.213 353.827Z" fill="#68A1BF"/>
<path d="M828.446 397.573C820.364 387.54 818.417 377.836 818.207 371.462C817.978 364.525 819.662 360.008 819.733 359.819L821.465 360.477C821.399 360.651 815.091 378.042 829.889 396.412L828.446 397.573Z" fill="#68A1BF"/>
</g>
<g opacity="0.6">
<path d="M815.507 275.015C823.097 275.201 825.295 277.668 825.223 280.645C825.15 283.621 822.834 285.978 815.244 285.793C801.418 285.455 794.867 279.904 794.867 279.904C794.867 279.904 801.48 274.673 815.507 275.015Z" fill="#ACC9C5"/>
</g>
<g opacity="0.6">
<path d="M802.742 256.184C807.836 251.177 810.942 251.307 812.903 253.305C814.865 255.302 814.94 258.411 809.846 263.418C800.566 272.539 792.53 273.331 792.53 273.331C792.53 273.331 793.328 265.438 802.742 256.184Z" fill="#ACC9C5"/>
</g>
<g opacity="0.6">
<path d="M677.041 44.1568C677.041 44.1568 668.002 26.7642 645.129 28.9433C622.257 31.1228 624.98 48.5571 614.088 46.9224C603.196 45.2878 587.948 46.9224 584.681 57.8188C581.413 68.7153 566.709 62.7224 566.165 71.9842C565.62 81.2464 583.047 87.7841 603.196 79.6117C623.346 71.4393 633.148 85.9605 661.467 83.3308C689.785 80.7011 693.293 77.4322 710.055 79.0668C726.817 80.7015 726.419 69.2198 718.794 61.5918C711.17 53.9643 680.308 54.6908 677.041 44.1568Z" fill="white"/>
</g>
<g opacity="0.4">
<path d="M555.114 10.1643C555.114 10.1643 549.367 -0.893365 534.826 0.491904C520.285 1.87758 522.016 12.9618 515.091 11.9226C508.167 10.8835 498.473 11.9226 496.395 18.8502C494.318 25.7777 484.97 21.9676 484.624 27.8561C484.277 33.7445 495.357 37.9011 508.167 32.7053C520.977 27.5095 527.209 36.7415 545.213 35.0697C563.217 33.398 565.447 31.3196 576.104 32.3588C586.76 33.398 586.507 26.0982 581.66 21.2489C576.812 16.3996 557.192 16.8613 555.114 10.1643Z" fill="white"/>
</g>
<g opacity="0.6">
<path d="M325.22 43.3127C325.22 43.3127 313.897 23.6912 293.181 26.9152C272.464 30.1392 292.721 38.9851 265.559 43.3127C238.398 47.6404 232.413 56.8515 244.843 64.2207C257.272 71.5899 277.528 50.8644 299.625 60.9967C321.723 71.1291 351.275 62.4734 325.22 43.3127Z" fill="white"/>
</g>
<path d="M222.869 117.02C217.769 121.635 214.787 121.387 212.979 119.387C211.17 117.387 211.222 114.393 216.321 109.778C225.611 101.372 233.375 100.929 233.375 100.929C233.375 100.929 232.294 108.491 222.869 117.02Z" fill="#ACC9C5"/>
<path d="M252.489 274.891L251.196 275.044C251.172 274.845 248.687 254.791 236.075 227.278C224.437 201.892 201.551 164.78 158.606 132.145L159.393 131.108C202.575 163.923 225.583 201.252 237.281 226.789C249.966 254.476 252.465 274.689 252.489 274.891Z" fill="#ACC9C5"/>
<path d="M203.974 174.312L202.758 173.848C219.636 129.679 194.783 85.4575 194.53 85.0159L195.659 84.3682C195.914 84.8147 221.076 129.556 203.974 174.312Z" fill="#ACC9C5"/>
<path d="M180.495 157.607C167.551 160.293 156.424 155.839 156.297 155.786L156.79 154.582C156.931 154.64 171.186 160.328 185.97 154.653L186.437 155.868C184.437 156.636 182.445 157.203 180.495 157.607Z" fill="#ACC9C5"/>
<path d="M156.282 125.213C164.286 129.899 165.563 133.179 164.202 135.506C162.84 137.834 159.356 138.326 151.352 133.641C136.772 125.104 132.19 116.765 132.19 116.765C132.19 116.765 141.489 116.552 156.282 125.213Z" fill="#ACC9C5"/>
<path d="M158.86 150.955C167.904 153.009 170.11 155.751 169.514 158.381C168.917 161.01 165.744 162.531 156.7 160.478C140.226 156.737 133.344 150.168 133.344 150.168C133.344 150.168 142.146 147.16 158.86 150.955Z" fill="#ACC9C5"/>
<path d="M189.32 134.594C192.215 140.834 191.094 143.611 188.649 144.746C186.205 145.881 183.362 144.946 180.466 138.705C175.192 127.338 177.07 119.788 177.07 119.788C177.07 119.788 183.969 123.061 189.32 134.594Z" fill="#ACC9C5"/>
<path d="M197.275 78.6458C201.222 87.041 200.419 90.4687 197.98 91.6164C195.541 92.7642 192.39 91.1973 188.443 82.8024C181.252 67.5093 182.193 58.0398 182.193 58.0398C182.193 58.0398 189.979 63.1299 197.275 78.6458Z" fill="#ACC9C5"/>
<path d="M287.033 384.589C287.033 384.589 238.174 174.972 181.819 190.373C125.463 205.773 245.666 323.577 257.957 385.048L287.033 384.589Z" fill="#ACC9C5"/>
<path d="M253.451 346.457C253.451 346.457 160.386 183.89 108.467 211.319C56.5475 238.748 199.756 306.152 225.051 354.352L253.451 346.457Z" fill="#92BCB5"/>
<path d="M237.603 351.013C220.74 317.408 191.01 286.98 169.039 267.371C145.221 246.114 125.149 232.649 124.949 232.515L125.783 231.266C125.984 231.4 146.143 244.923 170.039 266.25C192.107 285.946 221.975 316.522 238.945 350.339L237.603 351.013Z" fill="#68A1BF"/>
<path d="M53.195 345.771C80.5714 357.341 67.6722 399.67 101.711 397.794C130.543 396.19 133.305 394.085 141.357 403.859C143.986 407.05 146.217 410.594 147.803 414.412C149.77 419.15 154.111 426.781 162.45 429.924C211.799 448.523 295.834 386.189 250.438 334.518C247.16 330.787 241.782 328.573 235.768 326.431C203.144 314.836 189.758 328.294 170.757 283.663C151.749 239.02 105.084 289.064 82.9193 282.806C60.7547 276.549 42.165 266.034 20.091 286.614C-1.98925 307.213 25.8132 334.22 53.195 345.771Z" fill="#CCD39C"/>
<path d="M223.81 386.386L225.183 384.994C224.57 384.388 162.132 324.039 14.764 292.635L14.3564 294.548C161.171 325.836 223.2 385.784 223.81 386.386Z" fill="#C2C68E"/>
<path d="M142.501 311.815C165.34 297.921 171.409 284.614 171.655 284.055L169.868 283.263C169.81 283.395 163.741 296.605 141.484 310.144L142.501 311.815Z" fill="#C2C68E"/>
<path d="M135.209 331.908C142.518 323.271 144.627 309.236 141.31 291.319C138.825 277.902 134.132 266.861 134.084 266.752L132.289 267.521C132.473 267.952 150.522 310.787 133.716 330.646L135.209 331.908Z" fill="#C2C68E"/>
<path d="M96.883 321.212C99.5731 319.705 101.068 318.678 101.136 318.631L100.016 317.029C99.7029 317.248 68.2079 338.85 29.3515 330.295L28.9321 332.204C60.2419 339.097 86.8595 326.827 96.883 321.212Z" fill="#C2C68E"/>
<path d="M69.3069 362.025C80.1022 353.754 84.523 344.287 86.3303 337.802C88.2976 330.743 87.6987 325.69 87.6725 325.478L85.7322 325.72C85.7559 325.915 87.8835 345.33 68.1177 360.472L69.3069 362.025Z" fill="#C2C68E"/>
<path d="M688.38 433.488L241.198 428.355C231.625 428.245 223.922 420.45 223.922 410.872V137.815C223.922 128.263 231.584 120.479 241.131 120.333L682.544 113.571C692.161 113.424 700.09 121.078 700.284 130.699L706.053 415.652C706.253 425.523 698.248 433.601 688.38 433.488Z" fill="#C8C8C8"/>
<path d="M673.658 379.333H251.05C245.874 379.333 241.677 375.135 241.677 369.956V150.452C241.677 145.273 245.874 141.075 251.05 141.075H673.658C678.835 141.075 683.031 145.273 683.031 150.452V369.956C683.031 375.135 678.835 379.333 673.658 379.333Z" fill="#A9CAEC"/>
<path d="M234.588 393.921L107.861 433.499L817.687 434.53L705.613 393.921H234.588Z" fill="#C8C8C8"/>
<path d="M101.632 439.341V446.552C101.632 449.779 104.417 452.395 107.852 452.395H811.625C818.152 452.395 823.53 447.583 823.849 441.46L823.891 440.658C824.064 437.327 821.238 434.535 817.688 434.53L107.862 433.499C104.422 433.494 101.632 436.111 101.632 439.341Z" fill="#737373"/>
<path d="M459.011 130.514C459.662 127.757 457.955 124.994 455.2 124.343C452.444 123.692 449.682 125.399 449.031 128.157C448.381 130.914 450.087 133.676 452.843 134.327C455.599 134.979 458.361 133.271 459.011 130.514Z" fill="#331832"/>
<path d="M537.93 358.532H276.391C269.395 358.532 263.724 352.859 263.724 345.86V174.715C263.724 167.716 269.395 162.042 276.391 162.042H537.93C544.926 162.042 550.597 167.716 550.597 174.715V345.86C550.597 352.859 544.925 358.532 537.93 358.532Z" fill="#366F90"/>
<path d="M655.15 358.532H572.807C568.738 358.532 565.438 355.232 565.438 351.16V169.414C565.438 165.343 568.737 162.042 572.807 162.042H655.15C659.219 162.042 662.518 165.343 662.518 169.414V351.16C662.518 355.232 659.22 358.532 655.15 358.532Z" fill="#366F90"/>
<path d="M374.233 175.544H277.386V180.837H374.233V175.544Z" fill="#EF8062"/>
<path d="M382.419 217.96H277.386V223.253H382.419V217.96Z" fill="#8FB3E3"/>
<path d="M348.903 264.947H277.386V270.239H348.903V264.947Z" fill="#EF8062"/>
<path d="M427.037 264.947H355.521V270.239H427.037V264.947Z" fill="#8FB3E3"/>
<path d="M396.849 315.817H291.816V321.109H396.849V315.817Z" fill="#5C305D"/>
<path d="M431.16 328.698H326.128V333.991H431.16V328.698Z" fill="#92BCB5"/>
<path d="M390.318 277.761H320.723V283.054H390.318V277.761Z" fill="#92BCB5"/>
<path d="M444.05 277.761H397.811V283.054H444.05V277.761Z" fill="#92BCB5"/>
<path d="M412.281 288.867H352.557V294.16H412.281V288.867Z" fill="#92BCB5"/>
<path d="M373.588 232.586H322.765V237.878H373.588V232.586Z" fill="#92BCB5"/>
<path d="M427.677 243.717H342.285V249.01H427.677V243.717Z" fill="#8FB3E3"/>
<path d="M422.013 232.586H381.576V237.878H422.013V232.586Z" fill="#92BCB5"/>
<path d="M617.514 175.544H580.056V178.191H617.514V175.544Z" fill="#5C305D"/>
<path d="M604.229 191.422H580.056V194.069H604.229V191.422Z" fill="#92BCB5"/>
<path d="M636.559 191.422H608.343V194.069H636.559V191.422Z" fill="#92BCB5"/>
<path d="M647.901 175.544H625.217V178.191H647.901V175.544Z" fill="#92BCB5"/>
<path d="M634.025 183.483H580.056V186.13H634.025V183.483Z" fill="#92BCB5"/>
<path d="M617.514 211.344H580.056V213.991H617.514V211.344Z" fill="#EF8062"/>
<path d="M604.229 227.222H580.056V229.869H604.229V227.222Z" fill="#92BCB5"/>
<path d="M636.559 227.222H608.343V229.869H636.559V227.222Z" fill="#92BCB5"/>
<path d="M647.901 211.344H625.217V213.991H647.901V211.344Z" fill="#92BCB5"/>
<path d="M634.025 219.283H580.056V221.93H634.025V219.283Z" fill="#92BCB5"/>
<path d="M617.514 247.144H580.056V249.791H617.514V247.144Z" fill="#8FB3E3"/>
<path d="M604.229 263.022H580.056V265.669H604.229V263.022Z" fill="#92BCB5"/>
<path d="M636.559 263.022H608.343V265.669H636.559V263.022Z" fill="#92BCB5"/>
<path d="M647.901 247.144H625.217V249.791H647.901V247.144Z" fill="#92BCB5"/>
<path d="M634.025 255.083H580.056V257.73H634.025V255.083Z" fill="#92BCB5"/>
<path d="M617.514 282.251H580.056V284.898H617.514V282.251Z" fill="#EF8062"/>
<path d="M604.229 298.129H580.056V300.776H604.229V298.129Z" fill="#92BCB5"/>
<path d="M636.559 298.129H608.343V300.776H636.559V298.129Z" fill="#92BCB5"/>
<path d="M647.901 282.251H625.217V284.898H647.901V282.251Z" fill="#92BCB5"/>
<path d="M634.025 290.19H580.056V292.837H634.025V290.19Z" fill="#92BCB5"/>
<path d="M617.514 314.104H580.056V316.751H617.514V314.104Z" fill="#92BCB5"/>
<path d="M604.229 329.982H580.056V332.629H604.229V329.982Z" fill="#92BCB5"/>
<path d="M636.559 329.982H608.343V332.629H636.559V329.982Z" fill="#92BCB5"/>
<path d="M647.901 314.104H625.217V316.751H647.901V314.104Z" fill="#92BCB5"/>
<path d="M634.025 322.043H580.056V324.69H634.025V322.043Z" fill="#92BCB5"/>
<path d="M470.348 232.586H429.359V237.878H470.348V232.586Z" fill="#EF8062"/>
<path d="M421.652 192.203H316.62V197.496H421.652V192.203Z" fill="#DAEBE8"/>
<path d="M503.651 192.203H431.161V197.496H503.651V192.203Z" fill="#8FB3E3"/>
<path d="M519.668 175.544H459.134V180.837H519.668V175.544Z" fill="#DAEBE8"/>
<path d="M393.959 168.604C393.959 168.604 392.915 175.422 390.135 178.898C388.302 181.188 383.247 185.726 386.842 187.238C389.713 188.445 395.242 183.07 397.036 181.732C398.831 180.395 401.538 177.864 400.937 175.707C399.694 171.239 400.104 165.622 400.104 165.622L393.959 168.604Z" fill="#331832"/>
<path d="M407.841 163.317C407.841 163.317 409.231 170.072 407.832 174.298C406.91 177.083 403.747 183.096 407.644 183.263C410.755 183.397 414.071 176.433 415.289 174.555C416.507 172.677 418.164 169.362 416.852 167.549C414.134 163.792 412.566 158.383 412.566 158.383L407.841 163.317Z" fill="#331832"/>
<path d="M405.893 168.091C368.625 143.221 370.466 121.433 375.63 112.912C381.628 103.016 391.126 95.1922 405.681 91.7017C409.561 90.7711 413.255 90.2327 416.341 89.9233C420.811 89.4748 424.661 93.0461 424.543 97.5382L424.208 110.227L424.237 110.228C418.019 110.098 399.154 111.995 394.211 122.052C393.184 124.142 418.27 153.62 417.334 158.91C416.274 164.893 409.537 170.523 405.893 168.091Z" fill="#EF8062"/>
<path d="M391.443 171.816C387.157 171.837 383.739 168.235 383.992 163.955C384.554 154.439 386.321 138.243 391.86 126.007C395.001 119.067 399.996 112.757 406.705 107.252C411.763 103.101 417.817 99.3916 424.699 96.226C436.144 90.9608 444.388 91.6951 444.388 91.6951L450.644 100.923C450.561 100.94 452.398 110.232 439.174 118.517C431.878 123.088 417.21 125.882 411.176 137.697C406.868 146.131 405.222 157.314 404.674 165.129C404.412 168.867 401.309 171.766 397.564 171.785L391.443 171.816Z" fill="#EF8062"/>
<path d="M399.954 58.9871C399.954 58.9871 392.267 70.8186 389.514 88.3577C387.691 99.9639 408.803 86.452 408.803 86.452L409.743 62.207L399.954 58.9871Z" fill="#FFB27D"/>
<path d="M438.38 52.2999C438.38 52.2999 432.525 42.2875 419.028 45.3601C405.532 48.4327 400.033 62.2237 399.066 95.3428C399.066 95.3428 407.171 109.692 444.043 106.895C448.128 106.585 453.982 106.045 451.986 99.417C448.275 87.0981 444.68 62.5261 438.38 52.2999Z" fill="#92BCB5"/>
<path d="M453.227 55.2233L439.345 57.8339C439.345 57.8339 415.068 65.0165 408.272 65.0732C401.476 65.13 398.664 60.1575 398.664 60.1575C398.664 60.1575 404.145 50.8495 415.633 46.4582C416.712 46.044 417.842 45.6754 419.028 45.3607C421.017 44.8338 423.04 44.3726 425.064 44.3493C447.981 44.0861 453.227 55.2233 453.227 55.2233Z" fill="#92BCB5"/>
<path d="M453.227 55.2235C453.528 56.3186 450.618 58.1455 446.728 59.3043C442.838 60.463 439.44 60.5148 439.14 59.4202C438.84 58.3251 441.75 56.4982 445.64 55.3395C449.53 54.1807 452.927 54.1289 453.227 55.2235Z" fill="#331832"/>
<path d="M450.83 86.066C444.9 95.3608 433.154 101.294 420.812 100.905L422.127 90.9985C431.697 89.2536 439.034 83.0224 440.401 77.7699C442.118 71.17 441.529 64.7404 440.708 59.9087C440.63 59.4504 440.811 58.9891 441.18 58.7067C442.403 57.7688 445.574 55.8627 451.239 55.7505C451.744 55.7403 452.19 56.0786 452.319 56.5664C454.69 65.4975 456.121 77.7715 450.83 86.066Z" fill="#FFB27D"/>
<g opacity="0.3">
<path d="M444.584 89.1127C444.367 89.1127 444.157 89.0702 443.958 88.9853C442.92 88.5417 442.554 87.0446 443.144 85.6475C443.481 84.8487 444.085 84.2091 444.76 83.9365C445.224 83.7487 445.688 83.7422 446.099 83.9181C447.137 84.3618 447.502 85.8589 446.912 87.256C446.575 88.0551 445.971 88.6947 445.296 88.9674C445.056 89.0641 444.817 89.1127 444.584 89.1127ZM445.472 84.2479C445.298 84.2479 445.115 84.285 444.931 84.3597C444.366 84.5879 443.855 85.1356 443.564 85.8254C443.072 86.9915 443.329 88.2209 444.137 88.5662C444.434 88.6931 444.776 88.6853 445.126 88.5445C445.691 88.3164 446.201 87.7686 446.493 87.0788C446.985 85.9127 446.728 84.6834 445.92 84.3381C445.779 84.2777 445.629 84.2479 445.472 84.2479Z" fill="#EC865C"/>
</g>
<path d="M422.127 90.9983C422.127 90.9983 413.263 88.178 410.445 89.5118C407.628 90.8456 405.036 94.6811 406.959 94.2252C408.881 93.7693 411.176 92.5081 411.176 92.5081C411.176 92.5081 406.399 95.4333 407.566 96.2545C408.734 97.0757 412.864 94.4917 412.864 94.4917C412.864 94.4917 407.457 98.4255 408.811 98.8442C410.165 99.263 414.251 96.2451 414.251 96.2451C414.251 96.2451 409.367 100.106 410.951 100.556C412.536 101.005 414.967 97.3386 416.135 98.1598C417.302 98.981 420.281 102.753 422.959 99.785L422.127 90.9983Z" fill="#FFB27D"/>
<path d="M411.25 92.5962L411.102 92.4198C411.154 92.3758 412.391 91.3472 413.38 91.6285L413.316 91.8501C412.447 91.6015 411.262 92.5864 411.25 92.5962Z" fill="#E9845C"/>
<path d="M412.94 94.5787L412.789 94.4052C412.838 94.362 414.025 93.3432 415.467 93.4591L415.449 93.6885C414.102 93.5808 412.951 94.5693 412.94 94.5787Z" fill="#E9845C"/>
<path d="M414.326 96.3336L414.178 96.1577C414.24 96.1059 415.702 94.8867 416.729 95.2757L416.647 95.4908C415.748 95.1516 414.34 96.3218 414.326 96.3336Z" fill="#E9845C"/>
<path d="M411.239 104.796H382.782C382.187 104.796 381.657 104.417 381.469 103.855L375.556 86.1873C375.258 85.2975 375.925 84.3792 376.869 84.3792H404.234C405.481 84.3792 406.588 85.1726 406.982 86.3481L412.551 102.988C412.849 103.878 412.182 104.796 411.239 104.796Z" fill="#331832"/>
<path d="M409.453 104.796H380.996C380.4 104.796 379.871 104.417 379.683 103.855L373.77 86.1873C373.472 85.2975 374.139 84.3792 375.083 84.3792H402.448C403.695 84.3792 404.802 85.1726 405.196 86.3481L410.765 102.988C411.063 103.878 410.396 104.796 409.453 104.796Z" fill="#331832"/>
<path d="M389.514 94.0097C389.514 93.3391 390.287 93.0657 390.962 93.0657C391.638 93.0657 392.74 93.802 392.733 94.742C392.726 95.7562 391.933 95.888 391.258 95.888C390.583 95.888 389.514 94.8636 389.514 94.0097Z" fill="#DAEBE8"/>
<path d="M419.914 102.3H380.982V104.796H420.728C421.192 104.796 421.569 104.419 421.569 103.955C421.569 103.041 420.828 102.3 419.914 102.3Z" fill="#331832"/>
<path d="M407.429 93.3117C407.415 93.259 406.019 88.0212 405.115 86.3935C404.227 84.7952 403.126 84.4719 403.115 84.4687L403.164 84.2903C403.212 84.3033 404.348 84.6319 405.277 86.3033C406.192 87.9514 407.55 93.048 407.608 93.2643L407.429 93.3117Z" fill="#366F90"/>
<path d="M411.635 102.392C410.58 102.392 410.317 101.925 410.307 101.905L408.083 95.2644L408.258 95.2056L410.476 101.832V101.832C410.478 101.832 410.716 102.207 411.635 102.207V102.392Z" fill="#366F90"/>
<path d="M385.407 150.83L385.177 150.814C385.183 150.729 385.777 142.212 388.408 132.582C390.84 123.684 395.558 111.987 404.228 106.795L404.346 106.993C395.741 112.145 391.05 123.785 388.63 132.642C386.005 142.251 385.412 150.745 385.407 150.83Z" fill="#020202"/>
<path d="M404.402 167.005L404.172 167.004C404.266 153.753 408.598 143.523 408.642 143.421L408.853 143.512C408.81 143.614 404.496 153.803 404.402 167.005Z" fill="#020202"/>
<path d="M413.363 46.0257C413.363 46.0257 416.517 44.4033 416.859 42.5271C417.201 40.6512 418.472 41.0981 419.13 40.563C419.788 40.0279 417.352 35.2477 417.352 35.2477L410.326 33.4077L411.853 42.0557L413.363 46.0257Z" fill="#331832"/>
<path d="M427.555 44.3678C426.088 44.3498 424.74 43.5576 424.036 42.2699L421.827 38.2357L421.187 37.0647L417.419 30.1804L418.658 37.5676L419.403 42.0013L419.615 43.2654C419.788 44.2968 419.15 45.2841 418.143 45.5653L418.125 45.5702C417.66 46.5163 417.073 48.406 419.409 48.913C422.155 49.5093 426.267 47.002 427.579 44.3678C427.571 44.3682 427.563 44.3682 427.555 44.3678Z" fill="#FFB27D"/>
<path d="M421.824 38.1121C421.826 38.1534 421.828 38.1946 421.828 38.2358C421.878 40.6504 419.42 42.0133 419.42 42.0133L419.403 42.0014L418.659 37.5677C419.415 37.2061 420.504 36.8052 421.187 37.0648C421.544 37.2012 421.791 37.5171 421.824 38.1121Z" fill="#E1986C"/>
<path d="M417.991 39.9975C421.848 39.6319 424.61 35.4757 424.159 30.7143C423.708 25.953 420.216 22.3895 416.358 22.7551C412.5 23.1206 409.739 27.2768 410.19 32.0382C410.64 36.7996 414.133 40.363 417.991 39.9975Z" fill="#FFB27D"/>
<path d="M413.961 37.3373C413.961 37.3373 416.352 37.1663 418.659 36.1018C418.659 36.1018 419.08 38.4356 416.511 38.8381C415.016 39.0723 413.961 37.3373 413.961 37.3373Z" fill="white"/>
<path d="M416.526 31.5494C416.479 31.5412 416.435 31.5114 416.412 31.4649C416.371 31.3865 416.402 31.2906 416.48 31.2502C416.526 31.2265 417.543 30.5751 418.58 31.5143C418.646 31.5735 418.654 31.6731 418.596 31.7396C418.538 31.8061 418.448 31.7976 418.371 31.7551C417.595 31.3335 416.665 31.5147 416.626 31.5343C416.594 31.5506 416.559 31.5551 416.526 31.5494Z" fill="#080435"/>
<path d="M418.277 33.0643C418.326 33.4423 418.142 33.777 417.868 33.8116C417.594 33.8463 417.333 33.5684 417.284 33.1904C417.237 32.8125 417.42 32.4778 417.694 32.4431C417.968 32.4084 418.23 32.6864 418.277 33.0643Z" fill="#080435"/>
<path d="M413.784 33.7916C413.856 34.1659 413.695 34.5116 413.423 34.5639C413.152 34.6161 412.874 34.3553 412.801 33.981C412.73 33.6068 412.891 33.261 413.163 33.2088C413.434 33.1566 413.712 33.4178 413.784 33.7916Z" fill="#080435"/>
<path d="M420.061 25.5601C414.838 27.343 411.501 32.4906 411.851 38.001C411.871 38.321 411.897 38.6492 411.929 38.9863C411.929 38.9863 415.617 39.4459 416.146 42.9736C416.311 44.0792 413.281 46.2763 413.049 46.1979C411.296 45.6078 406.517 41.9266 406.743 33.7016C406.969 25.4765 409.555 19.2044 416.995 18.2481C424.435 17.2922 423.911 22.3647 423.911 22.3647C423.911 22.3647 422.803 24.6243 420.061 25.5601Z" fill="#331832"/>
<path d="M419.016 25.6745C419.016 25.6745 419.15 25.7443 419.37 25.8835C420.217 26.4206 422.337 27.9912 422.931 30.5773C423.678 33.8339 420.701 36.1881 421.813 38.6566C422.925 41.1256 424.955 38.0452 426.863 38.304C428.77 38.5628 430.056 37.562 429.827 33.8168C429.598 30.0716 427.903 21.4424 423.487 21.8604L419.016 25.6745Z" fill="#331832"/>
<path d="M424.171 32.0534C423.452 32.884 422.353 33.0664 421.717 32.4603C421.081 31.8542 421.148 30.6897 421.868 29.8587C422.588 29.0281 423.687 28.8457 424.323 29.4518C424.959 30.0579 424.891 31.2224 424.171 32.0534Z" fill="#FFB27D"/>
<path d="M410.452 42.3206C410.413 42.3206 410.377 42.2924 410.37 42.252C409.344 36.9093 410.789 31.496 412.677 28.501C414.216 26.0578 415.939 24.9798 417.114 24.5056C418.392 23.9893 419.293 24.0537 419.331 24.0574C419.378 24.0611 419.412 24.1019 419.409 24.148C419.405 24.1945 419.362 24.2276 419.318 24.2256C419.283 24.2248 415.712 24.0015 412.82 28.5912C410.95 31.558 409.518 36.9228 410.536 42.2202C410.544 42.2659 410.514 42.3104 410.469 42.3194C410.463 42.3202 410.458 42.3206 410.452 42.3206Z" fill="white"/>
<path d="M426.644 35.4165C426.635 35.4165 426.625 35.4149 426.615 35.4112C426.572 35.3953 426.549 35.3467 426.565 35.3026C427.889 31.6725 426.48 25.7392 424.926 24.0776C423.408 22.4548 421.387 23.5613 421.302 23.6095C421.26 23.6323 421.21 23.6172 421.187 23.5772C421.164 23.5364 421.178 23.485 421.219 23.4621C421.241 23.4499 423.44 22.2418 425.05 23.9621C426.63 25.6523 428.067 31.6787 426.723 35.3606C426.711 35.3953 426.679 35.4165 426.644 35.4165Z" fill="white"/>
<path d="M409.352 35.7151C409.307 35.7151 409.269 35.6792 409.268 35.6339C409.267 35.6086 409.178 33.0499 409.567 30.2646C410.093 26.5072 411.191 24.1481 412.833 23.2522C414.868 22.142 416.71 22.1542 417.898 22.3603C419.186 22.584 419.981 23.064 420.014 23.0844C420.054 23.1089 420.066 23.1607 420.042 23.2003C420.018 23.2399 419.966 23.2534 419.926 23.2285C419.894 23.2093 416.722 21.3232 412.914 23.4007C409.105 25.4786 409.433 35.5265 409.437 35.6277C409.439 35.6743 409.402 35.7135 409.355 35.7155C409.354 35.7151 409.353 35.7151 409.352 35.7151Z" fill="white"/>
<path d="M740.61 418.215C740.61 418.215 740.507 422.346 737.712 423.511C734.918 424.677 726.822 425.729 729.847 428.385C731.583 429.909 739.764 428.924 742.073 428.924C744.383 428.924 746.552 429.931 748.268 428.384C750.156 426.683 748.268 418.215 748.268 418.215C748.268 418.215 746.275 419.254 744.482 419.207C741.899 419.14 740.61 418.215 740.61 418.215Z" fill="#331832"/>
<path d="M772.699 418.214C772.699 418.214 772.596 422.345 769.802 423.511C767.008 424.676 758.911 425.728 761.937 428.384C763.673 429.908 771.853 428.923 774.163 428.923C776.473 428.923 778.641 429.93 780.358 428.383C782.246 426.682 780.357 418.214 780.357 418.214C780.357 418.214 778.364 419.252 776.572 419.206C773.989 419.139 772.699 418.214 772.699 418.214Z" fill="#331832"/>
<path d="M719.842 304.961C719.842 304.961 719.325 322.254 724.843 355.428C728.826 379.377 733.528 403.51 735.834 415.08C736.66 419.219 740.139 422.245 744.262 422.41L746.477 422.499C750.936 422.678 754.554 418.846 754.228 414.292L748.631 336.017L747.251 310.254L719.842 304.961Z" fill="#366F90"/>
<path d="M770.309 320.18C770.054 322.285 758.159 322.029 743.594 320.184C729.029 318.34 717.692 315.183 717.946 313.079C718.201 310.974 729.95 310.718 744.515 312.562C759.08 314.407 770.564 318.075 770.309 320.18Z" fill="#331832"/>
<path d="M736.564 317.313L767.66 417.246C768.961 421.429 772.725 424.295 777.014 424.368L778.882 424.4C783.295 424.476 786.668 420.393 785.864 415.952L768.854 322.052C768.607 320.936 767.784 320.048 766.708 319.738C760.875 318.055 735.992 313.18 736.564 317.313Z" fill="#366F90"/>
<path d="M765.446 262.644C765.446 262.644 761.309 250.999 746.57 251.529C731.832 252.059 720.703 271.435 717.946 313.079C717.946 313.079 742.08 307.784 770.352 320.136C770.352 320.136 771.919 279.618 765.446 262.644Z" fill="#92A5E6"/>
<path d="M775.797 261.943L765.355 268.629C765.355 268.629 738.516 271.316 731.391 270.022C724.267 268.729 723.158 263.488 723.158 263.488C723.158 263.488 729.936 254.187 742.834 251.877C744.045 251.658 745.266 251.622 746.57 251.529C748.757 251.374 750.945 251.441 753.089 251.672C765.832 253.048 775.797 261.943 775.797 261.943Z" fill="#92A5E6"/>
<path d="M750.462 361.979L743.774 341.641C742.27 337.068 739.178 333.251 735.065 330.894L735.325 330.44C739.55 332.861 742.727 336.782 744.271 341.478L750.959 361.816L750.462 361.979Z" fill="#020202"/>
<path d="M736.462 248.935C736.382 248.916 734.481 248.452 733.916 247.09C733.618 246.371 733.753 245.541 734.319 244.622C734.571 244.213 734.803 243.842 735.015 243.503C736.491 241.149 736.988 240.356 736.602 238.513L736.77 238.478C737.17 240.388 736.623 241.261 735.16 243.595C734.948 243.933 734.716 244.303 734.464 244.713C733.93 245.581 733.798 246.36 734.075 247.025C734.607 248.307 736.483 248.764 736.502 248.769L736.462 248.935Z" fill="#EF8062"/>
<path d="M736.686 238.496C736.686 238.496 737.339 241.453 735.38 244.548C733.422 247.644 735.553 249.906 738.206 248.715C740.86 247.524 741.871 250.908 745.262 249.038C748.653 247.167 736.686 238.496 736.686 238.496Z" fill="#EF8062"/>
<path d="M752.36 251.572C750.895 251.414 749.622 250.494 749.039 249.14L747.212 244.897L746.682 243.665L743.566 236.423L744.106 243.928L744.431 248.433L744.524 249.717C744.599 250.765 743.867 251.692 742.834 251.878L742.816 251.881C742.261 252.783 741.495 254.618 743.784 255.346C746.473 256.202 750.823 254.084 752.384 251.574C752.376 251.573 752.368 251.572 752.36 251.572Z" fill="#FFB27D"/>
<path d="M747.22 244.772C747.219 244.814 747.216 244.855 747.212 244.897C747.034 247.316 744.447 248.446 744.447 248.446L744.431 248.433L744.106 243.928C744.897 243.638 746.023 243.34 746.683 243.665C747.027 243.834 747.244 244.174 747.22 244.772Z" fill="#331832"/>
<path d="M743.225 246.323C747.118 246.323 750.273 242.428 750.273 237.623C750.273 232.818 747.118 228.923 743.225 228.923C739.332 228.923 736.176 232.818 736.176 237.623C736.176 242.428 739.332 246.323 743.225 246.323Z" fill="#FFB27D"/>
<path d="M749.331 238.935C748.533 239.698 747.416 239.776 746.837 239.109C746.259 238.443 746.437 237.285 747.235 236.522C748.034 235.759 749.15 235.681 749.729 236.347C750.307 237.014 750.129 238.172 749.331 238.935Z" fill="#FFB27D"/>
<path d="M739.429 243.253C739.429 243.253 741.837 243.308 744.244 242.462C744.244 242.462 744.444 244.836 741.837 244.995C740.321 245.088 739.429 243.253 739.429 243.253Z" fill="#E9633E"/>
<path d="M739.429 243.253C739.429 243.253 740.012 243.736 741.371 243.73C742.731 243.724 744.244 242.462 744.244 242.462C744.244 242.462 741.343 243.259 739.429 243.253Z" fill="white"/>
<path d="M742.543 237.707C742.496 237.694 742.456 237.66 742.436 237.612C742.403 237.529 742.443 237.436 742.525 237.403C742.573 237.384 743.653 236.829 744.601 237.866C744.66 237.932 744.659 238.032 744.595 238.093C744.531 238.154 744.442 238.137 744.368 238.087C743.632 237.592 742.685 237.685 742.644 237.701C742.611 237.714 742.576 237.716 742.543 237.707Z" fill="#080435"/>
<path d="M743.812 239.469C743.824 239.852 743.609 240.169 743.332 240.178C743.054 240.187 742.819 239.884 742.807 239.501C742.795 239.119 743.01 238.801 743.288 238.793C743.565 238.784 743.8 239.087 743.812 239.469Z" fill="#080435"/>
<path d="M736.821 238.543C736.772 238.549 736.722 238.533 736.686 238.495C736.624 238.432 736.625 238.331 736.688 238.269C736.726 238.233 737.512 237.308 738.784 237.906C738.864 237.944 738.901 238.037 738.865 238.118C738.829 238.199 738.74 238.217 738.653 238.199C737.784 238.022 736.944 238.469 736.912 238.499C736.886 238.524 736.854 238.539 736.821 238.543Z" fill="#080435"/>
<path d="M738.665 239.689C738.822 240.038 738.743 240.413 738.491 240.527C738.237 240.641 737.905 240.451 737.748 240.102C737.591 239.753 737.669 239.377 737.922 239.263C738.175 239.149 738.508 239.34 738.665 239.689Z" fill="#080435"/>
<path d="M740.232 230.5C740.232 230.5 740.384 233.518 744.152 234.033C747.92 234.547 750.518 236.142 750.012 238.858C749.506 241.573 743.433 247.207 747.896 249.389C752.36 251.571 751.41 247.502 756.25 248.446C761.089 249.389 761.962 242.924 758.63 239.173C755.298 235.421 756.647 225.493 744.152 225.933C731.657 226.373 736.235 236.346 736.235 236.346C736.235 236.346 740.239 233.833 740.232 230.5Z" fill="#EF8062"/>
<path d="M749.182 249.948C748.242 249.568 747.664 249.003 747.464 248.267C746.915 246.243 749.273 243.185 751.353 240.487C751.901 239.777 752.418 239.106 752.876 238.466C754.149 236.689 754.258 234.654 753.169 233.021C751.975 231.232 749.701 230.475 747.233 231.047C744.774 231.618 743.083 231.102 742.097 230.57C741.026 229.992 740.546 229.288 740.526 229.258L740.61 229.201C740.63 229.23 742.572 232.024 747.21 230.948C749.72 230.366 752.036 231.139 753.254 232.965C754.351 234.609 754.238 236.739 752.96 238.525C752.5 239.166 751.983 239.838 751.434 240.549C749.369 243.228 747.026 246.265 747.562 248.241C747.756 248.954 748.299 249.481 749.221 249.854L749.182 249.948Z" fill="white"/>
<path d="M736.558 244.108C735.5 243.718 734.568 242.548 734.07 240.979C733.256 238.421 733.827 235.578 735.343 234.639C735.908 234.281 736.542 234.227 737.175 234.458C738.233 234.848 739.165 236.018 739.663 237.582C740.477 240.135 739.906 242.983 738.39 243.927C738.05 244.14 737.685 244.244 737.311 244.244C737.062 244.244 736.81 244.199 736.558 244.108ZM739.364 237.682C738.895 236.204 738.036 235.111 737.066 234.752C736.52 234.557 735.985 234.607 735.509 234.902C734.106 235.773 733.596 238.457 734.369 240.884C734.838 242.358 735.697 243.455 736.667 243.814C737.209 244.004 737.748 243.959 738.222 243.664C739.625 242.788 740.137 240.104 739.364 237.682Z" fill="#764678"/>
<g opacity="0.3">
<path d="M747.818 235.922C748.383 238.406 747.48 241.073 745.799 241.879C744.119 242.685 742.298 241.325 741.732 238.841C741.167 236.357 742.071 233.69 743.751 232.884C745.431 232.078 747.252 233.438 747.818 235.922Z" fill="white"/>
</g>
<g opacity="0.3">
<path d="M739.731 237.791C740.298 240.286 739.543 242.992 738.044 243.835C736.546 244.677 734.872 243.337 734.305 240.842C733.738 238.347 734.493 235.641 735.991 234.798C737.49 233.956 739.164 235.296 739.731 237.791Z" fill="white"/>
</g>
<path d="M743.454 241.913C742.37 241.387 741.543 240.199 741.185 238.653C740.568 236 741.572 233.134 743.424 232.263C744.17 231.913 744.958 231.918 745.713 232.281C746.794 232.807 747.619 233.995 747.975 235.537C748.594 238.194 747.59 241.06 745.736 241.927C745.369 242.104 744.99 242.19 744.611 242.19C744.224 242.19 743.834 242.095 743.454 241.913ZM743.555 232.544C741.833 233.356 740.906 236.063 741.488 238.58C741.821 240.013 742.608 241.156 743.591 241.632C744.251 241.941 744.949 241.945 745.604 241.646C747.329 240.834 748.256 238.127 747.671 235.61C747.34 234.181 746.556 233.043 745.575 232.562C745.239 232.399 744.892 232.317 744.546 232.317C744.212 232.317 743.879 232.395 743.555 232.544Z" fill="#764678"/>
<path d="M739.398 238.721C739.464 238.721 739.53 238.698 739.585 238.653C739.616 238.625 740.376 238.031 741.686 238.281C741.84 238.304 741.999 238.208 742.03 238.049C742.062 237.891 741.957 237.736 741.799 237.709C740.217 237.378 739.253 238.167 739.21 238.199C739.088 238.304 739.07 238.489 739.174 238.612C739.231 238.684 739.314 238.721 739.398 238.721Z" fill="#764678"/>
<path d="M775.945 262.174C776.307 263.226 773.576 265.194 769.846 266.571C766.115 267.948 762.797 268.212 762.435 267.16C762.073 266.108 764.804 264.139 768.534 262.763C772.265 261.386 775.583 261.123 775.945 262.174Z" fill="#331832"/>
<path d="M747.132 296.128L750.21 290.926C750.193 289.882 748.482 287.957 749.472 288.285C753.323 289.561 761.027 286.914 763.056 284.044C765.872 280.059 765.575 273.87 764.79 269.578C764.389 267.381 765.113 265.912 767.766 264.504C767.766 264.504 770.048 263.248 772.861 262.769C773.988 262.577 775.107 263.03 775.398 264.136C775.852 265.867 776.442 268.56 776.723 271.73C777.39 279.257 775.939 285.804 772.526 290.665C768.337 296.63 760.528 300.453 748.248 299.374C747.127 299.275 747.15 297.254 747.132 296.128Z" fill="#FFB27D"/>
<g opacity="0.5">
<path d="M769.781 288.67C769.418 288.67 769.081 288.566 768.809 288.347C767.978 287.677 768.068 286.18 769.01 285.009C769.953 283.838 771.396 283.431 772.228 284.1C772.645 284.437 772.847 284.98 772.794 285.629C772.745 286.243 772.472 286.885 772.027 287.439C771.393 288.227 770.531 288.67 769.781 288.67ZM771.255 284.288C770.663 284.288 769.939 284.671 769.409 285.329C768.657 286.264 768.53 287.464 769.131 287.948C769.733 288.433 770.877 288.052 771.629 287.117C772.011 286.643 772.244 286.1 772.285 285.588C772.323 285.113 772.189 284.726 771.908 284.499C771.729 284.356 771.504 284.288 771.255 284.288Z" fill="#EC865C"/>
</g>
<path d="M758.598 317.898C758.598 317.898 729.529 312.343 720.104 314.964L724.624 321.664L741.426 322.615L758.598 317.898Z" fill="#366F90"/>
<path d="M743.409 304.962H718.637C717.57 304.962 716.646 304.22 716.414 303.178L709.029 269.982C708.726 268.618 709.763 267.324 711.161 267.324H734.8C736.006 267.324 737.05 268.161 737.312 269.339L744.839 303.177C745.043 304.093 744.347 304.962 743.409 304.962Z" fill="#764678"/>
<path d="M750.369 289.157C750.369 289.157 744.039 282.696 740.573 282.638C737.108 282.58 732.638 285.127 734.778 285.62C736.918 286.112 739.827 285.985 739.827 285.985C739.827 285.985 733.626 286.548 734.386 287.942C735.145 289.336 740.534 288.794 740.534 288.794C740.534 288.794 733.208 290.052 734.352 291.137C735.496 292.221 741.054 291.226 741.054 291.226C741.054 291.226 734.285 292.669 735.643 293.898C737.002 295.126 741.23 292.669 741.989 294.063C742.749 295.456 746.238 300.736 750.369 299.096V289.157Z" fill="#FFB27D"/>
<path d="M742.286 286.384C741.541 285.71 739.874 286.105 739.858 286.109L739.797 285.861C739.871 285.842 741.612 285.429 742.458 286.194L742.286 286.384Z" fill="#E9845C"/>
<path d="M743.507 289.266C742.213 288.495 740.583 288.913 740.567 288.918L740.501 288.671C740.573 288.652 742.253 288.222 743.638 289.047L743.507 289.266Z" fill="#E9845C"/>
<path d="M743.814 291.653C743.083 290.87 741.105 291.345 741.085 291.35L741.024 291.101C741.111 291.08 743.169 290.587 744.001 291.479L743.814 291.653Z" fill="#E9845C"/>
<path d="M709.183 284.217C709.183 284.217 708.839 287.218 711.58 287.512C715.071 287.887 722.903 284.106 713.914 283.922C713.69 283.918 719.652 283.498 718.941 282.055C718.23 280.612 713.079 281.272 713.079 281.272C713.079 281.272 719.345 280.316 718.233 279.171C717.121 278.025 713.064 278.175 713.064 278.175C713.064 278.175 718.365 277.623 717.042 276.322C715.719 275.022 712.268 276.355 710.677 276.586C709.173 276.804 708.827 277.845 709.141 279.28C709.141 279.28 708.623 280.892 709.065 281.778C709.235 282.118 708.947 282.521 708.954 282.789C708.966 283.301 709.183 284.217 709.183 284.217Z" fill="#FFB27D"/>
<path d="M728.124 268.262C728.124 268.262 727.196 266.131 726.926 265.91C726.655 265.69 715.491 265.763 715.564 266.278C715.638 266.792 716.078 268.335 717.107 268.629C718.135 268.923 728.549 269.2 728.124 268.262Z" fill="#EF8062"/>
<path d="M727.748 424.258H207.358C205.704 424.258 204.74 423.057 204.518 421.867C204.293 420.662 204.767 419.175 206.332 418.572L256.897 399.064C258.682 398.376 260.555 398.026 262.463 398.026H678.424C680.293 398.026 682.11 398.41 683.824 399.166L728.82 419.009C730.218 419.625 730.612 421.003 730.382 422.094C730.155 423.171 729.253 424.258 727.748 424.258ZM262.463 398.485C260.611 398.485 258.794 398.823 257.062 399.491L206.497 418.999C205.178 419.508 204.778 420.764 204.968 421.782C205.141 422.713 205.871 423.8 207.358 423.8H727.748C729.081 423.8 729.759 422.83 729.933 422C730.111 421.156 729.877 419.976 728.635 419.428L683.639 399.585C681.983 398.855 680.228 398.485 678.423 398.485H262.463Z" fill="#331832"/>
<path d="M481.681 254.227L481.109 254.498C480.574 254.752 479.93 254.522 479.676 253.989L477.043 248.45C476.79 247.916 477.019 247.272 477.554 247.019L478.126 246.748C478.66 246.495 479.305 246.724 479.558 247.258L482.192 252.797C482.445 253.33 482.215 253.974 481.681 254.227Z" fill="#FFB27D"/>
<path d="M483.874 252.652L483.266 252.941C482.741 253.189 482.109 252.964 481.86 252.441L479.059 246.549C478.81 246.025 479.035 245.393 479.559 245.145L480.168 244.857C480.692 244.608 481.325 244.833 481.574 245.357L484.375 251.249C484.624 251.772 484.399 252.404 483.874 252.652Z" fill="#FFB27D"/>
<path d="M486.969 257.728L486.571 257.635C485.826 257.462 485.359 256.712 485.532 255.968L487.222 248.726C487.396 247.982 488.382 246.851 489.125 247.029C490.352 247.322 490.502 248.705 490.328 249.449L488.638 256.691C488.465 257.434 487.714 257.901 486.969 257.728Z" fill="#FFB27D"/>
<path d="M486.316 251.723L486.092 251.829C485.439 252.139 484.652 251.859 484.342 251.207L480.376 242.865C480.067 242.213 479.618 240.678 480.83 240.238C481.717 239.916 482.589 241.467 483.087 242.462C484.086 244.457 486.939 249.976 486.939 249.976C487.249 250.628 486.968 251.414 486.316 251.723Z" fill="#FFB27D"/>
<path d="M481.739 260.071C481.739 260.071 476.058 255.084 475.74 250.434C475.63 248.825 482.806 245.432 484.221 246.56C485.635 247.688 488.658 254.493 488.658 254.493L481.739 260.071Z" fill="#FFB27D"/>
<path d="M479.275 255.07L478.684 255.35C478.156 255.6 478.591 256.628 478.229 256.171C475.738 253.029 475.017 250.109 475.017 250.109C474.766 249.583 474.997 248.625 475.524 248.374L476.052 248.219C476.579 247.968 477.276 248.393 477.527 248.92L479.779 253.657C480.03 254.184 479.803 254.82 479.275 255.07Z" fill="#FFB27D"/>
<path d="M521.861 409.699C521.861 409.699 521.66 413.553 519.018 414.57C516.376 415.587 508.778 416.365 511.54 418.921C513.125 420.387 520.8 419.674 522.96 419.732C525.12 419.791 527.123 420.785 528.767 419.385C530.575 417.844 529.023 409.892 529.023 409.892C529.023 409.892 527.133 410.812 525.458 410.723C523.044 410.595 521.861 409.699 521.861 409.699Z" fill="#331832"/>
<path d="M502.906 312.558C503.41 320.559 504.364 330.942 506.129 343.641C509.493 367.85 513.578 392.264 515.589 403.97C516.308 408.157 519.734 411.297 523.887 411.576L526.118 411.725C530.608 412.027 534.015 410.365 534.015 403.24L533.796 338.186L530.308 312.2C530.308 312.2 502.077 299.431 502.906 312.558Z" fill="#92A5E6"/>
<path d="M546.609 410.366C546.609 410.366 546.408 414.22 543.766 415.237C541.123 416.254 533.526 417.032 536.288 419.587C537.873 421.054 545.548 420.341 547.708 420.399C549.868 420.457 551.87 421.451 553.514 420.051C555.323 418.511 553.77 410.559 553.77 410.559C553.77 410.559 551.88 411.478 550.205 411.39C547.792 411.262 546.609 410.366 546.609 410.366Z" fill="#331832"/>
<path d="M527.207 293.385C527.207 293.385 526.216 310.773 530.876 344.308C534.241 368.517 538.325 392.931 540.336 404.637C541.055 408.824 544.481 411.964 548.634 412.242L550.865 412.392C555.355 412.693 559.108 408.936 558.903 404.343L555.389 325.42L554.699 299.456L527.207 293.385Z" fill="#92A5E6"/>
<path d="M533.881 365.977C533.867 364.784 533.554 336.704 534.996 331.574C536.448 326.407 542.92 322.087 543.195 321.906L543.381 322.188C543.314 322.231 536.739 326.621 535.321 331.666C533.892 336.749 534.215 365.681 534.218 365.973L533.881 365.977Z" fill="#331832"/>
<path d="M532.069 239.928L530.33 234.725L529.824 233.211L526.849 224.304L526.457 233.164L526.223 238.482L526.149 240.165C526.099 241.307 525.348 241.548 524.433 242.541C524.063 242.943 521.693 245.382 524.383 246.484C527.733 247.857 533.997 245.779 536.378 243.055C536.36 243.051 532.631 241.61 532.069 239.928Z" fill="#FFB27D"/>
<path d="M518.839 226.599C519.58 221.373 523.968 217.597 528.642 218.166C533.316 218.735 536.505 223.433 535.765 228.66C535.025 233.886 530.637 237.661 525.963 237.092C521.289 236.523 518.1 231.825 518.839 226.599Z" fill="#FFB27D"/>
<path d="M522.496 224.304C517.616 224.474 515.249 221.863 515.193 219.446C515.121 216.345 517.226 213.599 519.677 214.752C522.128 215.904 521.076 213.078 523.433 212.778C527.838 212.218 528.665 215.123 532.269 215.264C537.024 215.45 542.445 222.797 538.461 228.159C538.461 228.159 526.35 224.17 522.496 224.304Z" fill="#331832"/>
<path d="M518.151 221.178C518.151 221.178 523.365 225.833 522.677 228.453C521.989 231.072 522.164 232.099 525.209 233.496C528.255 234.893 525.565 237.162 529.624 237.326C533.682 237.489 538.654 233.042 538.653 225.731C538.652 221.655 536.128 218.988 536.128 218.988L518.151 221.178Z" fill="#331832"/>
<path d="M520.045 228.337C520.636 227.56 521.722 227.327 522.471 227.816C523.22 228.306 523.349 229.333 522.758 230.111C522.167 230.888 521.081 231.121 520.332 230.631C519.583 230.142 519.454 229.115 520.045 228.337Z" fill="#FFB27D"/>
<path d="M540.417 230.175C540.362 230.175 540.313 230.138 540.3 230.082C540.064 229.097 539.049 228.533 539.039 228.528C538.98 228.496 538.959 228.422 538.991 228.364C539.023 228.305 539.097 228.283 539.155 228.315C539.2 228.34 540.274 228.937 540.535 230.026C540.551 230.091 540.511 230.156 540.446 230.172C540.436 230.174 540.426 230.175 540.417 230.175Z" fill="#331832"/>
<path d="M539.097 227.976C539.033 227.976 538.98 227.926 538.976 227.862C538.972 227.795 539.023 227.738 539.09 227.734C539.103 227.733 540.424 227.644 540.613 226.7C540.626 226.635 540.688 226.593 540.755 226.605C540.821 226.618 540.863 226.682 540.85 226.747C540.624 227.876 539.165 227.972 539.103 227.975C539.101 227.976 539.099 227.976 539.097 227.976Z" fill="#331832"/>
<path d="M520.417 214.571C520.332 214.571 520.245 214.558 520.155 214.533C519.75 214.422 519.448 214.228 519.156 214.04C518.612 213.69 518.141 213.389 517.121 213.694C517.055 213.714 516.989 213.677 516.97 213.613C516.951 213.549 516.987 213.481 517.051 213.462C518.179 213.124 518.743 213.486 519.287 213.836C519.564 214.014 519.851 214.198 520.22 214.3C520.421 214.355 520.594 214.33 520.75 214.223C521.282 213.859 521.407 212.706 521.409 212.694C521.415 212.628 521.47 212.579 521.541 212.586C521.608 212.593 521.656 212.653 521.649 212.719C521.644 212.771 521.51 213.996 520.886 214.423C520.742 214.521 520.585 214.571 520.417 214.571Z" fill="#331832"/>
<path d="M531.897 214.883C530.174 214.883 528.832 213.724 528.77 213.669C528.72 213.625 528.715 213.548 528.759 213.498C528.803 213.448 528.879 213.443 528.93 213.487C528.946 213.501 530.547 214.883 532.415 214.603C532.486 214.594 532.543 214.639 532.553 214.704C532.563 214.77 532.517 214.832 532.451 214.842C532.263 214.87 532.078 214.883 531.897 214.883Z" fill="#331832"/>
<path d="M521.35 230.972C521.149 230.972 521.018 230.932 521.015 230.931C520.984 230.921 520.967 230.889 520.976 230.858C520.986 230.827 521.019 230.811 521.05 230.82C521.094 230.834 522.154 231.147 522.902 229.764C522.918 229.735 522.954 229.725 522.982 229.74C523.01 229.756 523.02 229.791 523.005 229.819C522.47 230.807 521.761 230.972 521.35 230.972Z" fill="#331832"/>
<path d="M502.906 312.558C502.906 312.558 538.304 310.627 555.103 314.67L555.353 309.888L531.798 302.923L512.781 303.39L506.939 304.634L502.816 310.992L502.906 312.558Z" fill="#331832"/>
<path d="M551.962 254.309C551.962 254.309 548.846 240.93 529.787 240.931C496.573 240.933 505.889 267.984 502.816 310.992C502.816 310.992 524.229 306.358 555.216 312.526C555.216 312.526 558.232 289.233 554.334 269.544C553.305 264.344 553.491 258.829 551.962 254.309Z" fill="#EF8062"/>
<path d="M525.962 240.93C525.962 240.93 515.307 241.085 507.384 248.552C499.461 256.02 489.258 266.306 487.093 272.224C484.427 279.51 489.335 286.822 495.566 286.978C501.797 287.133 507.384 282.622 507.384 282.622L525.962 240.93Z" fill="#EF8062"/>
<path d="M573.149 280.288C570.033 257.264 543.774 244.261 543.774 244.261L538.174 273.14L549.111 276.606C554.735 278.388 557.038 285.125 553.628 289.934C549.273 296.074 546.729 304.308 551.226 302.792C558.911 300.201 574.706 290.4 573.149 280.288Z" fill="#EF8062"/>
<path d="M556.201 302.033L555.968 302.021C556.892 285.151 553.902 267.88 553.872 267.707L554.102 267.667C554.132 267.84 557.127 285.136 556.201 302.033Z" fill="#331832"/>
<path d="M503.69 285.049L503.571 284.848C509.832 281.16 517.98 271.444 518.062 271.346L518.24 271.496C518.159 271.593 509.985 281.34 503.69 285.049Z" fill="#331832"/>
<path d="M500.87 261.469C500.87 261.469 492.819 253.086 490.005 252.516C487.191 251.946 470.969 256.411 488.772 283.392L500.87 261.469Z" fill="#EF8062"/>
<path d="M274.038 342.767C275.082 344.629 285.57 360.883 283.375 376.78L271.96 372.65L266.743 351.222L274.038 342.767Z" fill="#FFB27D"/>
<path d="M228.454 336.106C228.454 336.106 235.468 323.521 252.541 327.001C269.614 330.48 278.93 354.927 274.3 403.349C274.3 403.349 247.177 392.561 211.91 401.258C211.91 401.258 217.715 354.363 228.454 336.106Z" fill="#68A1BF"/>
<path d="M215.432 331.021L227.433 343.006C227.433 343.006 258.198 351.321 266.743 351.222C275.288 351.122 278.652 344.874 278.652 344.874C278.652 344.874 271.44 333.448 256.847 328.279C255.477 327.792 254.043 327.362 252.542 327.001C250.022 326.397 247.461 326.047 244.918 325.895C229.811 324.997 215.432 331.021 215.432 331.021Z" fill="#68A1BF"/>
<path d="M215.433 331.021C213.514 333.107 216.473 335.385 219.786 338.695C223.1 342.005 226.523 343.934 227.432 343.006C228.341 342.077 226.392 338.641 223.078 335.331C219.765 332.022 216.313 330.064 215.433 331.021Z" fill="#331832"/>
<path d="M225.837 343.055C225.837 343.055 226.016 340.661 223.008 337.605C221.197 335.764 218.904 334.561 217.367 333.895C216.452 333.5 215.396 333.945 215.034 334.88L214.072 337.362L218.552 340.247L225.837 343.055Z" fill="#FFB27D"/>
<path d="M247.042 387.448C247.042 387.448 210.02 367.377 196.75 389.272C186.927 405.48 201.693 420.574 256.463 419.041C256.463 419.041 261.876 416.505 260.558 403.348C260.036 398.136 247.042 387.448 247.042 387.448Z" fill="#EF8062"/>
<path d="M247.042 387.448C247.042 387.448 296.35 367.242 306.106 379.873C317.319 394.391 306.566 419.041 254.591 410.23L248.257 403.348L247.042 387.448Z" fill="#EF8062"/>
<path d="M256.524 419.126L256.403 418.957C262.153 414.853 260.607 404.312 260.465 403.426L223.093 389.818L223.164 389.623L260.65 403.272L260.66 403.331C260.681 403.445 262.605 414.785 256.524 419.126Z" fill="#020202"/>
<path d="M260.873 406.968C260.873 406.968 269.96 407.338 274.229 409.432C278.497 411.527 276.218 416.639 267.551 416.503C258.884 416.366 259.542 415.076 259.542 415.076C259.542 415.076 261.188 410.587 260.873 406.968Z" fill="#331832"/>
<path d="M249.241 388.411C252.25 388.411 254.723 387.65 256.727 386.137C260.513 383.28 261.216 378.725 260.667 375.694L257.045 373.587C256.865 372.593 249.875 376.287 249.887 376.283C249.855 376.294 246.551 377.25 235.096 371.393C227.121 367.316 223.102 361.53 222.809 353.704C222.587 347.804 225.216 344.491 225.837 343.055C225.919 342.863 221.983 338.915 222.096 338.513L219.145 337.013C219.24 336.675 216.308 335.518 216.349 335.421L214.072 337.362C212.948 339.963 210.557 345.934 210.865 354.162C211.186 362.708 214.713 374.505 229.699 382.166C237.87 386.344 244.284 388.411 249.241 388.411Z" fill="#FFB27D"/>
<path d="M251.672 388.891H283.622C284.291 388.891 284.885 388.465 285.096 387.835L291.736 367.997C292.071 366.998 291.322 365.967 290.262 365.967H259.536C258.136 365.967 256.893 366.857 256.451 368.178L250.198 386.861C249.864 387.86 250.612 388.891 251.672 388.891Z" fill="#764678"/>
<path d="M253.677 388.891H285.627C286.296 388.891 286.89 388.465 287.101 387.835L293.741 367.997C294.076 366.998 293.327 365.967 292.267 365.967H261.541C260.141 365.967 258.898 366.857 258.456 368.178L252.203 386.861C251.869 387.86 252.617 388.891 253.677 388.891Z" fill="#764678"/>
<path d="M276.064 376.78C276.064 376.027 275.195 375.719 274.437 375.719C273.679 375.719 272.442 376.546 272.449 377.601C272.458 378.74 273.347 378.888 274.106 378.888C274.864 378.888 276.064 377.738 276.064 376.78Z" fill="#DAEBE8"/>
<path d="M241.93 386.087H285.643V388.891H241.017C240.496 388.891 240.073 388.468 240.073 387.946C240.073 386.92 240.904 386.087 241.93 386.087Z" fill="#764678"/>
<path d="M255.849 376.13C255.835 376.13 255.821 376.128 255.808 376.124C255.722 376.101 255.671 376.014 255.694 375.928C255.758 375.685 257.285 369.956 258.316 368.1C259.37 366.203 260.668 365.827 260.722 365.813C260.808 365.788 260.895 365.839 260.919 365.924C260.943 366.009 260.893 366.097 260.808 366.121C260.796 366.124 259.58 366.485 258.597 368.255C257.585 370.077 256.019 375.951 256.003 376.01C255.984 376.082 255.919 376.13 255.849 376.13Z" fill="#331832"/>
<path d="M251.226 386.248C251.138 386.248 251.066 386.176 251.066 386.087C251.066 385.999 251.138 385.927 251.226 385.927C252.232 385.927 252.484 385.521 252.487 385.517L254.965 378.104C254.992 378.021 255.083 377.975 255.167 378.004C255.251 378.031 255.296 378.122 255.268 378.206L252.778 385.647C252.755 385.695 252.444 386.248 251.226 386.248Z" fill="#331832"/>
<path d="M220.518 371.213C220.404 371.213 220.285 371.196 220.162 371.164C219.474 370.979 218.718 370.29 218.19 369.365C217.38 367.948 217.358 366.482 218.14 366.026C218.384 365.884 218.685 365.855 219.011 365.942C219.699 366.126 220.454 366.816 220.983 367.74C221.792 369.157 221.814 370.623 221.032 371.079C220.88 371.168 220.706 371.213 220.518 371.213ZM218.654 366.307C218.54 366.307 218.437 366.334 218.349 366.385C217.786 366.713 217.878 367.983 218.55 369.159C219.018 369.979 219.693 370.608 220.269 370.763C220.489 370.822 220.675 370.807 220.823 370.721C221.386 370.393 221.294 369.123 220.622 367.947C220.154 367.127 219.479 366.498 218.903 366.343C218.815 366.319 218.731 366.307 218.654 366.307Z" fill="#EC865C"/>
<path d="M244.654 325.866C246.753 325.804 248.345 325.588 249.553 324.167L253.29 319.77L254.377 318.489L260.773 310.961L257.414 319.764L255.397 325.048L254.759 326.72C254.325 327.855 254.898 328.384 255.301 329.712C255.465 330.25 256.567 333.561 253.695 333.582C250.118 333.608 245.592 329.447 244.599 325.855C244.617 325.859 244.635 325.866 244.654 325.866Z" fill="#FFB27D"/>
<path d="M252.251 316.944C252.251 316.944 245.208 310.173 249.271 304.457C253.334 298.741 254.349 313.63 254.349 313.63L253.214 317.072L252.251 316.944Z" fill="#331832"/>
<path d="M253.325 319.618C253.312 319.668 253.3 319.719 253.29 319.77C252.636 322.739 255.374 325.058 255.374 325.058L255.398 325.048L257.415 319.764C256.557 319.122 255.296 318.345 254.378 318.489C253.898 318.564 253.512 318.891 253.325 319.618Z" fill="#331832"/>
<path d="M268.271 315.842C269.8 310.532 267.5 305.208 263.135 303.95C258.769 302.692 253.991 305.976 252.462 311.286C250.933 316.595 253.233 321.919 257.598 323.177C261.964 324.436 266.742 321.151 268.271 315.842Z" fill="#FFB27D"/>
<path d="M253.99 310.356C253.99 310.356 256.232 311.988 258.112 310.609C259.992 309.23 261.322 307.922 265.531 310.042C269.74 312.161 274.348 311.21 275.199 308.823C276.05 306.437 274.045 304.609 271.401 304.727C268.757 304.846 271.96 303.396 270.121 300.887C268.282 298.379 263.617 300.963 261.304 299.719C258.991 298.476 250.753 297.395 249.271 304.457L253.99 310.356Z" fill="#331832"/>
<path d="M252.23 311.771C252.771 312.606 253.808 312.887 254.547 312.399C255.286 311.911 255.446 310.838 254.905 310.003C254.365 309.168 253.328 308.887 252.589 309.375C251.85 309.863 251.69 310.935 252.23 311.771Z" fill="#FFB27D"/>
<path d="M270.549 307.997C268.781 307.997 266.381 305.838 266.271 305.738L266.478 305.51C266.506 305.535 269.307 308.053 270.926 307.644C271.549 307.486 271.9 307.192 271.844 306.875C271.791 306.573 271.35 306.291 270.723 306.351C269.354 306.492 268.609 306.026 268.578 306.006L268.744 305.746C268.751 305.751 269.437 306.173 270.692 306.044C271.534 305.959 272.07 306.38 272.148 306.821C272.216 307.206 271.95 307.702 271.002 307.943C270.857 307.98 270.706 307.997 270.549 307.997Z" fill="white"/>
<path d="M263.279 302.084C262.696 302.084 262.091 301.998 261.515 301.772C260.783 301.485 260.146 301.148 259.531 300.823C258.337 300.191 257.304 299.646 256.184 299.865L256.125 299.562C257.353 299.322 258.429 299.891 259.675 300.55C260.283 300.871 260.911 301.204 261.628 301.485C263.768 302.323 266.273 301.112 266.429 300.98L266.655 301.19C266.521 301.345 264.988 302.084 263.279 302.084Z" fill="white"/>
<path d="M251.407 304.091C251.362 304.091 251.32 304.084 251.282 304.07C251.178 304.031 251.019 303.91 251.119 303.533L251.142 303.484C251.314 303.237 252.207 302.022 252.824 302.412C252.903 302.461 253.069 302.612 252.905 302.942C252.702 303.351 251.88 304.091 251.407 304.091ZM251.411 303.637C251.383 303.755 251.4 303.791 251.4 303.791C251.483 303.818 251.928 303.605 252.35 303.17C252.649 302.862 252.674 302.7 252.664 302.676C252.39 302.501 251.763 303.141 251.411 303.637Z" fill="white"/>
<path d="M261.947 313.791C261.997 313.784 262.043 313.754 262.069 313.706C262.114 313.625 262.085 313.523 262.005 313.477C261.958 313.451 260.918 312.73 259.805 313.683C259.734 313.743 259.723 313.848 259.781 313.92C259.839 313.992 259.933 313.986 260.015 313.944C260.839 313.527 261.803 313.749 261.843 313.771C261.876 313.79 261.912 313.796 261.947 313.791Z" fill="#080435"/>
<path d="M260.407 315.457C260.344 315.854 260.524 316.213 260.81 316.259C261.094 316.305 261.376 316.02 261.439 315.624C261.502 315.227 261.322 314.869 261.037 314.823C260.752 314.776 260.47 315.061 260.407 315.457Z" fill="#080435"/>
<path d="M267.767 315.903C267.805 315.912 267.848 315.9 267.883 315.864C267.943 315.803 267.958 315.698 267.917 315.63C267.893 315.589 267.408 314.576 266.29 315.1C266.219 315.133 266.175 315.226 266.19 315.313C266.206 315.399 266.275 315.424 266.348 315.412C267.075 315.294 267.68 315.817 267.7 315.851C267.717 315.879 267.741 315.896 267.767 315.903Z" fill="#080435"/>
<path d="M265.679 316.842C265.471 317.184 265.502 317.585 265.748 317.738C265.994 317.89 266.362 317.736 266.57 317.393C266.778 317.051 266.746 316.65 266.5 316.497C266.254 316.345 265.886 316.499 265.679 316.842Z" fill="#080435"/>
<path d="M260.912 321.058C259.91 321.058 258.397 320.763 257.499 319.175C257.467 319.12 257.486 319.048 257.543 319.016C257.599 318.984 257.67 319.004 257.702 319.06C259.036 321.42 261.747 320.758 261.862 320.728C261.925 320.711 261.989 320.75 262.005 320.813C262.021 320.875 261.983 320.939 261.921 320.955C261.91 320.957 261.498 321.058 260.912 321.058Z" fill="#020202"/>
<path d="M257.261 319.588C257.249 319.588 257.237 319.586 257.225 319.582C257.163 319.562 257.13 319.495 257.15 319.434C257.247 319.142 257.505 318.874 257.918 318.636C257.973 318.604 258.056 318.614 258.089 318.668C258.122 318.721 258.12 318.784 258.068 318.819L258.034 318.838C257.584 319.097 257.425 319.345 257.372 319.507C257.356 319.556 257.31 319.588 257.261 319.588Z" fill="#020202"/>
<path d="M270.464 344.398L269.977 344.558L271.863 350.294L272.35 350.133L270.464 344.398Z" fill="#331832"/>
<path d="M266.615 322.513C266.014 322.513 265.472 322.288 265.032 321.853C263.627 320.46 263.694 317.232 265.181 314.657C266.096 313.072 267.38 312.027 268.615 311.861C269.351 311.762 270.016 311.983 270.536 312.498C271.942 313.891 271.875 317.12 270.389 319.695C269.474 321.279 268.19 322.324 266.954 322.49C266.839 322.505 266.726 322.513 266.615 322.513ZM268.949 312.186C268.855 312.186 268.758 312.193 268.661 312.206C267.532 312.357 266.343 313.338 265.481 314.831C264.068 317.277 263.977 320.317 265.277 321.606C265.717 322.043 266.28 322.228 266.908 322.146C268.037 321.994 269.226 321.013 270.087 319.521C271.5 317.074 271.592 314.034 270.292 312.746C269.92 312.377 269.46 312.186 268.949 312.186Z" fill="white"/>
<g opacity="0.3">
<path d="M256.809 310.873C255.605 313.434 255.938 316.55 257.552 317.833C259.167 319.116 261.452 318.079 262.656 315.518C263.859 312.957 263.527 309.841 261.912 308.558C260.298 307.275 258.013 308.312 256.809 310.873Z" fill="white"/>
</g>
<g opacity="0.3">
<path d="M265.06 314.863C263.852 317.436 264.015 320.558 265.425 321.837C266.835 323.115 268.957 322.065 270.166 319.492C271.374 316.918 271.211 313.796 269.801 312.518C268.391 311.24 266.269 312.29 265.06 314.863Z" fill="white"/>
</g>
<path d="M259.36 318.521C258.729 318.521 258.132 318.312 257.606 317.901C255.823 316.508 255.43 313.151 256.729 310.417C257.487 308.823 258.665 307.733 259.959 307.427C260.849 307.217 261.697 307.403 262.415 307.963C264.198 309.356 264.591 312.714 263.292 315.447C262.534 317.042 261.356 318.132 260.062 318.437C259.825 318.494 259.59 318.521 259.36 318.521ZM260.658 307.691C260.455 307.691 260.249 307.716 260.04 307.765C258.866 308.042 257.746 309.09 257.044 310.566C255.81 313.161 256.158 316.328 257.82 317.627C258.453 318.12 259.2 318.284 259.983 318.099C261.156 317.822 262.276 316.775 262.978 315.298C264.212 312.703 263.864 309.536 262.202 308.238C261.738 307.875 261.213 307.691 260.658 307.691Z" fill="white"/>
<path d="M265.267 315.959C265.17 315.959 265.074 315.916 265.01 315.833C264.979 315.794 264.305 314.959 262.841 314.923C262.662 314.918 262.52 314.769 262.525 314.59C262.529 314.411 262.684 314.28 262.857 314.274C264.649 314.318 265.49 315.392 265.524 315.437C265.633 315.58 265.606 315.783 265.464 315.892C265.405 315.937 265.335 315.959 265.267 315.959Z" fill="white"/>
<path d="M270.2 390.214L249.457 399.006L249.538 399.197L270.281 390.405L270.2 390.214Z" fill="#020202"/>
<path d="M94.5993 319.274C94.5993 319.274 102.254 318.921 103.473 307.17C104.726 295.092 90.8794 307.17 90.8794 307.17L94.5993 319.274Z" fill="#FFB27D"/>
<path d="M86.7891 280.747C87.2554 280.931 95.004 283.032 98.435 294.723C101.866 306.414 90.3478 297.196 90.3478 297.196L86.7891 280.747Z" fill="#FFB27D"/>
<path d="M76.5842 441.826C76.5842 441.826 76.6894 446.028 79.5313 447.213C82.3733 448.398 90.6078 449.468 87.5309 452.169C85.7652 453.72 77.4446 452.718 75.0955 452.718C72.746 452.718 70.5405 453.742 68.7948 452.169C66.8745 450.439 68.7952 441.826 68.7952 441.826C68.7952 441.826 70.8224 442.882 72.6456 442.835C75.2725 442.766 76.5842 441.826 76.5842 441.826Z" fill="#331832"/>
<path d="M43.9462 441.825C43.9462 441.825 44.0514 446.027 46.8934 447.212C49.7353 448.397 57.9698 449.467 54.8928 452.169C53.1271 453.719 44.8066 452.717 42.4575 452.717C40.108 452.717 37.9025 453.741 36.1568 452.168C34.236 450.438 36.1572 441.825 36.1572 441.825C36.1572 441.825 38.1844 442.881 40.0076 442.834C42.6345 442.766 43.9462 441.825 43.9462 441.825Z" fill="#331832"/>
<path d="M97.7071 326.636C97.7071 326.636 98.2326 344.224 92.6209 377.966C88.5698 402.324 83.7875 426.87 81.4413 438.638C80.6021 442.847 77.0634 445.925 72.8694 446.093L70.6158 446.184C66.0812 446.366 62.4009 442.469 62.7322 437.836L68.425 358.223L69.8284 332.02L97.7071 326.636Z" fill="#6DA49A"/>
<path d="M46.3773 342.114C46.6359 344.255 58.7351 343.995 73.5494 342.119C88.3636 340.243 99.8945 337.032 99.6354 334.892C99.3768 332.751 87.4261 332.491 72.6122 334.367C57.7984 336.242 46.1186 339.973 46.3773 342.114Z" fill="#331832"/>
<path d="M80.6991 339.199L49.072 440.84C47.7481 445.095 43.9197 448.01 39.5581 448.085L37.6569 448.117C33.1684 448.194 29.7374 444.042 30.5558 439.524L47.8566 344.018C48.1079 342.883 48.9455 341.981 50.0397 341.665C55.9724 339.953 81.2817 334.995 80.6991 339.199Z" fill="#6DA49A"/>
<path d="M51.3234 283.595C51.3234 283.595 55.5316 271.75 70.5221 272.289C85.5126 272.828 96.8313 292.535 99.6357 334.892C99.6357 334.892 75.0889 329.507 46.3335 342.069C46.3335 342.069 44.7391 300.859 51.3234 283.595Z" fill="#73B3CE"/>
<path d="M40.7959 282.882L51.4158 289.682C51.4158 289.682 78.7135 292.415 85.9603 291.1C93.2071 289.784 94.3348 284.454 94.3348 284.454C94.3348 284.454 87.4409 274.994 74.3226 272.644C73.0901 272.422 71.8482 272.385 70.5227 272.29C68.2976 272.132 66.0726 272.2 63.8915 272.435C50.9307 273.834 40.7959 282.882 40.7959 282.882Z" fill="#73B3CE"/>
<path d="M66.5641 384.628L66.0586 384.462L72.8603 363.775C74.431 358.999 77.6625 355.012 81.9593 352.548L82.224 353.01C78.0411 355.408 74.8953 359.29 73.3658 363.941L66.5641 384.628Z" fill="#020202"/>
<path d="M40.6446 283.116C40.2762 284.186 43.0537 286.188 46.8482 287.589C50.6428 288.989 54.0175 289.257 54.3859 288.187C54.7543 287.118 51.9768 285.116 48.1823 283.715C44.3878 282.315 41.013 282.047 40.6446 283.116Z" fill="#331832"/>
<path d="M66.6926 320.124L66.8195 312.36C66.837 311.299 66.0211 310.41 64.9628 310.334C59.5833 309.949 55.8173 308.279 53.7542 305.36C50.8894 301.307 51.1917 295.012 51.9901 290.646C52.3985 288.412 51.6613 286.918 48.9638 285.486C48.9638 285.486 46.6429 284.209 43.7814 283.721C42.635 283.525 41.4971 283.986 41.2014 285.111C40.7387 286.872 40.1394 289.612 39.8534 292.835C39.1745 300.491 40.6506 307.15 44.122 312.094C48.3825 318.161 55.2506 321.518 64.5565 322.088C65.6992 322.158 66.6738 321.268 66.6926 320.124Z" fill="#FFB27D"/>
<g opacity="0.5">
<path d="M46.9141 310.065C46.1521 310.065 45.2753 309.616 44.6295 308.813C44.1762 308.25 43.8992 307.597 43.8491 306.973C43.796 306.313 44.0004 305.76 44.4251 305.418C44.8498 305.076 45.4332 304.993 46.0668 305.186C46.6653 305.369 47.2446 305.778 47.6979 306.342C48.1511 306.904 48.4285 307.558 48.4787 308.182C48.5317 308.843 48.3269 309.395 47.9022 309.737C47.6261 309.959 47.2834 310.065 46.9141 310.065ZM45.4206 305.605C45.1603 305.605 44.9314 305.679 44.7519 305.823C44.4651 306.054 44.3288 306.448 44.3676 306.931C44.4096 307.452 44.6466 308.004 45.035 308.487C45.8008 309.437 46.9643 309.824 47.5759 309.331C47.8627 309.101 47.9989 308.707 47.9598 308.224C47.9182 307.703 47.6807 307.15 47.2923 306.668C46.9039 306.186 46.4152 305.836 45.9154 305.684C45.742 305.631 45.5756 305.605 45.4206 305.605Z" fill="#EC865C"/>
</g>
<path d="M58.2886 339.794C58.2886 339.794 87.8542 334.143 97.4403 336.808L92.8437 343.624L75.7546 344.591L58.2886 339.794Z" fill="#6DA49A"/>
<path d="M70.2267 311.077L95.7119 311.087C96.2455 311.087 96.7191 310.748 96.8876 310.245L102.19 294.423C102.456 293.626 101.86 292.804 101.015 292.804L76.5062 292.794C75.3892 292.794 74.3974 293.504 74.0445 294.557L69.0509 309.457C68.7845 310.254 69.3814 311.077 70.2267 311.077Z" fill="#331832"/>
<path d="M71.8266 311.078L97.3117 311.087C97.8453 311.087 98.319 310.748 98.4875 310.245L103.789 294.424C104.057 293.627 103.46 292.804 102.615 292.804L78.1061 292.795C76.989 292.795 75.9977 293.505 75.6448 294.557L70.6512 309.458C70.3844 310.254 70.9813 311.077 71.8266 311.078Z" fill="#331832"/>
<path d="M89.6868 301.424C89.6868 300.823 88.9945 300.578 88.3894 300.578C87.7848 300.577 86.7971 301.236 86.8033 302.078C86.8098 302.987 87.5192 303.105 88.1239 303.105C88.7285 303.106 89.6864 302.189 89.6868 301.424Z" fill="#DAEBE8"/>
<path d="M73.6423 300.793L73.4824 300.75C73.5338 300.557 74.752 295.993 75.5725 294.517C76.4043 293.02 77.4222 292.726 77.465 292.715L77.5087 292.875C77.4989 292.877 76.5128 293.166 75.7169 294.598C74.9071 296.055 73.655 300.745 73.6423 300.793Z" fill="#366F90"/>
<path d="M72.8937 302.489L70.8975 308.42L71.0544 308.473L73.0507 302.542L72.8937 302.489Z" fill="#366F90"/>
<path d="M103.627 305.426C103.627 305.426 104.049 308.748 101.241 309.063C97.6619 309.465 92.756 306.259 95.0198 305.971C97.0266 305.715 99.9759 306.09 99.9759 306.09C99.9759 306.09 92.4871 305.025 93.184 303.431C93.8808 301.838 100.311 302.848 100.311 302.848C100.311 302.848 93.0934 301.072 94.21 299.809C95.3266 298.546 101.169 299.424 101.169 299.424C101.169 299.424 94.0383 298.095 95.3682 296.662C96.6982 295.228 100.275 296.716 101.916 296.978C103.466 297.225 103.846 298.377 103.557 299.964C103.557 299.964 104.126 301.749 103.692 302.728C103.526 303.103 103.831 303.551 103.83 303.847C103.829 304.413 103.627 305.426 103.627 305.426Z" fill="#FFB27D"/>
<path d="M62.9878 309.841C62.9878 309.841 64.8771 304.12 68.1119 302.72C71.3471 301.319 76.5377 301.977 74.717 303.271C72.8958 304.565 70.1126 305.576 70.1126 305.576C70.1126 305.576 76.1608 303.696 75.9878 305.302C75.8144 306.907 70.5385 308.491 70.5385 308.491C70.5385 308.491 77.9138 306.828 77.2594 308.292C76.605 309.756 70.9934 310.979 70.9934 310.979C70.9934 310.979 77.9171 309.707 77.1171 311.389C76.317 313.071 71.3887 312.403 71.2154 314.009C71.042 315.614 69.8115 321.932 65.292 321.996L62.9878 309.841Z" fill="#FFB27D"/>
<path d="M67.9562 306.905L67.7212 306.794C68.2189 305.746 70.0164 305.459 70.0927 305.447L70.1323 305.705C70.1148 305.707 68.3947 305.982 67.9562 306.905Z" fill="#E9845C"/>
<path d="M67.9277 310.09L67.7192 309.934C68.7008 308.621 70.4473 308.372 70.5212 308.362L70.5559 308.62C70.5387 308.623 68.8424 308.865 67.9277 310.09Z" fill="#E9845C"/>
<path d="M68.5648 312.454L68.3208 312.362C68.7569 311.2 70.8828 310.864 70.973 310.851L71.0122 311.108C70.9914 311.111 68.947 311.434 68.5648 312.454Z" fill="#E9845C"/>
<path d="M100.83 309.247C99.7504 309.247 98.542 308.95 98.4648 308.93L98.5277 308.678C99.2963 308.87 101.435 309.249 102.091 308.704L102.257 308.905C101.946 309.162 101.406 309.247 100.83 309.247Z" fill="#E9845C"/>
<path d="M78.9499 250.663C78.9499 250.663 80.9795 245.09 76.0292 243.35C71.0785 241.609 71.3025 245.724 70.1471 246.48C68.9921 247.237 70.6273 250.691 72.9752 251.666C75.323 252.642 78.9499 250.663 78.9499 250.663Z" fill="#EF8062"/>
<path d="M71.0759 276.256C73.4569 275.486 72.0689 272.391 72.0689 272.391C70.9919 272.203 70.2025 271.489 70.2735 270.398L70.364 269.057L70.4093 268.393L70.5492 266.269L70.6765 264.362L71.1983 256.542L67.9921 264.104L67.447 265.389L65.5679 269.821C64.9678 271.234 63.7443 272.271 62.1699 272.666C63.2376 273.858 68.2809 277.163 71.0759 276.256Z" fill="#FFB27D"/>
<path d="M67.4468 265.389C67.4468 265.389 68.4035 267.865 70.409 268.393L70.549 266.27C69.3145 265.827 67.4468 265.389 67.4468 265.389Z" fill="#331832"/>
<path d="M62.3578 255.302C62.3578 255.302 62.6674 256.584 61.9441 259.218C60.8858 263.071 65.2898 264.654 66.4089 263.55C66.5472 263.413 66.3277 256.869 66.3277 256.869L64.9182 256.042L62.3578 255.302Z" fill="#EF8062"/>
<path d="M71.6255 266.852C75.6809 266.83 78.9466 262.755 78.9196 257.75C78.8926 252.744 75.5831 248.704 71.5276 248.726C67.4722 248.748 64.2065 252.824 64.2335 257.829C64.2605 262.834 67.57 266.874 71.6255 266.852Z" fill="#FFB27D"/>
<path d="M74.4304 250.818C74.228 251.098 75.4087 255.753 66.7809 256.913C58.1532 258.073 63.2834 247.566 69.6526 247.295C78.8491 246.903 80.2211 253.084 79.3493 255.315C78.4779 257.546 74.4304 250.818 74.4304 250.818Z" fill="#EF8062"/>
<path d="M67.7247 255.424C67.7247 255.424 64.2165 259.164 65.4608 262.961C65.4608 262.961 63.4022 260.735 63.3524 259.901C63.3027 259.066 63.8302 256.047 63.8302 256.047L67.7247 255.424Z" fill="#EF8062"/>
<path d="M65.2058 259.191C66.0418 259.982 67.2053 260.057 67.8046 259.359C68.4039 258.662 68.2118 257.456 67.3758 256.666C66.5399 255.876 65.3764 255.801 64.7771 256.498C64.1777 257.196 64.3699 258.402 65.2058 259.191Z" fill="#FFB27D"/>
<path d="M72.2701 257.874C72.319 257.86 72.3611 257.825 72.381 257.774C72.4149 257.688 72.3729 257.591 72.2872 257.557C72.2366 257.537 71.1094 256.965 70.1274 258.051C70.0654 258.119 70.0674 258.224 70.1348 258.287C70.2021 258.35 70.2947 258.332 70.371 258.28C71.1351 257.76 72.1224 257.852 72.1644 257.868C72.1995 257.882 72.2366 257.883 72.2701 257.874Z" fill="#080435"/>
<path d="M70.9584 259.717C70.9478 260.116 71.1738 260.445 71.4626 260.453C71.7519 260.461 71.9946 260.144 72.0052 259.745C72.0158 259.346 71.7898 259.017 71.501 259.01C71.2117 259.002 70.969 259.319 70.9584 259.717Z" fill="#080435"/>
<path d="M78.236 258.713C78.2862 258.719 78.3388 258.702 78.3768 258.663C78.4404 258.596 78.4388 258.491 78.3727 258.427C78.3335 258.389 77.5094 257.431 76.188 258.06C76.1048 258.1 76.0664 258.198 76.1048 258.282C76.1427 258.366 76.2353 258.384 76.3259 258.365C77.2304 258.176 78.1083 258.636 78.1409 258.667C78.1679 258.694 78.2013 258.709 78.236 258.713Z" fill="#080435"/>
<path d="M76.3216 259.917C76.16 260.282 76.2436 260.673 76.508 260.79C76.7724 260.907 77.1175 260.706 77.2791 260.342C77.4406 259.977 77.3574 259.587 77.0926 259.47C76.8287 259.353 76.4831 259.553 76.3216 259.917Z" fill="#080435"/>
<g opacity="0.3">
<path d="M68.1405 257.51C67.4812 259.664 68.1063 262.074 69.5358 262.893C70.9657 263.713 72.6592 262.631 73.3181 260.477C73.9774 258.323 73.3528 255.913 71.9228 255.093C70.4933 254.274 68.7998 255.356 68.1405 257.51Z" fill="white"/>
</g>
<g opacity="0.3">
<path d="M75.4741 258.807C75.0677 260.98 75.7894 263.295 77.0864 263.978C78.3833 264.66 79.7643 263.451 80.1706 261.278C80.577 259.104 79.8553 256.789 78.5583 256.107C77.2614 255.425 75.8808 256.634 75.4741 258.807Z" fill="white"/>
</g>
<path d="M67.7452 259.058C67.746 259.175 67.7497 259.291 67.7595 259.404C67.8252 260.513 68.1854 261.538 68.7766 262.251C69.0103 262.535 69.282 262.77 69.5876 262.941C69.8805 263.106 70.1857 263.205 70.4966 263.234C70.5814 263.243 70.6663 263.246 70.7511 263.245C71.0339 263.241 71.3223 263.182 71.6042 263.071C72.3031 262.794 72.9093 262.215 73.3507 261.424C73.5343 261.1 73.6893 260.738 73.813 260.347C73.9394 259.941 74.0223 259.529 74.0606 259.114C74.0814 258.938 74.09 258.765 74.0924 258.589C74.1185 257.043 73.5739 255.589 72.6245 254.82C72.5079 254.724 72.3818 254.64 72.2525 254.565C71.616 254.207 70.9188 254.16 70.2355 254.434C69.3706 254.778 68.646 255.58 68.1997 256.673C68.1344 256.831 68.0789 256.991 68.0263 257.158C67.9953 257.255 67.9675 257.356 67.9431 257.457C67.866 257.746 67.8141 258.042 67.7815 258.334C67.7554 258.577 67.744 258.82 67.7452 259.058ZM72.2851 262.324C72.0411 262.539 71.7784 262.706 71.5026 262.815C71.2582 262.913 71.0135 262.965 70.7687 262.969C70.4105 262.974 70.0584 262.885 69.7247 262.698C69.4097 262.521 69.1319 262.271 68.901 261.961C68.3286 261.217 68.0149 260.147 68.0214 259.009V259.006C68.0234 258.833 68.032 258.657 68.0467 258.481C68.0614 258.315 68.0826 258.148 68.1132 257.981C68.156 257.733 68.2144 257.487 68.2915 257.242C68.3625 257.018 68.4428 256.801 68.5391 256.6C68.5885 256.483 68.6448 256.373 68.7068 256.266C68.7101 256.259 68.7129 256.253 68.719 256.247C68.7251 256.234 68.7317 256.225 68.7378 256.212C68.8561 256.001 68.9838 255.809 69.1241 255.635C69.4734 255.196 69.8895 254.871 70.3375 254.692C70.6634 254.562 70.9931 254.513 71.3166 254.549C71.5899 254.576 71.8576 254.662 72.1158 254.808C72.2133 254.864 72.308 254.923 72.3965 254.995C73.3267 255.7 73.8525 257.111 73.8166 258.616C73.8146 258.792 73.8028 258.968 73.782 259.147C73.7399 259.522 73.6636 259.896 73.5494 260.264C73.4352 260.632 73.2863 260.979 73.1088 261.288C72.8816 261.694 72.6041 262.041 72.2978 262.313C72.2916 262.317 72.2884 262.32 72.2851 262.324Z" fill="#331832"/>
<path d="M75.3604 260.076C75.3612 260.199 75.3649 260.318 75.3718 260.437C75.3788 260.557 75.3918 260.676 75.4053 260.792C75.4118 260.87 75.422 260.952 75.4347 261.028C75.4347 261.037 75.4379 261.05 75.4379 261.059C75.4477 261.125 75.4575 261.188 75.4706 261.254C75.4738 261.257 75.4738 261.26 75.4738 261.263C75.3951 260.686 75.3951 260.06 75.4861 259.431C75.4702 259.419 75.4388 259.4 75.3947 259.375C75.3829 259.495 75.3739 259.611 75.3682 259.73C75.3621 259.847 75.3596 259.963 75.3604 260.076ZM75.3604 260.076C75.3612 260.199 75.3649 260.318 75.3718 260.437C75.3788 260.557 75.3918 260.676 75.4053 260.792C75.4118 260.87 75.422 260.952 75.4347 261.028C75.4347 261.037 75.4379 261.05 75.4379 261.059C75.4477 261.125 75.4575 261.188 75.4706 261.254C75.4738 261.257 75.4738 261.26 75.4738 261.263C75.3951 260.686 75.3951 260.06 75.4861 259.431C75.4702 259.419 75.4388 259.4 75.3947 259.375C75.3829 259.495 75.3739 259.611 75.3682 259.73C75.3621 259.847 75.3596 259.963 75.3604 260.076ZM75.3604 260.076C75.3612 260.199 75.3649 260.318 75.3718 260.437C75.3788 260.557 75.3918 260.676 75.4053 260.792C75.4118 260.87 75.422 260.952 75.4347 261.028C75.4347 261.037 75.4379 261.05 75.4379 261.059C75.4477 261.125 75.4575 261.188 75.4706 261.254C75.4738 261.257 75.4738 261.26 75.4738 261.263C75.3951 260.686 75.3951 260.06 75.4861 259.431C75.4702 259.419 75.4388 259.4 75.3947 259.375C75.3829 259.495 75.3739 259.611 75.3682 259.73C75.3621 259.847 75.3596 259.963 75.3604 260.076ZM75.3604 260.076C75.3612 260.199 75.3649 260.318 75.3718 260.437C75.3788 260.557 75.3918 260.676 75.4053 260.792C75.4118 260.87 75.422 260.952 75.4347 261.028C75.4347 261.037 75.4379 261.05 75.4379 261.059C75.4477 261.125 75.4575 261.188 75.4706 261.254C75.4738 261.257 75.4738 261.26 75.4738 261.263C75.3951 260.686 75.3951 260.06 75.4861 259.431C75.4702 259.419 75.4388 259.4 75.3947 259.375C75.3829 259.495 75.3739 259.611 75.3682 259.73C75.3621 259.847 75.3596 259.963 75.3604 260.076ZM75.3604 260.076C75.3612 260.199 75.3649 260.318 75.3718 260.437C75.3788 260.557 75.3918 260.676 75.4053 260.792C75.4118 260.87 75.422 260.952 75.4347 261.028C75.4347 261.037 75.4379 261.05 75.4379 261.059C75.4477 261.125 75.4575 261.188 75.4706 261.254C75.4738 261.257 75.4738 261.26 75.4738 261.263C75.3951 260.686 75.3951 260.06 75.4861 259.431C75.4702 259.419 75.4388 259.4 75.3947 259.375C75.3829 259.495 75.3739 259.611 75.3682 259.73C75.3621 259.847 75.3596 259.963 75.3604 260.076ZM75.3604 260.076C75.3612 260.199 75.3649 260.318 75.3718 260.437C75.3788 260.557 75.3918 260.676 75.4053 260.792C75.4118 260.87 75.422 260.952 75.4347 261.028C75.4347 261.037 75.4379 261.05 75.4379 261.059C75.4477 261.125 75.4575 261.188 75.4706 261.254C75.4738 261.257 75.4738 261.26 75.4738 261.263C75.3951 260.686 75.3951 260.06 75.4861 259.431C75.4702 259.419 75.4388 259.4 75.3947 259.375C75.3829 259.495 75.3739 259.611 75.3682 259.73C75.3621 259.847 75.3596 259.963 75.3604 260.076ZM75.3604 260.076C75.3612 260.199 75.3649 260.318 75.3718 260.437C75.3788 260.557 75.3918 260.676 75.4053 260.792C75.4118 260.87 75.422 260.952 75.4347 261.028C75.4347 261.037 75.4379 261.05 75.4379 261.059C75.4477 261.125 75.4575 261.188 75.4706 261.254C75.4738 261.257 75.4738 261.26 75.4738 261.263C75.3951 260.686 75.3951 260.06 75.4861 259.431C75.4702 259.419 75.4388 259.4 75.3947 259.375C75.3829 259.495 75.3739 259.611 75.3682 259.73C75.3621 259.847 75.3596 259.963 75.3604 260.076ZM75.3604 260.076C75.3612 260.199 75.3649 260.318 75.3718 260.437C75.3788 260.557 75.3918 260.676 75.4053 260.792C75.4118 260.87 75.422 260.952 75.4347 261.028C75.4347 261.037 75.4379 261.05 75.4379 261.059C75.4477 261.125 75.4575 261.188 75.4706 261.254C75.4738 261.257 75.4738 261.26 75.4738 261.263C75.3951 260.686 75.3951 260.06 75.4861 259.431C75.4702 259.419 75.4388 259.4 75.3947 259.375C75.3829 259.495 75.3739 259.611 75.3682 259.73C75.3621 259.847 75.3596 259.963 75.3604 260.076ZM75.1422 260.417C75.1466 261.224 75.2919 261.99 75.5591 262.626H75.5624V262.63C75.8296 263.272 76.2249 263.779 76.7226 264.065C76.7541 264.084 76.7855 264.1 76.8173 264.115C76.8205 264.119 76.8238 264.118 76.8267 264.121C77.0849 264.252 77.3583 264.317 77.6349 264.315C77.8703 264.314 78.1089 264.265 78.3439 264.167C79.2684 263.788 80.0541 262.725 80.4486 261.325C81.0896 259.044 80.4923 256.549 79.1248 255.761C79.0962 255.746 79.0648 255.727 79.0366 255.715H79.0334C78.9139 255.652 78.7972 255.606 78.6744 255.572C78.5014 255.526 78.3284 255.508 78.1526 255.516C77.9359 255.523 77.7197 255.574 77.5002 255.66C76.579 256.039 75.79 257.102 75.3988 258.503C75.3743 258.594 75.3494 258.685 75.3278 258.777C75.2878 258.946 75.2544 259.12 75.2299 259.293C75.1666 259.669 75.1405 260.049 75.1422 260.417ZM75.4734 261.263C75.3947 260.686 75.3947 260.06 75.4857 259.431C75.513 259.249 75.5465 259.066 75.5864 258.887C75.6109 258.784 75.6387 258.679 75.6664 258.576C75.8512 257.915 76.1245 257.339 76.4583 256.881C76.7793 256.443 77.1575 256.117 77.5618 255.939C77.5773 255.93 77.5932 255.923 77.6088 255.917C77.8095 255.834 78.0135 255.792 78.2142 255.791C78.39 255.79 78.5663 255.821 78.736 255.886C78.8208 255.917 78.9028 255.954 78.9848 256.001C80.2512 256.729 80.7885 259.083 80.1814 261.251C80.1782 261.26 80.1753 261.27 80.172 261.279C80.172 261.282 80.172 261.282 80.172 261.285C80.172 261.288 80.1688 261.295 80.1688 261.298C80.1688 261.301 80.1655 261.304 80.1655 261.307C79.7894 262.601 79.0721 263.566 78.2387 263.91C77.8189 264.085 77.3917 264.077 76.998 263.894C76.9507 263.876 76.9066 263.851 76.8626 263.826C76.8246 263.804 76.7871 263.782 76.7524 263.754C76.743 263.751 76.7304 263.742 76.721 263.732C76.721 263.732 76.7177 263.732 76.7177 263.729C76.7145 263.729 76.7145 263.726 76.7112 263.723C76.4211 263.523 76.1747 263.23 75.9781 262.866C75.7402 262.437 75.5742 261.913 75.4865 261.341C75.4832 261.317 75.48 261.288 75.4734 261.263ZM75.3604 260.076C75.3612 260.199 75.3649 260.318 75.3718 260.437C75.3788 260.557 75.3918 260.676 75.4053 260.792C75.4118 260.87 75.422 260.952 75.4347 261.028C75.4347 261.037 75.4379 261.05 75.4379 261.059C75.4477 261.125 75.4575 261.188 75.4706 261.254C75.4738 261.257 75.4738 261.26 75.4738 261.263C75.3951 260.686 75.3951 260.06 75.4861 259.431C75.4702 259.419 75.4388 259.4 75.3947 259.375C75.3829 259.495 75.3739 259.611 75.3682 259.73C75.3621 259.847 75.3596 259.963 75.3604 260.076ZM75.3604 260.076C75.3612 260.199 75.3649 260.318 75.3718 260.437C75.3788 260.557 75.3918 260.676 75.4053 260.792C75.4118 260.87 75.422 260.952 75.4347 261.028C75.4347 261.037 75.4379 261.05 75.4379 261.059C75.4477 261.125 75.4575 261.188 75.4706 261.254C75.4738 261.257 75.4738 261.26 75.4738 261.263C75.3951 260.686 75.3951 260.06 75.4861 259.431C75.4702 259.419 75.4388 259.4 75.3947 259.375C75.3829 259.495 75.3739 259.611 75.3682 259.73C75.3621 259.847 75.3596 259.963 75.3604 260.076ZM75.3604 260.076C75.3612 260.199 75.3649 260.318 75.3718 260.437C75.3788 260.557 75.3918 260.676 75.4053 260.792C75.4118 260.87 75.422 260.952 75.4347 261.028C75.4347 261.037 75.4379 261.05 75.4379 261.059C75.4477 261.125 75.4575 261.188 75.4706 261.254C75.4738 261.257 75.4738 261.26 75.4738 261.263C75.3951 260.686 75.3951 260.06 75.4861 259.431C75.4702 259.419 75.4388 259.4 75.3947 259.375C75.3829 259.495 75.3739 259.611 75.3682 259.73C75.3621 259.847 75.3596 259.963 75.3604 260.076ZM75.3604 260.076C75.3612 260.199 75.3649 260.318 75.3718 260.437C75.3788 260.557 75.3918 260.676 75.4053 260.792C75.4118 260.87 75.422 260.952 75.4347 261.028C75.4347 261.037 75.4379 261.05 75.4379 261.059C75.4477 261.125 75.4575 261.188 75.4706 261.254C75.4738 261.257 75.4738 261.26 75.4738 261.263C75.3951 260.686 75.3951 260.06 75.4861 259.431C75.4702 259.419 75.4388 259.4 75.3947 259.375C75.3829 259.495 75.3739 259.611 75.3682 259.73C75.3621 259.847 75.3596 259.963 75.3604 260.076ZM75.3604 260.076C75.3612 260.199 75.3649 260.318 75.3718 260.437C75.3788 260.557 75.3918 260.676 75.4053 260.792C75.4118 260.87 75.422 260.952 75.4347 261.028C75.4347 261.037 75.4379 261.05 75.4379 261.059C75.4477 261.125 75.4575 261.188 75.4706 261.254C75.4738 261.257 75.4738 261.26 75.4738 261.263C75.3951 260.686 75.3951 260.06 75.4861 259.431C75.4702 259.419 75.4388 259.4 75.3947 259.375C75.3829 259.495 75.3739 259.611 75.3682 259.73C75.3621 259.847 75.3596 259.963 75.3604 260.076ZM75.3604 260.076C75.3612 260.199 75.3649 260.318 75.3718 260.437C75.3788 260.557 75.3918 260.676 75.4053 260.792C75.4118 260.87 75.422 260.952 75.4347 261.028C75.4347 261.037 75.4379 261.05 75.4379 261.059C75.4477 261.125 75.4575 261.188 75.4706 261.254C75.4738 261.257 75.4738 261.26 75.4738 261.263C75.3951 260.686 75.3951 260.06 75.4861 259.431C75.4702 259.419 75.4388 259.4 75.3947 259.375C75.3829 259.495 75.3739 259.611 75.3682 259.73C75.3621 259.847 75.3596 259.963 75.3604 260.076ZM75.3604 260.076C75.3612 260.199 75.3649 260.318 75.3718 260.437C75.3788 260.557 75.3918 260.676 75.4053 260.792C75.4118 260.87 75.422 260.952 75.4347 261.028C75.4347 261.037 75.4379 261.05 75.4379 261.059C75.4477 261.125 75.4575 261.188 75.4706 261.254C75.4738 261.257 75.4738 261.26 75.4738 261.263C75.3951 260.686 75.3951 260.06 75.4861 259.431C75.4702 259.419 75.4388 259.4 75.3947 259.375C75.3829 259.495 75.3739 259.611 75.3682 259.73C75.3621 259.847 75.3596 259.963 75.3604 260.076Z" fill="#331832"/>
<path d="M75.6619 259.496C75.7391 259.496 75.8149 259.461 75.8655 259.396C75.9532 259.283 75.9324 259.12 75.819 259.032C75.7827 259.004 74.9154 258.349 73.5172 258.677C73.3781 258.709 73.2916 258.849 73.3243 258.988C73.3565 259.128 73.4964 259.214 73.6356 259.182C74.7966 258.909 75.4955 259.437 75.5024 259.442C75.5498 259.479 75.6061 259.497 75.6619 259.496Z" fill="#331832"/>
<path d="M67.6342 248.954C67.6342 248.954 66.9105 243.067 61.7101 243.768C56.5097 244.468 57.5883 247.402 57.8927 249.231C58.1195 250.593 60.2332 252.763 62.7675 252.564C65.3018 252.365 67.6342 248.954 67.6342 248.954Z" fill="#EF8062"/>
<path d="M62.6088 266.658C62.5704 266.658 62.5316 266.644 62.5006 266.616C62.435 266.556 62.4297 266.455 62.4892 266.389C62.5419 266.331 63.8 264.96 65.8888 264.452C65.9749 264.429 66.0622 264.483 66.0834 264.57C66.1043 264.656 66.0512 264.743 65.9651 264.764C63.9714 265.25 62.7397 266.592 62.7275 266.605C62.6961 266.64 62.6524 266.658 62.6088 266.658Z" fill="#EF8062"/>
<path d="M73.7178 264.668C72.7155 264.668 71.6857 264.003 71.6258 263.964C71.5858 263.938 71.5752 263.885 71.6009 263.845C71.6266 263.805 71.6804 263.794 71.72 263.82C71.7392 263.833 73.6599 265.071 74.7129 264.152C74.7488 264.122 74.8031 264.125 74.8341 264.161C74.8651 264.196 74.8618 264.251 74.8259 264.282C74.5011 264.566 74.1111 264.668 73.7178 264.668Z" fill="#020202"/>
</svg>
