<svg width="76" height="68" viewBox="0 0 76 68" fill="none" xmlns="http://www.w3.org/2000/svg">
<path d="M42.7395 64.7965C44.6122 64.7965 46.1455 63.6801 46.1455 61.828C46.1455 58.5743 41.3998 59.199 41.3998 57.3534C41.3998 56.7287 41.9406 56.3054 42.635 56.3054C43.2945 56.3054 43.8766 56.6874 44.216 57.3534L45.6796 56.4589C45.0072 55.2651 43.9049 54.7385 42.6969 54.7385C41.0462 54.7385 39.6381 55.7091 39.6381 57.4437C39.6381 60.6342 44.3825 59.954 44.3825 61.9867C44.3825 62.6811 43.8146 63.2361 42.7666 63.2361C41.7264 63.2361 40.859 62.694 40.7339 61.4744L38.9863 61.9171C39.2987 63.8466 41.0049 64.7965 42.7395 64.7965Z" fill="#013B23"/>
<path d="M47.5801 67.7233H49.3005V63.9921C49.7858 64.5883 50.5485 64.8232 51.2778 64.8232C53.1918 64.8232 54.2462 63.1377 54.2462 61.2172C54.2462 59.2877 53.1918 57.6099 51.2494 57.6099C50.5072 57.6099 49.7858 57.8525 49.3005 58.4488V57.7557H47.5801V67.7233ZM50.8338 63.2629C49.6748 63.2629 49.1482 62.3826 49.1482 61.2172C49.1482 60.0518 49.6748 59.1289 50.8338 59.1289C51.9992 59.1289 52.5258 60.0518 52.5258 61.2172C52.5258 62.3826 51.9992 63.2629 50.8338 63.2629Z" fill="#013B23"/>
<path d="M57.5835 64.8232C58.4082 64.8232 59.1438 64.5599 59.7401 63.6926L59.8511 64.6851H61.245V60.4815C61.245 58.7895 60.1363 57.6099 58.2494 57.6099C56.8826 57.6099 56.0011 58.2203 55.3352 59.1289L56.6323 60.0647C56.9304 59.5587 57.4647 59.0876 58.2623 59.0876C59.158 59.0876 59.6291 59.6697 59.6291 60.5512H57.8261C56.2722 60.5512 55.0654 61.0507 55.0654 62.5556C55.0654 64.005 56.1612 64.8232 57.5835 64.8232ZM57.8261 63.3945C57.1666 63.3945 56.7988 63.0693 56.7988 62.6111C56.7988 62.1736 57.1524 61.7722 57.9229 61.7722H59.6291C59.602 62.6382 58.7902 63.3945 57.8261 63.3945Z" fill="#013B23"/>
<path d="M65.7962 64.8232C67.1695 64.8232 68.251 64.0605 68.7092 62.7711L67.1695 62.1878C66.9888 62.8395 66.4622 63.2913 65.782 63.2913C64.6024 63.2913 64.1584 62.2846 64.1584 61.2301C64.1584 60.1976 64.6166 59.1431 65.782 59.1431C66.4751 59.1431 66.9888 59.6142 67.1695 60.2802L68.7789 59.6555C68.251 58.2758 67.1553 57.6099 65.782 57.6099C63.5208 57.6099 62.438 59.4129 62.438 61.2301C62.438 63.0693 63.535 64.8232 65.7962 64.8232Z" fill="#013B23"/>
<path d="M72.8984 64.8232C74.0639 64.8232 74.9867 64.4141 75.743 63.5752L74.5775 62.5556C74.0922 63.0964 73.5373 63.2913 72.9126 63.2913C71.8233 63.2913 71.3238 62.6808 71.178 61.7722H75.9366C75.9714 61.6741 75.9998 61.3901 75.9998 61.1062C75.9998 59.5587 75.2151 57.6099 72.7874 57.6099C70.4436 57.6099 69.3892 59.4413 69.3892 61.2443C69.3892 63.1106 70.512 64.8232 72.8984 64.8232ZM71.178 60.5512C71.338 59.6839 71.7755 59.0321 72.7732 59.0321C73.6547 59.0321 74.2239 59.5587 74.3349 60.5512H71.178Z" fill="#013B23"/>
<path d="M4.74439 61.0992C6.04793 61.0992 7.11658 60.503 7.64445 59.5802L7.79674 60.9611H9.19063V55.6618H5.25806V57.0841H7.48441C7.29081 58.5748 6.15247 59.5247 4.74439 59.5247C2.64194 59.5247 1.74752 57.9372 1.74752 55.987C1.74752 54.1698 2.64194 52.5397 4.71728 52.5397C5.96533 52.5397 6.99139 53.136 7.44311 54.4679L9.00349 53.8162C8.21233 51.9848 6.6584 51 4.73019 51C1.49069 51 0 53.3722 0 56.0567C0 58.7477 1.51908 61.0992 4.74439 61.0992Z" fill="#27A348"/>
<path d="M11.0767 60.961H12.7145V58.0339C12.7145 56.2721 13.5392 55.5365 14.3304 55.5365C14.6014 55.5365 14.8582 55.6191 15.0867 55.7727L15.8559 54.3852C15.5242 54.0445 15.0454 53.8857 14.5872 53.8857C13.8102 53.8857 13.0268 54.3568 12.7287 55.197V54.0316H11.0767V60.961Z" fill="#27A348"/>
<path d="M19.6157 61.0991C20.7811 61.0991 21.7039 60.69 22.4603 59.8511L21.2948 58.8315C20.8095 59.3722 20.2546 59.5671 19.6299 59.5671C18.5406 59.5671 18.0411 58.9567 17.8953 58.048H22.6539C22.6887 57.95 22.7171 57.666 22.7171 57.3821C22.7171 55.8346 21.9324 53.8857 19.5047 53.8857C17.1609 53.8857 16.1064 55.7172 16.1064 57.5202C16.1064 59.3864 17.2293 61.0991 19.6157 61.0991ZM17.8953 56.8271C18.0553 55.9598 18.4928 55.308 19.4905 55.308C20.372 55.308 20.9412 55.8346 21.0522 56.8271H17.8953Z" fill="#27A348"/>
<path d="M27.0171 61.0991C28.1825 61.0991 29.1053 60.69 29.8616 59.8511L28.6962 58.8315C28.2109 59.3722 27.6559 59.5671 27.0313 59.5671C25.942 59.5671 25.4425 58.9567 25.2966 58.048H30.0552C30.0901 57.95 30.1185 57.666 30.1185 57.3821C30.1185 55.8346 29.3338 53.8857 26.9061 53.8857C24.5623 53.8857 23.5078 55.7172 23.5078 57.5202C23.5078 59.3864 24.6307 61.0991 27.0171 61.0991ZM25.2966 56.8271C25.4567 55.9598 25.8942 55.308 26.8919 55.308C27.7734 55.308 28.3425 55.8346 28.4535 56.8271H25.2966Z" fill="#27A348"/>
<path d="M31.5327 60.961H33.2118V57.1665C33.2118 55.9598 33.8223 55.4461 34.7722 55.4461C35.6395 55.4461 36.0977 56.1056 36.0977 57.0142V60.961H37.7691V56.7987C37.7691 55.3493 37.076 53.8857 35.2588 53.8857C34.5786 53.8857 33.7668 54.1555 33.2118 54.8357V54.0316H31.5327V60.961Z" fill="#27A348"/>
<mask id="mask0_47_126" style="mask-type:luminance" maskUnits="userSpaceOnUse" x="16" y="0" width="45" height="49">
<path d="M16.2031 0H60.184V48.6805H16.2031V0Z" fill="white"/>
</mask>
<g mask="url(#mask0_47_126)">
<path d="M60.175 27.3469C60.1813 27.8365 60.1397 28.3236 60.112 28.8132C60.0969 29.0574 60.0604 29.3003 60.0365 29.5432C60.0076 29.7874 59.9862 30.0315 59.9409 30.2719C59.3758 34.156 57.6678 37.8739 55.1166 40.8984C52.5667 43.9253 49.1659 46.2663 45.3662 47.525C44.4147 47.8321 43.4481 48.1039 42.4613 48.2763L42.0913 48.3468C41.9692 48.3707 41.8446 48.3846 41.72 48.4022L40.9749 48.5079L40.226 48.5772L39.8509 48.6111L39.4759 48.6275L38.7232 48.6577L37.9693 48.6514L37.593 48.6464C37.4671 48.6426 37.3425 48.6325 37.2167 48.6262L36.464 48.5797L35.3388 48.4551L34.9663 48.3934L34.2199 48.2701L33.4811 48.1115C29.5454 47.2254 25.8577 45.2255 22.9466 42.3974C20.0316 39.5743 17.9058 35.9269 16.8977 31.9685L16.7152 31.2234L16.5692 30.472C16.5465 30.3462 16.5176 30.2216 16.5 30.0957L16.4458 29.7156C16.4106 29.4626 16.3691 29.2097 16.3414 28.9567C16.2998 28.4469 16.2356 27.9385 16.2268 27.4275C16.2193 27.172 16.2029 26.9165 16.2017 26.6597L16.2117 25.8932C16.247 23.8455 16.5918 21.8002 17.1947 19.833C17.7875 17.8595 18.6912 15.9829 19.8051 14.2435C19.9372 14.022 20.0933 13.8143 20.2393 13.6016C20.3903 13.3915 20.5325 13.175 20.6899 12.9711C21.0121 12.5658 21.3179 12.1467 21.6665 11.7641C21.8377 11.569 22.0051 11.3714 22.1801 11.1801C22.3072 11.0492 22.4053 10.8931 22.4746 10.7245C26.8155 0.0715849 41.8836 -3.97862 53.4704 5.27216C53.6503 5.4169 53.5572 5.70638 53.3269 5.71645C49.4516 5.87126 46.6965 9.26951 42.7508 12.3128C38.5697 15.5374 33.0557 18.3617 23.4601 16.5015C23.421 16.4952 23.3833 16.4864 23.3468 16.4776C22.9491 16.3807 22.8295 15.8747 23.1504 15.6217C23.489 15.3561 23.8326 15.0931 24.1787 14.8351C25.0484 14.1856 25.9433 13.5626 26.8545 12.9598C27.3102 12.6589 27.7695 12.3632 28.2315 12.0724C28.6959 11.7817 29.1616 11.4972 29.6323 11.2178C30.5737 10.6578 31.5278 10.1216 32.4969 9.60933C33.466 9.09708 34.449 8.61125 35.4483 8.16067C36.4477 7.70883 37.4646 7.29097 38.5017 6.93227C39.0215 6.75229 39.5464 6.58867 40.0775 6.4477C40.3733 6.36841 40.6716 6.29667 40.9711 6.235C41.0063 6.22619 40.9975 6.17458 40.9623 6.17962C40.6565 6.21863 40.3519 6.26772 40.0485 6.32436C39.5048 6.42631 38.9636 6.54965 38.4287 6.69061C37.3564 6.97128 36.3004 7.31363 35.257 7.69247C34.2149 8.07005 33.1841 8.48413 32.1671 8.92591C31.1489 9.36894 30.142 9.83714 29.1465 10.3305C28.6493 10.5772 28.1547 10.8289 27.6613 11.0869C27.1692 11.3462 26.6808 11.6105 26.1938 11.8811C25.5343 12.2486 24.8798 12.6287 24.2316 13.0214L24.1825 13.0693C24.0239 13.2316 23.8729 13.4028 23.7168 13.5689C23.3971 13.8962 23.1202 14.2574 22.8232 14.6048C22.6785 14.781 22.5488 14.9698 22.4104 15.151C22.2745 15.3347 22.131 15.5122 22.0089 15.7048C20.9793 17.2126 20.1247 18.85 19.5458 20.5882C18.958 22.3225 18.5905 24.1387 18.5049 25.9788L18.4735 26.6698C18.4672 26.8989 18.476 27.1292 18.476 27.3608C18.4697 27.8214 18.515 28.2808 18.5376 28.7415C18.5553 28.9718 18.5867 29.2009 18.6106 29.4299L18.6484 29.7735C18.6622 29.8881 18.6849 30.0013 18.7013 30.1159L18.8133 30.7993L18.958 31.4764C19.7598 35.0836 21.591 38.4755 24.1964 41.1564C26.7979 43.8397 30.1584 45.8044 33.8134 46.7446L34.5006 46.9145L35.1953 47.0505L35.544 47.1184L35.8939 47.1675L36.5962 47.2669L37.3035 47.3311C37.4206 47.3425 37.5389 47.355 37.6572 47.3626L38.0109 47.3764L38.722 47.4054L39.4318 47.3978L39.788 47.3928L40.1429 47.3714L40.8528 47.3274L41.5601 47.2493C41.6784 47.2342 41.7968 47.2254 41.9138 47.2078L42.2662 47.1499C43.2064 47.0152 44.1302 46.7836 45.044 46.5206C48.6927 45.4331 52.028 43.2922 54.583 40.4377C57.1392 37.587 58.9214 34.0176 59.5922 30.2153C59.6438 29.9799 59.6728 29.7395 59.708 29.5017C59.7395 29.2625 59.7823 29.0246 59.8037 28.7843C59.8465 28.3035 59.9019 27.8227 59.9107 27.3394C59.9346 26.8573 59.9459 26.3728 59.9296 25.8895C59.9182 25.4061 59.8905 24.9228 59.844 24.4408C59.664 22.5126 59.2172 20.6045 58.5136 18.7909C59.2713 20.5832 59.7798 22.4837 60.0189 24.4219C60.0806 24.9065 60.1234 25.3923 60.1498 25.8806C60.1813 26.369 60.1838 26.8573 60.175 27.3469Z" fill="#013B23"/>
</g>
<mask id="mask1_47_126" style="mask-type:luminance" maskUnits="userSpaceOnUse" x="54" y="14" width="3" height="3">
<path d="M54.9985 14.2839H56.9292V16.2625H54.9985V14.2839Z" fill="white"/>
</mask>
<g mask="url(#mask1_47_126)">
<mask id="mask2_47_126" style="mask-type:luminance" maskUnits="userSpaceOnUse" x="54" y="14" width="3" height="3">
<path d="M55.9639 14.2839C55.4302 14.2839 54.9985 14.727 54.9985 15.2732C54.9985 15.8194 55.4302 16.2625 55.9639 16.2625C56.4975 16.2625 56.9292 15.8194 56.9292 15.2732C56.9292 14.727 56.4975 14.2839 55.9639 14.2839Z" fill="white"/>
</mask>
<g mask="url(#mask2_47_126)">
<path d="M54.9985 14.2839H56.9292V16.2625H54.9985V14.2839Z" fill="#013B23"/>
</g>
</g>
<mask id="mask3_47_126" style="mask-type:luminance" maskUnits="userSpaceOnUse" x="50" y="10" width="4" height="4">
<path d="M50.3882 10.1055H53.5511V13.2696H50.3882V10.1055Z" fill="white"/>
</mask>
<g mask="url(#mask3_47_126)">
<mask id="mask4_47_126" style="mask-type:luminance" maskUnits="userSpaceOnUse" x="50" y="10" width="4" height="4">
<path d="M51.969 10.1055C51.0955 10.1055 50.3882 10.8141 50.3882 11.6875C50.3882 12.561 51.0955 13.2696 51.969 13.2696C52.8437 13.2696 53.5511 12.561 53.5511 11.6875C53.5511 10.8141 52.8437 10.1055 51.969 10.1055Z" fill="white"/>
</mask>
<g mask="url(#mask4_47_126)">
<path d="M50.3882 10.1055H53.5511V13.2696H50.3882V10.1055Z" fill="#013B23"/>
</g>
</g>
<path d="M47.6936 25.2828C47.6936 25.2828 46.7685 24.5163 46.4702 26.739C46.3141 27.9146 45.8119 28.7906 45.2065 29.4186C45.6961 29.3431 46.2084 29.2374 46.7282 29.0675C47.5891 27.3646 47.399 25.6529 47.6936 25.2828ZM50.8376 22.8726C50.8376 22.8726 49.5903 22.1476 49.6822 25.0009C49.7237 26.262 49.5425 27.206 49.2391 27.9246C49.6079 27.8026 49.9213 27.7598 50.1755 27.8C50.3241 27.8227 50.4549 27.8743 50.5632 27.9511C51.2579 25.5622 50.5607 23.4176 50.8376 22.8726ZM49.2781 23.9814C49.2781 23.9814 48.1303 23.2325 48.0787 25.79C48.0548 26.9958 47.6281 28.0895 47.0693 28.9466C47.4053 28.8195 47.7414 28.6635 48.0749 28.4721C48.3203 28.3299 48.5519 28.2091 48.7672 28.1109C49.3876 26.179 49.005 24.4169 49.2781 23.9814Z" fill="#013B23"/>
<mask id="mask5_47_126" style="mask-type:luminance" maskUnits="userSpaceOnUse" x="39" y="23" width="16" height="19">
<path d="M39.271 23.5208H54.8702V41.4698H39.271V23.5208Z" fill="white"/>
</mask>
<g mask="url(#mask5_47_126)">
<path d="M40.8204 41.4573C42.1444 38.5084 43.1992 37.2976 48.8654 33.737C54.6248 30.1185 52.6022 25.3722 54.8702 24.0658C54.8702 24.0658 52.8376 22.5076 52.0736 26.1186C51.2001 30.2468 48.9737 31.0259 46.1317 32.0353C46.1317 32.0353 49.6407 30.5766 50.3695 29.1242C50.815 28.2356 50.2486 27.6491 48.2613 28.7969C45.9983 30.1034 43.6183 29.7547 42.4553 30.1877C37.0106 32.2103 40.8204 41.4573 40.8204 41.4573Z" fill="#013B23"/>
</g>
<path d="M31.5983 29.0675C32.1182 29.2374 32.6304 29.3431 33.12 29.4186C32.5146 28.7906 32.0124 27.9146 31.8551 26.739C31.5581 24.5163 30.633 25.2828 30.633 25.2828C30.9275 25.6529 30.7375 27.3646 31.5983 29.0675ZM27.7634 27.9511C27.8716 27.8743 28.0025 27.8227 28.151 27.8C28.4053 27.7598 28.7186 27.8026 29.0874 27.9246C28.7841 27.206 28.6029 26.262 28.6444 25.0009C28.7363 22.1476 27.489 22.8726 27.489 22.8726C27.7659 23.4176 27.0686 25.5622 27.7634 27.9511ZM29.5581 28.1109C29.7746 28.2091 30.0062 28.3299 30.2516 28.4721C30.5852 28.6635 30.9212 28.8195 31.2573 28.9466C30.6984 28.0895 30.2718 26.9958 30.2479 25.79C30.195 23.2325 29.0484 23.9814 29.0484 23.9814C29.3215 24.4169 28.9389 26.179 29.5581 28.1109Z" fill="#013B23"/>
<mask id="mask6_47_126" style="mask-type:luminance" maskUnits="userSpaceOnUse" x="23" y="23" width="16" height="19">
<path d="M23.4551 23.5208H38.9486V41.4698H23.4551V23.5208Z" fill="white"/>
</mask>
<g mask="url(#mask6_47_126)">
<path d="M37.5059 41.4572C36.1819 38.5083 35.1271 37.2975 29.4596 33.7369C23.7002 30.1184 25.7241 25.3722 23.4561 24.0658C23.4561 24.0658 25.4887 22.5063 26.2527 26.1185C27.1262 30.2468 29.3514 31.0259 32.1946 32.0353C32.1946 32.0353 28.6856 30.5765 27.9568 29.1241C27.51 28.2355 28.0777 27.649 30.065 28.7969C32.3267 30.1033 34.708 29.7547 35.871 30.1876C41.3157 32.2102 37.5059 41.4572 37.5059 41.4572Z" fill="#013B23"/>
</g>
<mask id="mask7_47_126" style="mask-type:luminance" maskUnits="userSpaceOnUse" x="35" y="18" width="10" height="14">
<path d="M35.5381 18.8677H44.7209V31.6753H35.5381V18.8677Z" fill="white"/>
</mask>
<g mask="url(#mask7_47_126)">
<mask id="mask8_47_126" style="mask-type:luminance" maskUnits="userSpaceOnUse" x="35" y="18" width="10" height="14">
<path d="M40.5585 24.6562C40.5686 24.6449 40.5786 24.6335 40.5874 24.6222C40.5837 24.6272 40.5761 24.6386 40.5585 24.6562C40.5421 24.6713 40.5207 24.6889 40.4893 24.7128C40.4993 24.7053 40.5132 24.6939 40.5308 24.6801C40.5396 24.6726 40.5472 24.6663 40.5585 24.6562ZM39.5969 26.3729C39.5957 26.3805 39.5944 26.3868 39.5944 26.3906C39.5957 26.3805 39.5969 26.3767 39.5969 26.3729ZM38.5233 22.4801C38.5233 22.509 38.5221 22.5254 38.5221 22.5329C38.5246 22.5015 38.5246 22.4763 38.5233 22.4801ZM39.7895 27.6039C39.7907 27.6026 39.7907 27.6013 39.792 27.6001C39.7882 27.6051 39.7845 27.6101 39.7794 27.6152C39.7832 27.6114 39.7857 27.6076 39.7895 27.6039ZM39.7933 27.5988C39.7933 27.5988 39.7933 27.5976 39.7945 27.5976C39.7933 27.5976 39.7933 27.5988 39.792 27.6001C39.792 27.5988 39.7933 27.5988 39.7933 27.5988ZM38.8858 30.043C38.8858 30.067 38.8858 30.0909 38.8858 30.116C38.8858 30.0921 38.8858 30.0682 38.8858 30.043ZM39.7794 27.6152C39.7769 27.6164 39.7756 27.619 39.7731 27.6215C39.7756 27.619 39.7769 27.6177 39.7794 27.6152ZM39.719 27.6693C39.7089 27.6806 39.6989 27.6932 39.6888 27.7058C39.6989 27.6932 39.7089 27.6806 39.7177 27.6706C39.7278 27.6605 39.7404 27.6504 39.7517 27.6404C39.7593 27.6341 39.7668 27.6278 39.7731 27.6215C39.7681 27.6265 39.7618 27.6328 39.7555 27.6366C39.7429 27.6479 39.7291 27.6592 39.719 27.6693ZM39.4685 27.9437C39.4622 27.9512 39.4547 27.9588 39.4471 27.9689V27.9676C39.456 27.9588 39.4622 27.95 39.4685 27.9437ZM40.0551 27.5145C40.0563 27.5145 40.0576 27.5132 40.0588 27.5132C40.0563 27.5132 40.0551 27.5145 40.0538 27.5145H40.0551ZM40.05 27.5158C40.0513 27.5158 40.0525 27.5145 40.0538 27.5145C40.0513 27.5158 40.0475 27.5158 40.045 27.5158C40.0475 27.5158 40.0488 27.5158 40.05 27.5158ZM39.1526 28.2646H39.1539C39.1539 28.2646 39.1539 28.2646 39.1526 28.2646ZM44.5521 25.1835C44.5483 25.1911 44.5445 25.1987 44.5407 25.2049C44.5445 25.1987 44.5483 25.1924 44.5521 25.1835ZM39.8058 27.5749V27.5736C39.8058 27.5736 39.8058 27.5749 39.8046 27.5762C39.8058 27.5762 39.8058 27.5749 39.8058 27.5749ZM41.33 23.0792C41.3288 23.0905 41.3288 23.1005 41.3275 23.1094C41.3288 23.0993 41.33 23.0892 41.33 23.0792ZM41.0066 25.7764C41.0103 25.7738 41.0129 25.7701 41.0166 25.7675C41.0129 25.7701 41.0103 25.7726 41.0066 25.7764ZM39.0759 24.7493C39.0733 24.7468 39.0721 24.743 39.0696 24.7405C39.0708 24.743 39.0721 24.7443 39.0733 24.7468C39.0771 24.7518 39.0847 24.7594 39.091 24.7644C39.0947 24.7682 39.0985 24.7695 39.101 24.772C39.0922 24.7657 39.0821 24.7581 39.0759 24.7493ZM44.7107 24.8299C44.7094 24.8337 44.7081 24.8374 44.7081 24.8399C44.7044 24.85 44.7006 24.8601 44.6955 24.8702C44.6817 24.9029 44.6603 24.9394 44.6427 24.9784C44.6125 25.0501 44.581 25.1282 44.5521 25.1835C44.5772 25.1357 44.6112 25.0552 44.6074 25.0615C44.5898 25.1017 44.5709 25.1408 44.5521 25.1798C44.5508 25.181 44.5495 25.1835 44.5483 25.1861C44.547 25.1873 44.547 25.1886 44.5458 25.1898C44.542 25.1974 44.5382 25.2049 44.5344 25.2112C44.5319 25.2175 44.5282 25.2226 44.5256 25.2276C44.5042 25.2628 44.4816 25.2981 44.4589 25.3346C44.4778 25.3056 44.4665 25.327 44.4401 25.3711C44.4098 25.4239 44.3671 25.5146 44.3192 25.5876C44.3104 25.5989 44.3331 25.5561 44.3507 25.5271C44.3507 25.5271 44.3507 25.5271 44.3507 25.5259C44.3457 25.5347 44.3406 25.5435 44.3343 25.5523C44.2966 25.6127 44.2689 25.6794 44.2299 25.7386C44.1896 25.799 44.1443 25.8582 44.1027 25.9186C44.0612 25.979 44.0159 26.0381 43.9731 26.0973C43.9681 26.1049 43.9618 26.1137 43.9555 26.1212C43.9328 26.1514 43.8963 26.2005 43.8586 26.2471C43.817 26.3037 43.7705 26.3553 43.7453 26.3843C43.7214 26.412 43.7201 26.4157 43.7629 26.3717C43.812 26.3188 43.8397 26.2836 43.8561 26.2609C43.8724 26.2395 43.88 26.2295 43.885 26.2206C43.8963 26.2043 43.9026 26.198 43.9656 26.1187C43.9253 26.1766 43.88 26.2307 43.8397 26.2886C43.8498 26.2748 43.8573 26.266 43.8636 26.2571C43.8485 26.2773 43.8334 26.2974 43.817 26.3176C43.8384 26.2924 43.8674 26.2546 43.9077 26.2081C43.9278 26.1841 43.9492 26.159 43.9718 26.1288C43.9932 26.0986 44.0159 26.0671 44.0398 26.0331C44.0235 26.0583 43.9995 26.0923 43.9706 26.1313C43.9416 26.1703 43.9064 26.2118 43.8712 26.2546C43.8384 26.2974 43.7994 26.3427 43.7642 26.3805C43.7277 26.4182 43.6975 26.4547 43.6736 26.4862C43.666 26.4925 43.6371 26.5252 43.5993 26.568C43.5628 26.6121 43.5099 26.6586 43.4659 26.7002C43.4357 26.7279 43.4092 26.7593 43.3765 26.7845L43.2834 26.8638C43.223 26.9204 43.1525 26.9645 43.0833 27.0073C43.0707 27.0098 43.2041 26.9368 43.2721 26.8726C43.2985 26.8474 43.2758 26.8638 43.2205 26.9078C43.1928 26.9292 43.1538 26.9544 43.1072 26.9821C43.0606 27.0098 43.0078 27.0413 42.9536 27.0815C42.9989 27.0501 42.9486 27.0891 42.8957 27.1231C42.8693 27.1394 42.8404 27.152 42.8265 27.1596C42.8139 27.1646 42.8152 27.1659 42.8441 27.152C42.7523 27.1961 42.673 27.225 42.5823 27.2477C42.537 27.259 42.4892 27.2678 42.4351 27.2779C42.3822 27.2879 42.3243 27.303 42.2564 27.3194C42.352 27.298 42.318 27.3068 42.2702 27.3194C42.2211 27.3333 42.1569 27.3446 42.1947 27.3395C42.1355 27.3496 42.0625 27.3622 41.9983 27.3735C41.9342 27.3836 41.8826 27.4 41.8612 27.4075C41.8146 27.4163 41.7957 27.4176 41.8385 27.4012C41.7718 27.4214 41.7353 27.4289 41.7139 27.4339C41.6938 27.4377 41.6875 27.439 41.6812 27.4415C41.6673 27.444 41.6497 27.4528 41.4911 27.4591C41.5415 27.4579 41.5906 27.4566 41.6396 27.4516C41.5906 27.4566 41.5515 27.4591 41.5163 27.4616C41.4798 27.4654 41.4458 27.4641 41.4093 27.4629C41.3716 27.4604 41.33 27.4566 41.2797 27.4553C41.2293 27.4553 41.1664 27.4591 41.0846 27.4629C41.0859 27.4641 41.1047 27.4641 41.1098 27.4641C41.111 27.4641 41.111 27.4654 41.1022 27.4654C41.0934 27.4667 41.0783 27.4679 41.0519 27.4692C41.0544 27.4692 41.0569 27.4679 41.0607 27.4679C41.0632 27.4679 41.0632 27.4679 41.0632 27.4679C41.0645 27.4667 41.0556 27.4667 41.0506 27.4667C41.0456 27.4679 41.0343 27.4704 41.0204 27.4755C41.0053 27.4818 40.9864 27.4918 40.9562 27.4944C40.9323 27.4944 40.9059 27.4918 40.8794 27.4868C40.853 27.4818 40.8253 27.4755 40.7989 27.4742C40.785 27.473 40.7712 27.4742 40.7574 27.4755C40.7435 27.4767 40.7272 27.4793 40.7108 27.4805C40.6793 27.483 40.6491 27.4818 40.6177 27.4818C40.5547 27.4805 40.4993 27.4793 40.449 27.4881C40.3961 27.4969 40.342 27.4956 40.2929 27.4906C40.2451 27.4855 40.1973 27.4793 40.1532 27.4805C40.1356 27.4818 40.1155 27.4918 40.0916 27.5032C40.0815 27.5069 40.0702 27.5107 40.0588 27.5132C40.0752 27.5095 40.0903 27.5032 40.1041 27.4969C40.118 27.4906 40.1318 27.4843 40.1444 27.4818C40.1545 27.4793 40.1696 27.4805 40.1834 27.4805C40.2124 27.4818 40.2363 27.4843 40.2552 27.4855C40.264 27.4855 40.2715 27.4868 40.2766 27.4868C40.2816 27.4881 40.2841 27.4881 40.2841 27.4868C40.2413 27.483 40.1998 27.478 40.1583 27.478C40.1419 27.478 40.1243 27.4843 40.1054 27.4931C40.0865 27.5019 40.0651 27.512 40.0374 27.5145C40.0135 27.5158 39.9909 27.512 39.972 27.512C39.9518 27.5107 39.9317 27.512 39.9128 27.5158C39.894 27.5208 39.8751 27.5271 39.8575 27.5359C39.8398 27.5434 39.8172 27.5573 39.8096 27.5611C39.8096 27.5636 39.8084 27.5686 39.8058 27.5736C39.8084 27.5674 39.8084 27.5648 39.8096 27.5611C39.8134 27.5585 39.8172 27.5573 39.821 27.5535C39.8272 27.5497 39.8323 27.5472 39.8361 27.5447C39.8323 27.546 39.8272 27.5485 39.821 27.5523C39.8159 27.5548 39.8121 27.556 39.8071 27.5598C39.8071 27.5623 39.8058 27.5648 39.8046 27.5686C39.8033 27.5711 39.8008 27.5787 39.7983 27.5837C39.7933 27.595 39.7857 27.6051 39.7769 27.6152C39.758 27.6328 39.7391 27.6466 39.7228 27.6618C39.7077 27.6769 39.6951 27.6957 39.6812 27.7108C39.6775 27.7146 39.6737 27.7184 39.6699 27.7222C39.6674 27.7247 39.6649 27.7272 39.6611 27.7297C39.6561 27.736 39.6523 27.741 39.6485 27.7448C39.6536 27.7385 39.6598 27.731 39.6674 27.7234C39.6762 27.7146 39.6863 27.7033 39.6951 27.692C39.7039 27.6806 39.7127 27.6693 39.7215 27.6605C39.7303 27.6517 39.7417 27.6429 39.7505 27.6353C39.7693 27.6202 39.7832 27.6039 39.7857 27.5988C39.7882 27.5938 39.7832 27.6039 39.7593 27.6253C39.7391 27.6416 39.7177 27.6567 39.7001 27.6794C39.6913 27.6907 39.6812 27.7033 39.6687 27.7159C39.6573 27.7259 39.6473 27.7373 39.6372 27.7499C39.6183 27.775 39.5982 27.8052 39.573 27.8317C39.5491 27.8581 39.5227 27.8833 39.4962 27.9084C39.4698 27.9336 39.4484 27.9613 39.422 27.989C39.3968 28.0154 39.3691 28.0393 39.3439 28.0632C39.2911 28.1098 39.2533 28.1639 39.2143 28.2118C39.2634 28.1451 39.2332 28.179 39.2823 28.1136C39.2659 28.1325 39.247 28.1576 39.2244 28.1866C39.213 28.2004 39.2017 28.2155 39.1879 28.2294C39.1816 28.2369 39.1753 28.2445 39.169 28.252L39.1564 28.2646C39.1551 28.2646 39.1551 28.2659 39.1551 28.2659C39.1564 28.2659 39.1564 28.2659 39.1577 28.2659H39.1589C39.1627 28.2671 39.1652 28.2671 39.1665 28.2684L39.1803 28.2546L39.2042 28.2269C39.2206 28.208 39.2344 28.1904 39.2495 28.1715C39.2785 28.135 39.3074 28.1023 39.3364 28.0746C39.3666 28.0469 39.3955 28.023 39.4182 27.9991C39.4295 27.989 39.4383 27.9777 39.4471 27.9689C39.4383 27.9789 39.4283 27.9902 39.4169 28.0003C39.3968 28.0217 39.3729 28.0431 39.3502 28.0645C39.3037 28.106 39.2646 28.1564 39.2344 28.1916C39.1652 28.2797 39.2294 28.2042 39.2835 28.1375C39.3112 28.106 39.3402 28.0796 39.349 28.0721C39.3578 28.0658 39.3414 28.0771 39.2936 28.1325C39.2709 28.1589 39.2495 28.1866 39.2281 28.2118C39.2181 28.2256 39.2067 28.2382 39.1954 28.2508L39.1791 28.2684L39.1728 28.2747C39.174 28.3213 39.174 28.3666 39.174 28.4119C39.174 28.4345 39.1753 28.4572 39.1753 28.4811C39.1753 28.505 39.1728 28.5289 39.1703 28.5528C39.1652 28.6019 39.1577 28.651 39.1577 28.7026C39.1564 28.7555 39.1614 28.8121 39.1627 28.8751C39.1602 28.8373 39.1564 28.8763 39.1539 28.9569C39.1564 29.0097 39.1652 29.0789 39.1602 29.1595C39.1577 29.1998 39.1551 29.2413 39.1539 29.2854C39.1514 29.3282 39.1514 29.3735 39.1514 29.42C39.1501 29.4666 39.1489 29.5144 39.1489 29.561C39.1514 29.6076 39.1602 29.6541 39.1665 29.7007C39.1841 29.7964 39.1551 29.8907 39.164 29.97C39.1589 29.9197 39.164 29.8794 39.1652 29.848C39.1677 29.8152 39.1677 29.7913 39.1652 29.7687C39.1627 29.7334 39.1564 29.7045 39.1489 29.6579C39.1526 29.6831 39.1551 29.707 39.1577 29.7322C39.1577 29.7359 39.1589 29.7385 39.1589 29.7422C39.1589 29.7448 39.1589 29.7473 39.1602 29.751C39.1602 29.7536 39.1602 29.7561 39.1602 29.7586C39.1602 29.7611 39.1602 29.7624 39.1602 29.7649C39.1602 29.7712 39.1614 29.7775 39.1614 29.7838C39.1614 29.785 39.1614 29.7863 39.1614 29.7863C39.1602 29.8115 39.1589 29.8366 39.1564 29.8618C39.1577 29.853 39.1577 29.8442 39.1577 29.8354C39.1539 29.8819 39.1476 29.9285 39.1526 29.9738C39.1703 30.0418 39.2118 30.106 39.2219 30.1765C39.2319 30.2457 39.2093 30.3187 39.2156 30.3892C39.2206 30.4596 39.2294 30.5289 39.2344 30.5993C39.2382 30.6698 39.2445 30.7403 39.2508 30.8095C39.2571 30.8813 39.2772 30.9492 39.2886 31.0185C39.2999 31.0889 39.3049 31.1607 39.3251 31.2274C39.3414 31.279 39.3792 31.3646 39.4031 31.4414C39.4308 31.5269 39.4459 31.5936 39.349 31.6125C39.31 31.6226 39.174 31.6679 39.14 31.649C39.1338 31.6264 39.13 31.6037 39.1262 31.5798C39.1224 31.5634 39.1199 31.5483 39.1186 31.5358C39.1224 31.566 39.1249 31.5911 39.1287 31.61C39.1325 31.6289 39.135 31.6427 39.1363 31.649C39.1363 31.6541 39.14 31.6541 39.14 31.6541C39.14 31.6541 39.1363 31.6553 39.135 31.6503C39.135 31.6515 39.1338 31.6465 39.1312 31.6402C39.1325 31.6427 39.1325 31.6465 39.1338 31.6503C39.135 31.6541 39.1388 31.6553 39.1426 31.6566C39.1463 31.6578 39.1501 31.6578 39.1551 31.6591C39.164 31.6604 39.1728 31.6591 39.1816 31.6591C39.1992 31.6566 39.2168 31.6541 39.2357 31.649C39.2722 31.6415 39.3112 31.6301 39.3502 31.6188C39.3679 31.615 39.388 31.6088 39.4031 31.5962C39.4195 31.5848 39.4283 31.5634 39.4295 31.5458C39.432 31.5068 39.4195 31.4741 39.4119 31.4451C39.393 31.386 39.3754 31.3419 39.3704 31.3256C39.3968 31.3923 39.4144 31.4439 39.4257 31.4829C39.4358 31.5219 39.4358 31.5534 39.4257 31.576C39.4157 31.5974 39.4006 31.6062 39.3905 31.6125C39.3779 31.6188 39.3679 31.6226 39.3515 31.6264H39.3527C39.3402 31.6301 39.3213 31.6364 39.2923 31.6453C39.2785 31.6503 39.2609 31.6541 39.2407 31.6591C39.2294 31.6616 39.2181 31.6641 39.2055 31.6666C39.1992 31.6679 39.1929 31.6692 39.1854 31.6704C39.1765 31.6704 39.1677 31.6717 39.1577 31.6704C39.1627 31.6717 39.1728 31.6717 39.1866 31.6704C39.1992 31.6704 39.213 31.6679 39.2307 31.6641C39.2634 31.6578 39.3074 31.6453 39.354 31.6314L39.3527 31.6327C39.3716 31.6276 39.393 31.6226 39.4132 31.6075C39.4333 31.5911 39.4434 31.5634 39.4434 31.5395C39.4409 31.4967 39.4358 31.4942 39.432 31.4779C39.4257 31.4628 39.4182 31.4351 39.388 31.3583C39.3628 31.2865 39.3326 31.2198 39.3225 31.1443C39.3162 31.1053 39.3112 31.0663 39.3049 31.0273C39.2986 30.987 39.2886 30.948 39.281 30.9077C39.2621 30.8297 39.2596 30.7453 39.2508 30.6585C39.2432 30.5729 39.2357 30.4836 39.2281 30.3904C39.2294 30.3715 39.2344 30.4269 39.2407 30.4873C39.2432 30.5163 39.247 30.5477 39.2495 30.5717C39.2521 30.5956 39.2533 30.6107 39.2546 30.6107C39.2584 30.6598 39.2621 30.7063 39.2659 30.7516C39.2697 30.7969 39.2722 30.8397 39.281 30.8813C39.2898 30.9241 39.2986 30.9643 39.3074 31.0046C39.315 31.0449 39.3188 31.0839 39.3251 31.1217C39.3314 31.1594 39.3376 31.1947 39.349 31.2274C39.3603 31.2601 39.3741 31.2928 39.3867 31.3243C39.3993 31.357 39.4119 31.3885 39.422 31.42C39.4333 31.4514 39.4434 31.4816 39.4484 31.5169C39.4497 31.5282 39.4497 31.542 39.4471 31.5559C39.4446 31.5697 39.4383 31.5836 39.4283 31.5962C39.4081 31.6201 39.3792 31.6289 39.354 31.6339C39.3225 31.6415 39.2886 31.6515 39.2521 31.6604C39.2344 31.6641 39.2156 31.6679 39.1954 31.6717C39.1879 31.6729 39.1715 31.6742 39.1589 31.6729C39.1514 31.6729 39.1451 31.6717 39.1388 31.6704C39.1338 31.6679 39.1249 31.6666 39.1224 31.6616C39.1086 31.61 39.1061 31.5836 39.101 31.5458C39.096 31.5106 39.091 31.4753 39.0834 31.4401C39.0696 31.3671 39.0557 31.2891 39.0394 31.211C39.0217 31.1355 38.9878 31.0537 38.9852 30.9643C38.984 30.9203 38.9852 30.8775 38.9815 30.8347C38.9789 30.7932 38.9714 30.7491 38.9651 30.7038C38.9563 30.6547 38.9513 30.6195 38.9487 30.5968C38.945 30.5754 38.9437 30.5641 38.9424 30.5628C38.9424 30.5591 38.9462 30.5855 38.9487 30.617C38.9525 30.6472 38.9563 30.6799 38.9563 30.6837C38.9575 30.6887 38.9513 30.6623 38.9399 30.578C38.9437 30.5817 38.9374 30.5352 38.9236 30.442C38.9198 30.4194 38.9173 30.3917 38.9148 30.3652C38.911 30.3376 38.9059 30.3074 38.9009 30.2734C38.8946 30.2406 38.8896 30.2041 38.8871 30.1651C38.8858 30.1513 38.8858 30.1374 38.8858 30.1223C38.8871 30.1462 38.8871 30.1689 38.8896 30.1928C38.8946 30.2419 38.9059 30.291 38.9135 30.3388C38.916 30.3564 38.9135 30.3476 38.916 30.3665C38.9223 30.4533 38.9412 30.5226 38.9475 30.5679C38.9513 30.5905 38.9538 30.6082 38.9563 30.6207C38.9588 30.6333 38.9601 30.6384 38.9601 30.6384C38.9563 30.6082 38.9525 30.5729 38.945 30.5339C38.9374 30.4949 38.9286 30.4521 38.9236 30.408C38.916 30.3199 38.8908 30.2306 38.8908 30.1538C38.8908 30.1488 38.8921 30.1727 38.8959 30.1966C38.8971 30.2092 38.8984 30.2218 38.8996 30.2306C38.9022 30.2394 38.9034 30.2457 38.9034 30.2457C38.8871 30.1626 38.8971 30.0644 38.8946 29.9826C38.8946 29.9776 38.8946 29.9726 38.8946 29.9675C38.8946 29.9637 38.8934 29.9587 38.8921 29.9537C38.8908 29.9436 38.8896 29.9335 38.8871 29.9247C38.8845 29.9071 38.882 29.8895 38.8783 29.8744C38.8732 29.8429 38.8682 29.819 38.8657 29.8052L38.8707 29.8429L38.8506 29.7196C38.8455 29.678 38.848 29.6353 38.8493 29.5937C38.8468 29.6214 38.8443 29.6592 38.843 29.6604C38.8418 29.6604 38.8405 29.6516 38.8405 29.629C38.8405 29.6063 38.8443 29.5685 38.8443 29.5119C38.8443 29.4112 38.8141 29.3206 38.8115 29.2312C38.8078 29.1469 38.7901 29.0676 38.7901 28.9846L38.7952 28.9971L38.7964 28.9858H38.8015L38.8053 28.9846C38.8053 28.9846 38.8065 28.9846 38.8065 28.9833V28.982L38.804 28.9783C38.8015 28.9757 38.7952 28.9657 38.7914 28.9594C38.7864 28.9506 38.7826 28.943 38.7776 28.9355C38.7688 28.9191 38.7612 28.904 38.7537 28.8876C38.7385 28.8562 38.7222 28.8234 38.7058 28.7907C38.6882 28.758 38.6706 28.7228 38.6542 28.6863C38.6366 28.6498 38.6228 28.6082 38.6077 28.568C38.6165 28.5906 38.624 28.6133 38.6341 28.6372C38.6429 28.6611 38.6542 28.6837 38.6643 28.7064C38.6467 28.6686 38.6328 28.6321 38.6202 28.5919C38.6064 28.5516 38.5875 28.5075 38.5636 28.4471C38.5699 28.4698 38.5749 28.4874 38.5636 28.4635C38.5573 28.4522 38.5472 28.4295 38.5321 28.3917C38.5158 28.3527 38.4994 28.2948 38.4805 28.2193C38.4742 28.1916 38.4667 28.1602 38.4554 28.1274C38.444 28.096 38.4264 28.0557 38.4126 28.0167C38.3975 27.9764 38.3824 27.9336 38.3647 27.8896C38.3484 27.8468 38.327 27.8052 38.3031 27.7624C38.2804 27.7196 38.254 27.6731 38.2313 27.629C38.2187 27.6076 38.2049 27.585 38.1936 27.5585L38.1785 27.5233L38.1709 27.5069C38.1697 27.5019 38.1646 27.4918 38.1671 27.4931C38.1671 27.4906 38.1646 27.4906 38.1621 27.4893L38.1533 27.483C38.142 27.4767 38.1319 27.4717 38.1218 27.4654C38.1029 27.4541 38.0778 27.4415 38.0564 27.4264C38.0136 27.3962 37.9809 27.3622 37.9481 27.3358C37.9393 27.3257 37.9532 27.3345 37.9796 27.3559C38.006 27.3773 38.0438 27.4138 38.0954 27.4402C38.1181 27.4528 38.1407 27.4654 38.1621 27.4767C38.1659 27.4793 38.1697 27.4805 38.1722 27.483C38.1759 27.483 38.1772 27.4868 38.1759 27.4906C38.181 27.4994 38.1848 27.5095 38.1885 27.517C38.2036 27.5535 38.2187 27.5799 38.2187 27.5762C38.2024 27.5434 38.1948 27.5183 38.1848 27.4956L38.181 27.4868C38.1835 27.4881 38.1835 27.4843 38.1822 27.483C38.1822 27.4805 38.181 27.4793 38.1797 27.4793L38.1747 27.4755C38.1671 27.4704 38.1596 27.4667 38.152 27.4629C38.1369 27.4528 38.1231 27.4453 38.1105 27.4377C38.0979 27.4302 38.0841 27.4226 38.0715 27.4138C38.0451 27.3962 38.0211 27.3723 37.9859 27.3408C37.9683 27.3244 37.9481 27.3056 37.9205 27.2879C37.8928 27.2716 37.86 27.2527 37.821 27.23C37.7996 27.2175 37.7669 27.1998 37.7329 27.1797C37.6977 27.1608 37.6574 27.1457 37.6222 27.1306C37.5517 27.1029 37.5013 27.0752 37.5303 27.0929C37.6096 27.1331 37.6738 27.152 37.7317 27.1822C37.7883 27.2149 37.8437 27.2464 37.9167 27.2867C37.9116 27.2867 37.8374 27.2452 37.7619 27.2011C37.7241 27.1784 37.6851 27.1608 37.6524 27.147C37.6196 27.1344 37.5957 27.1243 37.5882 27.1218C37.6423 27.147 37.6964 27.1671 37.7455 27.1973C37.6876 27.1646 37.6536 27.1545 37.6322 27.1457C37.6108 27.1382 37.602 27.1357 37.592 27.1319C37.5831 27.1294 37.5706 27.1256 37.5429 27.113C37.5152 27.1004 37.4699 27.0752 37.4044 27.0274C37.3855 27.0148 37.3667 27.001 37.3478 26.9884C37.3289 26.9746 37.3125 26.9657 37.2924 26.9569C37.2521 26.9393 37.2056 26.928 37.1615 26.9053C37.1086 26.8776 37.086 26.8525 37.0721 26.8424C37.0583 26.8311 37.0558 26.8286 37.0596 26.8336C37.0646 26.8386 37.0822 26.8562 37.1011 26.8726C37.0646 26.8437 37.0331 26.8109 37.0004 26.787C36.9614 26.7606 36.9136 26.7404 36.8733 26.7191C36.8343 26.7014 36.8003 26.6788 36.7739 26.6637C36.7953 26.675 36.8104 26.6851 36.8229 26.6926C36.8443 26.7039 36.8519 26.7065 36.8519 26.7052C36.8343 26.6964 36.8166 26.6863 36.8015 26.675C36.7864 26.6649 36.7713 26.6561 36.7562 26.6473C36.726 26.631 36.6971 26.6146 36.6694 26.597C36.6115 26.5605 36.5674 26.5202 36.5221 26.4787C36.4768 26.4371 36.434 26.3868 36.39 26.3352C36.3686 26.3087 36.3447 26.2861 36.3157 26.2584C36.2868 26.2307 36.2553 26.2005 36.2264 26.1615C36.2566 26.2018 36.2931 26.2357 36.3283 26.2685C36.3623 26.2999 36.3912 26.3327 36.4202 26.3679C36.4768 26.4371 36.536 26.4938 36.5763 26.5252C36.609 26.5517 36.5435 26.4938 36.507 26.4547C36.4894 26.4359 36.4781 26.422 36.4856 26.4308C36.4932 26.4371 36.5196 26.4673 36.5876 26.5265C36.5448 26.4887 36.5045 26.4497 36.468 26.4069C36.4303 26.3641 36.3975 26.3201 36.3598 26.2811C36.3119 26.2408 36.171 26.0998 36.3308 26.2597C36.2931 26.2257 36.249 26.1867 36.2176 26.1363C36.1861 26.0897 36.1571 26.0407 36.132 25.9979C36.0829 25.9098 36.0426 25.8443 36.0325 25.8342C36.0426 25.8443 36.0149 25.8015 35.9709 25.7298C35.9495 25.6933 35.9268 25.6492 35.9016 25.6014C35.8777 25.5536 35.8513 25.502 35.8249 25.4516C35.7984 25.4076 35.7707 25.3598 35.7632 25.3459C35.7569 25.3346 35.7645 25.356 35.8022 25.4227C35.7821 25.3887 35.7619 25.3522 35.7456 25.3132C35.7242 25.2591 35.7091 25.2049 35.6952 25.1508L35.7116 25.2138C35.704 25.1898 35.6977 25.1647 35.6915 25.1395C35.6864 25.1156 35.6789 25.0904 35.6751 25.0627C35.6675 25.0086 35.6701 24.957 35.6675 24.9079C35.6688 24.9205 35.6701 24.952 35.6701 24.9922C35.6713 25.0124 35.6726 25.035 35.6763 25.0589C35.6776 25.0703 35.6801 25.0816 35.6826 25.0942C35.6852 25.1043 35.6877 25.1156 35.6902 25.1257C35.7103 25.2087 35.7317 25.2767 35.7229 25.2402C35.7154 25.2125 35.7066 25.1823 35.699 25.1521C35.6915 25.1219 35.6839 25.0942 35.6789 25.0652C35.6713 25.0111 35.6738 24.9759 35.6738 24.9897C35.6726 24.9507 35.6726 24.9079 35.6675 24.8702C35.6625 24.8324 35.6499 24.7972 35.6386 24.7669C35.6159 24.7065 35.6071 24.6663 35.6134 24.7002C35.6247 24.743 35.6398 24.7795 35.6487 24.8085C35.6575 24.8387 35.6612 24.8613 35.6612 24.8739C35.6562 24.8362 35.6449 24.8034 35.6348 24.7745C35.626 24.7468 35.6172 24.7216 35.6109 24.699C35.5983 24.6537 35.5971 24.621 35.5945 24.5895C35.5908 24.5568 35.5882 24.5215 35.5857 24.4712C35.5845 24.4586 35.5845 24.4447 35.5832 24.4296C35.582 24.4133 35.582 24.3944 35.5845 24.3755C35.5882 24.3365 35.6008 24.2962 35.6046 24.2509C35.6033 24.2597 35.6021 24.2673 35.6008 24.2761C35.5996 24.2899 35.6071 24.2622 35.6071 24.2283C35.6071 24.193 35.5971 24.1439 35.5882 24.1137C35.5681 24.0332 35.5731 24.0558 35.5807 24.0898C35.5895 24.1238 35.5983 24.1666 35.5895 24.1326C35.582 24.1037 35.5744 24.0735 35.5668 24.0432C35.5606 24.0118 35.553 23.9828 35.5543 23.9451C35.5555 23.9086 35.5668 23.8771 35.5731 23.8507C35.5769 23.8368 35.5782 23.8255 35.5794 23.8117C35.5807 23.7978 35.5807 23.7852 35.5807 23.7714C35.5794 23.8029 35.5782 23.8243 35.5744 23.8394C35.5706 23.8557 35.5668 23.8683 35.5643 23.8784C35.558 23.8985 35.553 23.9111 35.5492 23.9438C35.5505 23.9124 35.558 23.8859 35.5643 23.8645C35.5706 23.8419 35.5731 23.8255 35.5744 23.8066C35.5769 23.7676 35.5757 23.7311 35.5744 23.6984C35.5731 23.682 35.5731 23.6657 35.5719 23.6506C35.5719 23.6342 35.5706 23.6254 35.5681 23.6115C35.5631 23.5864 35.5555 23.5599 35.5505 23.5335C35.5442 23.5071 35.5392 23.4769 35.5417 23.4479C35.5429 23.4202 35.5467 23.3925 35.5517 23.3623C35.5568 23.3334 35.5631 23.3032 35.5668 23.2705C35.5694 23.2541 35.5706 23.2365 35.5706 23.2189C35.5706 23.1987 35.5744 23.1748 35.5782 23.1534C35.587 23.1131 35.6033 23.0691 35.6134 23.0238C35.6197 22.9999 35.6222 22.9772 35.621 22.9508C35.6197 22.9256 35.6147 22.8979 35.6109 22.8677C35.6071 22.8375 35.6046 22.8023 35.6071 22.7695C35.6084 22.7368 35.6134 22.7041 35.6172 22.6714C35.6197 22.6563 35.6222 22.6399 35.6247 22.6235L35.6298 22.5996C35.631 22.5883 35.6348 22.577 35.6398 22.5669C35.6512 22.5468 35.6638 22.5342 35.6738 22.5228C35.6852 22.5115 35.6927 22.4989 35.6927 22.4964C35.6952 22.4889 35.6927 22.4876 35.6839 22.47C35.6789 22.4624 35.6751 22.4561 35.6701 22.4423C35.665 22.4297 35.6638 22.4146 35.6675 22.402C35.6738 22.3781 35.6814 22.3655 35.6877 22.3492C35.6952 22.3341 35.7028 22.3202 35.7091 22.3051C35.7368 22.2585 35.7254 22.1994 35.7468 22.1365C35.7317 22.1843 35.7342 22.2195 35.728 22.251C35.7254 22.2673 35.7229 22.2787 35.7179 22.2913C35.7116 22.3038 35.7053 22.3177 35.699 22.3303C35.6915 22.3441 35.6852 22.358 35.6789 22.3718C35.6763 22.3794 35.6738 22.3869 35.6713 22.3945C35.6675 22.4045 35.665 22.4171 35.6675 22.4285C35.6688 22.4385 35.6751 22.4511 35.6776 22.4574L35.6889 22.4763L35.6927 22.4851C35.6927 22.4863 35.694 22.4876 35.694 22.4889C35.6952 22.4914 35.6952 22.4939 35.694 22.4964C35.694 22.4977 35.6927 22.5002 35.6915 22.5015C35.6902 22.5052 35.6877 22.5077 35.6839 22.5115C35.6789 22.5191 35.6713 22.5266 35.6625 22.5367C35.655 22.5455 35.6449 22.5568 35.6386 22.5732C35.6348 22.5807 35.6323 22.5896 35.6298 22.5984C35.6285 22.6047 35.6285 22.611 35.6273 22.6172C35.6185 22.6701 35.6071 22.7293 35.6071 22.806C35.6071 22.7859 35.6084 22.796 35.6096 22.8148C35.6109 22.8337 35.6147 22.8614 35.6172 22.879C35.6197 22.8967 35.6222 22.9055 35.6197 22.8878C35.6185 22.879 35.6172 22.8639 35.6147 22.8375C35.6134 22.8249 35.6134 22.8098 35.6134 22.7909C35.6147 22.7733 35.6159 22.7532 35.6185 22.7305C35.6222 22.6902 35.6285 22.65 35.6348 22.6084C35.6361 22.5996 35.6398 22.582 35.6461 22.5707C35.6524 22.5581 35.6612 22.548 35.6688 22.5405C35.6763 22.5317 35.6826 22.5228 35.6889 22.5166C35.6915 22.5128 35.694 22.509 35.6965 22.5052C35.6977 22.5027 35.699 22.5002 35.7003 22.4977C35.7015 22.4926 35.7003 22.4876 35.6977 22.4838C35.6965 22.4801 35.6902 22.47 35.6864 22.4612C35.6839 22.4561 35.6814 22.4524 35.6789 22.4461C35.6751 22.4398 35.6726 22.4322 35.6726 22.4247C35.6701 22.4108 35.6763 22.3945 35.6789 22.3857C35.694 22.3466 35.7166 22.3101 35.7267 22.2799C35.7368 22.2472 35.7368 22.2069 35.7443 22.1654C35.7468 22.1553 35.7493 22.144 35.7544 22.1327C35.7594 22.1214 35.7632 22.1138 35.772 22.1012C35.7909 22.0773 35.8223 22.0697 35.8475 22.0609C35.8601 22.0735 35.874 22.0899 35.884 22.1C35.8928 22.1075 35.9004 22.1151 35.9092 22.1239C35.9167 22.1314 35.9256 22.1402 35.9344 22.1478L35.9457 22.1604L35.9608 22.1767L35.9646 22.1843C35.9646 22.1855 35.9658 22.1868 35.9658 22.1881C35.9683 22.1906 35.9696 22.1931 35.9721 22.1956C35.9759 22.2006 35.9847 22.2095 35.9885 22.2145C35.9897 22.217 35.9897 22.2183 35.991 22.2195C35.9923 22.2195 35.9935 22.2208 35.9948 22.2208C36.0074 22.2271 36.0162 22.2359 36.0225 22.2422L36.0313 22.2497C36.0351 22.251 36.0413 22.2598 36.0439 22.2623C36.0552 22.2749 36.0653 22.2875 36.0766 22.3013C36.098 22.3265 36.1194 22.3517 36.137 22.3768C36.1748 22.4297 36.1949 22.4775 36.2188 22.509C36.2125 22.4977 36.2024 22.4813 36.1911 22.4587C36.1785 22.4347 36.1622 22.4045 36.1408 22.3743C36.1194 22.3454 36.0942 22.3164 36.0716 22.2913C36.059 22.2774 36.0476 22.2636 36.0363 22.251C36.0313 22.2472 36.0313 22.246 36.0275 22.2434L36.0187 22.2359C36.0137 22.2308 36.0061 22.2246 35.996 22.2195C35.9948 22.2183 35.9935 22.2183 35.9923 22.217C35.991 22.2157 35.991 22.2145 35.9897 22.2132C35.9822 22.2019 35.9734 22.1931 35.9709 22.1881C35.9696 22.1855 35.9683 22.1843 35.9683 22.1818C35.9683 22.1818 35.9671 22.1792 35.9671 22.178C35.9671 22.1767 35.9658 22.1755 35.9658 22.1742C35.9696 22.1818 35.9696 22.183 35.9709 22.1843C35.9721 22.1868 35.9746 22.1893 35.9759 22.1918L35.9834 22.2006L35.9885 22.2069C35.9897 22.2082 35.9935 22.212 35.9923 22.212C35.9935 22.212 35.9935 22.2132 35.9948 22.2145C35.996 22.2145 35.9973 22.2157 35.9973 22.2157C36.0162 22.2258 36.0262 22.2384 36.0338 22.2447C36.0351 22.246 36.0413 22.2497 36.0439 22.2548L36.0514 22.2636L36.064 22.2787C36.0816 22.2988 36.1018 22.3215 36.1194 22.3441C36.1383 22.368 36.1559 22.3932 36.1697 22.4184C36.1848 22.4436 36.1962 22.4675 36.21 22.4876C36.2226 22.509 36.2352 22.5266 36.2478 22.5392C36.2603 22.5518 36.2754 22.5619 36.2893 22.5707C36.3182 22.587 36.3396 22.6047 36.3422 22.6084C36.3409 22.6072 36.3459 22.6097 36.3547 22.6185C36.3635 22.6261 36.3749 22.6399 36.3849 22.6575C36.4063 22.6915 36.4202 22.7381 36.4491 22.7695C36.4793 22.8035 36.5234 22.8362 36.5536 22.8727C36.5813 22.908 36.6002 22.9332 36.609 22.9432C36.58 22.9055 36.5649 22.8841 36.5536 22.869C36.541 22.8564 36.5372 22.8526 36.5385 22.8526C36.5385 22.8513 36.5536 22.8652 36.5398 22.8501C36.5574 22.8664 36.5914 22.9168 36.6253 22.9621C36.6606 23.0087 36.692 23.054 36.6983 23.0603C36.7059 23.0741 36.687 23.054 36.6719 23.0351C36.7172 23.0993 36.7462 23.1383 36.7801 23.1824C36.7965 23.2038 36.8141 23.2277 36.8343 23.2554C36.8569 23.2843 36.8821 23.317 36.9148 23.3586C36.8683 23.3019 36.9123 23.3548 36.9626 23.4303C36.9866 23.4681 37.0117 23.5096 37.0306 23.5423C37.0407 23.5574 37.0495 23.5713 37.0545 23.5813C37.0608 23.5901 37.0646 23.5964 37.0646 23.5964C37.0797 23.6178 37.0873 23.6266 37.0898 23.6304C37.0935 23.6342 37.0935 23.6329 37.0961 23.6355C37.0986 23.638 37.1036 23.643 37.1149 23.6644C37.1263 23.6845 37.1414 23.721 37.164 23.7789C37.1502 23.745 37.1326 23.7034 37.1288 23.6984C37.1275 23.6959 37.13 23.7022 37.1376 23.7236C37.1464 23.7437 37.1577 23.7802 37.1816 23.8293C37.1791 23.8305 37.164 23.8016 37.1451 23.7525C37.1351 23.7286 37.1238 23.6996 37.1074 23.6694C37.0998 23.6543 37.091 23.638 37.081 23.6229C37.0721 23.609 37.0621 23.5952 37.0533 23.5813C37.0168 23.5247 36.9828 23.4668 36.9551 23.4265C36.9287 23.3863 36.9098 23.3636 36.9148 23.3724C36.9312 23.3938 36.9564 23.429 36.979 23.4668C37.0029 23.5046 37.0281 23.5448 37.0495 23.5801C37.0608 23.5964 37.0709 23.6128 37.0797 23.6254C37.0885 23.6392 37.0961 23.6518 37.0998 23.6606C37.1086 23.677 37.1086 23.6783 37.0948 23.6556C37.1225 23.7034 37.1401 23.7538 37.1615 23.8003C37.1816 23.8545 37.2144 23.9035 37.2509 23.9514C37.2685 23.9765 37.2886 24.0005 37.3088 24.0244C37.3302 24.047 37.3528 24.0747 37.3717 24.1024C37.4107 24.159 37.4434 24.222 37.4812 24.2862C37.5202 24.3516 37.5592 24.4221 37.6045 24.4963C37.7367 24.7091 37.7367 24.6977 37.6108 24.4926C37.6826 24.6058 37.6989 24.631 37.7166 24.6587C37.7254 24.6726 37.7329 24.6851 37.7493 24.7103C37.7656 24.7355 37.7921 24.7707 37.8311 24.8324C37.821 24.8173 37.8273 24.8274 37.8374 24.8462C37.8487 24.8651 37.8613 24.8928 37.8688 24.9092C37.9809 25.1332 37.8978 24.957 37.9683 25.098C37.9897 25.1382 37.967 25.0992 38.0174 25.1974C38.0388 25.2364 38.0602 25.2717 38.0803 25.3119C38.1143 25.3963 38.108 25.3849 38.0878 25.3371C38.0828 25.3258 38.0765 25.3119 38.0677 25.2956C38.0602 25.2817 38.0513 25.2654 38.0425 25.249C38.0249 25.215 38.006 25.1798 37.9897 25.1496C38.0174 25.2037 38.0425 25.2528 38.0664 25.2968C38.0891 25.3447 38.1055 25.3887 38.1206 25.4302C38.1281 25.4504 38.1369 25.4693 38.1432 25.4881C38.1483 25.4969 38.152 25.507 38.1558 25.5158C38.1596 25.5246 38.1634 25.5347 38.1671 25.5435C38.1822 25.5813 38.1948 25.6178 38.2062 25.653C38.1986 25.6304 38.186 25.5964 38.1759 25.5687C38.1659 25.541 38.1558 25.5209 38.1596 25.5309C38.181 25.5825 38.1948 25.6266 38.2074 25.6643C38.22 25.7021 38.2313 25.7323 38.2439 25.7587C38.2678 25.8103 38.288 25.8468 38.3056 25.8821C38.3396 25.9538 38.3723 26.0256 38.3949 26.2043C38.3887 26.1325 38.3761 26.0583 38.3496 25.9802C38.3245 25.901 38.2766 25.8267 38.2401 25.7373C38.2301 25.7084 38.2225 25.6794 38.215 25.6492C38.225 25.6794 38.2389 25.7248 38.2565 25.7625C38.2729 25.8015 38.2917 25.8368 38.2993 25.8481C38.2792 25.8053 38.259 25.765 38.2439 25.7235C38.2653 25.7814 38.3068 25.8519 38.3421 25.9412C38.3761 26.0306 38.3924 26.1325 38.405 26.2219L38.4163 26.3314C38.4201 26.3692 38.4252 26.4044 38.4314 26.4396C38.4289 26.4308 38.4239 26.4107 38.4189 26.3817C38.4151 26.3528 38.41 26.315 38.4038 26.2748C38.3987 26.2345 38.3924 26.1904 38.3861 26.1476C38.3798 26.1049 38.371 26.0633 38.361 26.0293C38.3736 26.0835 38.3723 26.0847 38.3673 26.0633C38.3622 26.0419 38.3509 25.9966 38.3345 25.9563C38.3194 25.9173 38.3018 25.8846 38.3006 25.8808C38.2968 25.877 38.3119 25.901 38.3408 25.9865C38.3723 26.0822 38.3811 26.1766 38.3924 26.2584C38.3987 26.2999 38.4038 26.3402 38.4088 26.3767C38.4138 26.4132 38.4226 26.4472 38.4302 26.4774C38.4214 26.4359 38.4126 26.3956 38.4075 26.3528C38.4201 26.4522 38.4491 26.5378 38.4629 26.6259C38.478 26.714 38.4793 26.7946 38.4906 26.8713C38.5007 26.9481 38.5095 27.0262 38.5195 27.1054C38.5233 27.1457 38.5296 27.1873 38.5321 27.23C38.5347 27.2728 38.5359 27.3169 38.5347 27.3622C38.5347 27.4277 38.5372 27.3924 38.5384 27.337C38.5397 27.2804 38.5359 27.2024 38.5334 27.1835C38.5258 27.1143 38.5133 27.0085 38.5019 26.9192C38.5007 26.8965 38.4969 26.8764 38.4944 26.8588C38.4919 26.8399 38.4906 26.8235 38.4893 26.8084C38.4881 26.7946 38.4881 26.7832 38.4868 26.7744C38.4868 26.7669 38.4868 26.7618 38.4868 26.7618C38.4919 26.8336 38.5032 26.9078 38.512 26.9871C38.5208 27.0677 38.5321 27.1445 38.5372 27.2238C38.5422 27.3005 38.5409 27.3735 38.5384 27.4352C38.5384 27.4843 38.5598 27.5346 38.5674 27.5762C38.5661 27.5749 38.5674 27.5799 38.5712 27.6051C38.5724 27.6177 38.5724 27.6315 38.5724 27.6454C38.5724 27.6492 38.5699 27.6605 38.5686 27.6618V27.663C38.5674 27.6643 38.5686 27.6655 38.5686 27.6668L38.5699 27.668L38.5724 27.6756L38.58 27.692L38.5925 27.7247L38.5787 27.6907C38.6051 27.7561 38.6328 27.8417 38.6706 27.916C38.7096 27.9915 38.7574 28.067 38.7776 28.1287C38.7625 28.0809 38.7398 28.0381 38.7184 27.9965C38.7373 28.0305 38.7562 28.0683 38.7725 28.1086C38.7763 28.1186 38.7801 28.1287 38.7839 28.14L38.7876 28.1526L38.7927 28.1727C38.7964 28.1853 38.8002 28.1992 38.804 28.2118L38.8078 28.2243L38.809 28.2294C38.809 28.2306 38.809 28.2269 38.809 28.2256C38.8103 28.2118 38.8128 28.2017 38.8128 28.1916L38.8141 28.1853C38.8141 28.1778 38.8141 28.1702 38.8141 28.1627C38.8141 28.1488 38.8141 28.135 38.8141 28.1224C38.8141 28.0947 38.8141 28.0721 38.8141 28.0519C38.8128 28.0041 38.8141 27.9676 38.8191 27.9361C38.8229 27.9047 38.8279 27.8795 38.8329 27.8543C38.838 27.8291 38.843 27.8027 38.848 27.77C38.848 27.7612 38.8493 27.7536 38.8506 27.7448V27.7373C38.8506 27.7322 38.8518 27.7285 38.8518 27.7259C38.8531 27.7209 38.8543 27.7146 38.8543 27.7096C38.8594 27.6857 38.8644 27.6605 38.8707 27.6315C38.882 27.5963 38.8795 27.6127 38.8694 27.6605C38.8644 27.6857 38.8569 27.7159 38.8543 27.7549C38.8518 27.7889 38.843 27.8279 38.8342 27.8694C38.8254 27.911 38.8178 27.96 38.8178 28.0054C38.8178 28.0494 38.8204 28.0922 38.8216 28.13C38.8216 28.1476 38.8229 28.1652 38.8229 28.1816C38.8229 28.1891 38.8229 28.1954 38.8229 28.2017C38.8229 28.2118 38.8216 28.2206 38.8229 28.2269C38.8241 28.2143 38.8254 28.2017 38.8254 28.1904C38.8254 28.1665 38.8254 28.135 38.8241 28.106C38.8229 28.0481 38.8191 27.989 38.8292 27.9286C38.838 27.8694 38.8531 27.814 38.8594 27.7612C38.8631 27.7033 38.8795 27.6479 38.8908 27.595C38.8971 27.5674 38.9034 27.5409 38.9085 27.5158C38.9122 27.4906 38.9148 27.4654 38.9173 27.439C38.9198 27.4125 38.921 27.3849 38.9248 27.3572C38.9273 27.3307 38.9336 27.3018 38.9399 27.2766C38.9513 27.225 38.9626 27.1747 38.9726 27.1256C38.9789 27.1017 38.984 27.0778 38.989 27.0538C38.994 27.0299 38.9978 27.0073 39.0029 26.9834C38.9903 27.0463 38.9953 27.0123 39.0003 26.9821C39.0054 26.9506 39.0091 26.9229 38.9928 27.001C38.9991 26.9733 39.0054 26.9368 39.0142 26.8978C39.0243 26.8562 39.0368 26.8172 39.0482 26.7795C39.0696 26.7039 39.0872 26.6398 39.0922 26.6297C39.0721 26.6964 39.0557 26.7581 39.0394 26.8197C39.0343 26.8361 39.0305 26.8512 39.0268 26.8663C39.023 26.8814 39.0192 26.8965 39.0154 26.9116C39.0091 26.9431 39.0054 26.972 39.0003 26.9985C38.9928 27.0526 38.9802 27.0992 38.9726 27.1419C38.9638 27.1835 38.9563 27.2187 38.9513 27.2439C38.9789 27.1268 38.9915 27.0702 38.9978 27.0438C39.0041 27.0173 39.0041 27.0199 39.0041 27.0236C39.0041 27.0262 39.0041 27.0287 39.0091 27.001C39.0117 26.9859 39.0167 26.9645 39.023 26.9305C39.0268 26.9141 39.0305 26.894 39.0368 26.8701C39.0444 26.8487 39.0507 26.8223 39.0595 26.7933C39.0796 26.7228 39.0733 26.7417 39.0708 26.748C39.0683 26.7505 39.0683 26.7493 39.0733 26.7316C39.0759 26.7228 39.0796 26.7102 39.0847 26.6914C39.0897 26.6725 39.096 26.6473 39.1073 26.6133C39.1048 26.6221 39.096 26.6435 39.0859 26.6763C39.0759 26.7102 39.062 26.7568 39.0456 26.8185C39.0243 26.8852 39.0507 26.787 39.0796 26.6851C39.0859 26.6599 39.0947 26.6322 39.1023 26.6083C39.1111 26.5844 39.1186 26.563 39.1249 26.5466C39.1375 26.5152 39.1413 26.5013 39.1312 26.524C39.1438 26.4912 39.1539 26.4636 39.1627 26.4308C39.1728 26.3994 39.1841 26.3692 39.1942 26.3415C39.2143 26.2836 39.2307 26.2345 39.242 26.1879C39.2533 26.1414 39.2621 26.0998 39.2709 26.0633C39.281 26.0281 39.2911 25.9991 39.2986 25.979C39.3603 25.8003 39.2898 25.9865 39.2785 26.0193C39.2949 25.9589 39.3175 25.9047 39.3339 25.8519C39.3427 25.8242 39.3477 25.799 39.3515 25.7701C39.3553 25.7424 39.3578 25.7134 39.3616 25.682C39.3641 25.6518 39.3679 25.6203 39.3767 25.5876C39.3855 25.5548 39.3955 25.5259 39.4069 25.4982C39.4169 25.4693 39.427 25.4428 39.4333 25.4164C39.4396 25.3937 39.4434 25.361 39.4484 25.3321C39.4534 25.3031 39.4622 25.2578 39.4723 25.1999C39.4673 25.1949 39.461 25.1898 39.4547 25.1835C39.4434 25.1722 39.4308 25.1596 39.4195 25.1483C39.3993 25.1269 39.3716 25.103 39.3452 25.0791C39.3175 25.0552 39.2873 25.0287 39.2584 25.0011C39.2445 24.9872 39.2294 24.9721 39.2156 24.957C39.208 24.9482 39.2005 24.9406 39.1942 24.9318C39.1854 24.9218 39.1778 24.9104 39.1715 24.8978C39.1602 24.8752 39.1551 24.8538 39.1489 24.8374C39.1413 24.8223 39.135 24.8097 39.1275 24.8034C39.1237 24.7997 39.1186 24.7972 39.1098 24.7909C39.101 24.7858 39.0884 24.7783 39.0784 24.7669C39.0721 24.7619 39.0683 24.7569 39.0645 24.7518C39.0608 24.7481 39.057 24.743 39.0532 24.738C39.0469 24.7292 39.0406 24.7191 39.0343 24.7103C38.9903 24.631 38.9739 24.5555 38.9424 24.5026C38.9664 24.5404 38.9827 24.5882 39.0041 24.6386C39.0142 24.6637 39.0268 24.6902 39.0431 24.7153C39.0507 24.7292 39.0608 24.7418 39.0708 24.7531C39.0821 24.7682 39.101 24.7821 39.1124 24.7883C39.1249 24.7946 39.13 24.7997 39.1363 24.806C39.1413 24.8123 39.1463 24.8211 39.1501 24.8324C39.1602 24.8538 39.1665 24.889 39.1916 24.923C39.2344 24.9771 39.2823 25.0187 39.3339 25.064C39.2911 25.0287 39.2156 24.9557 39.276 25.0149C39.3175 25.0539 39.3553 25.0854 39.3905 25.1156C39.3993 25.1244 39.4081 25.1319 39.4144 25.1382L39.4396 25.1634C39.4471 25.1722 39.456 25.1798 39.466 25.1886L39.4761 25.1987C39.4723 25.2238 39.4673 25.2503 39.4622 25.2779V25.3056C39.4547 25.3459 39.4509 25.3723 39.4471 25.3887C39.4446 25.4051 39.4421 25.4114 39.4421 25.4126C39.4409 25.4151 39.4446 25.3963 39.4471 25.3749C39.4497 25.3547 39.4522 25.3358 39.4497 25.3459C39.4497 25.3509 39.4471 25.3623 39.4434 25.3849C39.4396 25.4063 39.432 25.4328 39.4157 25.4768C39.3968 25.5284 39.3804 25.5737 39.3741 25.6102C39.3666 25.6467 39.3653 25.6719 39.3641 25.6958C39.3603 25.7399 39.3628 25.7738 39.3465 25.8405C39.3666 25.7751 39.3666 25.7185 39.3754 25.658C39.3792 25.6278 39.3855 25.5951 39.3968 25.5624C39.4069 25.5309 39.4207 25.4982 39.4333 25.463C39.4358 25.4529 39.4409 25.439 39.4446 25.4227C39.4471 25.4139 39.4484 25.4051 39.4509 25.395C39.4522 25.3837 39.4534 25.3711 39.456 25.3585C39.4622 25.3132 39.4711 25.2578 39.4811 25.1974L39.4774 25.1936L39.4622 25.181C39.4522 25.171 39.4409 25.1596 39.4308 25.1496L39.4157 25.1345L39.4018 25.1194L39.3691 25.0904C39.3251 25.0514 39.2797 25.0111 39.2395 24.9696C39.3062 25.0388 39.3968 25.108 39.4396 25.1546C39.4622 25.1785 39.4836 25.1961 39.4799 25.1924C39.4799 25.1924 39.4799 25.1924 39.4799 25.1911C39.4799 25.1911 39.4799 25.1911 39.4786 25.1911C39.4774 25.1898 39.4761 25.1873 39.4736 25.1861C39.466 25.1785 39.4547 25.1659 39.4383 25.1496C39.3691 25.0778 39.281 25.0149 39.2093 24.9318C39.2005 24.923 39.1891 24.9067 39.1816 24.8928C39.1753 24.879 39.1703 24.8651 39.1665 24.8525C39.1577 24.8286 39.1489 24.8085 39.1375 24.7972C39.1312 24.7909 39.1237 24.7871 39.1111 24.7795C39.1086 24.7783 39.1073 24.7758 39.1048 24.7745C39.1073 24.7758 39.1098 24.7783 39.1124 24.7795C39.1363 24.7934 39.1438 24.7997 39.1539 24.8211C39.164 24.8412 39.1703 24.8664 39.1828 24.8928C39.1891 24.9054 39.1967 24.918 39.2055 24.9268C39.2118 24.9356 39.2193 24.9432 39.2244 24.9494C39.237 24.962 39.2458 24.9708 39.2508 24.9746C39.2596 24.9834 39.2483 24.9734 39.2105 24.9306C39.203 24.9218 39.1929 24.9079 39.1866 24.8953C39.1803 24.884 39.1753 24.8714 39.1715 24.8588C39.1627 24.8362 39.1564 24.816 39.1451 24.8022C39.14 24.7959 39.135 24.7909 39.1262 24.7846C39.1186 24.7795 39.1061 24.7732 39.0935 24.7619C39.0809 24.7506 39.0733 24.7405 39.0645 24.7292C39.057 24.7191 39.0507 24.7078 39.0431 24.6965C39.018 24.6512 39.0029 24.6046 38.9865 24.5643C38.9689 24.524 38.9525 24.4901 38.9286 24.4624C38.8581 24.368 38.8732 24.3906 38.8921 24.4221C38.9122 24.4536 38.9374 24.4901 38.8871 24.4233C38.8996 24.4385 38.8443 24.368 38.7977 24.2748C38.775 24.2295 38.7524 24.1817 38.7348 24.1376C38.7159 24.0949 38.7046 24.0558 38.6983 24.0382C38.6857 23.9879 38.6819 23.9677 38.6718 23.9325C38.6655 23.9136 38.6593 23.8947 38.6454 23.8633C38.6303 23.8293 38.6127 23.7852 38.5938 23.7261C38.5372 23.5713 38.5812 23.7009 38.5774 23.6921C38.5724 23.6783 38.5674 23.6631 38.5623 23.648C38.5573 23.6329 38.551 23.6204 38.5435 23.5952C38.5321 23.5511 38.5359 23.5083 38.5359 23.4693C38.5372 23.4492 38.5372 23.4303 38.5359 23.4127C38.5347 23.3925 38.5334 23.3724 38.5321 23.351C38.5284 23.3095 38.5258 23.2667 38.5221 23.2252C38.5183 23.1849 38.512 23.1433 38.5057 23.1005C38.5032 23.0792 38.5007 23.059 38.4994 23.0376C38.4994 23.0263 38.4994 23.0162 38.4982 23.0062C38.4982 22.9961 38.4982 22.9873 38.4969 22.9785C38.4919 22.9181 38.4818 22.8526 38.4856 22.7972C38.4856 22.8023 38.4843 22.8023 38.4843 22.7972C38.4843 22.7884 38.4868 22.7632 38.4919 22.7318C38.4956 22.7003 38.5044 22.6626 38.5107 22.6273C38.5183 22.5921 38.5208 22.5606 38.5221 22.5329C38.5221 22.548 38.5246 22.5291 38.5271 22.4964C38.5296 22.4637 38.5321 22.4171 38.5384 22.3806C38.546 22.3429 38.556 22.319 38.5523 22.3328C38.5485 22.3454 38.5347 22.4008 38.5334 22.5065C38.5321 22.5153 38.5296 22.5531 38.5309 22.4889C38.5296 22.5493 38.5246 22.6021 38.5145 22.6487C38.5057 22.694 38.4994 22.7305 38.4994 22.7393C38.5095 22.6802 38.5246 22.6248 38.5309 22.5745C38.5372 22.5241 38.5372 22.4712 38.5422 22.4222C38.546 22.397 38.5485 22.3743 38.5548 22.3504C38.5611 22.3278 38.5699 22.3076 38.5774 22.2913C38.5938 22.256 38.6077 22.2308 38.6177 22.2132C38.5875 22.2736 38.5649 22.319 38.5548 22.3643C38.5447 22.4083 38.5422 22.4473 38.5397 22.4977C38.5372 22.5833 38.5271 22.616 38.5271 22.6248C38.5258 22.6336 38.5309 22.6122 38.5359 22.5845C38.5447 22.5304 38.5472 22.436 38.5472 22.4775C38.551 22.436 38.551 22.3806 38.5724 22.3215C38.5938 22.2661 38.6265 22.2157 38.6429 22.1679C38.6605 22.1226 38.6655 22.076 38.6693 22.0458C38.6731 22.0144 38.6756 21.998 38.6756 22.0081C38.6819 21.9477 38.697 21.8973 38.7109 21.8633C38.7247 21.8281 38.7335 21.8067 38.7385 21.7941C38.7461 21.7702 38.7373 21.784 38.7109 21.8394C38.7234 21.808 38.7398 21.7752 38.7524 21.7413C38.7587 21.7236 38.7637 21.706 38.7675 21.6871C38.7713 21.6683 38.775 21.6481 38.7776 21.628C38.7851 21.5864 38.7914 21.5424 38.8027 21.4971C38.8141 21.4568 38.8204 21.4128 38.8329 21.3687C38.8392 21.3473 38.8468 21.3247 38.8556 21.3045C38.8631 21.2844 38.8707 21.2655 38.8783 21.2479C38.8934 21.2101 38.9072 21.1761 38.9198 21.1434C38.9261 21.1283 38.9311 21.1132 38.9374 21.0981C38.9424 21.083 38.9475 21.0692 38.9525 21.0553C38.9613 21.0301 38.9689 21.0075 38.9752 20.9899C38.984 20.9659 38.9928 20.9395 39.0003 20.9106C39.0041 20.8955 39.0079 20.8816 39.0104 20.8665C39.0142 20.8502 39.0167 20.8325 39.0205 20.8149C39.0356 20.7457 39.0595 20.6752 39.0771 20.6148C39.0922 20.5544 39.0998 20.4927 39.1136 20.4449C39.1287 20.3958 39.1426 20.3668 39.1463 20.358C39.135 20.3882 39.1237 20.4197 39.1149 20.4512C39.1073 20.4826 39.1023 20.5128 39.096 20.5431C39.091 20.5733 39.0847 20.6022 39.0771 20.6312C39.0683 20.6614 39.0595 20.6928 39.0494 20.7268C39.057 20.7016 39.0645 20.6765 39.0733 20.65C39.0809 20.6249 39.0872 20.5997 39.0935 20.572C39.1035 20.5191 39.1124 20.4587 39.1325 20.4033C39.1514 20.348 39.1728 20.3001 39.1866 20.2573C39.1942 20.236 39.1992 20.2158 39.2042 20.1969C39.2093 20.1768 39.2143 20.1592 39.2181 20.1428C39.2281 20.1076 39.2382 20.0799 39.2521 20.0421C39.2659 20.0031 39.2873 19.9528 39.3276 19.8798C39.315 19.8949 39.3339 19.8609 39.3653 19.7954C39.3792 19.7577 39.4056 19.7124 39.4295 19.6633C39.4409 19.6394 39.4522 19.6142 39.4597 19.5865C39.4698 19.555 39.4799 19.5223 39.4912 19.4883C39.5076 19.438 39.5214 19.3952 39.534 19.3562C39.5466 19.3197 39.5554 19.2882 39.5642 19.258C39.5806 19.1989 39.5957 19.1523 39.6108 19.1133C39.6246 19.0818 39.6322 19.0491 39.6447 19.0151C39.6473 19.0063 39.651 18.9962 39.6536 18.9874C39.6561 18.9824 39.6573 18.9799 39.6611 18.9723C39.6649 18.9648 39.6674 18.9572 39.6724 18.9484C39.6901 18.9144 39.7152 18.8943 39.7467 18.8704C39.7593 18.8842 39.7719 18.8993 39.787 18.9157C39.7945 18.9245 39.8021 18.9333 39.8084 18.9421C39.8121 18.9471 39.8159 18.9522 39.8197 18.9572L39.826 18.966C39.8423 18.9912 39.86 19.0214 39.8738 19.0566C39.8637 19.0289 39.8512 19.0013 39.8361 18.9748C39.8726 19.0327 39.8902 19.0919 39.9028 19.1359C39.9091 19.1586 39.9153 19.1775 39.9229 19.1938C39.9292 19.2114 39.9367 19.2228 39.9456 19.2354C39.9833 19.2857 40.0324 19.3197 40.0727 19.3713C40.0827 19.3839 40.0928 19.399 40.1016 19.4141C40.1092 19.4279 40.1167 19.443 40.123 19.4581C40.1369 19.4883 40.1507 19.5211 40.1646 19.5576C40.1784 19.5915 40.196 19.6356 40.2136 19.6822C40.2224 19.7048 40.2325 19.7287 40.2438 19.7539C40.2552 19.7778 40.2703 19.8005 40.2892 19.8256C40.3043 19.8433 40.3206 19.8609 40.337 19.8798C40.3634 19.9112 40.3898 19.944 40.4125 19.9805C40.4364 20.0182 40.4528 20.0547 40.4704 20.0912C40.4868 20.129 40.5019 20.168 40.5182 20.2057C40.5258 20.2259 40.5346 20.2448 40.5434 20.2649C40.5522 20.2838 40.5635 20.309 40.5723 20.3329C40.5598 20.3014 40.5509 20.285 40.5434 20.2712C40.5371 20.2573 40.5295 20.2435 40.517 20.2158C40.5258 20.2372 40.5358 20.2586 40.5459 20.2813C40.5572 20.3052 40.5673 20.3291 40.5761 20.3517C40.5925 20.3996 40.6076 20.4461 40.6252 20.4889C40.6139 20.4612 40.6051 20.4398 40.6076 20.4512C40.6114 20.4625 40.6214 20.504 40.673 20.5947C40.6579 20.5695 40.6378 20.5342 40.6227 20.5003C40.6063 20.465 40.5925 20.4285 40.5837 20.4033C40.5635 20.3505 40.5598 20.3467 40.6038 20.4701C40.6 20.4524 40.6126 20.4927 40.6453 20.5519C40.6768 20.6098 40.7297 20.6916 40.7649 20.7683C40.741 20.7243 40.7322 20.7067 40.7334 20.7104C40.7347 20.7142 40.746 20.7356 40.7599 20.7671C40.7901 20.8288 40.8366 20.9244 40.8593 20.971C40.9248 21.1019 40.8366 20.9194 40.8165 20.8766C40.8643 20.9697 40.9096 21.0641 40.955 21.1598C40.926 21.1019 40.9474 21.1447 40.9764 21.2076C41.004 21.2705 41.0405 21.3498 41.0456 21.3637C41.0519 21.3763 41.0594 21.3901 41.067 21.4052C41.0733 21.4203 41.0796 21.4367 41.0859 21.453C41.0984 21.4858 41.1098 21.5172 41.1173 21.5399C41.1337 21.5839 41.1387 21.5927 41.1123 21.4983C41.1022 21.4719 41.0921 21.4455 41.0796 21.419C41.0481 21.341 41.0129 21.2655 40.9801 21.1887C41.0078 21.2479 41.0355 21.307 41.0619 21.3649C41.0758 21.3926 41.0884 21.4228 41.0984 21.4543C41.1085 21.4845 41.1186 21.5147 41.1274 21.5436C41.1362 21.5726 41.145 21.6015 41.1551 21.6292L41.1865 21.7161C41.1966 21.745 41.2067 21.774 41.2168 21.8054L41.2306 21.8507C41.2344 21.8646 41.2394 21.8797 41.2444 21.8935C41.2633 21.9527 41.2872 22.0131 41.3011 22.0823C41.3162 22.1579 41.3061 22.2258 41.3137 22.2875C41.3237 22.3592 41.3275 22.4322 41.3325 22.5052C41.3338 22.582 41.3388 22.6613 41.3376 22.7431C41.3351 22.8375 41.3325 22.8186 41.3313 22.8299C41.3313 22.8362 41.33 22.8501 41.33 22.8891C41.3288 22.908 41.3288 22.9332 41.3275 22.9659C41.3262 22.9999 41.3275 23.0427 41.3237 23.098C41.32 23.132 41.3187 23.1685 41.3187 23.1773C41.3187 23.1824 41.32 23.1798 41.3212 23.1647C41.3225 23.1534 41.325 23.137 41.3275 23.1094C41.3275 23.1131 41.3275 23.1157 41.3262 23.1182L41.3225 23.1547C41.3212 23.1798 41.3187 23.205 41.3162 23.2302C41.3124 23.2805 41.3049 23.3359 41.291 23.3888C41.2784 23.4404 41.2646 23.4932 41.247 23.5486C41.2306 23.6027 41.213 23.6569 41.1966 23.7173C41.1828 23.7588 41.1714 23.7852 41.1702 23.784C41.1689 23.7827 41.1714 23.7752 41.1765 23.7588C41.1815 23.7424 41.1891 23.7173 41.2004 23.682C41.1941 23.7034 41.179 23.7513 41.1589 23.8016C41.1375 23.8532 41.106 23.9061 41.0833 23.94C41.0531 23.9879 41.0267 24.0269 41.0078 24.0609C40.9877 24.0949 40.9726 24.1263 40.9587 24.1527C40.931 24.2081 40.9071 24.2484 40.882 24.2874C40.8555 24.3264 40.8278 24.3642 40.7863 24.4158C40.7611 24.4447 40.7297 24.4699 40.6944 24.4951C40.6781 24.5089 40.6604 24.5215 40.6453 24.5366C40.6302 24.5517 40.6164 24.5706 40.5988 24.5958C40.629 24.5555 40.6139 24.5794 40.6114 24.5845C40.6088 24.587 40.6114 24.5857 40.6214 24.5719C40.634 24.5555 40.6479 24.5354 40.702 24.4963C40.7309 24.4737 40.7637 24.4498 40.7913 24.4158C40.8153 24.3868 40.8379 24.3566 40.8606 24.3252C40.9021 24.2685 40.8681 24.3189 40.8379 24.3592C40.8077 24.3982 40.7863 24.4296 40.8593 24.3365C40.8366 24.3667 40.814 24.3957 40.7888 24.4246C40.7599 24.4561 40.7284 24.4787 40.702 24.4989C40.6743 24.519 40.6516 24.5366 40.6365 24.5555C40.6202 24.5744 40.6051 24.5996 40.5874 24.6222C40.5975 24.6071 40.5837 24.6285 40.5585 24.6512C40.5346 24.6726 40.5107 24.6889 40.5157 24.6851C40.4427 24.7405 40.4314 24.7468 40.4163 24.7581C40.4087 24.7632 40.3999 24.7695 40.3823 24.7808C40.3659 24.7934 40.3357 24.811 40.2967 24.8387C40.2791 24.8513 40.3131 24.8223 40.3722 24.7833C40.4314 24.7456 40.5094 24.6939 40.5535 24.6524C40.561 24.6449 40.5623 24.6423 40.5585 24.6461C40.556 24.6486 40.5522 24.6512 40.5472 24.6549C40.5434 24.6587 40.5384 24.6625 40.5321 24.6675C40.5069 24.6877 40.4654 24.7179 40.4175 24.7493C40.3722 24.7795 40.3168 24.8123 40.2778 24.8437C40.2363 24.8777 40.2023 24.9155 40.1784 24.9381C40.1633 24.9545 40.1696 24.9507 40.162 24.9608C40.1583 24.9658 40.1507 24.9746 40.1331 24.991C40.1243 24.9985 40.1142 25.0086 40.0991 25.0212C40.0853 25.0325 40.0702 25.0451 40.0513 25.0615C40.0387 25.0703 40.0072 25.0954 39.967 25.1319C39.9468 25.1496 39.9242 25.1697 39.9002 25.1911C39.8877 25.2012 39.8751 25.2125 39.8625 25.2226C39.8549 25.2289 39.8486 25.2339 39.8398 25.2402L39.8323 25.244C39.8323 25.2452 39.8323 25.2465 39.8323 25.2477L39.8298 25.2616C39.8285 25.2754 39.826 25.288 39.8235 25.3006C39.8197 25.3258 39.8134 25.3497 39.8084 25.3711C39.8033 25.3925 39.7983 25.4126 39.7945 25.4302C39.7907 25.4491 39.787 25.4667 39.7832 25.4806C39.7719 25.5309 39.7593 25.5775 39.7555 25.5951C39.7517 25.6115 39.7555 25.5989 39.7769 25.5271C39.7618 25.5813 39.7442 25.6392 39.7366 25.6832C39.7266 25.726 39.7215 25.7562 39.7228 25.7461C39.7203 25.765 39.7165 25.7864 39.7127 25.8116C39.7089 25.8355 39.7039 25.8632 39.6989 25.8921C39.6888 25.9488 39.6825 26.0142 39.6687 26.0809C39.6536 26.1476 39.6322 26.2068 39.6208 26.2559C39.6082 26.305 39.6007 26.349 39.5969 26.3729C39.5982 26.3591 39.5881 26.4069 39.5743 26.4711C39.5667 26.5051 39.5592 26.5378 39.5529 26.5731C39.5478 26.6083 39.5428 26.6435 39.5365 26.67C39.529 26.7216 39.5139 26.7883 39.4962 26.8676C39.4925 26.8877 39.4874 26.9091 39.4836 26.9292C39.4774 26.9519 39.4711 26.9733 39.4648 26.9959C39.4497 27.0387 39.4346 27.0815 39.4232 27.1231C39.3993 27.2124 39.3754 27.3005 39.354 27.3773C39.3314 27.4566 39.3112 27.5195 39.3024 27.5636C39.3037 27.5472 39.3364 27.4327 39.3402 27.4138C39.3402 27.4138 39.3389 27.4176 39.3376 27.4226C39.3364 27.4289 39.3326 27.4365 39.3301 27.4465C39.3238 27.4667 39.315 27.4944 39.3074 27.5246C39.2911 27.5862 39.2722 27.6618 39.2584 27.7159L39.2646 27.6882L39.242 27.7775L39.2382 27.7889L39.2344 27.8153C39.2344 27.8241 39.2344 27.8317 39.2344 27.8367C39.2319 27.8443 39.2357 27.838 39.2344 27.8392C39.2407 27.8317 39.242 27.8329 39.2382 27.8392C39.2357 27.8455 39.2281 27.8594 39.2244 27.8656C39.2219 27.8707 39.2206 27.8745 39.2219 27.8719C39.2206 27.8745 39.2319 27.8594 39.2735 27.8103C39.2797 27.8015 39.286 27.7926 39.2923 27.7851C39.2999 27.775 39.3062 27.7662 39.3125 27.7574C39.3263 27.7398 39.3389 27.7247 39.3502 27.7121C39.3729 27.6869 39.3905 27.6693 39.4031 27.6567C39.4157 27.6429 39.4245 27.6341 39.4295 27.629C39.432 27.6253 39.4346 27.624 39.4358 27.6215C39.4371 27.6202 39.4371 27.6202 39.4371 27.619C39.4383 27.6164 39.4383 27.6164 39.4383 27.6114C39.4383 27.6101 39.4383 27.6089 39.4383 27.6076C39.4383 27.6089 39.4383 27.5963 39.4409 27.5862C39.4434 27.5762 39.4534 27.5623 39.4597 27.5548C39.4673 27.546 39.4761 27.5359 39.4862 27.5271C39.495 27.5208 39.4987 27.5158 39.5088 27.5082C39.5164 27.5006 39.5252 27.4931 39.5327 27.4868C39.5504 27.4742 39.5667 27.4629 39.5806 27.4516C39.6082 27.4277 39.6397 27.3974 39.6724 27.3723C39.6724 27.371 39.6787 27.3647 39.6913 27.3534C39.6976 27.3484 39.7052 27.3433 39.7127 27.337C39.7228 27.3295 39.7328 27.3219 39.7442 27.3156C39.7668 27.3018 39.792 27.2905 39.8172 27.2779L39.826 27.2728C39.8285 27.2716 39.8298 27.2703 39.8323 27.2678C39.8361 27.2653 39.8411 27.2615 39.8461 27.2565L39.8625 27.2414C39.8663 27.2389 39.87 27.2363 39.8738 27.2338C39.8776 27.2313 39.8763 27.2313 39.8788 27.23C39.9028 27.1935 39.9254 27.1608 39.938 27.1419C39.9518 27.1205 39.9556 27.1143 39.943 27.1306C39.9544 27.1143 39.9644 27.0992 39.9732 27.0853C39.9833 27.0727 39.9921 27.0614 40.0009 27.0513C40.0173 27.0312 40.0299 27.0148 40.0412 27.0035C40.0601 26.9796 40.0702 26.9683 40.0777 26.9594C40.0853 26.9506 40.0903 26.9456 40.1004 26.9318C40.1104 26.9179 40.1255 26.8953 40.1545 26.8525C40.1721 26.8223 40.1922 26.7933 40.2124 26.7618C40.2224 26.7467 40.2325 26.7316 40.2438 26.7153C40.2539 26.7002 40.264 26.6838 40.2741 26.6674C40.2954 26.6322 40.3156 26.5945 40.3471 26.5554C40.3798 26.5177 40.4188 26.4862 40.4553 26.4497C40.4364 26.4686 40.3949 26.5063 40.3886 26.5139C40.4314 26.4736 40.4704 26.4409 40.4968 26.4057C40.5233 26.3679 40.5421 26.3276 40.5635 26.2886C40.5837 26.2508 40.6088 26.2131 40.639 26.1854C40.668 26.1565 40.6969 26.1338 40.7209 26.1099C40.7334 26.0973 40.7448 26.086 40.7548 26.0721L40.7876 26.0306C40.8102 26.0042 40.8329 25.9765 40.8555 25.9475C40.8996 25.8947 40.9436 25.8343 41.0066 25.7764C40.965 25.8166 40.8857 25.9161 40.8996 25.9022C40.9285 25.867 40.9625 25.8217 41.0053 25.7801C41.0481 25.7411 41.0909 25.7008 41.1286 25.6656C41.1664 25.6291 41.2029 25.6027 41.2243 25.5838C41.247 25.5662 41.2558 25.5574 41.2457 25.5636C41.3111 25.5133 41.2835 25.5372 41.2721 25.5473C41.2671 25.5523 41.2646 25.5536 41.2809 25.541C41.2897 25.5347 41.3023 25.5234 41.32 25.5083C41.3376 25.4932 41.359 25.468 41.3917 25.439C41.3602 25.468 41.3288 25.5058 41.2897 25.5385C41.2507 25.5712 41.2079 25.6039 41.1727 25.6341C41.1803 25.6291 41.2356 25.5863 41.2872 25.5448C41.3137 25.5234 41.3363 25.502 41.3539 25.4844C41.3716 25.4667 41.3841 25.4554 41.3841 25.4554C41.3627 25.4755 41.3388 25.5007 41.32 25.5196C41.2998 25.5385 41.2835 25.5511 41.2847 25.5523C41.3325 25.5146 41.3653 25.4743 41.4055 25.439C41.4496 25.4038 41.4999 25.39 41.544 25.3598C41.5742 25.3396 41.5604 25.3484 41.5314 25.3648C41.505 25.3799 41.4559 25.3988 41.4269 25.4164C41.4634 25.3937 41.4911 25.3849 41.515 25.3723C41.5402 25.361 41.5641 25.3434 41.6031 25.317L41.5931 25.3182C41.6925 25.2515 41.729 25.2377 41.7655 25.2163C41.7844 25.2062 41.8045 25.1924 41.836 25.1672C41.8675 25.1445 41.9102 25.1068 41.9845 25.069C41.9354 25.0954 41.9442 25.0929 41.9115 25.1143C41.9618 25.0816 42.0311 25.0501 42.1053 25.0149C42.1418 24.9973 42.1808 24.9771 42.2211 24.9608C42.2627 24.9444 42.3042 24.9306 42.3445 24.918C42.4238 24.8928 42.4892 24.8399 42.5597 24.8211C42.6251 24.8022 42.678 24.7883 42.7069 24.7808C42.5836 24.8173 42.644 24.8022 42.717 24.7821C42.7359 24.777 42.7548 24.772 42.7711 24.7682C42.7888 24.7644 42.8039 24.7619 42.8152 24.7594C42.8366 24.7556 42.8391 24.7556 42.8001 24.7657C42.8718 24.7481 42.9448 24.7342 43.0128 24.7191C43.0808 24.7028 43.1449 24.6801 43.2079 24.6637C43.2708 24.6449 43.3337 24.6386 43.3916 24.6411C43.4483 24.6423 43.4999 24.6486 43.5464 24.6486C43.6257 24.6499 43.6861 24.6411 43.7352 24.6398C43.7843 24.6373 43.8233 24.6398 43.8598 24.6361C43.8963 24.6348 43.9328 24.6298 43.9769 24.6235C44.0209 24.6184 44.0738 24.6033 44.1455 24.6109C44.1757 24.6147 44.2034 24.6184 44.2273 24.621C44.2626 24.6235 44.2966 24.6247 44.3331 24.6197C44.4312 24.6033 44.4904 24.5857 44.5785 24.6084C44.6742 24.6335 44.7232 24.6612 44.7195 24.7846C44.7182 24.7972 44.7157 24.8097 44.7132 24.8223C44.7119 24.8248 44.7119 24.8274 44.7107 24.8299ZM38.1948 27.4818C38.1923 27.483 38.1923 27.483 38.1948 27.4818V27.4818ZM39.1602 28.4043L39.1577 28.2734C39.1577 28.2722 39.1577 28.2709 39.1577 28.2697C39.1577 28.2684 39.1577 28.2684 39.1577 28.2671V28.2684L39.1551 28.2671C39.1539 28.2646 39.1526 28.2646 39.1526 28.2646C39.1526 28.2634 39.1539 28.2646 39.1551 28.2671C39.1551 28.2684 39.1539 28.2709 39.1539 28.2734C39.1564 28.398 39.1602 28.5239 39.1589 28.5352C39.1627 28.4912 39.1602 28.4471 39.1602 28.4043ZM39.1665 28.4522C39.1665 28.398 39.1652 28.3376 39.164 28.276C39.1627 28.2734 39.1602 28.2722 39.1589 28.2697C39.1589 28.2709 39.1577 28.2722 39.1589 28.2734C39.1614 28.3011 39.164 28.3074 39.1665 28.4522ZM39.174 28.2697C39.1753 28.2697 39.1765 28.2697 39.174 28.2697V28.2697ZM39.1589 28.2659V28.2671C39.1589 28.2684 39.1589 28.2684 39.1589 28.2697C39.1627 28.2734 39.1665 28.2772 39.1614 28.2734H39.1627V28.2722L39.1652 28.2709V28.2671L39.1589 28.2659ZM39.1577 28.2659C39.1577 28.2659 39.1577 28.2659 39.1564 28.2659C39.1551 28.2659 39.1551 28.2659 39.1551 28.2659C39.1551 28.2671 39.1551 28.2671 39.1551 28.2671L39.1577 28.2684V28.2671C39.1577 28.2671 39.1589 28.2671 39.1577 28.2659C39.1589 28.2671 39.1589 28.2671 39.1589 28.2671V28.2659H39.1577ZM39.1551 28.2659C39.1551 28.2659 39.1551 28.2659 39.1551 28.2646C39.1539 28.2646 39.1539 28.2646 39.1526 28.2646H39.1539C39.1539 28.2646 39.1539 28.2646 39.1551 28.2646C39.1551 28.2646 39.1551 28.2646 39.1551 28.2659ZM42.746 27.1847C42.7447 27.1847 42.7372 27.186 42.7283 27.1898C42.6994 27.1998 42.6704 27.2099 42.6415 27.22C42.6113 27.2288 42.5798 27.2363 42.5484 27.2439L42.5521 27.2452C42.498 27.2552 42.4514 27.264 42.4099 27.2728C42.3684 27.2817 42.3306 27.293 42.2903 27.303C42.3583 27.2867 42.3961 27.2791 42.4389 27.2716C42.4804 27.264 42.527 27.2577 42.6075 27.2363C42.6629 27.22 42.6981 27.2061 42.7183 27.1986C42.7397 27.1898 42.746 27.186 42.746 27.1847ZM43.1726 26.9355C43.1739 26.9355 43.1751 26.9343 43.1764 26.933C43.1676 26.9393 43.1575 26.9456 43.1487 26.9519C43.1563 26.9469 43.1651 26.9418 43.1726 26.9355ZM43.3853 26.7631C43.3677 26.7782 43.3514 26.7933 43.3337 26.8084C43.3501 26.7946 43.3677 26.7795 43.3853 26.7631ZM43.4671 26.6863C43.442 26.7102 43.4168 26.7342 43.3904 26.7581C43.4155 26.7354 43.4407 26.7115 43.4671 26.6863ZM43.7579 26.3666L43.7264 26.4006C43.7654 26.3566 43.7881 26.3301 43.8057 26.3075C43.768 26.3515 43.7277 26.3931 43.6899 26.4371C43.6421 26.4938 43.598 26.5517 43.5477 26.6045C43.5225 26.631 43.4974 26.6561 43.4722 26.6813C43.5011 26.6536 43.5313 26.6234 43.5641 26.5894C43.5641 26.5894 43.559 26.5957 43.5527 26.6033C43.5439 26.6121 43.5339 26.6221 43.525 26.6322C43.5049 26.6523 43.4873 26.67 43.4948 26.6649C43.5943 26.5756 43.666 26.4623 43.7579 26.3666ZM39.0444 24.7053C39.0381 24.6952 39.0318 24.6839 39.0268 24.6738C39.0305 24.6814 39.0368 24.6927 39.0444 24.7053ZM39.1551 28.2646C39.1551 28.2659 39.1551 28.2659 39.1551 28.2659C39.1551 28.2646 39.1539 28.2646 39.1539 28.2646C39.1539 28.2646 39.1539 28.2646 39.1551 28.2646ZM35.8022 25.4239C35.8085 25.4353 35.8161 25.4479 35.8249 25.4617C35.8173 25.4491 35.8098 25.4365 35.8022 25.4239ZM39.2785 26.0193C39.2772 26.0218 39.2772 26.023 39.2772 26.023C39.2772 26.0218 39.2785 26.0205 39.2785 26.0193ZM36.765 26.6574C36.7688 26.6599 36.7713 26.6612 36.7739 26.6637C36.7726 26.6624 36.7701 26.6612 36.7676 26.6599C36.7663 26.6586 36.7663 26.6586 36.765 26.6574ZM36.765 26.6574C36.7487 26.6486 36.7298 26.6372 36.7059 26.6247C36.7172 26.631 36.7386 26.6423 36.765 26.6574ZM39.0532 24.7204C39.0582 24.7267 39.0633 24.733 39.0696 24.7405C39.062 24.7317 39.057 24.7242 39.0507 24.7153C39.0519 24.7166 39.0532 24.7179 39.0532 24.7204ZM38.5712 27.5976C38.5699 27.5913 38.5699 27.5862 38.5686 27.5825C38.5674 27.5787 38.5674 27.5762 38.5674 27.5762C38.5724 27.6001 38.5737 27.624 38.5737 27.6353C38.5749 27.624 38.5737 27.6089 38.5712 27.5976ZM36.6946 23.0527C36.6971 23.0578 36.6971 23.059 36.6983 23.0603C36.7009 23.064 36.7009 23.0628 36.6946 23.0527ZM43.8636 26.2571L43.9014 26.2106C43.8875 26.2269 43.8787 26.2395 43.8636 26.2571ZM43.9202 26.1867C43.9127 26.1967 43.9064 26.2043 43.9014 26.2106L43.9202 26.1867Z" fill="white"/>
</mask>
<g mask="url(#mask8_47_126)">
<path d="M35.5391 18.8704V31.6742H44.7206V18.8704H35.5391Z" fill="#013B23"/>
</g>
</g>
</svg>
