<svg width="108" height="120" viewBox="0 0 108 120" fill="none" xmlns="http://www.w3.org/2000/svg">
<mask id="mask0_303_221" style="mask-type:luminance" maskUnits="userSpaceOnUse" x="0" y="0" width="108" height="120">
<path d="M0 0L107.552 0V119.045H0L0 0Z" fill="white"/>
</mask>
<g mask="url(#mask0_303_221)">
<path d="M107.531 66.8752C107.546 68.0725 107.444 69.2636 107.377 70.4609C107.34 71.058 107.25 71.652 107.192 72.246C107.121 72.8431 107.069 73.4402 106.958 74.0281C105.576 83.5263 101.399 92.6182 95.1607 100.014C88.925 107.416 80.6087 113.141 71.3167 116.219C68.9898 116.97 66.6261 117.635 64.213 118.057L63.3082 118.229C63.0096 118.287 62.7049 118.321 62.4002 118.364L60.5781 118.623L58.7468 118.792L57.8296 118.875L56.9124 118.915L55.0719 118.989L53.2282 118.974L52.308 118.961C52.0002 118.952 51.6955 118.928 51.3877 118.912L49.5471 118.798L46.7956 118.494L45.8845 118.343L44.0594 118.041L42.2527 117.653C32.6283 115.487 23.6102 110.596 16.4912 103.68C9.36292 96.7764 4.16446 87.8568 1.69911 78.177L1.25283 76.3549L0.895798 74.5175C0.840397 74.2097 0.769607 73.905 0.726517 73.5972L0.59417 72.6677C0.507991 72.049 0.406422 71.4304 0.33871 70.8118C0.237141 69.5652 0.0801713 68.3218 0.058627 67.0722C0.0401596 66.4474 0.000147951 65.8226 -0.00292969 65.1947L0.021693 63.3203C0.107872 58.3127 0.951199 53.3112 2.42548 48.5005C3.87514 43.6745 6.08503 39.0854 8.80891 34.8319C9.13209 34.2902 9.51374 33.7823 9.87077 33.2622C10.2401 32.7482 10.5879 32.2188 10.9726 31.7202C11.7606 30.7291 12.5085 29.7042 13.361 28.7685C13.7796 28.2915 14.189 27.8082 14.6168 27.3404C14.9277 27.0203 15.1677 26.6387 15.337 26.2262C25.9525 0.175433 62.8003 -9.72904 91.1349 12.893C91.575 13.247 91.3472 13.9549 90.784 13.9795C81.3073 14.3581 74.57 22.6683 64.9209 30.1105C54.6964 37.9959 41.2124 44.9025 17.747 40.3535C17.6515 40.3381 17.5592 40.3166 17.4699 40.295C16.4973 40.058 16.205 38.8207 16.9898 38.2021C17.8177 37.5527 18.658 36.9094 19.5044 36.2784C21.6312 34.6903 23.8195 33.1668 26.0479 31.6925C27.162 30.9569 28.2855 30.2336 29.415 29.5226C30.5507 28.8116 31.6895 28.116 32.8407 27.4327C35.1429 26.0631 37.4759 24.7519 39.8458 23.4993C42.2157 22.2466 44.6195 21.0585 47.0633 19.9567C49.5071 18.8517 51.994 17.8299 54.5302 16.9527C55.8013 16.5126 57.0848 16.1125 58.3836 15.7677C59.1069 15.5738 59.8364 15.3984 60.5689 15.2476C60.6551 15.226 60.6335 15.0999 60.5473 15.1122C59.7994 15.2076 59.0546 15.3276 58.3128 15.4661C56.9832 15.7154 55.6597 16.0171 54.3517 16.3618C51.7293 17.0481 49.147 17.8853 46.5955 18.8117C44.0471 19.7351 41.5263 20.7477 39.0394 21.828C36.5494 22.9114 34.0872 24.0564 31.6526 25.2629C30.4369 25.8661 29.2273 26.4817 28.0208 27.1127C26.8173 27.7467 25.6231 28.393 24.432 29.0548C22.8192 29.9535 21.2187 30.883 19.6337 31.8433L19.5136 31.9602C19.1258 32.3573 18.7565 32.7759 18.3748 33.1821C17.5931 33.9824 16.9159 34.8657 16.1896 35.7152C15.8356 36.1461 15.5186 36.6078 15.18 37.051C14.8476 37.5003 14.4968 37.9343 14.1982 38.4052C11.6805 42.0925 9.59068 46.0967 8.17488 50.3472C6.73753 54.5885 5.8388 59.0298 5.62951 63.5296L5.55256 65.2193C5.53718 65.7795 5.55872 66.3427 5.55872 66.9091C5.54333 68.0356 5.65413 69.159 5.70953 70.2855C5.75262 70.8487 5.82957 71.4089 5.88805 71.969L5.98038 72.8093C6.01424 73.0894 6.06964 73.3664 6.10965 73.6464L6.38358 75.3177L6.73753 76.9736C8.69811 85.7947 13.1764 94.0894 19.5475 100.645C25.9094 107.207 34.1272 112.012 43.0652 114.311L44.7457 114.726L46.4447 115.059L47.2972 115.225L48.1529 115.345L49.8703 115.588L51.6001 115.745C51.8863 115.773 52.1756 115.804 52.4649 115.822L53.3298 115.856L55.0688 115.927L56.8047 115.908L57.6757 115.896L58.5437 115.844L60.2796 115.736L62.0093 115.545C62.2986 115.508 62.5879 115.487 62.8742 115.443L63.736 115.302C66.0351 114.973 68.2942 114.406 70.5288 113.763C79.4514 111.104 87.6077 105.868 93.8557 98.8878C100.107 91.9165 104.465 83.1877 106.105 73.8896C106.232 73.314 106.302 72.7262 106.389 72.1445C106.466 71.5597 106.57 70.978 106.623 70.3901C106.727 69.2144 106.863 68.0386 106.884 66.8567C106.943 65.6779 106.97 64.493 106.93 63.3111C106.903 62.1292 106.835 60.9473 106.721 59.7685C106.281 55.0532 105.188 50.3872 103.468 45.9521C105.321 50.3349 106.564 54.9824 107.149 59.7223C107.3 60.9073 107.404 62.0953 107.469 63.2895C107.546 64.4837 107.552 65.6779 107.531 66.8752Z" fill="#013B23"/>
</g>
<mask id="mask1_303_221" style="mask-type:luminance" maskUnits="userSpaceOnUse" x="94" y="34" width="6" height="6">
<path d="M94.8716 34.9304H99.593V39.7687H94.8716V34.9304Z" fill="white"/>
</mask>
<g mask="url(#mask1_303_221)">
<mask id="mask2_303_221" style="mask-type:luminance" maskUnits="userSpaceOnUse" x="94" y="34" width="6" height="6">
<path d="M97.2323 34.9304C95.9273 34.9304 94.8716 36.0138 94.8716 37.3495C94.8716 38.6853 95.9273 39.7687 97.2323 39.7687C98.5373 39.7687 99.593 38.6853 99.593 37.3495C99.593 36.0138 98.5373 34.9304 97.2323 34.9304Z" fill="white"/>
</mask>
<g mask="url(#mask2_303_221)">
<path d="M94.8716 34.9304H99.593V39.7687H94.8716V34.9304Z" fill="#013B23"/>
</g>
</g>
<mask id="mask3_303_221" style="mask-type:luminance" maskUnits="userSpaceOnUse" x="83" y="24" width="9" height="9">
<path d="M83.5977 24.712H91.3323V32.4496H83.5977V24.712Z" fill="white"/>
</mask>
<g mask="url(#mask3_303_221)">
<mask id="mask4_303_221" style="mask-type:luminance" maskUnits="userSpaceOnUse" x="83" y="24" width="9" height="9">
<path d="M87.4634 24.712C85.3274 24.712 83.5977 26.4448 83.5977 28.5808C83.5977 30.7168 85.3274 32.4496 87.4634 32.4496C89.6025 32.4496 91.3323 30.7168 91.3323 28.5808C91.3323 26.4448 89.6025 24.712 87.4634 24.712Z" fill="white"/>
</mask>
<g mask="url(#mask4_303_221)">
<path d="M83.5977 24.712H91.3323V32.4496H83.5977V24.712Z" fill="#013B23"/>
</g>
</g>
<path d="M77.0081 61.8275C77.0081 61.8275 74.7459 59.9531 74.0164 65.3886C73.6348 68.2633 72.4067 70.4054 70.9263 71.9413C72.1235 71.7566 73.3762 71.4981 74.6474 71.0826C76.7526 66.9182 76.2879 62.7324 77.0081 61.8275ZM84.6965 55.9334C84.6965 55.9334 81.6464 54.1606 81.8711 61.1381C81.9726 64.2221 81.5294 66.5304 80.7877 68.2879C81.6895 67.9893 82.4558 67.8847 83.0776 67.9832C83.4408 68.0386 83.7608 68.1648 84.0255 68.3525C85.7245 62.5108 84.0194 57.2661 84.6965 55.9334ZM80.8831 58.645C80.8831 58.645 78.0761 56.8137 77.9499 63.0679C77.8914 66.0164 76.848 68.6911 75.4815 70.7871C76.3032 70.4762 77.125 70.0946 77.9407 69.6267C78.5408 69.2789 79.1072 68.9835 79.6335 68.7434C81.1508 64.0189 80.2152 59.71 80.8831 58.645Z" fill="#013B23"/>
<mask id="mask5_303_221" style="mask-type:luminance" maskUnits="userSpaceOnUse" x="56" y="57" width="39" height="45">
<path d="M56.4111 57.5186H94.5578V101.412H56.4111V57.5186Z" fill="white"/>
</mask>
<g mask="url(#mask5_303_221)">
<path d="M60.199 101.381C63.4369 94.1695 66.0161 91.2086 79.8725 82.5014C93.9567 73.6526 89.0106 62.0461 94.5569 58.8513C94.5569 58.8513 89.5862 55.0409 87.7179 63.8713C85.5819 73.9666 80.1372 75.8717 73.1874 78.3402C73.1874 78.3402 81.7684 74.7729 83.5505 71.2211C84.6401 69.0482 83.255 67.6139 78.3951 70.4209C72.8612 73.6157 67.041 72.7631 64.1971 73.8219C50.8824 78.768 60.199 101.381 60.199 101.381Z" fill="#013B23"/>
</g>
<path d="M37.6488 71.0826C38.9199 71.4981 40.1726 71.7566 41.3699 71.9413C39.8894 70.4054 38.6614 68.2633 38.2766 65.3886C37.5503 59.9531 35.2881 61.8275 35.2881 61.8275C36.0083 62.7324 35.5435 66.9182 37.6488 71.0826ZM28.2706 68.3525C28.5353 68.1648 28.8554 68.0386 29.2186 67.9832C29.8403 67.8847 30.6067 67.9893 31.5085 68.2879C30.7667 66.5304 30.3235 64.2221 30.4251 61.1381C30.6498 54.1606 27.5996 55.9334 27.5996 55.9334C28.2768 57.2661 26.5716 62.5108 28.2706 68.3525ZM32.6596 68.7434C33.189 68.9835 33.7553 69.2789 34.3555 69.6267C35.1711 70.0946 35.9929 70.4762 36.8147 70.7871C35.4481 68.6911 34.4047 66.0164 34.3462 63.0679C34.217 56.8137 31.4131 58.645 31.4131 58.645C32.081 59.71 31.1453 64.0189 32.6596 68.7434Z" fill="#013B23"/>
<mask id="mask6_303_221" style="mask-type:luminance" maskUnits="userSpaceOnUse" x="17" y="57" width="39" height="45">
<path d="M17.7354 57.5186H55.6235V101.412H17.7354V57.5186Z" fill="white"/>
</mask>
<g mask="url(#mask6_303_221)">
<path d="M52.0952 101.381C48.8573 94.1694 46.2781 91.2086 32.4186 82.5014C18.3344 73.6526 23.2836 62.0461 17.7373 58.8513C17.7373 58.8513 22.708 55.0378 24.5763 63.8712C26.7123 73.9665 32.1539 75.8717 39.1067 78.3401C39.1067 78.3401 30.5257 74.7729 28.7436 71.2211C27.651 69.0482 29.0391 67.6139 33.899 70.4209C39.4299 73.6157 45.2532 72.7631 48.0971 73.8219C61.4118 78.768 52.0952 101.381 52.0952 101.381Z" fill="#013B23"/>
</g>
<mask id="mask7_303_221" style="mask-type:luminance" maskUnits="userSpaceOnUse" x="47" y="46" width="23" height="32">
<path d="M47.2822 46.1398H69.7381V77.4599H47.2822V46.1398Z" fill="white"/>
</mask>
<g mask="url(#mask7_303_221)">
<mask id="mask8_303_221" style="mask-type:luminance" maskUnits="userSpaceOnUse" x="47" y="46" width="23" height="32">
<path d="M59.5594 60.295C59.584 60.2673 59.6087 60.2396 59.6302 60.2119C59.621 60.2242 59.6025 60.2519 59.5594 60.295C59.5194 60.3319 59.4671 60.375 59.3901 60.4335C59.4148 60.415 59.4486 60.3873 59.4917 60.3535C59.5133 60.335 59.5317 60.3196 59.5594 60.295ZM57.208 64.4931C57.2049 64.5116 57.2018 64.527 57.2018 64.5362C57.2049 64.5116 57.208 64.5024 57.208 64.4931ZM54.5826 54.9734C54.5826 55.0442 54.5795 55.0842 54.5795 55.1027C54.5856 55.0257 54.5856 54.9642 54.5826 54.9734ZM57.6789 67.5033C57.6819 67.5002 57.6819 67.4971 57.685 67.494C57.6758 67.5063 57.6666 67.5187 57.6542 67.531C57.6635 67.5217 57.6696 67.5125 57.6789 67.5033ZM57.6881 67.491C57.6881 67.491 57.6881 67.4879 57.6912 67.4879C57.6881 67.4879 57.6881 67.491 57.685 67.494C57.685 67.491 57.6881 67.491 57.6881 67.491ZM55.469 73.4681C55.469 73.5266 55.469 73.5851 55.469 73.6466C55.469 73.5881 55.469 73.5297 55.469 73.4681ZM57.6542 67.531C57.6481 67.534 57.645 67.5402 57.6389 67.5464C57.645 67.5402 57.6481 67.5371 57.6542 67.531ZM57.5065 67.6633C57.4819 67.691 57.4573 67.7218 57.4326 67.7526C57.4573 67.7218 57.4819 67.691 57.5034 67.6664C57.5281 67.6418 57.5588 67.6171 57.5865 67.5925C57.605 67.5771 57.6235 67.5617 57.6389 67.5464C57.6265 67.5587 57.6112 67.5741 57.5958 67.5833C57.565 67.611 57.5311 67.6387 57.5065 67.6633ZM56.894 68.3343C56.8786 68.3527 56.8602 68.3712 56.8417 68.3958V68.3928C56.8632 68.3712 56.8786 68.3497 56.894 68.3343ZM58.3283 67.2847C58.3314 67.2847 58.3344 67.2817 58.3375 67.2817C58.3314 67.2817 58.3283 67.2847 58.3252 67.2847H58.3283ZM58.316 67.2878C58.3191 67.2878 58.3221 67.2847 58.3252 67.2847C58.3191 67.2878 58.3098 67.2878 58.3037 67.2878C58.3098 67.2878 58.3129 67.2878 58.316 67.2878ZM56.1215 69.1191H56.1246C56.1246 69.1191 56.1246 69.1191 56.1215 69.1191ZM69.3254 61.5846C69.3162 61.6031 69.3069 61.6215 69.2977 61.6369C69.3069 61.6215 69.3162 61.6061 69.3254 61.5846ZM57.7189 67.4325V67.4294C57.7189 67.4294 57.7189 67.4325 57.7158 67.4356C57.7189 67.4356 57.7189 67.4325 57.7189 67.4325ZM61.4461 56.4384C61.4431 56.4661 61.4431 56.4908 61.44 56.5123C61.4431 56.4877 61.4461 56.4631 61.4461 56.4384ZM60.6551 63.0342C60.6644 63.0281 60.6705 63.0189 60.6798 63.0127C60.6705 63.0189 60.6644 63.025 60.6551 63.0342ZM55.9337 60.5227C55.9276 60.5166 55.9245 60.5073 55.9183 60.5012C55.9214 60.5073 55.9245 60.5104 55.9276 60.5166C55.9368 60.5289 55.9553 60.5474 55.9707 60.5597C55.9799 60.5689 55.9891 60.572 55.9953 60.5781C55.9737 60.5627 55.9491 60.5443 55.9337 60.5227ZM69.7132 60.7197C69.7101 60.729 69.707 60.7382 69.707 60.7443C69.6978 60.769 69.6886 60.7936 69.6763 60.8182C69.6424 60.8982 69.5901 60.9875 69.547 61.0829C69.4731 61.2583 69.3962 61.4492 69.3254 61.5846C69.387 61.4676 69.4701 61.2706 69.4608 61.286C69.4177 61.3845 69.3716 61.4799 69.3254 61.5754C69.3223 61.5784 69.3192 61.5846 69.3162 61.5907C69.3131 61.5938 69.3131 61.5969 69.31 61.6C69.3008 61.6184 69.2915 61.6369 69.2823 61.6523C69.2761 61.6677 69.2669 61.68 69.2608 61.6923C69.2084 61.7785 69.153 61.8647 69.0976 61.9539C69.1438 61.8831 69.1161 61.9355 69.0515 62.0432C68.9776 62.1725 68.873 62.3941 68.756 62.5726C68.7344 62.6003 68.7899 62.4956 68.8329 62.4248C68.8329 62.4248 68.8329 62.4248 68.8329 62.4218C68.8206 62.4433 68.8083 62.4648 68.7929 62.4864C68.7006 62.6341 68.6329 62.7973 68.5375 62.9419C68.439 63.0896 68.3282 63.2343 68.2266 63.382C68.125 63.5298 68.0142 63.6744 67.9096 63.8191C67.8973 63.8376 67.8819 63.8591 67.8665 63.8776C67.8111 63.9514 67.7218 64.0715 67.6295 64.1854C67.5279 64.3239 67.4141 64.4501 67.3525 64.5208C67.294 64.5886 67.2909 64.5978 67.3956 64.4901C67.5156 64.3608 67.5833 64.2746 67.6234 64.2192C67.6634 64.1669 67.6818 64.1423 67.6941 64.1207C67.7218 64.0807 67.7372 64.0653 67.8911 63.8714C67.7926 64.013 67.6818 64.1453 67.5833 64.2869C67.608 64.2531 67.6264 64.2315 67.6418 64.21C67.6049 64.2592 67.5679 64.3085 67.5279 64.3577C67.5803 64.2962 67.6511 64.2038 67.7495 64.0899C67.7988 64.0315 67.8511 63.9699 67.9065 63.896C67.9588 63.8222 68.0142 63.7452 68.0727 63.6621C68.0327 63.7237 67.9742 63.8068 67.9034 63.9022C67.8326 63.9976 67.7465 64.0992 67.6603 64.2038C67.5803 64.3085 67.4848 64.4193 67.3987 64.5116C67.3094 64.6039 67.2355 64.6932 67.1771 64.7701C67.1586 64.7855 67.0878 64.8656 66.9955 64.9702C66.9062 65.0779 66.7769 65.1918 66.6692 65.2934C66.5954 65.3611 66.5307 65.438 66.4507 65.4996L66.2229 65.6935C66.0752 65.832 65.9028 65.9397 65.7336 66.0444C65.7028 66.0505 66.029 65.872 66.1952 65.715C66.2599 65.6535 66.2045 65.6935 66.069 65.8012C66.0013 65.8535 65.9059 65.9151 65.792 65.9828C65.6782 66.0505 65.5489 66.1275 65.4165 66.226C65.5273 66.149 65.4042 66.2444 65.275 66.3275C65.2103 66.3675 65.1395 66.3983 65.1057 66.4168C65.0749 66.4291 65.078 66.4322 65.1488 66.3983C64.9241 66.506 64.7302 66.5768 64.5086 66.6322C64.3978 66.6599 64.2808 66.6815 64.1485 66.7061C64.0192 66.7307 63.8776 66.7677 63.7114 66.8077C63.9453 66.7554 63.8622 66.7769 63.7453 66.8077C63.6252 66.8415 63.4683 66.8692 63.5606 66.8569C63.4159 66.8815 63.2374 66.9123 63.0805 66.94C62.9235 66.9646 62.7973 67.0047 62.745 67.0231C62.6311 67.0447 62.5849 67.0477 62.6896 67.0077C62.5265 67.057 62.4372 67.0754 62.3849 67.0878C62.3356 67.097 62.3202 67.1001 62.3049 67.1062C62.271 67.1124 62.2279 67.1339 61.8401 67.1493C61.9632 67.1462 62.0832 67.1432 62.2033 67.1308C62.0832 67.1432 61.9878 67.1493 61.9017 67.1555C61.8124 67.1647 61.7293 67.1616 61.64 67.1585C61.5477 67.1524 61.4461 67.1432 61.323 67.1401C61.1999 67.1401 61.046 67.1493 60.846 67.1585C60.849 67.1616 60.8952 67.1616 60.9075 67.1616C60.9106 67.1616 60.9106 67.1647 60.889 67.1647C60.8675 67.1678 60.8306 67.1709 60.7659 67.1739C60.7721 67.1739 60.7782 67.1709 60.7875 67.1709C60.7936 67.1709 60.7936 67.1709 60.7936 67.1709C60.7967 67.1678 60.7752 67.1678 60.7629 67.1678C60.7505 67.1709 60.7228 67.177 60.689 67.1893C60.6521 67.2047 60.6059 67.2293 60.532 67.2355C60.4735 67.2355 60.4089 67.2293 60.3443 67.217C60.2796 67.2047 60.2119 67.1893 60.1473 67.1862C60.1134 67.1832 60.0796 67.1862 60.0457 67.1893C60.0119 67.1924 59.9719 67.1986 59.9318 67.2016C59.8549 67.2078 59.781 67.2047 59.7041 67.2047C59.5502 67.2016 59.4148 67.1986 59.2916 67.2201C59.1624 67.2416 59.03 67.2386 58.91 67.2263C58.793 67.214 58.6761 67.1986 58.5684 67.2016C58.5253 67.2047 58.476 67.2293 58.4175 67.257C58.3929 67.2663 58.3652 67.2755 58.3375 67.2817C58.3775 67.2724 58.4145 67.257 58.4483 67.2416C58.4822 67.2263 58.516 67.2109 58.5468 67.2047C58.5714 67.1986 58.6084 67.2016 58.6422 67.2016C58.713 67.2047 58.7715 67.2109 58.8177 67.2139C58.8392 67.2139 58.8577 67.217 58.87 67.217C58.8823 67.2201 58.8885 67.2201 58.8885 67.217C58.7838 67.2078 58.6822 67.1955 58.5807 67.1955C58.5407 67.1955 58.4976 67.2109 58.4514 67.2324C58.4052 67.254 58.3529 67.2786 58.2852 67.2847C58.2267 67.2878 58.1713 67.2786 58.1252 67.2786C58.0759 67.2755 58.0267 67.2786 57.9805 67.2878C57.9343 67.3001 57.8882 67.3155 57.8451 67.3371C57.802 67.3555 57.7466 67.3894 57.7281 67.3986C57.7281 67.4048 57.725 67.4171 57.7189 67.4294C57.725 67.414 57.725 67.4079 57.7281 67.3986C57.7373 67.3925 57.7466 67.3894 57.7558 67.3802C57.7712 67.3709 57.7835 67.3648 57.7927 67.3586C57.7835 67.3617 57.7712 67.3678 57.7558 67.3771C57.7435 67.3832 57.7343 67.3863 57.722 67.3955C57.722 67.4017 57.7189 67.4079 57.7158 67.4171C57.7127 67.4232 57.7066 67.4417 57.7004 67.454C57.6881 67.4817 57.6696 67.5063 57.6481 67.531C57.6019 67.5741 57.5558 67.6079 57.5157 67.6448C57.4788 67.6818 57.448 67.7279 57.4142 67.7649C57.4049 67.7741 57.3957 67.7833 57.3865 67.7926C57.3803 67.7987 57.3742 67.8049 57.3649 67.8111C57.3526 67.8264 57.3434 67.8388 57.3341 67.848C57.3465 67.8326 57.3618 67.8141 57.3803 67.7957C57.4019 67.7741 57.4265 67.7464 57.448 67.7187C57.4696 67.691 57.4911 67.6633 57.5127 67.6418C57.5342 67.6202 57.5619 67.5987 57.5835 67.5802C57.6296 67.5433 57.6635 67.5033 57.6696 67.491C57.6758 67.4786 57.6635 67.5033 57.605 67.5556C57.5558 67.5956 57.5034 67.6325 57.4603 67.6879C57.4388 67.7156 57.4142 67.7464 57.3834 67.7772C57.3557 67.8018 57.3311 67.8295 57.3064 67.8603C57.2603 67.9219 57.211 67.9957 57.1495 68.0604C57.091 68.125 57.0264 68.1865 56.9617 68.2481C56.8971 68.3097 56.8448 68.3774 56.7801 68.4451C56.7186 68.5097 56.6509 68.5682 56.5893 68.6267C56.46 68.7406 56.3677 68.8729 56.2723 68.9899C56.3923 68.8267 56.3185 68.9098 56.4385 68.7498C56.3985 68.796 56.3523 68.8575 56.2969 68.9283C56.2692 68.9622 56.2415 68.9991 56.2077 69.033C56.1923 69.0514 56.1769 69.0699 56.1615 69.0884L56.1307 69.1191C56.1276 69.1191 56.1276 69.1222 56.1276 69.1222C56.1307 69.1222 56.1307 69.1222 56.1338 69.1222H56.1369C56.1461 69.1253 56.1523 69.1253 56.1553 69.1284L56.1892 69.0945L56.2477 69.0268C56.2877 68.9806 56.3215 68.9375 56.3585 68.8914C56.4293 68.8021 56.5001 68.7221 56.5708 68.6544C56.6447 68.5867 56.7155 68.5282 56.7709 68.4697C56.7986 68.4451 56.8201 68.4174 56.8417 68.3958C56.8201 68.4205 56.7955 68.4482 56.7678 68.4728C56.7186 68.5251 56.6601 68.5774 56.6047 68.6298C56.4908 68.7313 56.3954 68.8544 56.3215 68.9406C56.1523 69.1561 56.3092 68.9714 56.4416 68.8083C56.5093 68.7313 56.5801 68.6667 56.6016 68.6482C56.6232 68.6328 56.5832 68.6605 56.4662 68.796C56.4108 68.8606 56.3585 68.9283 56.3061 68.9899C56.2815 69.0237 56.2538 69.0545 56.2261 69.0853L56.1861 69.1284L56.1707 69.1438C56.1738 69.2576 56.1738 69.3684 56.1738 69.4792C56.1738 69.5346 56.1769 69.59 56.1769 69.6485C56.1769 69.707 56.1707 69.7655 56.1646 69.824C56.1523 69.944 56.1338 70.064 56.1338 70.1902C56.1307 70.3195 56.143 70.458 56.1461 70.6119C56.1399 70.5195 56.1307 70.615 56.1246 70.8119C56.1307 70.9412 56.1523 71.1105 56.1399 71.3075C56.1338 71.406 56.1276 71.5075 56.1246 71.6153C56.1184 71.7199 56.1184 71.8307 56.1184 71.9446C56.1153 72.0585 56.1122 72.1754 56.1122 72.2893C56.1184 72.4032 56.1399 72.5171 56.1553 72.6309C56.1984 72.8649 56.1276 73.0957 56.1492 73.2896C56.1369 73.1665 56.1492 73.068 56.1523 72.991C56.1584 72.911 56.1584 72.8525 56.1523 72.7971C56.1461 72.711 56.1307 72.6402 56.1122 72.5263C56.1215 72.5879 56.1276 72.6463 56.1338 72.7079C56.1338 72.7171 56.1369 72.7233 56.1369 72.7325C56.1369 72.7387 56.1369 72.7448 56.1399 72.7541C56.1399 72.7602 56.1399 72.7664 56.1399 72.7725C56.1399 72.7787 56.1399 72.7818 56.1399 72.7879C56.1399 72.8033 56.143 72.8187 56.143 72.8341C56.143 72.8372 56.143 72.8402 56.143 72.8402C56.1399 72.9018 56.1369 72.9633 56.1307 73.0249C56.1338 73.0034 56.1338 72.9818 56.1338 72.9603C56.1246 73.0742 56.1092 73.188 56.1215 73.2988C56.1646 73.465 56.2661 73.622 56.2908 73.7944C56.3154 73.9636 56.26 74.1422 56.2754 74.3145C56.2877 74.4869 56.3092 74.6562 56.3215 74.8285C56.3308 75.0009 56.3462 75.1732 56.3616 75.3425C56.3769 75.518 56.4262 75.6842 56.4539 75.8534C56.4816 76.0258 56.4939 76.2012 56.5431 76.3644C56.5832 76.4905 56.6755 76.6998 56.734 76.8876C56.8017 77.0969 56.8386 77.26 56.6016 77.3062C56.5062 77.3308 56.1738 77.4416 56.0907 77.3954C56.0753 77.34 56.0661 77.2846 56.0568 77.2262C56.0476 77.1861 56.0415 77.1492 56.0384 77.1184C56.0476 77.1923 56.0538 77.2538 56.063 77.3C56.0722 77.3462 56.0784 77.38 56.0815 77.3954C56.0815 77.4077 56.0907 77.4077 56.0907 77.4077C56.0907 77.4077 56.0815 77.4108 56.0784 77.3985C56.0784 77.4016 56.0753 77.3893 56.0692 77.3739C56.0722 77.38 56.0722 77.3893 56.0753 77.3985C56.0784 77.4077 56.0876 77.4108 56.0969 77.4139C56.1061 77.417 56.1153 77.417 56.1276 77.4201C56.1492 77.4231 56.1707 77.4201 56.1923 77.4201C56.2354 77.4139 56.2784 77.4077 56.3246 77.3954C56.4139 77.377 56.5093 77.3493 56.6047 77.3216C56.6478 77.3123 56.697 77.2969 56.734 77.2662C56.774 77.2385 56.7955 77.1861 56.7986 77.143C56.8048 77.0476 56.774 76.9676 56.7555 76.8968C56.7093 76.7522 56.6663 76.6444 56.6539 76.6044C56.7186 76.7676 56.7617 76.8937 56.7894 76.9892C56.814 77.0846 56.814 77.1615 56.7894 77.2169C56.7647 77.2692 56.7278 77.2908 56.7032 77.3062C56.6724 77.3216 56.6478 77.3308 56.6078 77.34H56.6109C56.5801 77.3493 56.5339 77.3647 56.4631 77.3862C56.4293 77.3985 56.3862 77.4077 56.3369 77.4201C56.3092 77.4262 56.2815 77.4324 56.2507 77.4385C56.2354 77.4416 56.22 77.4447 56.2015 77.4478C56.18 77.4478 56.1584 77.4508 56.1338 77.4478C56.1461 77.4508 56.1707 77.4508 56.2046 77.4478C56.2354 77.4478 56.2692 77.4416 56.3123 77.4324C56.3923 77.417 56.5001 77.3862 56.6139 77.3523L56.6109 77.3554C56.657 77.3431 56.7093 77.3308 56.7586 77.2939C56.8078 77.2539 56.8325 77.1861 56.8325 77.1277C56.8263 77.023 56.814 77.0169 56.8048 76.9768C56.7894 76.9399 56.7709 76.8722 56.697 76.6845C56.6355 76.509 56.5616 76.3459 56.537 76.1612C56.5216 76.0658 56.5093 75.9704 56.4939 75.875C56.4785 75.7765 56.4539 75.6811 56.4354 75.5826C56.3893 75.3918 56.3831 75.1855 56.3616 74.9732C56.3431 74.7639 56.3246 74.5454 56.3061 74.3176C56.3092 74.2714 56.3215 74.4069 56.3369 74.5546C56.3431 74.6254 56.3523 74.7023 56.3585 74.7608C56.3646 74.8193 56.3677 74.8562 56.3708 74.8562C56.38 74.9763 56.3893 75.0901 56.3985 75.2009C56.4077 75.3117 56.4139 75.4164 56.4354 75.518C56.457 75.6226 56.4785 75.7211 56.5001 75.8196C56.5185 75.9181 56.5278 76.0135 56.5431 76.1058C56.5585 76.1982 56.5739 76.2843 56.6016 76.3644C56.6293 76.4444 56.6632 76.5244 56.694 76.6013C56.7247 76.6814 56.7555 76.7583 56.7801 76.8353C56.8078 76.9122 56.8325 76.9861 56.8448 77.0723C56.8478 77.1 56.8478 77.1338 56.8417 77.1677C56.8355 77.2015 56.8201 77.2354 56.7955 77.2662C56.7463 77.3246 56.6755 77.3462 56.6139 77.3585C56.537 77.377 56.4539 77.4016 56.3646 77.4231C56.3215 77.4324 56.2754 77.4416 56.2261 77.4508C56.2077 77.4539 56.1676 77.457 56.1369 77.4539C56.1184 77.4539 56.103 77.4508 56.0876 77.4478C56.0753 77.4416 56.0538 77.4385 56.0476 77.4262C56.0138 77.3 56.0076 77.2354 55.9953 77.143C55.983 77.0569 55.9707 76.9707 55.9522 76.8845C55.9183 76.706 55.8845 76.5152 55.8445 76.3243C55.8014 76.1397 55.7183 75.9396 55.7121 75.7211C55.7091 75.6134 55.7121 75.5087 55.7029 75.4041C55.6967 75.3025 55.6783 75.1948 55.6629 75.084C55.6413 74.9639 55.629 74.8778 55.6229 74.8224C55.6136 74.77 55.6106 74.7423 55.6075 74.7393C55.6075 74.73 55.6167 74.7947 55.6229 74.8716C55.6321 74.9455 55.6413 75.0255 55.6413 75.0347C55.6444 75.047 55.629 74.9824 55.6013 74.7762C55.6106 74.7854 55.5952 74.6715 55.5613 74.4438C55.5521 74.3884 55.5459 74.3207 55.5398 74.256C55.5305 74.1883 55.5182 74.1145 55.5059 74.0314C55.4905 73.9513 55.4782 73.8621 55.4721 73.7667C55.469 73.7328 55.469 73.6989 55.469 73.662C55.4721 73.7205 55.4721 73.7759 55.4782 73.8344C55.4905 73.9544 55.5182 74.0744 55.5367 74.1914C55.5428 74.2345 55.5367 74.2129 55.5428 74.2591C55.5582 74.4715 55.6044 74.6408 55.6198 74.7516C55.629 74.807 55.6352 74.8501 55.6413 74.8808C55.6475 74.9116 55.6506 74.9239 55.6506 74.9239C55.6413 74.8501 55.6321 74.7639 55.6136 74.6685C55.5952 74.5731 55.5736 74.4684 55.5613 74.3607C55.5428 74.1452 55.4813 73.9267 55.4813 73.739C55.4813 73.7267 55.4844 73.7851 55.4936 73.8436C55.4967 73.8744 55.4998 73.9052 55.5028 73.9267C55.509 73.9483 55.5121 73.9636 55.5121 73.9636C55.4721 73.7605 55.4967 73.5204 55.4905 73.3204C55.4905 73.3081 55.4905 73.2958 55.4905 73.2834C55.4905 73.2742 55.4874 73.2619 55.4844 73.2496C55.4813 73.225 55.4782 73.2003 55.4721 73.1788C55.4659 73.1357 55.4597 73.0926 55.4505 73.0557C55.4382 72.9787 55.4259 72.9203 55.4197 72.8864L55.432 72.9787L55.3828 72.6771C55.3705 72.5755 55.3766 72.4709 55.3797 72.3693C55.3736 72.437 55.3674 72.5294 55.3643 72.5324C55.3613 72.5324 55.3582 72.5109 55.3582 72.4555C55.3582 72.4001 55.3674 72.3078 55.3674 72.1693C55.3674 71.923 55.2935 71.7014 55.2874 71.4829C55.2782 71.2767 55.2351 71.0828 55.2351 70.8797L55.2474 70.9104L55.2505 70.8827H55.2628L55.272 70.8797C55.272 70.8797 55.2751 70.8797 55.2751 70.8766V70.8735L55.2689 70.8643C55.2628 70.8581 55.2474 70.8335 55.2381 70.8181C55.2258 70.7966 55.2166 70.7781 55.2043 70.7596C55.1827 70.7196 55.1643 70.6827 55.1458 70.6427C55.1089 70.5657 55.0689 70.4857 55.0288 70.4057C54.9858 70.3256 54.9427 70.2395 54.9027 70.1502C54.8596 70.0609 54.8257 69.9594 54.7888 69.8609C54.8103 69.9163 54.8288 69.9717 54.8534 70.0302C54.875 70.0886 54.9027 70.1441 54.9273 70.1995C54.8842 70.1071 54.8503 70.0179 54.8196 69.9194C54.7857 69.8209 54.7395 69.7132 54.6811 69.5654C54.6964 69.6208 54.7088 69.6639 54.6811 69.6054C54.6657 69.5777 54.641 69.5223 54.6041 69.43C54.5641 69.3346 54.5241 69.193 54.4779 69.0083C54.4625 68.9406 54.4441 68.8637 54.4164 68.7836C54.3887 68.7067 54.3456 68.6082 54.3117 68.5128C54.2748 68.4143 54.2378 68.3097 54.1948 68.2019C54.1547 68.0973 54.1024 67.9957 54.0439 67.8911C53.9885 67.7864 53.9239 67.6725 53.8685 67.5648C53.8377 67.5125 53.8039 67.4571 53.7762 67.3925L53.7392 67.3063L53.7208 67.2663C53.7177 67.254 53.7054 67.2293 53.7115 67.2324C53.7115 67.2263 53.7054 67.2263 53.6992 67.2232L53.6777 67.2078C53.65 67.1924 53.6254 67.1801 53.6007 67.1647C53.5546 67.137 53.493 67.1062 53.4407 67.0693C53.336 66.9954 53.256 66.9123 53.176 66.8477C53.1544 66.8231 53.1883 66.8446 53.2529 66.8969C53.3176 66.9493 53.4099 67.0385 53.5361 67.1031C53.5915 67.1339 53.6469 67.1647 53.6992 67.1924C53.7085 67.1986 53.7177 67.2016 53.7238 67.2078C53.7331 67.2078 53.7362 67.217 53.7331 67.2263C53.7454 67.2478 53.7546 67.2724 53.7639 67.2909C53.8008 67.3802 53.8377 67.4448 53.8377 67.4356C53.7977 67.3555 53.7792 67.294 53.7546 67.2386L53.7454 67.217C53.7515 67.2201 53.7515 67.2109 53.7485 67.2078C53.7485 67.2016 53.7454 67.1986 53.7423 67.1986L53.73 67.1893C53.7115 67.177 53.6931 67.1678 53.6746 67.1585C53.6377 67.1339 53.6038 67.1155 53.573 67.097C53.5423 67.0785 53.5084 67.0601 53.4776 67.0385C53.413 66.9954 53.3545 66.9369 53.2683 66.86C53.2252 66.82 53.176 66.7738 53.1083 66.7307C53.0406 66.6907 52.9605 66.6446 52.8651 66.5891C52.8128 66.5584 52.7328 66.5153 52.6497 66.466C52.5635 66.4199 52.465 66.3829 52.3788 66.346C52.2065 66.2783 52.0834 66.2106 52.1541 66.2537C52.3481 66.3522 52.505 66.3983 52.6466 66.4722C52.7851 66.5522 52.9205 66.6292 53.099 66.7277C53.0867 66.7277 52.9051 66.6261 52.7205 66.5184C52.6281 66.463 52.5327 66.4199 52.4527 66.386C52.3727 66.3552 52.3142 66.3306 52.2957 66.3245C52.4281 66.386 52.5604 66.4353 52.6805 66.5091C52.5389 66.4291 52.4558 66.4045 52.4035 66.3829C52.3511 66.3645 52.3296 66.3583 52.305 66.3491C52.2834 66.3429 52.2526 66.3337 52.1849 66.3029C52.1172 66.2721 52.0064 66.2106 51.8464 66.0936C51.8002 66.0628 51.754 66.029 51.7079 65.9982C51.6617 65.9643 51.6217 65.9428 51.5724 65.9213C51.4739 65.8782 51.3601 65.8505 51.2523 65.7951C51.1231 65.7274 51.0677 65.6658 51.0338 65.6412C51 65.6135 50.9938 65.6073 51.003 65.6196C51.0154 65.6319 51.0584 65.675 51.1046 65.715C51.0154 65.6443 50.9384 65.5642 50.8584 65.5058C50.763 65.4411 50.646 65.3919 50.5475 65.3395C50.4521 65.2965 50.369 65.2411 50.3044 65.2041C50.3567 65.2318 50.3936 65.2564 50.4244 65.2749C50.4767 65.3026 50.4952 65.3088 50.4952 65.3057C50.4521 65.2841 50.409 65.2595 50.3721 65.2318C50.3351 65.2072 50.2982 65.1857 50.2613 65.1641C50.1874 65.1241 50.1166 65.0841 50.0489 65.041C49.9073 64.9517 49.7996 64.8533 49.6888 64.7517C49.578 64.6501 49.4734 64.527 49.3656 64.4008C49.3133 64.3362 49.2548 64.2808 49.184 64.2131C49.1132 64.1453 49.0363 64.0715 48.9655 63.9761C49.0394 64.0746 49.1286 64.1577 49.2148 64.2377C49.2979 64.3146 49.3687 64.3947 49.4395 64.4808C49.578 64.6501 49.7227 64.7886 49.8212 64.8656C49.9012 64.9302 49.7411 64.7886 49.6519 64.6932C49.6088 64.647 49.5811 64.6132 49.5995 64.6347C49.618 64.6501 49.6826 64.724 49.8489 64.8686C49.7442 64.7763 49.6457 64.6809 49.5565 64.5762C49.4641 64.4716 49.3841 64.3639 49.2918 64.2685C49.1748 64.17 48.8301 63.8253 49.221 64.2161C49.1286 64.133 49.0209 64.0376 48.944 63.9145C48.867 63.8006 48.7962 63.6806 48.7347 63.5759C48.6146 63.3605 48.5161 63.2005 48.4915 63.1758C48.5161 63.2005 48.4484 63.0958 48.3407 62.9204C48.2884 62.8311 48.233 62.7234 48.1714 62.6064C48.113 62.4895 48.0483 62.3633 47.9837 62.2402C47.919 62.1324 47.8513 62.0155 47.8329 61.9816C47.8175 61.9539 47.8359 62.0063 47.9283 62.1694C47.879 62.0863 47.8298 61.997 47.7898 61.9016C47.7375 61.7693 47.7005 61.6369 47.6667 61.5046L47.7067 61.6585C47.6882 61.6 47.6728 61.5384 47.6574 61.4769C47.6451 61.4184 47.6267 61.3568 47.6174 61.2891C47.599 61.1568 47.6051 61.0306 47.599 60.9105C47.602 60.9413 47.6051 61.0183 47.6051 61.1168C47.6082 61.166 47.6113 61.2214 47.6205 61.2799C47.6236 61.3076 47.6297 61.3353 47.6359 61.3661C47.642 61.3907 47.6482 61.4184 47.6544 61.443C47.7036 61.6461 47.7559 61.8123 47.7344 61.7231C47.7159 61.6554 47.6944 61.5815 47.6759 61.5076C47.6574 61.4338 47.639 61.3661 47.6267 61.2953C47.6082 61.1629 47.6143 61.0767 47.6143 61.1106C47.6113 61.0152 47.6113 60.9105 47.599 60.8182C47.5866 60.7259 47.5559 60.6397 47.5282 60.5658C47.4728 60.4181 47.4512 60.3196 47.4666 60.4027C47.4943 60.5073 47.5312 60.5966 47.5528 60.6674C47.5743 60.7413 47.5836 60.7967 47.5836 60.8274C47.5713 60.7351 47.5436 60.6551 47.5189 60.5843C47.4974 60.5166 47.4758 60.455 47.4605 60.3996C47.4297 60.2888 47.4266 60.2088 47.4204 60.1318C47.4112 60.0518 47.405 59.9656 47.3989 59.8425C47.3958 59.8118 47.3958 59.7779 47.3927 59.741C47.3897 59.701 47.3897 59.6548 47.3958 59.6086C47.405 59.5132 47.4358 59.4147 47.4451 59.3039C47.442 59.3255 47.4389 59.3439 47.4358 59.3655C47.4328 59.3993 47.4512 59.3316 47.4512 59.2485C47.4512 59.1623 47.4266 59.0423 47.405 58.9684C47.3558 58.7714 47.3681 58.8268 47.3866 58.9099C47.4081 58.9931 47.4297 59.0977 47.4081 59.0146C47.3897 58.9438 47.3712 58.8699 47.3527 58.7961C47.3373 58.7191 47.3189 58.6483 47.3219 58.556C47.325 58.4667 47.3527 58.3898 47.3681 58.3252C47.3773 58.2913 47.3804 58.2636 47.3835 58.2297C47.3866 58.1959 47.3866 58.1651 47.3866 58.1313C47.3835 58.2082 47.3804 58.2605 47.3712 58.2975C47.362 58.3375 47.3527 58.3682 47.3466 58.3929C47.3312 58.4421 47.3189 58.4729 47.3096 58.5529C47.3127 58.476 47.3312 58.4113 47.3466 58.359C47.362 58.3036 47.3681 58.2636 47.3712 58.2174C47.3773 58.122 47.3743 58.0328 47.3712 57.9527C47.3681 57.9127 47.3681 57.8727 47.365 57.8358C47.365 57.7958 47.362 57.7742 47.3558 57.7404C47.3435 57.6788 47.325 57.6142 47.3127 57.5495C47.2973 57.4849 47.285 57.411 47.2912 57.3403C47.2942 57.2725 47.3035 57.2048 47.3158 57.131C47.3281 57.0602 47.3435 56.9863 47.3527 56.9063C47.3589 56.8663 47.362 56.8232 47.362 56.7801C47.362 56.7308 47.3712 56.6724 47.3804 56.62C47.402 56.5215 47.442 56.4138 47.4666 56.303C47.482 56.2445 47.4882 56.1891 47.4851 56.1245C47.482 56.063 47.4697 55.9952 47.4605 55.9214C47.4512 55.8475 47.4451 55.7613 47.4512 55.6813C47.4543 55.6013 47.4666 55.5213 47.4758 55.4412C47.482 55.4043 47.4882 55.3643 47.4943 55.3243L47.5066 55.2658C47.5097 55.2381 47.5189 55.2104 47.5312 55.1858C47.5589 55.1365 47.5897 55.1057 47.6143 55.078C47.642 55.0503 47.6605 55.0196 47.6605 55.0134C47.6667 54.9949 47.6605 54.9919 47.639 54.9488C47.6267 54.9303 47.6174 54.9149 47.6051 54.8811C47.5928 54.8503 47.5897 54.8133 47.599 54.7826C47.6143 54.7241 47.6328 54.6933 47.6482 54.6533C47.6667 54.6164 47.6851 54.5825 47.7005 54.5456C47.7682 54.4317 47.7405 54.287 47.7929 54.1331C47.7559 54.2501 47.7621 54.3363 47.7467 54.4132C47.7405 54.4532 47.7344 54.4809 47.7221 54.5117C47.7067 54.5425 47.6913 54.5764 47.6759 54.6071C47.6574 54.641 47.642 54.6748 47.6267 54.7087C47.6205 54.7272 47.6143 54.7456 47.6082 54.7641C47.599 54.7887 47.5928 54.8195 47.599 54.8472C47.602 54.8718 47.6174 54.9026 47.6236 54.918L47.6513 54.9642L47.6605 54.9857C47.6605 54.9888 47.6636 54.9919 47.6636 54.9949C47.6667 55.0011 47.6667 55.0073 47.6636 55.0134C47.6636 55.0165 47.6605 55.0226 47.6574 55.0257C47.6544 55.035 47.6482 55.0411 47.639 55.0503C47.6267 55.0688 47.6082 55.0873 47.5866 55.1119C47.5682 55.1334 47.5436 55.1611 47.5282 55.2012C47.5189 55.2196 47.5128 55.2412 47.5066 55.2627C47.5035 55.2781 47.5035 55.2935 47.5005 55.3089C47.4789 55.4382 47.4512 55.5828 47.4512 55.7706C47.4512 55.7213 47.4543 55.7459 47.4574 55.7921C47.4605 55.8383 47.4697 55.906 47.4758 55.9491C47.482 55.9922 47.4882 56.0137 47.482 55.9706C47.4789 55.9491 47.4758 55.9121 47.4697 55.8475C47.4666 55.8167 47.4666 55.7798 47.4666 55.7336C47.4697 55.6905 47.4728 55.6413 47.4789 55.5859C47.4882 55.4874 47.5035 55.3889 47.5189 55.2873C47.522 55.2658 47.5312 55.2227 47.5466 55.195C47.562 55.1642 47.5836 55.1396 47.602 55.1211C47.6205 55.0996 47.6359 55.078 47.6513 55.0627C47.6574 55.0534 47.6636 55.0442 47.6697 55.035C47.6728 55.0288 47.6759 55.0226 47.679 55.0165C47.6821 55.0042 47.679 54.9919 47.6728 54.9826C47.6697 54.9734 47.6544 54.9488 47.6451 54.9272C47.639 54.9149 47.6328 54.9057 47.6267 54.8903C47.6174 54.8749 47.6113 54.8564 47.6113 54.838C47.6051 54.8041 47.6205 54.7641 47.6267 54.7426C47.6636 54.6471 47.719 54.5579 47.7436 54.484C47.7682 54.404 47.7682 54.3055 47.7867 54.2039C47.7929 54.1793 47.799 54.1516 47.8113 54.1239C47.8236 54.0962 47.8329 54.0777 47.8544 54.047C47.9006 53.9885 47.9775 53.97 48.0391 53.9485C48.0699 53.9793 48.1037 54.0193 48.1283 54.0439C48.1499 54.0624 48.1684 54.0808 48.1899 54.1024C48.2084 54.1208 48.2299 54.1424 48.2515 54.1608L48.2792 54.1916L48.3161 54.2316L48.3253 54.2501C48.3253 54.2532 48.3284 54.2563 48.3284 54.2593C48.3346 54.2655 48.3376 54.2717 48.3438 54.2778C48.353 54.2901 48.3746 54.3117 48.3838 54.324C48.3869 54.3301 48.3869 54.3332 48.39 54.3363C48.393 54.3363 48.3961 54.3394 48.3992 54.3394C48.43 54.3548 48.4515 54.3763 48.4669 54.3917L48.4884 54.4102C48.4977 54.4132 48.5131 54.4348 48.5192 54.4409C48.5469 54.4717 48.5715 54.5025 48.5992 54.5363C48.6516 54.5979 48.7039 54.6595 48.747 54.721C48.8393 54.8503 48.8886 54.9672 48.947 55.0442C48.9317 55.0165 48.907 54.9765 48.8793 54.9211C48.8486 54.8626 48.8085 54.7887 48.7562 54.7149C48.7039 54.6441 48.6423 54.5733 48.5869 54.5117C48.5562 54.4779 48.5285 54.444 48.5008 54.4132C48.4884 54.404 48.4884 54.4009 48.4792 54.3948L48.4577 54.3763C48.4454 54.364 48.4269 54.3486 48.4023 54.3363C48.3992 54.3332 48.3961 54.3332 48.393 54.3301C48.39 54.3271 48.39 54.324 48.3869 54.3209C48.3684 54.2932 48.3469 54.2717 48.3407 54.2593C48.3376 54.2532 48.3346 54.2501 48.3346 54.2439C48.3346 54.2439 48.3315 54.2378 48.3315 54.2347C48.3315 54.2316 48.3284 54.2286 48.3284 54.2255C48.3376 54.2439 48.3376 54.247 48.3407 54.2501C48.3438 54.2563 48.3499 54.2624 48.353 54.2686L48.3715 54.2901L48.3838 54.3055C48.3869 54.3086 48.3961 54.3178 48.393 54.3178C48.3961 54.3178 48.3961 54.3209 48.3992 54.324C48.4023 54.324 48.4053 54.3271 48.4053 54.3271C48.4515 54.3517 48.4761 54.3825 48.4946 54.3978C48.4977 54.4009 48.5131 54.4102 48.5192 54.4225L48.5377 54.444L48.5685 54.4809C48.6116 54.5302 48.6608 54.5856 48.7039 54.641C48.7501 54.6995 48.7932 54.761 48.827 54.8226C48.8639 54.8841 48.8916 54.9426 48.9255 54.9919C48.9563 55.0442 48.9871 55.0873 49.0178 55.1181C49.0486 55.1488 49.0855 55.1735 49.1194 55.195C49.1902 55.235 49.2425 55.2781 49.2487 55.2873C49.2456 55.2843 49.2579 55.2904 49.2795 55.312C49.301 55.3304 49.3287 55.3643 49.3533 55.4074C49.4056 55.4905 49.4395 55.6044 49.5103 55.6813C49.5842 55.7644 49.6919 55.8444 49.7657 55.9337C49.8335 56.0199 49.8796 56.0814 49.9012 56.106C49.8304 56.0137 49.7934 55.9614 49.7657 55.9244C49.735 55.8937 49.7257 55.8844 49.7288 55.8844C49.7288 55.8814 49.7657 55.9152 49.7319 55.8783C49.775 55.9183 49.8581 56.0414 49.9412 56.1522C50.0274 56.2661 50.1043 56.3769 50.1197 56.3923C50.1382 56.4261 50.092 56.3769 50.0551 56.3307C50.1659 56.4877 50.2367 56.5831 50.3198 56.6908C50.3598 56.7432 50.4029 56.8016 50.4521 56.8693C50.5075 56.9401 50.5691 57.0202 50.6491 57.1217C50.5352 56.9832 50.6429 57.1125 50.766 57.2972C50.8245 57.3895 50.8861 57.4911 50.9322 57.5711C50.9569 57.608 50.9784 57.6419 50.9907 57.6665C51.0061 57.688 51.0154 57.7034 51.0154 57.7034C51.0523 57.7558 51.0708 57.7773 51.0769 57.7865C51.0861 57.7958 51.0861 57.7927 51.0923 57.7989C51.0985 57.805 51.1108 57.8173 51.1385 57.8696C51.1662 57.9189 51.2031 58.0081 51.2585 58.1497C51.2246 58.0666 51.1816 57.9651 51.1723 57.9527C51.1692 57.9466 51.1754 57.962 51.1939 58.0143C51.2154 58.0635 51.2431 58.1528 51.3016 58.2728C51.2954 58.2759 51.2585 58.2051 51.2123 58.0851C51.1877 58.0266 51.16 57.9558 51.12 57.882C51.1015 57.845 51.08 57.805 51.0554 57.7681C51.0338 57.7342 51.0092 57.7004 50.9876 57.6665C50.8984 57.528 50.8153 57.3864 50.7476 57.2879C50.6829 57.1894 50.6368 57.134 50.6491 57.1556C50.6891 57.2079 50.7507 57.2941 50.8061 57.3864C50.8645 57.4788 50.9261 57.5772 50.9784 57.6634C51.0061 57.7034 51.0307 57.7434 51.0523 57.7742C51.0738 57.8081 51.0923 57.8389 51.1015 57.8604C51.1231 57.9004 51.1231 57.9035 51.0892 57.8481C51.1569 57.9651 51.2 58.0882 51.2523 58.202C51.3016 58.3344 51.3816 58.4544 51.4709 58.5714C51.514 58.6329 51.5632 58.6914 51.6125 58.7499C51.6648 58.8053 51.7202 58.873 51.7663 58.9407C51.8618 59.0792 51.9418 59.2331 52.0341 59.3901C52.1295 59.5501 52.2249 59.7225 52.3357 59.9041C52.6589 60.4242 52.6589 60.3965 52.3511 59.8949C52.5266 60.1719 52.5666 60.2334 52.6097 60.3011C52.6312 60.335 52.6497 60.3658 52.6897 60.4273C52.7297 60.4889 52.7943 60.5751 52.8898 60.7259C52.8651 60.6889 52.8805 60.7136 52.9051 60.7597C52.9328 60.8059 52.9636 60.8736 52.9821 60.9136C53.256 61.4615 53.0529 61.0306 53.2252 61.3753C53.2776 61.4738 53.2222 61.3784 53.3453 61.6184C53.3976 61.7139 53.4499 61.8 53.4992 61.8985C53.5823 62.1047 53.5669 62.077 53.5176 61.9601C53.5053 61.9324 53.4899 61.8985 53.4684 61.8585C53.4499 61.8247 53.4284 61.7846 53.4068 61.7446C53.3637 61.6615 53.3176 61.5754 53.2776 61.5015C53.3453 61.6338 53.4068 61.7539 53.4653 61.8616C53.5207 61.9786 53.5607 62.0863 53.5977 62.1878C53.6161 62.2371 53.6377 62.2833 53.6531 62.3294C53.6654 62.351 53.6746 62.3756 53.6838 62.3971C53.6931 62.4187 53.7023 62.4433 53.7115 62.4648C53.7485 62.5572 53.7792 62.6464 53.8069 62.7326C53.7885 62.6772 53.7577 62.5941 53.7331 62.5264C53.7085 62.4587 53.6838 62.4094 53.6931 62.4341C53.7454 62.5603 53.7792 62.668 53.81 62.7603C53.8408 62.8527 53.8685 62.9265 53.8993 62.9912C53.9578 63.1174 54.007 63.2066 54.0501 63.2928C54.1332 63.4682 54.2132 63.6437 54.2686 64.0807C54.2532 63.9053 54.2225 63.7237 54.1578 63.5329C54.0963 63.339 53.9793 63.1574 53.89 62.9388C53.8654 62.868 53.847 62.7973 53.8285 62.7234C53.8531 62.7973 53.887 62.9081 53.9301 63.0004C53.9701 63.0958 54.0162 63.182 54.0347 63.2097C53.9855 63.105 53.9362 63.0065 53.8993 62.905C53.9516 63.0466 54.0532 63.2189 54.1394 63.4374C54.2225 63.656 54.2625 63.9053 54.2932 64.1238L54.3209 64.3916C54.3302 64.4839 54.3425 64.5701 54.3579 64.6563C54.3517 64.6347 54.3394 64.5855 54.3271 64.5147C54.3179 64.4439 54.3056 64.3516 54.2902 64.2531C54.2779 64.1546 54.2625 64.0469 54.2471 63.9422C54.2317 63.8376 54.2101 63.736 54.1855 63.6529C54.2163 63.7852 54.2132 63.7883 54.2009 63.736C54.1886 63.6837 54.1609 63.5729 54.1209 63.4744C54.084 63.379 54.0409 63.2989 54.0378 63.2897C54.0286 63.2805 54.0655 63.339 54.1363 63.5482C54.2132 63.7822 54.2348 64.013 54.2625 64.2131C54.2779 64.3146 54.2902 64.4131 54.3025 64.5024C54.3148 64.5916 54.3363 64.6747 54.3548 64.7486C54.3333 64.647 54.3117 64.5485 54.2994 64.4439C54.3302 64.687 54.401 64.8963 54.4348 65.1118C54.4718 65.3272 54.4748 65.5242 54.5025 65.712C54.5272 65.8997 54.5487 66.0905 54.5733 66.2844C54.5826 66.3829 54.598 66.4845 54.6041 66.5891C54.6103 66.6938 54.6133 66.8015 54.6103 66.9123C54.6103 67.0724 54.6164 66.9862 54.6195 66.8508C54.6226 66.7123 54.6133 66.5214 54.6072 66.4753C54.5887 66.306 54.5579 66.0475 54.5302 65.8289C54.5272 65.7735 54.5179 65.7243 54.5118 65.6812C54.5056 65.635 54.5025 65.595 54.4995 65.5581C54.4964 65.5242 54.4964 65.4965 54.4933 65.475C54.4933 65.4565 54.4933 65.4442 54.4933 65.4442C54.5056 65.6196 54.5333 65.8012 54.5549 65.9951C54.5764 66.1921 54.6041 66.3799 54.6164 66.5738C54.6287 66.7615 54.6257 66.94 54.6195 67.0908C54.6195 67.2109 54.6718 67.334 54.6903 67.4356C54.6872 67.4325 54.6903 67.4448 54.6995 67.5063C54.7026 67.5371 54.7026 67.571 54.7026 67.6048C54.7026 67.6141 54.6964 67.6418 54.6934 67.6448V67.6479C54.6903 67.651 54.6934 67.6541 54.6934 67.6572L54.6964 67.6602L54.7026 67.6787L54.7211 67.7187L54.7518 67.7987L54.718 67.7156C54.7826 67.8757 54.8503 68.085 54.9427 68.2666C55.0381 68.4512 55.155 68.6359 55.2043 68.7867C55.1674 68.6698 55.1119 68.5651 55.0596 68.4636C55.1058 68.5467 55.152 68.639 55.192 68.7375C55.2012 68.7621 55.2104 68.7867 55.2197 68.8144L55.2289 68.8452L55.2412 68.8944C55.2505 68.9252 55.2597 68.9591 55.2689 68.9899L55.2782 69.0206L55.2812 69.033C55.2812 69.036 55.2812 69.0268 55.2812 69.0237C55.2843 68.9899 55.2905 68.9652 55.2905 68.9406L55.2935 68.9252C55.2935 68.9068 55.2935 68.8883 55.2935 68.8698C55.2935 68.836 55.2935 68.8021 55.2935 68.7713C55.2935 68.7036 55.2935 68.6482 55.2935 68.599C55.2905 68.482 55.2935 68.3928 55.3059 68.3158C55.3151 68.2389 55.3274 68.1773 55.3397 68.1158C55.352 68.0542 55.3643 67.9896 55.3766 67.9095C55.3766 67.888 55.3797 67.8695 55.3828 67.848V67.8295C55.3828 67.8172 55.3859 67.808 55.3859 67.8018C55.389 67.7895 55.392 67.7741 55.392 67.7618C55.4043 67.7033 55.4167 67.6418 55.432 67.571C55.4597 67.4848 55.4536 67.5248 55.429 67.6418C55.4167 67.7033 55.3982 67.7772 55.392 67.8726C55.3859 67.9557 55.3643 68.0511 55.3428 68.1527C55.3212 68.2543 55.3028 68.3743 55.3028 68.4851C55.3028 68.5928 55.3089 68.6975 55.312 68.7898C55.312 68.8329 55.3151 68.876 55.3151 68.916C55.3151 68.9345 55.3151 68.9498 55.3151 68.9652C55.3151 68.9899 55.312 69.0114 55.3151 69.0268C55.3182 68.996 55.3212 68.9652 55.3212 68.9375C55.3212 68.8791 55.3212 68.8021 55.3182 68.7313C55.3151 68.5897 55.3059 68.4451 55.3305 68.2973C55.352 68.1527 55.389 68.0173 55.4043 67.888C55.4136 67.7464 55.4536 67.611 55.4813 67.4817C55.4967 67.414 55.5121 67.3494 55.5244 67.2878C55.5336 67.2263 55.5398 67.1647 55.5459 67.1001C55.5521 67.0354 55.5552 66.9677 55.5644 66.9C55.5705 66.8354 55.5859 66.7646 55.6013 66.703C55.629 66.5768 55.6567 66.4537 55.6813 66.3337C55.6967 66.2752 55.709 66.2167 55.7214 66.1583C55.7337 66.0998 55.7429 66.0444 55.7552 65.9859C55.7244 66.1398 55.7367 66.0567 55.7491 65.9828C55.7614 65.9059 55.7706 65.8382 55.7306 66.029C55.746 65.9613 55.7614 65.872 55.7829 65.7766C55.8075 65.675 55.8383 65.5796 55.866 65.4873C55.9183 65.3026 55.9614 65.1456 55.9737 65.121C55.9245 65.2841 55.8845 65.435 55.8445 65.5858C55.8322 65.6258 55.8229 65.6627 55.8137 65.6997C55.8045 65.7366 55.7952 65.7735 55.786 65.8105C55.7706 65.8874 55.7614 65.9582 55.7491 66.0228C55.7306 66.1552 55.6998 66.2691 55.6813 66.3737C55.6598 66.4753 55.6413 66.5614 55.629 66.623C55.6967 66.3368 55.7275 66.1983 55.7429 66.1336C55.7583 66.069 55.7583 66.0751 55.7583 66.0844C55.7583 66.0905 55.7583 66.0967 55.7706 66.029C55.7768 65.992 55.7891 65.9397 55.8045 65.8566C55.8137 65.8166 55.8229 65.7674 55.8383 65.7089C55.8568 65.6566 55.8722 65.5919 55.8937 65.5211C55.943 65.3488 55.9276 65.3949 55.9214 65.4103C55.9153 65.4165 55.9153 65.4134 55.9276 65.3703C55.9337 65.3488 55.943 65.318 55.9553 65.2718C55.9676 65.2257 55.983 65.1641 56.0107 65.081C56.0045 65.1026 55.983 65.1549 55.9584 65.2349C55.9337 65.318 55.8999 65.4319 55.8599 65.5827C55.8075 65.7458 55.8722 65.5058 55.943 65.2564C55.9584 65.1949 55.9799 65.1272 55.9984 65.0687C56.0199 65.0102 56.0384 64.9579 56.0538 64.9179C56.0845 64.8409 56.0938 64.8071 56.0692 64.8625C56.0999 64.7825 56.1246 64.7147 56.1461 64.6347C56.1707 64.5578 56.1984 64.4839 56.223 64.4162C56.2723 64.2746 56.3123 64.1546 56.34 64.0407C56.3677 63.9268 56.3893 63.8253 56.4108 63.736C56.4354 63.6498 56.46 63.579 56.4785 63.5298C56.6293 63.0927 56.457 63.5482 56.4293 63.6283C56.4693 63.4805 56.5247 63.3482 56.5647 63.2189C56.5862 63.1512 56.5985 63.0896 56.6078 63.0189C56.617 62.9511 56.6232 62.8804 56.6324 62.8034C56.6386 62.7295 56.6478 62.6526 56.6693 62.5726C56.6909 62.4925 56.7155 62.4218 56.7432 62.354C56.7678 62.2833 56.7924 62.2186 56.8078 62.154C56.8232 62.0986 56.8325 62.0186 56.8448 61.9478C56.8571 61.877 56.8786 61.7662 56.9032 61.6246C56.8909 61.6123 56.8756 61.6 56.8602 61.5846C56.8325 61.5569 56.8017 61.5261 56.774 61.4984C56.7247 61.4461 56.657 61.3876 56.5924 61.3291C56.5247 61.2706 56.4508 61.206 56.38 61.1383C56.3462 61.1044 56.3092 61.0675 56.2754 61.0306C56.2569 61.009 56.2384 60.9906 56.223 60.969C56.2015 60.9444 56.183 60.9167 56.1676 60.8859C56.1399 60.8305 56.1276 60.7782 56.1122 60.7382C56.0938 60.7012 56.0784 60.6705 56.0599 60.6551C56.0507 60.6458 56.0384 60.6397 56.0168 60.6243C55.9953 60.612 55.9645 60.5935 55.9399 60.5658C55.9245 60.5535 55.9153 60.5412 55.906 60.5289C55.8968 60.5197 55.8876 60.5073 55.8783 60.495C55.8629 60.4735 55.8476 60.4489 55.8322 60.4273C55.7244 60.2334 55.6844 60.0487 55.6075 59.9195C55.666 60.0118 55.706 60.1288 55.7583 60.2519C55.7829 60.3134 55.8137 60.3781 55.8537 60.4396C55.8722 60.4735 55.8968 60.5043 55.9214 60.532C55.9491 60.5689 55.9953 60.6028 56.023 60.6181C56.0538 60.6335 56.0661 60.6458 56.0815 60.6612C56.0938 60.6766 56.1061 60.6982 56.1153 60.7259C56.1399 60.7782 56.1553 60.8644 56.2169 60.9475C56.3215 61.0798 56.4385 61.1814 56.5647 61.2922C56.46 61.206 56.2754 61.0275 56.4231 61.1722C56.5247 61.2676 56.617 61.3445 56.7032 61.4184C56.7247 61.4399 56.7463 61.4584 56.7617 61.4738L56.8232 61.5353C56.8417 61.5569 56.8632 61.5754 56.8879 61.5969L56.9125 61.6215C56.9032 61.6831 56.8909 61.7477 56.8786 61.8154V61.8831C56.8602 61.9816 56.8509 62.0463 56.8417 62.0863C56.8355 62.1263 56.8294 62.1417 56.8294 62.1448C56.8263 62.1509 56.8355 62.1047 56.8417 62.0524C56.8478 62.0032 56.854 61.957 56.8478 61.9816C56.8478 61.9939 56.8417 62.0216 56.8325 62.077C56.8232 62.1294 56.8048 62.194 56.7647 62.3017C56.7186 62.4279 56.6786 62.5387 56.6632 62.628C56.6447 62.7172 56.6416 62.7788 56.6386 62.8373C56.6293 62.945 56.6355 63.0281 56.5955 63.1912C56.6447 63.0312 56.6447 62.8927 56.6663 62.7449C56.6755 62.6711 56.6909 62.591 56.7186 62.511C56.7432 62.4341 56.7771 62.354 56.8078 62.2679C56.814 62.2432 56.8263 62.2094 56.8355 62.1694C56.8417 62.1478 56.8448 62.1263 56.8509 62.1017C56.854 62.074 56.8571 62.0432 56.8632 62.0124C56.8786 61.9016 56.9002 61.7662 56.9248 61.6184L56.9156 61.6092L56.8786 61.5784C56.854 61.5538 56.8263 61.5261 56.8017 61.5015L56.7647 61.4646L56.7309 61.4276L56.6509 61.3568C56.5431 61.2614 56.4323 61.1629 56.3338 61.0614C56.497 61.2306 56.7186 61.3999 56.8232 61.5138C56.8786 61.5723 56.9309 61.6154 56.9217 61.6061C56.9217 61.6061 56.9217 61.6061 56.9217 61.6031C56.9217 61.6031 56.9217 61.6031 56.9186 61.6031C56.9156 61.6 56.9125 61.5938 56.9063 61.5907C56.8879 61.5723 56.8602 61.5415 56.8201 61.5015C56.6509 61.326 56.4354 61.1722 56.26 60.969C56.2384 60.9475 56.2107 60.9075 56.1923 60.8736C56.1769 60.8398 56.1646 60.8059 56.1553 60.7751C56.1338 60.7166 56.1122 60.6674 56.0845 60.6397C56.0692 60.6243 56.0507 60.6151 56.0199 60.5966C56.0138 60.5935 56.0107 60.5874 56.0045 60.5843C56.0107 60.5874 56.0168 60.5935 56.023 60.5966C56.0815 60.6305 56.0999 60.6458 56.1246 60.6982C56.1492 60.7474 56.1646 60.809 56.1953 60.8736C56.2107 60.9044 56.2292 60.9352 56.2507 60.9567C56.2661 60.9783 56.2846 60.9967 56.2969 61.0121C56.3277 61.0429 56.3492 61.0644 56.3616 61.0737C56.3831 61.0952 56.3554 61.0706 56.2631 60.9659C56.2446 60.9444 56.22 60.9105 56.2046 60.8798C56.1892 60.8521 56.1769 60.8213 56.1676 60.7905C56.1461 60.7351 56.1307 60.6859 56.103 60.652C56.0907 60.6366 56.0784 60.6243 56.0568 60.6089C56.0384 60.5966 56.0076 60.5812 55.9768 60.5535C55.946 60.5258 55.9276 60.5012 55.906 60.4735C55.8876 60.4489 55.8722 60.4212 55.8537 60.3935C55.7922 60.2827 55.7552 60.1688 55.7152 60.0703C55.6721 59.9718 55.6321 59.8887 55.5736 59.821C55.4013 59.5902 55.4382 59.6456 55.4844 59.7225C55.5336 59.7994 55.5952 59.8887 55.4721 59.7256C55.5028 59.7625 55.3674 59.5901 55.2535 59.3624C55.1981 59.2516 55.1427 59.1346 55.0996 59.0269C55.0535 58.9223 55.0258 58.8268 55.0104 58.7838C54.9796 58.6606 54.9704 58.6114 54.9457 58.5252C54.9304 58.4791 54.915 58.4329 54.8811 58.3559C54.8442 58.2728 54.8011 58.1651 54.7549 58.0205C54.6164 57.6419 54.7241 57.9589 54.7149 57.9374C54.7026 57.9035 54.6903 57.8666 54.678 57.8296C54.6657 57.7927 54.6503 57.7619 54.6318 57.7004C54.6041 57.5926 54.6133 57.488 54.6133 57.3926C54.6164 57.3433 54.6164 57.2972 54.6133 57.2541C54.6103 57.2048 54.6072 57.1556 54.6041 57.1033C54.5949 57.0017 54.5887 56.897 54.5795 56.7955C54.5703 56.697 54.5549 56.5954 54.5395 56.4908C54.5333 56.4384 54.5272 56.3892 54.5241 56.3369C54.5241 56.3092 54.5241 56.2846 54.521 56.2599C54.521 56.2353 54.521 56.2138 54.5179 56.1922C54.5056 56.0445 54.481 55.8844 54.4902 55.749C54.4902 55.7613 54.4871 55.7613 54.4871 55.749C54.4871 55.7275 54.4933 55.6659 54.5056 55.589C54.5148 55.512 54.5364 55.4197 54.5518 55.3335C54.5703 55.2473 54.5764 55.1704 54.5795 55.1027C54.5795 55.1396 54.5856 55.0934 54.5918 55.0134C54.598 54.9334 54.6041 54.8195 54.6195 54.7302C54.638 54.6379 54.6626 54.5794 54.6534 54.6133C54.6441 54.6441 54.6103 54.7795 54.6072 55.038C54.6041 55.0596 54.598 55.1519 54.601 54.9949C54.598 55.1427 54.5856 55.2719 54.561 55.3858C54.5395 55.4966 54.5241 55.5859 54.5241 55.6074C54.5487 55.4628 54.5856 55.3273 54.601 55.2042C54.6164 55.0811 54.6164 54.9519 54.6287 54.8318C54.638 54.7703 54.6441 54.7149 54.6595 54.6564C54.6749 54.601 54.6964 54.5517 54.7149 54.5117C54.7549 54.4255 54.7888 54.364 54.8134 54.3209C54.7395 54.4686 54.6841 54.5794 54.6595 54.6902C54.6349 54.798 54.6287 54.8934 54.6226 55.0165C54.6164 55.2258 54.5918 55.3058 54.5918 55.3273C54.5887 55.3489 54.601 55.2966 54.6133 55.2289C54.6349 55.0965 54.641 54.8657 54.641 54.9672C54.6503 54.8657 54.6503 54.7302 54.7026 54.5856C54.7549 54.4502 54.8349 54.3271 54.875 54.2101C54.918 54.0993 54.9304 53.9854 54.9396 53.9115C54.9488 53.8346 54.955 53.7946 54.955 53.8192C54.9704 53.6715 55.0073 53.5484 55.0412 53.4653C55.075 53.3791 55.0966 53.3268 55.1089 53.296C55.1273 53.2375 55.1058 53.2714 55.0412 53.4068C55.0719 53.3298 55.1119 53.2498 55.1427 53.1667C55.1581 53.1236 55.1704 53.0805 55.1797 53.0344C55.1889 52.9882 55.1981 52.9389 55.2043 52.8897C55.2228 52.7881 55.2381 52.6804 55.2658 52.5696C55.2935 52.4711 55.3089 52.3634 55.3397 52.2557C55.3551 52.2033 55.3736 52.1479 55.3951 52.0987C55.4136 52.0495 55.432 52.0033 55.4505 51.9602C55.4874 51.8679 55.5213 51.7848 55.5521 51.7047C55.5675 51.6678 55.5798 51.6309 55.5952 51.5939C55.6075 51.557 55.6198 51.5231 55.6321 51.4893C55.6536 51.4277 55.6721 51.3723 55.6875 51.3292C55.7091 51.2708 55.7306 51.2061 55.7491 51.1353C55.7583 51.0984 55.7675 51.0645 55.7737 51.0276C55.7829 50.9876 55.7891 50.9445 55.7983 50.9014C55.8352 50.7321 55.8937 50.5598 55.9368 50.412C55.9737 50.2643 55.9922 50.1135 56.0261 49.9965C56.063 49.8765 56.0969 49.8057 56.1061 49.7842C56.0784 49.858 56.0507 49.935 56.0291 50.0119C56.0107 50.0889 55.9984 50.1627 55.983 50.2366C55.9707 50.3105 55.9553 50.3813 55.9368 50.4521C55.9153 50.5259 55.8937 50.6029 55.8691 50.686C55.8876 50.6244 55.906 50.5629 55.9276 50.4982C55.946 50.4367 55.9614 50.3751 55.9768 50.3074C56.0014 50.1781 56.023 50.0304 56.0722 49.895C56.1184 49.7595 56.1707 49.6426 56.2046 49.5379C56.223 49.4856 56.2354 49.4364 56.2477 49.3902C56.26 49.341 56.2723 49.2979 56.2815 49.2579C56.3061 49.1717 56.3308 49.104 56.3646 49.0116C56.3985 48.9162 56.4508 48.7931 56.5493 48.6146C56.5185 48.6515 56.5647 48.5684 56.6416 48.4084C56.6755 48.316 56.7401 48.2052 56.7986 48.0852C56.8263 48.0267 56.854 47.9652 56.8725 47.8975C56.8971 47.8205 56.9217 47.7405 56.9494 47.6574C56.9894 47.5343 57.0233 47.4296 57.0541 47.3342C57.0848 47.245 57.1064 47.168 57.1279 47.0941C57.1679 46.9495 57.2049 46.8356 57.2418 46.7402C57.2757 46.6632 57.2941 46.5832 57.3249 46.5001C57.3311 46.4786 57.3403 46.4539 57.3465 46.4324C57.3526 46.4201 57.3557 46.4139 57.3649 46.3955C57.3742 46.377 57.3803 46.3585 57.3926 46.337C57.4357 46.2539 57.4973 46.2046 57.5742 46.1462C57.605 46.18 57.6358 46.217 57.6727 46.257C57.6912 46.2785 57.7096 46.3001 57.725 46.3216C57.7343 46.3339 57.7435 46.3462 57.7527 46.3585L57.7681 46.3801C57.8081 46.4416 57.8512 46.5155 57.8851 46.6017C57.8605 46.534 57.8297 46.4663 57.7927 46.4016C57.882 46.5432 57.9251 46.6879 57.9559 46.7956C57.9713 46.851 57.9866 46.8972 58.0051 46.9372C58.0205 46.9803 58.039 47.008 58.0605 47.0387C58.1529 47.1618 58.2729 47.245 58.3714 47.3711C58.396 47.4019 58.4206 47.4389 58.4422 47.4758C58.4606 47.5096 58.4791 47.5466 58.4945 47.5835C58.5283 47.6574 58.5622 47.7374 58.5961 47.8267C58.6299 47.9098 58.673 48.0175 58.7161 48.1314C58.7376 48.1868 58.7623 48.2452 58.79 48.3068C58.8177 48.3653 58.8546 48.4207 58.9008 48.4822C58.9377 48.5253 58.9777 48.5684 59.0177 48.6146C59.0824 48.6915 59.147 48.7716 59.2024 48.8608C59.2609 48.9531 59.3009 49.0424 59.344 49.1317C59.384 49.224 59.4209 49.3194 59.4609 49.4117C59.4794 49.461 59.5009 49.5072 59.5225 49.5564C59.544 49.6026 59.5717 49.6641 59.5933 49.7226C59.5625 49.6457 59.541 49.6057 59.5225 49.5718C59.5071 49.5379 59.4886 49.5041 59.4579 49.4364C59.4794 49.4887 59.504 49.541 59.5286 49.5964C59.5563 49.6549 59.581 49.7134 59.6025 49.7688C59.6425 49.8857 59.6795 49.9996 59.7225 50.1043C59.6948 50.0365 59.6733 49.9842 59.6795 50.0119C59.6887 50.0396 59.7133 50.1412 59.8395 50.3628C59.8026 50.3012 59.7533 50.2151 59.7164 50.132C59.6764 50.0458 59.6425 49.9565 59.621 49.895C59.5717 49.7657 59.5625 49.7565 59.6702 50.0581C59.661 50.015 59.6918 50.1135 59.7718 50.2582C59.8487 50.3997 59.978 50.5998 60.0642 50.7875C60.0057 50.6798 59.9842 50.6367 59.9872 50.646C59.9903 50.6552 60.018 50.7075 60.0519 50.7845C60.1257 50.9353 60.2396 51.1692 60.295 51.2831C60.4551 51.6032 60.2396 51.1569 60.1904 51.0522C60.3073 51.28 60.4181 51.5108 60.5289 51.7447C60.4582 51.6032 60.5105 51.7078 60.5813 51.8617C60.649 52.0156 60.7382 52.2095 60.7505 52.2434C60.7659 52.2741 60.7844 52.308 60.8029 52.3449C60.8183 52.3819 60.8336 52.4219 60.849 52.4619C60.8798 52.5419 60.9075 52.6189 60.926 52.6743C60.966 52.782 60.9783 52.8035 60.9137 52.5727C60.889 52.5081 60.8644 52.4434 60.8336 52.3788C60.7567 52.188 60.6705 52.0033 60.5905 51.8155C60.6582 51.9602 60.7259 52.1049 60.7906 52.2464C60.8244 52.3141 60.8552 52.388 60.8798 52.465C60.9044 52.5388 60.9291 52.6127 60.9506 52.6835C60.9721 52.7543 60.9937 52.8251 61.0183 52.8928L61.0953 53.1052C61.1199 53.1759 61.1445 53.2467 61.1691 53.3237L61.203 53.4345C61.2122 53.4683 61.2245 53.5053 61.2368 53.5391C61.283 53.6838 61.3415 53.8315 61.3753 54.0008C61.4123 54.1855 61.3877 54.3517 61.4061 54.5025C61.4307 54.6779 61.44 54.8564 61.4523 55.035C61.4554 55.2227 61.4677 55.4166 61.4646 55.6167C61.4584 55.8475 61.4523 55.8013 61.4492 55.829C61.4492 55.8444 61.4461 55.8783 61.4461 55.9737C61.4431 56.0199 61.4431 56.0814 61.44 56.1614C61.4369 56.2445 61.44 56.3492 61.4307 56.4846C61.4215 56.5677 61.4184 56.657 61.4184 56.6785C61.4184 56.6908 61.4215 56.6847 61.4246 56.6477C61.4277 56.62 61.4338 56.58 61.44 56.5123C61.44 56.5215 61.44 56.5277 61.4369 56.5339L61.4277 56.6231C61.4246 56.6847 61.4184 56.7462 61.4123 56.8078C61.403 56.9309 61.3846 57.0663 61.3507 57.1956C61.3199 57.3218 61.2861 57.4511 61.243 57.5865C61.203 57.7188 61.1599 57.8512 61.1199 57.9989C61.086 58.1005 61.0583 58.1651 61.0553 58.162C61.0522 58.159 61.0583 58.1405 61.0706 58.1005C61.083 58.0605 61.1014 57.9989 61.1291 57.9127C61.1137 57.9651 61.0768 58.082 61.0275 58.2051C60.9752 58.3313 60.8983 58.4606 60.8429 58.5437C60.769 58.6606 60.7044 58.7561 60.6582 58.8392C60.609 58.9223 60.572 58.9992 60.5382 59.0638C60.4705 59.1993 60.412 59.2978 60.3504 59.3932C60.2858 59.4886 60.2181 59.5809 60.1165 59.7071C60.055 59.7779 59.978 59.8395 59.8918 59.901C59.8518 59.9349 59.8087 59.9656 59.7718 60.0026C59.7349 60.0395 59.701 60.0857 59.6579 60.1472C59.7318 60.0487 59.6948 60.1072 59.6887 60.1195C59.6825 60.1257 59.6887 60.1226 59.7133 60.0888C59.7441 60.0487 59.7779 59.9995 59.9103 59.9041C59.9811 59.8487 60.0611 59.7902 60.1288 59.7071C60.1873 59.6363 60.2427 59.5624 60.2981 59.4855C60.3997 59.347 60.3166 59.4701 60.2427 59.5686C60.1688 59.664 60.1165 59.741 60.295 59.5132C60.2396 59.5871 60.1842 59.6579 60.1227 59.7287C60.0519 59.8056 59.9749 59.861 59.9103 59.9102C59.8426 59.9595 59.7872 60.0026 59.7502 60.0487C59.7102 60.0949 59.6733 60.1565 59.6302 60.2119C59.6548 60.1749 59.621 60.2273 59.5594 60.2827C59.5009 60.335 59.4425 60.375 59.4548 60.3658C59.2763 60.5012 59.2486 60.5166 59.2116 60.5443C59.1932 60.5566 59.1716 60.572 59.1285 60.5997C59.0885 60.6305 59.0146 60.6735 58.9192 60.7413C58.8761 60.772 58.9592 60.7012 59.1039 60.6058C59.2486 60.5135 59.4394 60.3873 59.5471 60.2857C59.5656 60.2673 59.5687 60.2611 59.5594 60.2704C59.5533 60.2765 59.544 60.2827 59.5317 60.2919C59.5225 60.3011 59.5102 60.3104 59.4948 60.3227C59.4332 60.3719 59.3317 60.4458 59.2147 60.5227C59.1039 60.5966 58.9685 60.6766 58.8731 60.7536C58.7715 60.8367 58.6884 60.929 58.6299 60.9844C58.593 61.0244 58.6084 61.0152 58.5899 61.0398C58.5807 61.0521 58.5622 61.0737 58.5191 61.1137C58.4976 61.1321 58.4729 61.1568 58.436 61.1875C58.4022 61.2152 58.3652 61.246 58.3191 61.286C58.2883 61.3076 58.2113 61.3691 58.1128 61.4584C58.0636 61.5015 58.0082 61.5507 57.9497 61.6031C57.9189 61.6277 57.8882 61.6554 57.8574 61.68C57.8389 61.6954 57.8235 61.7077 57.802 61.7231L57.7835 61.7323C57.7835 61.7354 57.7835 61.7385 57.7835 61.7416L57.7774 61.7754C57.7743 61.8093 57.7681 61.84 57.762 61.8708C57.7527 61.9324 57.7373 61.9909 57.725 62.0432C57.7127 62.0955 57.7004 62.1448 57.6912 62.1878C57.6819 62.234 57.6727 62.2771 57.6635 62.311C57.6358 62.4341 57.605 62.548 57.5958 62.591C57.5865 62.6311 57.5958 62.6003 57.6481 62.4248C57.6112 62.5572 57.5681 62.6988 57.5496 62.8065C57.525 62.9111 57.5127 62.985 57.5157 62.9604C57.5096 63.0065 57.5003 63.0589 57.4911 63.1204C57.4819 63.1789 57.4696 63.2466 57.4573 63.3174C57.4326 63.4559 57.4172 63.616 57.3834 63.7791C57.3465 63.9422 57.2941 64.0869 57.2664 64.2069C57.2357 64.3269 57.2172 64.4347 57.208 64.4931C57.211 64.4593 57.1864 64.5762 57.1526 64.7332C57.1341 64.8163 57.1156 64.8963 57.1002 64.9825C57.0879 65.0687 57.0756 65.1549 57.0602 65.2195C57.0418 65.3457 57.0048 65.5088 56.9617 65.7027C56.9525 65.752 56.9402 65.8043 56.931 65.8535C56.9156 65.9089 56.9002 65.9613 56.8848 66.0167C56.8478 66.1213 56.8109 66.226 56.7832 66.3275C56.7247 66.5461 56.6663 66.7615 56.6139 66.9493C56.5585 67.1432 56.5093 67.2971 56.4877 67.4048C56.4908 67.3648 56.5708 67.0847 56.5801 67.0385C56.5801 67.0385 56.577 67.0477 56.5739 67.0601C56.5708 67.0754 56.5616 67.0939 56.5555 67.1185C56.5401 67.1678 56.5185 67.2355 56.5001 67.3094C56.46 67.4602 56.4139 67.6448 56.38 67.7772L56.3954 67.7095L56.34 67.928L56.3308 67.9557L56.3215 68.0203C56.3215 68.0419 56.3215 68.0604 56.3215 68.0727C56.3154 68.0911 56.3246 68.0757 56.3215 68.0788C56.3369 68.0604 56.34 68.0634 56.3308 68.0788C56.3246 68.0942 56.3061 68.1281 56.2969 68.1435C56.2908 68.1558 56.2877 68.165 56.2908 68.1588C56.2877 68.165 56.3154 68.1281 56.417 68.008C56.4323 67.9865 56.4477 67.9649 56.4631 67.9465C56.4816 67.9219 56.497 67.9003 56.5124 67.8788C56.5462 67.8357 56.577 67.7987 56.6047 67.768C56.6601 67.7064 56.7032 67.6633 56.734 67.6325C56.7647 67.5987 56.7863 67.5771 56.7986 67.5648C56.8048 67.5556 56.8109 67.5525 56.814 67.5464C56.8171 67.5433 56.8171 67.5433 56.8171 67.5402C56.8201 67.534 56.8201 67.534 56.8201 67.5217C56.8201 67.5187 56.8201 67.5156 56.8201 67.5125C56.8201 67.5156 56.8201 67.4848 56.8263 67.4602C56.8325 67.4356 56.8571 67.4017 56.8725 67.3832C56.8909 67.3617 56.9125 67.3371 56.9371 67.3155C56.9587 67.3001 56.9679 67.2878 56.9925 67.2694C57.011 67.2509 57.0325 67.2324 57.051 67.217C57.0941 67.1862 57.1341 67.1585 57.1679 67.1308C57.2357 67.0724 57.3126 66.9985 57.3926 66.9369C57.3926 66.9339 57.408 66.9185 57.4388 66.8908C57.4542 66.8785 57.4726 66.8662 57.4911 66.8508C57.5157 66.8323 57.5404 66.8138 57.5681 66.7984C57.6235 66.7646 57.685 66.7369 57.7466 66.7061L57.7681 66.6938C57.7743 66.6907 57.7774 66.6876 57.7835 66.6815C57.7927 66.6753 57.8051 66.6661 57.8174 66.6538L57.8574 66.6168C57.8666 66.6107 57.8758 66.6045 57.8851 66.5984C57.8943 66.5922 57.8912 66.5922 57.8974 66.5891C57.9559 66.4999 58.0113 66.4199 58.042 66.3737C58.0759 66.3214 58.0851 66.306 58.0544 66.346C58.0821 66.306 58.1067 66.2691 58.1282 66.2352C58.1529 66.2044 58.1744 66.1767 58.1959 66.1521C58.236 66.1029 58.2667 66.0628 58.2944 66.0351C58.3406 65.9767 58.3652 65.949 58.3837 65.9274C58.4022 65.9059 58.4145 65.8936 58.4391 65.8597C58.4637 65.8258 58.5006 65.7704 58.5714 65.6658C58.6145 65.5919 58.6638 65.5211 58.713 65.4442C58.7376 65.4073 58.7623 65.3703 58.79 65.3303C58.8146 65.2934 58.8392 65.2534 58.8638 65.2134C58.9162 65.1272 58.9654 65.0348 59.0423 64.9394C59.1224 64.8471 59.2178 64.7701 59.307 64.6809C59.2609 64.7271 59.1593 64.8194 59.1439 64.8379C59.2486 64.7394 59.344 64.6593 59.4086 64.5732C59.4732 64.4808 59.5194 64.3823 59.5717 64.2869C59.621 64.1946 59.6825 64.1023 59.7564 64.0345C59.8272 63.9638 59.898 63.9084 59.9565 63.8499C59.9872 63.8191 60.0149 63.7914 60.0396 63.7575L60.1196 63.656C60.175 63.5913 60.2304 63.5236 60.2858 63.4528C60.3935 63.3236 60.5012 63.1758 60.6551 63.0342C60.5536 63.1327 60.3597 63.3759 60.3935 63.342C60.4643 63.2559 60.5474 63.1451 60.6521 63.0435C60.7567 62.9481 60.8613 62.8496 60.9537 62.7634C61.046 62.6741 61.1353 62.6095 61.1876 62.5633C61.243 62.5203 61.2645 62.4987 61.2399 62.5141C61.4 62.391 61.3323 62.4495 61.3046 62.4741C61.2922 62.4864 61.2861 62.4895 61.3261 62.4587C61.3476 62.4433 61.3784 62.4156 61.4215 62.3787C61.4646 62.3417 61.5169 62.2802 61.5969 62.2094C61.52 62.2802 61.4431 62.3725 61.3476 62.4525C61.2522 62.5326 61.1476 62.6126 61.0614 62.6865C61.0799 62.6741 61.2153 62.5695 61.3415 62.4679C61.4061 62.4156 61.4615 62.3633 61.5046 62.3202C61.5477 62.2771 61.5785 62.2494 61.5785 62.2494C61.5262 62.2986 61.4677 62.3602 61.4215 62.4064C61.3723 62.4525 61.3323 62.4833 61.3353 62.4864C61.4523 62.3941 61.5323 62.2956 61.6308 62.2094C61.7385 62.1232 61.8616 62.0894 61.9694 62.0155C62.0432 61.9662 62.0094 61.9878 61.9386 62.0278C61.874 62.0647 61.7539 62.1109 61.6831 62.154C61.7724 62.0986 61.8401 62.077 61.8986 62.0463C61.9601 62.0186 62.0186 61.9755 62.114 61.9108L62.0894 61.9139C62.3326 61.7508 62.4218 61.7169 62.5111 61.6646C62.5572 61.64 62.6065 61.6061 62.6834 61.5446C62.7604 61.4892 62.865 61.3968 63.0466 61.3045C62.9266 61.3691 62.9481 61.363 62.8681 61.4153C62.9912 61.3353 63.1605 61.2583 63.3421 61.1722C63.4313 61.1291 63.5268 61.0798 63.6252 61.0398C63.7268 60.9998 63.8284 60.9659 63.9269 60.9352C64.1208 60.8736 64.2808 60.7443 64.4532 60.6982C64.6132 60.652 64.7425 60.6181 64.8133 60.5997C64.5117 60.6889 64.6594 60.652 64.8379 60.6028C64.8841 60.5904 64.9302 60.5781 64.9703 60.5689C65.0133 60.5597 65.0503 60.5535 65.078 60.5474C65.1303 60.5381 65.1365 60.5381 65.041 60.5627C65.2165 60.5197 65.395 60.4858 65.5612 60.4489C65.7274 60.4089 65.8844 60.3535 66.0383 60.3134C66.1922 60.2673 66.3461 60.2519 66.4876 60.258C66.6261 60.2611 66.7523 60.2765 66.8662 60.2765C67.0601 60.2796 67.2078 60.258 67.3279 60.255C67.4479 60.2488 67.5433 60.255 67.6326 60.2457C67.7218 60.2427 67.8111 60.2303 67.9188 60.215C68.0265 60.2026 68.1558 60.1657 68.3313 60.1842C68.4051 60.1934 68.4728 60.2026 68.5313 60.2088C68.6175 60.215 68.7006 60.218 68.7899 60.2057C69.0299 60.1657 69.1746 60.1226 69.39 60.178C69.6239 60.2396 69.744 60.3073 69.7347 60.6089C69.7317 60.6397 69.7255 60.6705 69.7194 60.7012C69.7163 60.7074 69.7163 60.7136 69.7132 60.7197ZM53.7792 67.2047C53.7731 67.2078 53.7731 67.2078 53.7792 67.2047V67.2047ZM56.1399 69.4608L56.1338 69.1407C56.1338 69.1376 56.1338 69.1345 56.1338 69.1314C56.1338 69.1284 56.1338 69.1284 56.1338 69.1253V69.1284L56.1276 69.1253C56.1246 69.1191 56.1215 69.1191 56.1215 69.1191C56.1215 69.1161 56.1246 69.1191 56.1276 69.1253C56.1276 69.1284 56.1246 69.1345 56.1246 69.1407C56.1307 69.4454 56.1399 69.7532 56.1369 69.7809C56.1461 69.6731 56.1399 69.5654 56.1399 69.4608ZM56.1553 69.5777C56.1553 69.4454 56.1523 69.2976 56.1492 69.1468C56.1461 69.1407 56.1399 69.1376 56.1369 69.1314C56.1369 69.1345 56.1338 69.1376 56.1369 69.1407C56.143 69.2084 56.1492 69.2238 56.1553 69.5777ZM56.1738 69.1314C56.1769 69.1314 56.18 69.1314 56.1738 69.1314V69.1314ZM56.1369 69.1222V69.1253C56.1369 69.1284 56.1369 69.1284 56.1369 69.1314C56.1461 69.1407 56.1553 69.1499 56.143 69.1407H56.1461V69.1376L56.1523 69.1345V69.1253L56.1369 69.1222ZM56.1338 69.1222C56.1338 69.1222 56.1338 69.1222 56.1307 69.1222C56.1276 69.1222 56.1276 69.1222 56.1276 69.1222C56.1276 69.1253 56.1276 69.1253 56.1276 69.1253L56.1338 69.1284V69.1253C56.1338 69.1253 56.1369 69.1253 56.1338 69.1222C56.1369 69.1253 56.1369 69.1253 56.1369 69.1253V69.1222H56.1338ZM56.1276 69.1222C56.1276 69.1222 56.1276 69.1222 56.1276 69.1191C56.1246 69.1191 56.1246 69.1191 56.1215 69.1191H56.1246C56.1246 69.1191 56.1246 69.1191 56.1276 69.1191C56.1276 69.1191 56.1276 69.1191 56.1276 69.1222ZM64.9087 66.4783C64.9056 66.4783 64.8872 66.4814 64.8656 66.4907C64.7948 66.5153 64.724 66.5399 64.6532 66.5645C64.5794 66.5861 64.5024 66.6045 64.4255 66.623L64.4347 66.6261C64.3024 66.6507 64.1885 66.6723 64.0869 66.6938C63.9853 66.7153 63.893 66.743 63.7945 66.7677C63.9607 66.7277 64.0531 66.7092 64.1577 66.6907C64.2593 66.6723 64.3732 66.6569 64.5701 66.6045C64.7056 66.5645 64.7917 66.5307 64.841 66.5122C64.8933 66.4907 64.9087 66.4814 64.9087 66.4783ZM65.9521 65.8689C65.9552 65.8689 65.9582 65.8659 65.9613 65.8628C65.9398 65.8782 65.9152 65.8936 65.8936 65.9089C65.9121 65.8966 65.9336 65.8843 65.9521 65.8689ZM66.4722 65.4473C66.4292 65.4842 66.3891 65.5211 66.346 65.5581C66.3861 65.5242 66.4292 65.4873 66.4722 65.4473ZM66.6723 65.2595C66.6107 65.318 66.5492 65.3765 66.4846 65.435C66.5461 65.3796 66.6077 65.3211 66.6723 65.2595ZM67.3833 64.4778L67.3063 64.5609C67.4017 64.4531 67.4571 64.3885 67.5002 64.3331C67.4079 64.4408 67.3094 64.5424 67.2171 64.6501C67.1001 64.7886 66.9924 64.9302 66.8693 65.0595C66.8077 65.1241 66.7462 65.1857 66.6846 65.2472C66.7554 65.1795 66.8293 65.1056 66.9093 65.0225C66.9093 65.0225 66.897 65.0379 66.8816 65.0564C66.86 65.0779 66.8354 65.1026 66.8139 65.1272C66.7646 65.1764 66.7215 65.2195 66.74 65.2072C66.9832 64.9887 67.1586 64.7117 67.3833 64.4778ZM55.8568 60.415C55.8414 60.3904 55.826 60.3627 55.8137 60.3381C55.8229 60.3565 55.8383 60.3842 55.8568 60.415ZM56.1276 69.1191C56.1276 69.1222 56.1276 69.1222 56.1276 69.1222C56.1276 69.1191 56.1246 69.1191 56.1246 69.1191C56.1246 69.1191 56.1246 69.1191 56.1276 69.1191ZM47.9283 62.1725C47.9437 62.2002 47.9621 62.2309 47.9837 62.2648C47.9652 62.234 47.9467 62.2032 47.9283 62.1725ZM56.4293 63.6283C56.4262 63.6344 56.4262 63.6375 56.4262 63.6375C56.4262 63.6344 56.4293 63.6313 56.4293 63.6283ZM50.2828 65.1887C50.2921 65.1949 50.2982 65.198 50.3044 65.2041C50.3013 65.201 50.2951 65.198 50.289 65.1949C50.2859 65.1918 50.2859 65.1918 50.2828 65.1887ZM50.2828 65.1887C50.2428 65.1672 50.1966 65.1395 50.1382 65.1087C50.1659 65.1241 50.2182 65.1518 50.2828 65.1887ZM55.8783 60.4519C55.8906 60.4673 55.903 60.4827 55.9183 60.5012C55.8999 60.4796 55.8876 60.4612 55.8722 60.4396C55.8753 60.4427 55.8783 60.4458 55.8783 60.4519ZM54.6995 67.4879C54.6964 67.4725 54.6964 67.4602 54.6934 67.4509C54.6903 67.4417 54.6903 67.4356 54.6903 67.4356C54.7026 67.494 54.7057 67.5525 54.7057 67.5802C54.7088 67.5525 54.7057 67.5156 54.6995 67.4879ZM50.1105 56.3738C50.1166 56.3861 50.1166 56.3892 50.1197 56.3923C50.1259 56.4015 50.1259 56.3984 50.1105 56.3738ZM67.6418 64.21L67.7342 64.0961C67.7003 64.1361 67.6788 64.1669 67.6418 64.21ZM67.7803 64.0376C67.7619 64.0622 67.7465 64.0807 67.7342 64.0961L67.7803 64.0376Z" fill="white"/>
</mask>
<g mask="url(#mask8_303_221)">
<path d="M47.2852 46.1461V77.457H69.738V46.1461H47.2852Z" fill="#013B23"/>
</g>
</g>
</svg>
