<svg xmlns="http://www.w3.org/2000/svg" fill="none" viewBox="0 0 806 699"><path fill="#EBF2E4" fill-rule="evenodd" d="M113.763 588.248c-8.014-38.204-32.436-143.993-10.191-198.877 18.235-44.997 98.603-80.59 155.565 22.428 0 0 56.168-177.212 145.374-170.052 89.208 7.158 71.036 223.363 71.036 223.363s72.687-84.476 117.29-32.932c44.601 51.545 44.601 136.025 44.601 136.025s59.473-87.343 100.771-51.547c41.298 35.798 28.084 161.797 28.084 161.797l-733.475 5.728c-16.24-81.963-.68-229.569 80.945-95.933Z" clip-rule="evenodd"/><path fill="#6F8B59" fill-rule="evenodd" d="M348.557 549.177a.873.873 0 1 0-1.685.453c.02.075 4.435 19.429 2.909 42.418-1.299 19.545-7.415 42.059-18.603 53.979a.873.873 0 1 0 1.271 1.199c11.641-12.4 17.834-35.677 19.105-55.733 1.462-23.052-2.975-42.239-2.997-42.316Z" clip-rule="evenodd"/><path fill="#6F8B59" fill-rule="evenodd" d="M362.833 606.832c1.86.587 2.85 1.423 3.166 2.403.528 1.634-.829 3.213-3.173 4.522-1.922 1.071-4.592 2.049-7.299 2.713-4.642 1.133-9.484 1.269-11.388-.607-2.415 1.713-7.18-.954-11.114-4.596-2.044-1.893-3.902-4.046-5.063-5.919-1.414-2.281-1.832-4.321-.574-5.492.75-.701 2.019-.95 3.926-.564 2.738.558 6.318 2.763 9.181 5.37 1.664 1.515 3.103 3.179 4.02 4.751.169.289.321.577.455.865a9.921 9.921 0 0 1 1.422-1.014c1.562-.926 3.631-1.682 5.819-2.197 3.763-.89 7.961-1.079 10.622-.235Zm-21.622-69.659c.519-1.876 1.316-2.892 2.285-3.246 1.612-.587 3.24.708 4.631 3.002h.003c1.139 1.875 2.214 4.51 2.977 7.199 2.707 9.085-1.029 18.008-6.863 9.399-.985-1.53-1.816-3.571-2.412-5.741-1.025-3.732-1.366-7.921-.621-10.613Zm-10.904 19.505c-.852 1.494.153 3.319 2.179 5.076 1.664 1.442 4.077 2.944 6.592 4.143 4.84 2.309 10.18 3.437 11.979 1.08 2.375 1.229 6.959-.341 11.056-2.804 2.386-1.436 4.643-3.165 6.16-4.759 1.849-1.946 2.672-3.859 1.68-5.264-.591-.836-1.783-1.337-3.728-1.348-2.797-.012-6.751 1.414-10.08 3.382-1.933 1.141-3.681 2.478-4.901 3.832a9.818 9.818 0 0 0-1.056 1.39 11.602 11.602 0 0 0-.693-.692c-1.345-1.232-3.215-2.393-5.247-3.341-3.505-1.638-7.577-2.676-10.359-2.394-1.938.195-3.074.809-3.582 1.699Zm.892 15.053c.563-.854 1.737-1.392 3.684-1.462 2.799-.102 6.795 1.198 10.183 3.06 1.975 1.083 3.765 2.364 5.025 3.675.233.242.447.488.645.734a9.733 9.733 0 0 1 1.143-1.315c1.306-1.273 3.138-2.491 5.139-3.505 3.453-1.748 7.494-2.918 10.279-2.722 1.943.136 3.098.715 3.635 1.588.899 1.468-.045 3.324-2.019 5.147-1.612 1.489-3.978 3.064-6.461 4.344-4.248 2.192-8.921 3.463-11.213 2.087-1.95 2.234-7.204.76-11.883-1.859-2.431-1.359-4.746-3.017-6.31-4.563-1.911-1.886-2.795-3.771-1.847-5.209Zm.251 13.819c-1.144 1.286-.541 3.28 1.078 5.418 1.328 1.755 3.38 3.725 5.592 5.419 4.255 3.259 9.245 5.469 11.494 3.54 2.071 1.693 6.879 1.104 11.396-.457 2.636-.911 5.204-2.134 7.017-3.381 2.212-1.521 3.413-3.219 2.735-4.796-.405-.945-1.467-1.684-3.369-2.097-2.735-.592-6.896-.014-10.562 1.22-2.131.719-4.121 1.663-5.592 2.733a9.728 9.728 0 0 0-1.321 1.14 10.977 10.977 0 0 0-.531-.816c-1.059-1.478-2.649-3.002-4.446-4.355-3.09-2.326-6.861-4.189-9.643-4.488-1.931-.209-3.169.157-3.848.92ZM542.454 557.796a.873.873 0 0 0-1.735-.179c-.008.079-2.819 19.728-12.483 40.645-8.214 17.78-21.993 36.61-36.707 43.728a.877.877 0 0 0 .757 1.579c15.311-7.406 29.432-26.921 37.803-45.19 9.625-20.999 12.357-40.504 12.365-40.583Z" clip-rule="evenodd"/><path fill="#6F8B59" fill-rule="evenodd" d="M535.125 616.738c1.524 1.215 2.149 2.349 2.094 3.378-.091 1.715-1.924 2.703-4.583 3.085-2.179.311-5.021.267-7.785-.085-4.741-.603-9.31-2.212-10.415-4.645-2.871.733-6.363-3.463-8.73-8.274-1.231-2.499-2.196-5.173-2.608-7.337-.501-2.638-.162-4.692 1.432-5.335.952-.386 2.225-.164 3.866.88 2.357 1.5 4.91 4.843 6.648 8.302 1.009 2.012 1.757 4.081 2.051 5.875.053.332.092.654.115.97a9.579 9.579 0 0 1 1.689-.437c1.792-.304 3.993-.267 6.221.033 3.835.523 7.822 1.849 10.005 3.59Zm4.77-72.781c1.157-1.564 2.267-2.228 3.296-2.212 1.716.03 2.771 1.823 3.25 4.462l.005.002c.391 2.161.449 5.005.196 7.787-.724 9.453-7.411 16.446-9.771 6.315-.372-1.781-.418-3.984-.196-6.223.377-3.851 1.558-7.884 3.22-10.131Zm-17.17 14.305c-1.329 1.09-1.047 3.153.217 5.521 1.034 1.942 2.751 4.209 4.669 6.23 3.692 3.888 8.275 6.857 10.799 5.302 1.779 1.997 6.618 2.173 11.326 1.34 2.742-.487 5.469-1.289 7.456-2.237 2.424-1.154 3.877-2.643 3.455-4.312-.253-.994-1.185-1.887-2.999-2.595-2.606-1.014-6.809-1.098-10.622-.455-2.212.374-4.323.994-5.948 1.821a9.744 9.744 0 0 0-1.484.919 11.151 11.151 0 0 0-.399-.895c-.815-1.63-2.146-3.383-3.702-4.999-2.684-2.784-6.114-5.214-8.814-5.944-1.878-.512-3.16-.347-3.954.304Zm-4.559 14.373c.831-.594 2.12-.676 3.963-.044 2.648.908 5.915 3.556 8.409 6.506 1.454 1.72 2.67 3.554 3.375 5.23.13.31.244.614.341.917a9.794 9.794 0 0 1 1.537-.818c1.674-.719 3.822-1.201 6.054-1.43 3.853-.395 8.042-.039 10.574 1.142 1.765.822 2.638 1.777 2.823 2.786.314 1.691-1.234 3.085-3.729 4.079-2.037.812-4.812 1.436-7.587 1.744-4.752.524-9.571.033-11.217-2.071-2.618 1.387-6.996-1.872-10.428-5.993-1.784-2.142-3.349-4.517-4.256-6.524-1.11-2.446-1.26-4.524.141-5.524Zm-4.717 12.991c-1.528.792-1.678 2.868-.934 5.445.611 2.114 1.821 4.689 3.279 7.064 2.805 4.567 6.673 8.418 9.462 7.422 1.328 2.322 6.027 3.496 10.804 3.657 2.788.094 5.623-.128 7.762-.643 2.609-.627 4.341-1.783 4.273-3.498-.04-1.029-.769-2.098-2.395-3.163-2.34-1.534-6.434-2.485-10.298-2.645-2.247-.094-4.442.077-6.199.548a9.828 9.828 0 0 0-1.642.591c-.051-.31-.119-.629-.203-.952-.459-1.761-1.398-3.752-2.59-5.66-2.05-3.281-4.906-6.369-7.394-7.646-1.732-.887-3.017-.99-3.925-.52Z" clip-rule="evenodd"/><path fill="#A2C043" fill-rule="evenodd" d="M294.292 564.766a.871.871 0 1 1 1.744.014c0 .079.574 19.919 7.814 41.792 6.155 18.598 17.72 38.86 31.536 47.594a.874.874 0 1 1-.932 1.48c-14.375-9.086-26.204-30.07-32.46-49.168-7.191-21.947-7.704-41.633-7.702-41.712Z" clip-rule="evenodd"/><path fill="#A2C043" fill-rule="evenodd" d="M294.919 624.156c-1.653 1.034-2.403 2.094-2.463 3.118-.103 1.715 1.606 2.903 4.205 3.583 2.129.556 4.959.833 7.745.796 4.779-.064 9.5-1.146 10.874-3.442 2.767 1.056 6.712-2.72 9.608-7.231 1.504-2.346 2.766-4.895 3.419-6.997.797-2.564.689-4.644-.822-5.464-.902-.491-2.192-.414-3.941.439-2.513 1.225-5.425 4.258-7.544 7.501-1.23 1.883-2.208 3.855-2.701 5.604-.09.323-.165.642-.224.952a9.577 9.577 0 0 0-1.63-.623c-1.746-.506-3.936-.719-6.184-.67-3.865.083-7.976.952-10.342 2.434Zm3.477-72.854c-.972-1.685-2.001-2.472-3.024-2.569-1.708-.163-2.959 1.498-3.733 4.068h-.005c-.633 2.103-1.012 4.922-1.077 7.715-.346 9.473 5.508 17.176 8.998 7.378.57-1.727.864-3.911.897-6.16.059-3.872-.66-8.013-2.056-10.432Zm15.444 16.15c1.199 1.233.686 3.252-.838 5.462-1.249 1.812-3.21 3.87-5.343 5.662-4.106 3.448-8.995 5.879-11.326 4.049-1.994 1.783-6.823 1.412-11.406.053-2.67-.794-5.289-1.9-7.156-3.064-2.278-1.418-3.555-3.065-2.947-4.673.363-.96 1.39-1.743 3.273-2.242 2.704-.713 6.889-.322 10.606.747 2.155.622 4.184 1.476 5.704 2.479.513.342.976.703 1.37 1.083.149-.281.314-.563.497-.844.994-1.53 2.513-3.12 4.244-4.55 2.982-2.463 6.663-4.488 9.428-4.914 1.926-.291 3.181.019 3.894.752Zm2.909 14.799c-.76-.686-2.03-.911-3.934-.493-2.735.601-6.278 2.864-9.091 5.513-1.638 1.544-3.052 3.233-3.942 4.816-.165.293-.311.585-.442.875-.42-.353-.9-.681-1.434-.987-1.583-.904-3.662-1.627-5.854-2.104-3.782-.827-7.985-.946-10.633-.058-1.847.618-2.821 1.469-3.12 2.448-.504 1.645.878 3.204 3.242 4.473 1.933 1.036 4.62 1.97 7.344 2.588 4.662 1.058 9.504 1.115 11.378-.789 2.446 1.673 7.165-1.073 11.039-4.777 2.014-1.928 3.836-4.11 4.964-5.999 1.378-2.308 1.759-4.354.483-5.506Zm3.22 13.438c1.429.959 1.345 3.039.314 5.516-.847 2.031-2.338 4.453-4.057 6.649-3.303 4.221-7.578 7.609-10.239 6.305-1.581 2.157-6.382 2.793-11.147 2.412-2.781-.22-5.574-.761-7.641-1.513-2.523-.917-4.111-2.262-3.849-3.958.156-1.018.997-1.997 2.736-2.872 2.498-1.26 6.672-1.743 10.531-1.466 2.243.162 4.405.578 6.098 1.244a9.534 9.534 0 0 1 1.564.774c.087-.303.191-.611.31-.923.655-1.698 1.812-3.569 3.213-5.331 2.409-3.026 5.592-5.774 8.211-6.762 1.816-.686 3.107-.644 3.956-.075Z" clip-rule="evenodd"/><path fill="#BDCE60" fill-rule="evenodd" d="M726.747 662.646c20.181-4.024 88.875 2.353 78.007-24.15-6.718-16.381-38.897-22.206-78.007 24.15Z" clip-rule="evenodd"/><path fill="#DBE4AA" fill-rule="evenodd" d="M790.898 640.924a.844.844 0 1 0-.11-1.683c-.071.003-19.926 1.128-53.173 18.136-.736.836-1.476 1.687-2.219 2.568a32.82 32.82 0 0 1 1.381-.241c33.868-17.633 54.048-18.774 54.121-18.78Z" clip-rule="evenodd"/><path fill="#DBE4AA" fill-rule="evenodd" d="M780.345 641.465a.842.842 0 1 0-.9 1.425l11.438 7.27a.844.844 0 0 0 .903-1.425l-11.441-7.27Z" clip-rule="evenodd"/><path fill="#DBE4AA" fill-rule="evenodd" d="M779.256 641.511a.848.848 0 0 0 1.447.879l5.966-9.783a.845.845 0 0 0-1.445-.878l-5.968 9.782ZM770.627 644.325a.844.844 0 1 0-.902 1.425l11.44 7.27a.842.842 0 0 0 .902-1.425l-11.44-7.27Z" clip-rule="evenodd"/><path fill="#DBE4AA" fill-rule="evenodd" d="M768.848 644.383a.844.844 0 1 0 1.443.877l5.966-9.783a.844.844 0 1 0-1.445-.876l-5.964 9.782ZM759.893 647.905a.845.845 0 0 0-1.161.289.85.85 0 0 0 .289 1.163l10.341 6.195a.847.847 0 0 0 .869-1.452l-10.338-6.195Z" clip-rule="evenodd"/><path fill="#DBE4AA" fill-rule="evenodd" d="M758.436 647.917a.846.846 0 0 0 1.557.659l4.459-10.555a.845.845 0 1 0-1.557-.657l-4.459 10.553ZM749.07 652.268a.845.845 0 0 0-.576 1.588l9.467 3.407a.845.845 0 1 0 .574-1.588l-9.465-3.407Z" clip-rule="evenodd"/><path fill="#809E6A" fill-rule="evenodd" d="M665.506 654.479c-17.486-10.853-84.045-28.997-64.564-50 12.04-12.979 44.217-7.138 64.564 50Z" clip-rule="evenodd"/><path fill="#9EB28B" fill-rule="evenodd" d="M614.172 612.972a.802.802 0 0 1 .624-1.476c.064.027 18.42 7.567 43.959 34.752.29.776.578 1.559.864 2.359-.55-.343-1.17-.695-1.838-1.055-25.381-27.091-43.545-34.554-43.609-34.58Z" clip-rule="evenodd"/><path fill="#9EB28B" fill-rule="evenodd" d="M623.485 616.741a.8.8 0 1 1 .367 1.557l-12.541 2.973a.8.8 0 1 1-.367-1.559l12.541-2.971Z" clip-rule="evenodd"/><path fill="#9EB28B" fill-rule="evenodd" d="M624.448 617.123a.805.805 0 0 1-1.572.337l-2.32-10.648a.805.805 0 0 1 1.574-.336l2.318 10.647ZM631.329 622.333a.801.801 0 0 1 .367 1.559l-12.541 2.973a.8.8 0 0 1-.368-1.559l12.542-2.973Z" clip-rule="evenodd"/><path fill="#9EB28B" fill-rule="evenodd" d="M632.908 622.938a.808.808 0 0 1-.616.958.808.808 0 0 1-.955-.618l-2.319-10.649a.803.803 0 0 1 1.572-.337l2.318 10.646ZM639.861 628.89a.806.806 0 1 1 .33 1.575l-11.216 2.351a.806.806 0 0 1-.331-1.577l11.217-2.349Z" clip-rule="evenodd"/><path fill="#9EB28B" fill-rule="evenodd" d="M641.165 629.355a.805.805 0 0 1-1.605.107l-.72-10.872a.803.803 0 1 1 1.603-.108l.722 10.873ZM648.23 636.178a.803.803 0 0 1 .018 1.607l-9.568.117a.805.805 0 0 1-.018-1.607l9.568-.117Z" clip-rule="evenodd"/><path fill="#A2C043" fill-rule="evenodd" d="M718.057 675.693c-5.333-15.91-16.324-65.598-2.96-78.236 6.328-5.986 10.425-5.214 14.016-13.016 4.324-9.394 5.239-30.5 25.199-29.161 19.961 1.337 4.521 21.381 6.606 30.78 1.528 6.892 10.056 7.554 10.716 19.109 1 17.494-42.545 58.312-53.577 70.524Z" clip-rule="evenodd"/><path fill="#BCD07E" fill-rule="evenodd" d="M721.151 660.959c3.087-16.112 15.617-58.998 27.971-87.786a.69.69 0 0 1 .902-.363.69.69 0 0 1 .363.904c-12.282 28.623-24.788 71.344-27.864 87.392-.356.381-.688.739-.979 1.062a47.548 47.548 0 0 1-.393-1.209Z" clip-rule="evenodd"/><path fill="#BCD07E" fill-rule="evenodd" d="M739.99 577.22a.686.686 0 1 1 1.345-.275l2.591 12.64a.686.686 0 1 1-1.344.277l-2.592-12.642Z" clip-rule="evenodd"/><path fill="#BCD07E" fill-rule="evenodd" d="M752.874 579.79a.687.687 0 0 1 .941 1.003l-9.953 9.374a.682.682 0 0 1-.97-.032.682.682 0 0 1 .031-.97l9.951-9.375ZM731.299 593.33a.688.688 0 1 1 1.232-.605l6.062 12.299a.687.687 0 0 1-1.235.605l-6.059-12.299Z" clip-rule="evenodd"/><path fill="#BCD07E" fill-rule="evenodd" d="M756.614 594.865a.69.69 0 0 1 .926.294.69.69 0 0 1-.294.926l-18.684 9.726a.687.687 0 1 1-.635-1.218l18.687-9.728ZM724.453 604.398a.684.684 0 0 1 .269-.935.686.686 0 0 1 .935.27l8.494 15.356a.688.688 0 1 1-1.205.665l-8.493-15.356Z" clip-rule="evenodd"/><path fill="#BCD07E" fill-rule="evenodd" d="M755.181 607.689a.69.69 0 0 1 .93.289.69.69 0 0 1-.29.93l-21.525 11.307a.689.689 0 0 1-.64-1.218l21.525-11.308ZM725.58 623.582a.684.684 0 0 1 .479-.844c.365-.1.743.116.846.481l3.438 12.436a.687.687 0 0 1-1.324.363l-3.439-12.436Z" clip-rule="evenodd"/><path fill="#BCD07E" fill-rule="evenodd" d="M739.49 625.865a.685.685 0 0 1 .97.032.69.69 0 0 1-.031.972l-9.953 9.373a.688.688 0 1 1-.939-1.003l9.953-9.374Z" clip-rule="evenodd"/><path fill="#708D75" fill-rule="evenodd" d="M712.297 657.907s-37.522 1.601-40.805-14.362c-3.281-15.961-1.621-29.815-8.46-34.074-28.633-17.828-9.363-55.939-8.143-55.788 53.879 6.67 36.331 22.464 46.987 44.608 6.012 12.493 41.338 12.438 10.421 59.616Z" clip-rule="evenodd"/><path fill="#99AD9B" fill-rule="evenodd" d="M709.617 652.159a.699.699 0 0 1 .048.198c-.11.171-.213.336-.327.507 0 0-.429.018-1.188.031a.709.709 0 0 1-.075-.151c-.044-.115-15.277-40.393-43.813-79.819a.823.823 0 1 1 1.336-.966c28.669 39.608 43.975 80.081 44.019 80.2Z" clip-rule="evenodd"/><path fill="#99AD9B" fill-rule="evenodd" d="M660.858 593.994a.826.826 0 0 1 .393-1.603l20.484 5.069a.827.827 0 0 1 .605.998.827.827 0 0 1-.998.605l-20.484-5.069Z" clip-rule="evenodd"/><path fill="#99AD9B" fill-rule="evenodd" d="M684.398 577.022a.826.826 0 0 1 1.629.264l-3.419 20.822a.825.825 0 0 1-1.629-.264l3.419-20.822ZM671.93 614.208a.823.823 0 1 1 .393-1.601l20.482 5.068a.825.825 0 1 1-.393 1.603l-20.482-5.07Z" clip-rule="evenodd"/><path fill="#99AD9B" fill-rule="evenodd" d="M695.772 597.356a.826.826 0 0 1 1.629.264l-3.417 20.823a.826.826 0 0 1-1.628-.266l3.416-20.821ZM682.813 636.068a.822.822 0 0 1-.603-.998.821.821 0 0 1 .996-.603l20.482 5.067a.825.825 0 0 1-.391 1.603l-20.484-5.069Z" clip-rule="evenodd"/><path fill="#99AD9B" fill-rule="evenodd" d="M706.353 619.096a.824.824 0 0 1 .946-.682c.45.073.754.497.682.948l-3.418 20.821a.825.825 0 1 1-1.629-.264l3.419-20.823Z" clip-rule="evenodd"/><path fill="#BDCE60" fill-rule="evenodd" d="M162.997 647.833c18.586-8.838 86.754-19.455 69.732-42.494-10.519-14.241-43.146-12.02-69.732 42.494Z" clip-rule="evenodd"/><path fill="#DBE4AA" fill-rule="evenodd" d="M219.888 611.081a.842.842 0 1 0-.519-1.604c-.07.022-19.045 5.968-47.123 30.589-.51.992-1.02 1.997-1.526 3.033.398-.188.831-.379 1.282-.57 28.53-25.384 47.816-31.426 47.886-31.448Z" clip-rule="evenodd"/><path fill="#DBE4AA" fill-rule="evenodd" d="M209.788 614.186a.844.844 0 0 0-.527 1.602l12.871 4.249a.844.844 0 0 0 .527-1.601l-12.871-4.25Z" clip-rule="evenodd"/><path fill="#DBE4AA" fill-rule="evenodd" d="M208.744 614.498a.844.844 0 1 0 1.616.495l3.393-10.943a.845.845 0 1 0-1.616-.495l-3.393 10.943ZM201.063 619.336a.843.843 0 0 0-.526 1.601l12.871 4.25a.844.844 0 0 0 .526-1.601l-12.871-4.25Z" clip-rule="evenodd"/><path fill="#DBE4AA" fill-rule="evenodd" d="M199.352 619.826a.844.844 0 1 0 1.616.497l3.393-10.945a.847.847 0 0 0-1.618-.496l-3.391 10.944ZM191.53 625.433a.846.846 0 1 0-.487 1.621l11.539 3.479a.85.85 0 0 0 1.055-.567.845.845 0 0 0-.567-1.054l-11.54-3.479Z" clip-rule="evenodd"/><path fill="#DBE4AA" fill-rule="evenodd" d="M190.122 625.801a.843.843 0 0 0 .706.963.847.847 0 0 0 .965-.706l1.742-11.327a.846.846 0 0 0-1.671-.255l-1.742 11.325ZM182.106 632.31a.846.846 0 0 0-.167 1.682l10.013.99a.846.846 0 0 0 .167-1.682l-10.013-.99Z" clip-rule="evenodd"/><path fill="#809E6A" fill-rule="evenodd" d="M101.617 654.888c-19.608-6.246-88.586-7.563-74.831-32.689 8.5-15.53 41.13-17.735 74.831 32.689Z" clip-rule="evenodd"/><path fill="#9EB28B" fill-rule="evenodd" d="M41.693 627.199a.8.8 0 0 1-.672-.914.805.805 0 0 1 .915-.673c.07.011 19.712 2.834 51.125 22.949.471.681.943 1.37 1.414 2.076a36.539 36.539 0 0 0-2.041-.574c-31.235-20.064-50.672-22.853-50.741-22.864Z" clip-rule="evenodd"/><path fill="#9EB28B" fill-rule="evenodd" d="M51.644 628.576a.8.8 0 1 1 .737 1.421l-11.433 5.95a.802.802 0 0 1-1.08-.341.803.803 0 0 1 .343-1.081l11.433-5.949Z" clip-rule="evenodd"/><path fill="#9EB28B" fill-rule="evenodd" d="M52.67 628.708a.804.804 0 0 1-1.44.713l-4.853-9.755a.803.803 0 0 1 1.441-.713l4.853 9.755ZM60.618 632.079a.802.802 0 0 1 .737 1.425l-11.433 5.949a.8.8 0 1 1-.737-1.421l11.433-5.953Z" clip-rule="evenodd"/><path fill="#9EB28B" fill-rule="evenodd" d="M62.297 632.281a.804.804 0 0 1-1.441.711l-4.851-9.755a.803.803 0 0 1 1.441-.713l4.851 9.757ZM70.494 636.35a.806.806 0 0 1 .706 1.447l-10.302 5.022a.806.806 0 0 1-.706-1.447l10.302-5.022Z" clip-rule="evenodd"/><path fill="#9EB28B" fill-rule="evenodd" d="M71.873 636.482a.805.805 0 0 1-1.53.497l-3.36-10.365a.804.804 0 1 1 1.53-.496l3.36 10.364ZM80.39 641.37a.803.803 0 1 1 .413 1.553l-9.247 2.454a.803.803 0 1 1-.413-1.553l9.247-2.454Z" clip-rule="evenodd"/><path fill="#A2C043" fill-rule="evenodd" d="M157.763 662.608c-9.062-14.124-31.871-59.614-22.004-75.137 4.673-7.351 8.832-7.604 10.406-16.048 1.894-10.166-2.379-30.853 17.302-34.439 19.682-3.585 9.612 19.626 13.932 28.231 3.168 6.309 11.599 4.867 15.065 15.908 5.249 16.721-26.993 66.947-34.701 81.485Z" clip-rule="evenodd"/><path fill="#BCD07E" fill-rule="evenodd" d="M157.16 647.565c-.95-16.379.713-61.026 5.65-91.962a.69.69 0 0 1 1.361.213c-4.911 30.76-6.586 75.241-5.647 91.555-.253.457-.486.884-.689 1.269a46.411 46.411 0 0 1-.675-1.075Z" clip-rule="evenodd"/><path fill="#BCD07E" fill-rule="evenodd" d="M154.948 561.762a.687.687 0 1 1 1.236-.597l5.605 11.623a.687.687 0 0 1-1.237.597l-5.604-11.623Z" clip-rule="evenodd"/><path fill="#BCD07E" fill-rule="evenodd" d="M168.07 561.103a.688.688 0 0 1 1.157.741l-7.356 11.525a.687.687 0 0 1-1.159-.743l7.358-11.523ZM150.458 579.509a.687.687 0 0 1 1.047-.889l8.884 10.444a.686.686 0 1 1-1.047.888l-8.884-10.443Z" clip-rule="evenodd"/><path fill="#BCD07E" fill-rule="evenodd" d="M175.38 574.805a.687.687 0 0 1 .914 1.025l-15.74 14.001a.685.685 0 1 1-.911-1.025l15.737-14.001ZM146.528 591.914a.687.687 0 1 1 1.005-.94l11.989 12.812a.687.687 0 1 1-1.003.941l-11.991-12.813Z" clip-rule="evenodd"/><path fill="#BCD07E" fill-rule="evenodd" d="M177.128 587.59a.689.689 0 0 1 .919 1.025l-18.107 16.229a.69.69 0 0 1-.972-.053.69.69 0 0 1 .053-.972l18.107-16.229ZM152.312 610.242a.686.686 0 1 1 1.194-.677l6.377 11.217a.686.686 0 1 1-1.194.676l-6.377-11.216Z" clip-rule="evenodd"/><path fill="#BCD07E" fill-rule="evenodd" d="M166.357 609.053a.687.687 0 1 1 1.159.741l-7.358 11.523a.687.687 0 1 1-1.157-.743l7.356-11.521Z" clip-rule="evenodd"/><path fill="#708D75" fill-rule="evenodd" d="M147.828 646.769s-35.99 10.729-43.077-3.945c-7.087-14.675-8.864-28.515-16.539-30.972-32.123-10.282-22.758-51.95-21.537-52.102 53.874-6.709 40.723 12.896 56.469 31.763 8.884 10.644 43.123 1.953 24.684 55.256Z" clip-rule="evenodd"/><path fill="#99AD9B" fill-rule="evenodd" d="M143.824 641.852c.043.057.074.12.096.182-.066.193-.125.378-.193.574 0 0-.412.121-1.146.319a.764.764 0 0 1-.108-.125c-.072-.104-24.693-35.432-62.004-66.68a.825.825 0 0 1 1.058-1.266c37.485 31.391 62.224 66.894 62.297 66.996Z" clip-rule="evenodd"/><path fill="#99AD9B" fill-rule="evenodd" d="M82.32 597.38a.825.825 0 0 1-.013-1.649l21.1-.097a.824.824 0 1 1 .011 1.65l-21.099.096Z" clip-rule="evenodd"/><path fill="#99AD9B" fill-rule="evenodd" d="M100.993 575.166a.825.825 0 0 1 1.645-.141l1.777 21.025a.825.825 0 0 1-1.643.143l-1.779-21.027ZM97.998 614.273a.826.826 0 0 1-.013-1.651l21.101-.095a.825.825 0 0 1 .012 1.648l-21.1.098Z" clip-rule="evenodd"/><path fill="#99AD9B" fill-rule="evenodd" d="M116.997 592.1a.823.823 0 1 1 1.643-.142l1.779 21.025a.824.824 0 0 1-1.645.142l-1.777-21.025ZM113.899 632.805a.825.825 0 0 1-.013-1.65l21.101-.096a.825.825 0 0 1 .012 1.649l-21.1.097Z" clip-rule="evenodd"/><path fill="#99AD9B" fill-rule="evenodd" d="M132.571 610.592a.825.825 0 0 1 1.643-.141l1.778 21.025a.826.826 0 0 1-1.644.141l-1.777-21.025Z" clip-rule="evenodd"/><path fill="#809E6A" fill-rule="evenodd" d="M400.994 698.642c219.423 0 393.996-1.186 393.996-24.067s-177.878-41.431-397.301-41.431c-219.422 0-397.298 18.55-397.298 41.431 0 22.881 181.181 24.067 400.603 24.067Z" clip-rule="evenodd"/><path fill="#6F8B59" fill-rule="evenodd" d="M400.993 698.642c219.424 0 393.997-1.186 393.997-24.067 0-3.657-4.565-7.203-13.097-10.579-72.701 15.732-78.653 5.572-93.658-2.327-15.694-8.259-41.3-8.259-35.105 6.609 6.195 14.869-18.997 16.107-42.125 12.391-23.127-3.718 1.65-26.432 1.65-26.432s-25.191-.412-27.669 1.24c-2.48 1.651-10.738 17.346-25.194 26.017-14.454 8.675-32.625 4.13-43.776 6.195-11.15 2.066-100.771 1.651-170.154.826-69.383-.826-122.658-28.91-132.984-28.91-10.325 0 0 9.911 1.651 14.454 1.652 4.545-23.127 6.195-36.343 3.718-11.534-2.163-46.029-13.449-66.702-31.936C42.698 653.291.389 663.416.389 674.575c.002 22.881 181.183 24.067 400.604 24.067Z" clip-rule="evenodd"/><path fill="#BDCE60" fill-rule="evenodd" d="M404.48 655.721c-19.49-6.606-88.432-9.183-74.22-34.054 8.783-15.37 41.446-16.977 74.22 34.054Z" clip-rule="evenodd"/><path fill="#DBE4AA" fill-rule="evenodd" d="M343.686 625.871a.842.842 0 0 1-.664-.99.845.845 0 0 1 .991-.664c.071.014 19.611 3.702 50.374 24.874.622.924 1.246 1.865 1.869 2.834a36.358 36.358 0 0 0-1.339-.419c-31.301-21.874-51.161-25.62-51.231-25.635Z" clip-rule="evenodd"/><path fill="#DBE4AA" fill-rule="evenodd" d="M354.078 627.775a.843.843 0 1 1 .708 1.529l-12.284 5.724a.842.842 0 1 1-.71-1.528l12.286-5.725Z" clip-rule="evenodd"/><path fill="#DBE4AA" fill-rule="evenodd" d="M355.151 627.963a.844.844 0 1 1-1.546.683l-4.649-10.474a.845.845 0 1 1 1.546-.681l4.649 10.472ZM363.345 631.868a.843.843 0 0 1 .71 1.53l-12.286 5.725a.843.843 0 0 1-.71-1.529l12.286-5.726Z" clip-rule="evenodd"/><path fill="#DBE4AA" fill-rule="evenodd" d="M365.1 632.158a.842.842 0 0 1-.433 1.113.843.843 0 0 1-1.113-.431l-4.649-10.474a.845.845 0 0 1 1.546-.682l4.649 10.474ZM373.526 636.811a.844.844 0 0 1 1.113.438.841.841 0 0 1-.439 1.111l-11.053 4.804a.844.844 0 0 1-1.113-.439.845.845 0 0 1 .438-1.113l11.054-4.801Z" clip-rule="evenodd"/><path fill="#DBE4AA" fill-rule="evenodd" d="M374.967 637.012a.841.841 0 0 1-.589 1.038.843.843 0 0 1-1.039-.588l-3.054-11.045a.847.847 0 0 1 1.63-.451l3.052 11.046ZM383.69 642.54a.845.845 0 1 1 .363 1.651l-9.829 2.153a.844.844 0 1 1-.363-1.651l9.829-2.153Z" clip-rule="evenodd"/><path fill="#809E6A" fill-rule="evenodd" d="M454.702 660.515c18.744-8.497 87.093-17.865 70.497-41.212-10.257-14.431-42.919-12.805-70.497 41.212Z" clip-rule="evenodd"/><path fill="#9EB28B" fill-rule="evenodd" d="M510.98 626.01a.802.802 0 0 0-.425-1.548c-.068.019-19.246 5.115-48.091 28.765-.389.73-.778 1.471-1.163 2.226.59-.268 1.251-.535 1.958-.805 28.675-23.576 47.653-28.619 47.721-28.638Z" clip-rule="evenodd"/><path fill="#9EB28B" fill-rule="evenodd" d="M501.258 628.539a.801.801 0 0 0-1.034.468.8.8 0 0 0 .466 1.033l12.049 4.572a.8.8 0 0 0 1.033-.466.805.805 0 0 0-.466-1.035l-12.048-4.572Z" clip-rule="evenodd"/><path fill="#9EB28B" fill-rule="evenodd" d="M500.251 628.792a.805.805 0 1 0 1.517.54l3.677-10.256a.804.804 0 1 0-1.515-.539l-3.679 10.255ZM492.754 633.069a.8.8 0 1 0-.565 1.499l12.049 4.572a.799.799 0 0 0 1.033-.466.8.8 0 0 0-.466-1.034l-12.051-4.571Z" clip-rule="evenodd"/><path fill="#9EB28B" fill-rule="evenodd" d="M491.109 633.465a.805.805 0 0 0 1.517.54l3.677-10.258a.805.805 0 0 0-1.515-.539l-3.679 10.257ZM483.445 638.463a.805.805 0 1 0-.532 1.522l10.817 3.786a.807.807 0 0 0 .53-1.522l-10.815-3.786Z" clip-rule="evenodd"/><path fill="#9EB28B" fill-rule="evenodd" d="M482.091 638.756a.804.804 0 1 0 1.577.314l2.126-10.687a.804.804 0 1 0-1.577-.313l-2.126 10.686ZM474.203 644.607a.803.803 0 1 0-.229 1.59l9.472 1.357a.802.802 0 0 0 .908-.682.8.8 0 0 0-.68-.908l-9.471-1.357Z" clip-rule="evenodd"/><path fill="#A2C043" fill-rule="evenodd" d="M410.992 659.459c7.351-15.085 25.101-52.605 13.488-66.868-5.501-6.755-9.662-6.52-12.211-14.721-3.07-9.875-1.242-30.92-21.209-32.182-19.966-1.261-7.251 20.614-10.538 29.667-2.408 6.634-10.949 6.188-13.102 17.559-2.441 12.889 18.184 41.978 32.633 61.466 4.849 6.54 8.59 1.677 10.939 5.079Z" clip-rule="evenodd"/><path fill="#BCD07E" fill-rule="evenodd" d="M410.248 654.775c-.97-16.378-7.84-60.524-16.359-90.67a.691.691 0 0 0-.848-.478.69.69 0 0 0-.478.849c8.471 29.977 15.334 73.956 16.306 90.268.304.425.585.821.834 1.181.174-.358.358-.743.545-1.15Z" clip-rule="evenodd"/><path fill="#BCD07E" fill-rule="evenodd" d="M402.418 569.299a.691.691 0 0 0-.423-.875.69.69 0 0 0-.875.426l-4.207 12.196a.688.688 0 1 0 1.298.449l4.207-12.196Z" clip-rule="evenodd"/><path fill="#BCD07E" fill-rule="evenodd" d="M389.309 570.18a.688.688 0 0 0-1.064.871l8.653 10.584c.24.293.673.337.967.097a.688.688 0 0 0 .095-.967l-8.651-10.585ZM408.949 586.401a.691.691 0 0 0-.19-.953.692.692 0 0 0-.954.19l-7.602 11.413a.688.688 0 0 0 1.145.76l7.601-11.41Z" clip-rule="evenodd"/><path fill="#BCD07E" fill-rule="evenodd" d="M383.647 584.643a.687.687 0 0 0-.786 1.126l17.267 12.066a.687.687 0 0 0 .785-1.125l-17.266-12.067ZM414.303 598.262a.69.69 0 0 0-1.108-.818l-10.41 14.127a.687.687 0 1 0 1.106.816l10.412-14.125Z" clip-rule="evenodd"/><path fill="#BCD07E" fill-rule="evenodd" d="M383.405 597.545a.687.687 0 1 0-.792 1.124l19.879 14.003a.688.688 0 0 0 .792-1.125l-19.879-14.002ZM410.701 617.139a.686.686 0 0 0-1.266-.534l-5.021 11.887a.686.686 0 0 0 1.265.531l5.022-11.884Z" clip-rule="evenodd"/><path fill="#BCD07E" fill-rule="evenodd" d="M396.614 617.6a.688.688 0 1 0-1.064.871l8.655 10.584a.687.687 0 0 0 1.063-.87l-8.654-10.585Z" clip-rule="evenodd"/><path fill="#708D75" fill-rule="evenodd" d="M419.421 652.895s36.999 6.448 42.322-8.954c5.322-15.402 5.471-29.357 12.805-32.693 30.701-13.964 16.531-54.253 15.301-54.26-54.29-.369-38.934 17.566-52.37 38.143-7.578 11.609-42.6 6.979-18.058 57.764Z" clip-rule="evenodd"/><path fill="#99AD9B" fill-rule="evenodd" d="M422.825 647.541a.823.823 0 0 0-.075.191l.26.547s.422.073 1.176.183a.738.738 0 0 0 .094-.137c.058-.111 20.383-38.078 53.785-73.471a.825.825 0 1 0-1.201-1.131c-33.559 35.559-53.98 73.708-54.039 73.818Z" clip-rule="evenodd"/><path fill="#99AD9B" fill-rule="evenodd" d="M478.709 596.186a.825.825 0 0 0-.18-1.64l-20.968 2.371a.825.825 0 0 0 .182 1.642l20.966-2.373Z" clip-rule="evenodd"/><path fill="#99AD9B" fill-rule="evenodd" d="M457.569 576.307a.824.824 0 0 0-1.649.051l.691 21.09a.825.825 0 0 0 1.649-.05l-.691-21.091ZM465.112 614.795a.822.822 0 0 0 .728-.909.822.822 0 0 0-.91-.728l-20.968 2.371a.825.825 0 0 0 .182 1.638l20.968-2.372Z" clip-rule="evenodd"/><path fill="#99AD9B" fill-rule="evenodd" d="M443.654 594.995a.826.826 0 0 0-1.649.052l.692 21.089a.824.824 0 1 0 1.648-.05l-.691-21.091ZM451.487 635.061a.824.824 0 1 0-.184-1.64l-20.966 2.372a.821.821 0 0 0-.728.909.822.822 0 0 0 .91.73l20.968-2.371Z" clip-rule="evenodd"/><path fill="#99AD9B" fill-rule="evenodd" d="M430.346 615.182a.825.825 0 0 0-1.65.05l.691 21.089a.828.828 0 0 0 .851.8.83.83 0 0 0 .8-.851l-.692-21.088Z" clip-rule="evenodd"/><path fill="#6F8B59" fill-rule="evenodd" d="M357.634 656.097h130.918c2.841 0 5.163 2.324 5.163 5.161 0 2.839-2.324 5.161-5.163 5.161H357.634c-2.839 0-5.163-2.324-5.163-5.161 0-2.837 2.324-5.161 5.163-5.161Z" clip-rule="evenodd"/><path fill="#AB5F4B" fill-rule="evenodd" d="M357.634 651.969h130.918c2.841 0 5.163 2.323 5.163 5.161 0 2.839-2.324 5.16-5.163 5.16H357.634c-2.839 0-5.163-2.323-5.163-5.16 0-2.839 2.324-5.161 5.163-5.161Z" clip-rule="evenodd"/><path fill="#B3D4C8" fill-rule="evenodd" d="M285.98 72.738H481.216s-7.462-9.951-13.933-9.951c-.359 0 1.847-6.313 1.402-11.686-1.174-14.113-16.184-13.632-26.282-5.731 0 0 .996-14.43-11.943-15.923-5.019-.58-8.915 2.289-11.803 6.013-2.788-22.026-27.052-21.008-43.481-8.152 0 0 1.653-23.954-19.823-26.431-21.477-2.478-30.562 33.04-30.562 33.04s-13.216-17.347-23.954-9.912c-10.738 7.433 4.955 24.78 4.955 24.78s-27.66 5.782-19.812 23.953ZM77.832 201.593H273.072s-7.464-9.951-13.933-9.951c-.359 0 1.847-6.313 1.401-11.686-1.173-14.113-16.185-13.632-26.281-5.731 0 0 .994-14.43-11.943-15.923-5.02-.58-8.915 2.289-11.804 6.013-2.787-22.024-27.049-21.01-43.478-8.152 0 0 1.652-23.954-19.824-26.431-21.474-2.478-30.56 33.039-30.56 33.039s-13.216-17.346-23.954-9.911c-10.738 7.433 4.956 24.779 4.956 24.779s-27.668 5.781-19.82 23.954ZM489.829 386.613h171.387s-6.551-8.737-12.231-8.737c-.315 0 1.623-5.539 1.231-10.258-1.029-12.389-14.206-11.967-23.07-5.031 0 0 .875-12.665-10.485-13.977-4.405-.508-7.827 2.009-10.36 5.279-2.449-19.334-23.747-18.443-38.168-7.155 0 0 1.451-21.027-17.401-23.202-18.851-2.175-26.829 29.003-26.829 29.003s-11.6-15.228-21.027-8.702c-9.427 6.527 4.35 21.753 4.35 21.753s-24.286 5.076-17.397 21.027Z" clip-rule="evenodd"/><path fill="#0094D1" fill-rule="evenodd" d="M404.106 425.015a.628.628 0 0 0-.71-.042.628.628 0 0 0-.059 1.03c.673.516 1.44.967 2.172 1.4a.626.626 0 1 0 .638-1.077c-.684-.401-1.416-.829-2.041-1.311Zm68.575 81.391c.24.607 1.12.501 1.207-.15.011-.105 0-.2-.039-.298l-.226-.59-.271-.706-.273-.701-.136-.346a.626.626 0 1 0-1.163.462l.134.341.272.697.269.7.226.591Zm-2.315-5.795c.239.564 1.064.484 1.191-.116a.62.62 0 0 0-.039-.371l-.119-.289-.286-.673-.286-.67-.294-.68a.628.628 0 0 0-1.172.064.598.598 0 0 0 .026.44l.29.671.284.664.284.668.121.292Zm-2.512-5.71a.626.626 0 1 0 1.135-.528l-.213-.46-.299-.639-.301-.636-.258-.539c-.284-.582-1.154-.407-1.189.24a.644.644 0 0 0 .061.303l.257.533.297.631.297.637.213.458Zm-2.718-5.615a.627.627 0 0 0 1.115-.569l-.211-.416-.31-.604-.312-.601-.323-.613a.625.625 0 0 0-.937-.2.63.63 0 0 0-.169.789l.318.603.31.596.308.602.211.413Zm-2.931-5.508c.297.53 1.102.369 1.17-.238a.618.618 0 0 0-.075-.373l-.418-.746-.323-.569-.323-.565-.178-.308c-.332-.559-1.179-.317-1.17.332a.651.651 0 0 0 .086.296l.176.306.32.559.32.565.415.741Zm-3.14-5.386c.13.212.378.33.626.291.443-.066.678-.563.443-.946l-.181-.297-.33-.536-.332-.532-.332-.528-.154-.244c-.351-.543-1.191-.271-1.154.378a.6.6 0 0 0 .097.293l.151.241.33.522.328.529.327.531.181.298Zm-3.354-5.257a.627.627 0 0 0 1.04-.697l-.131-.196-.337-.5-.337-.498-.34-.493-.269-.391c-.356-.508-1.152-.249-1.139.371a.59.59 0 0 0 .11.341l.268.387.335.49.336.495.464.691Zm-3.567-5.111a.626.626 0 0 0 1.008-.741l-.267-.367-.345-.464-.341-.46-.345-.459-.202-.269a.627.627 0 1 0-.998.757l.2.266.341.455.342.457.339.458.268.367Zm-3.786-4.955c.411.5 1.216.133 1.106-.505a.61.61 0 0 0-.128-.279l-.237-.297-.345-.427-.346-.426-.347-.421-.31-.376c-.403-.479-1.175-.145-1.106.477a.658.658 0 0 0 .14.322l.308.373.343.42.343.42.344.425.235.294Zm-3.996-4.785c.418.475 1.194.102 1.089-.519a.627.627 0 0 0-.145-.305l-.361-.413-.345-.392-.344-.389-.347-.385-.271-.303a.632.632 0 0 0-.65-.177.628.628 0 0 0-.277 1.019l.27.299.341.382.345.385.341.389.354.409Zm-4.204-4.598c.422.433 1.15.08 1.071-.525a.66.66 0 0 0-.168-.345l-.262-.271-.345-.356-.343-.354-.345-.348-.464-.47a.625.625 0 1 0-.888.882l.457.464.341.349.341.348.343.352.262.274Zm-4.412-4.404c.29.275.763.209.968-.134a.62.62 0 0 0-.108-.774l-.587-.559-.339-.317-.338-.314-.574-.53a.627.627 0 0 0-.847.923l.569.524.333.312.336.314.587.555Zm-4.607-4.194c.468.402 1.175-.046 1.012-.644a.635.635 0 0 0-.192-.304l-.6-.517a87.131 87.131 0 0 0-1.317-1.115c-.499-.411-1.216.108-.981.715a.609.609 0 0 0 .181.247c.635.532 1.268 1.073 1.897 1.618Zm-4.8-3.976c.486.376 1.17-.092.981-.692a.613.613 0 0 0-.207-.293c-.656-.519-1.32-1.033-1.988-1.541a.627.627 0 0 0-1.003.444.626.626 0 0 0 .248.554c.66.503 1.316 1.012 1.969 1.528Zm-4.979-3.749a.625.625 0 0 0 .554.088.629.629 0 0 0 .176-1.108 165.06 165.06 0 0 0-2.058-1.447.626.626 0 0 0-.71 1.033c.683.471 1.363.948 2.038 1.434Zm-5.148-3.516a.633.633 0 0 0 .631.032.627.627 0 0 0 .051-1.081c-.704-.456-1.41-.908-2.12-1.353a.629.629 0 0 0-.616-.028.628.628 0 0 0-.048 1.09c.704.442 1.405.887 2.102 1.34Zm-5.299-3.292c.532.316 1.152-.251.884-.81a.618.618 0 0 0-.243-.263 226.64 226.64 0 0 0-2.166-1.272c-.538-.307-1.147.26-.879.818.057.115.138.2.25.266.72.416 1.441.834 2.154 1.261ZM398.186 429.66c-.514-.359-1.18.171-.941.752a.63.63 0 0 0 .214.27c.677.482 1.346.97 2.01 1.469a.624.624 0 0 0 .745.005.627.627 0 0 0 .007-1.006 97.145 97.145 0 0 0-2.035-1.49Zm48.138 101.485a.623.623 0 0 0 .464.513.624.624 0 0 0 .774-.698l-.055-.382-.126-.831-.127-.827-.068-.44c-.095-.592-.889-.724-1.173-.193a.617.617 0 0 0-.065.389l.068.437.127.823.125.829.056.38Zm-.981-6.17a.626.626 0 0 0 1.234-.211l-.121-.715-.137-.798-.171-.961a.627.627 0 0 0-1.232.222l.169.957.137.795.121.711Zm-1.113-6.147a.625.625 0 0 0 1.229-.237l-.154-.792-.149-.763-.183-.91a.626.626 0 1 0-1.227.251l.181.903.149.759.154.789Zm-1.247-6.12c.11.524.794.671 1.117.234.106-.143.141-.328.106-.5l-.136-.62-.159-.728-.163-.725-.087-.379c-.133-.578-.918-.666-1.181-.12a.637.637 0 0 0-.04.4l.086.376.162.721.159.724.136.617Zm-1.4-6.088c.162.637 1.059.635 1.218-.003a.61.61 0 0 0-.002-.294l-.221-.907-.173-.692-.211-.838a.63.63 0 0 0-.51-.464.628.628 0 0 0-.702.776l.209.831.172.687.22.904Zm-1.555-6.048a.625.625 0 1 0 1.207-.33l-.248-.904-.183-.655-.242-.86a.63.63 0 0 0-.587-.455.626.626 0 0 0-.616.798l.24.853.182.651.247.902Zm-1.724-6.001c.189.605 1.049.585 1.209-.035a.607.607 0 0 0-.011-.33l-.189-.629-.191-.62-.192-.618-.169-.534c-.176-.561-.967-.586-1.181-.038a.638.638 0 0 0-.015.416l.169.532.191.613.19.616.189.627Zm-1.903-5.944c.178.53.922.574 1.161.066a.637.637 0 0 0 .027-.468l-.231-.678-.2-.581-.2-.58-.187-.536a.632.632 0 0 0-.568-.418.629.629 0 0 0-.615.835l.187.532.2.574.198.577.228.677Zm-2.097-5.876a.625.625 0 1 0 1.17-.444l-.157-.42-.209-.546-.208-.543-.326-.837a.627.627 0 0 0-1.166.461l.115.293.207.536.206.537.207.543.161.42Zm-2.305-5.797a.626.626 0 0 0 1.154-.488l-.165-.393-.215-.506-.215-.502-.216-.499-.178-.407a.627.627 0 1 0-1.148.502l.176.402.215.497.214.499.213.504.165.391Zm-2.524-5.704a.628.628 0 0 0 1.137-.53l-.24-.508-.22-.466-.222-.464-.222-.46-.181-.371a.628.628 0 0 0-1.168.11.612.612 0 0 0 .042.439l.179.366.22.457.221.459.218.464.236.504Zm-2.762-5.588a.627.627 0 0 0 1.11-.582l-.356-.682-.227-.425-.226-.42-.376-.692c-.295-.53-1.089-.379-1.17.224a.615.615 0 0 0 .072.378l.372.684.224.418.223.42.222.422.132.255Zm-3.015-5.451c.321.543 1.154.325 1.167-.308a.638.638 0 0 0-.086-.326l-.268-.453-.228-.386-.229-.381-.227-.378-.345-.563c-.327-.521-1.122-.317-1.159.299a.62.62 0 0 0 .093.358l.34.555.451.75.225.382.266.451Zm-3.284-5.291a.626.626 0 0 0 1.043-.691l-.372-.565-.457-.679c-.192-.28-.385-.565-.578-.845a.626.626 0 1 0-1.028.715l.346.502.226.331.225.335c.197.299.398.596.595.897Zm-3.571-5.099a.627.627 0 0 0 1.003-.75c-.425-.57-.858-1.137-1.295-1.702l-.235-.3a.627.627 0 1 0-.983.775l.452.58.443.58c.206.273.411.544.615.817Zm-3.872-4.872a.627.627 0 0 0 .956-.811 103.983 103.983 0 0 0-1.658-1.902.63.63 0 0 0-.725-.15.624.624 0 0 0-.207.988 84.601 84.601 0 0 1 1.634 1.875Zm-4.183-4.596a.627.627 0 0 0 .897-.877 77.1 77.1 0 0 0-1.79-1.781c-.459-.436-1.203.004-1.036.62.033.114.086.2.168.282a74.764 74.764 0 0 1 1.761 1.756Zm-4.503-4.283a.627.627 0 0 0 .828-.941 73.052 73.052 0 0 0-1.921-1.637c-.482-.395-1.183.077-.994.675a.618.618 0 0 0 .197.291c.64.528 1.271 1.064 1.89 1.612ZM389.316 434.267c-.416-.471-1.184-.111-1.091.51.02.119.066.218.147.312.539.622 1.06 1.258 1.561 1.909.381.492 1.166.191 1.12-.431a.624.624 0 0 0-.128-.332 42.587 42.587 0 0 0-1.609-1.968Zm20.184 80.319c.029.559.737.797 1.1.372a.615.615 0 0 0 .15-.444c-.047-.834-.099-1.669-.15-2.503-.042-.609-.836-.807-1.161-.285a.623.623 0 0 0-.09.365c.051.831.103 1.664.151 2.495Zm-.408-6.236a.627.627 0 0 0 1.249-.095c-.062-.833-.124-1.668-.192-2.5-.057-.638-.915-.794-1.191-.217a.61.61 0 0 0-.056.318c.067.831.13 1.661.19 2.494Zm-.509-6.232a.628.628 0 0 0 1.248-.115c-.077-.833-.155-1.666-.238-2.498-.062-.596-.84-.774-1.157-.265a.62.62 0 0 0-.088.387c.08.831.159 1.662.235 2.491Zm-.628-6.217a.627.627 0 0 0 1.246-.14c-.092-.832-.187-1.663-.287-2.494a.627.627 0 0 0-1.243.151c.103.827.193 1.657.284 2.483Zm-.755-6.201c.086.609.9.745 1.181.196a.615.615 0 0 0 .06-.363c-.11-.829-.225-1.658-.344-2.485a.626.626 0 0 0-1.24.178c.119.822.233 1.649.343 2.474Zm-.903-6.181c.098.597.901.725 1.178.186.06-.12.08-.252.06-.384-.132-.825-.267-1.65-.411-2.477-.11-.62-.959-.712-1.197-.127a.648.648 0 0 0-.037.338c.141.821.277 1.643.407 2.464Zm-1.069-6.151c.121.62.976.697 1.205.096a.63.63 0 0 0 .026-.331c-.156-.821-.316-1.645-.483-2.466a.627.627 0 0 0-1.227.251c.167.816.325 1.634.479 2.45Zm-1.26-6.111a.628.628 0 0 0 .206.34.628.628 0 0 0 1.016-.617c-.184-.818-.375-1.634-.569-2.448a.627.627 0 1 0-1.218.292c.195.812.384 1.621.565 2.433Zm-1.482-6.057a.626.626 0 0 0 1.211-.323 142.53 142.53 0 0 0-.67-2.427.625.625 0 0 0-1.203.345c.228.8.45 1.601.662 2.405Zm-1.74-5.983a.626.626 0 0 0 1.19-.381c-.255-.802-.517-1.596-.789-2.392-.212-.601-1.076-.546-1.206.084a.621.621 0 0 0 .022.323c.271.785.53 1.574.783 2.366Zm-2.052-5.876a.625.625 0 0 0 1.168-.449 88.502 88.502 0 0 0-.935-2.342.631.631 0 0 0-.553-.386.629.629 0 0 0-.605.868c.319.765.627 1.535.925 2.309Zm-2.429-5.72a.627.627 0 0 0 1.134-.534 65.137 65.137 0 0 0-1.113-2.267.627.627 0 0 0-1.116.571c.378.735.747 1.478 1.095 2.23Zm-2.885-5.489c.301.508 1.083.35 1.16-.239a.632.632 0 0 0-.083-.402 57.005 57.005 0 0 0-1.335-2.153.627.627 0 0 0-1.047.688c.451.693.886 1.396 1.305 2.106Z" clip-rule="evenodd"/><path fill="#AB5F4B" fill-rule="evenodd" d="M559.666 655.329c-13.713 14.22-31.274 17.344-28.444 25.422 2.83 8.079 18.922 9.798 35.941 3.835 17.018-5.962 28.521-17.344 25.691-25.423-2.83-8.082-19.474-18.057-33.188-3.834ZM694.076 655.329c13.715 14.22 31.275 17.344 28.445 25.422-2.831 8.079-18.921 9.798-35.941 3.835-17.019-5.962-28.522-17.344-25.69-25.423 2.829-8.082 19.471-18.057 33.186-3.834Z" clip-rule="evenodd"/><path fill="#5A6074" fill-rule="evenodd" d="M551.037 654.008c1.474 9.227 72.969 10.771 77.787.886 3.505-7.191-14.039-99.197-3.497-206.679 2.888 83.346 11.598 198.694 16.687 206.382 7.217 10.907 83.577 7.558 74.101-18.549-13.262-36.537-35.246-260.474-35.246-260.474-19.326-27.607-37.052-28.084-47.286-15.914-10.941-9.487-40.467-2.322-54.725 16.165-9.887 12.82-33.723 241.261-27.821 278.183Z" clip-rule="evenodd"/><path fill="#E4B095" fill-rule="evenodd" d="M720.458 259.045c-6.32-4.587-15.336.448-20.315 4.288-13.412 17.992 13.892 32.862 17.966 43.935 3.631 9.876-23.641 53.891-22.027 69.832 1.176 6.485 3.393 3.306 8.499 1.036 6.758-3.004 38.158-42.906 42.773-67.497 2.978-15.871-17.779-44.979-26.896-51.594ZM581.51 287.056c9.522-9.79-17.459-34.716-19.796-32.315-.088.091-18.518 30.67-33.668 20.13-14.379-15.481-17.548-34.687-22.841-53.837-3.897-14.102-12.563-10.443-13.541 1.128-2.156 25.465 9.249 71.757 28.969 81.055 26.11 12.312 60.767-16.049 60.877-16.161Z" clip-rule="evenodd"/><path fill="#D78271" fill-rule="evenodd" d="M645.132 209.854c42.263 3.664 70.977 35.403 81.97 58.93 3.344 7.154-21.149 29.452-37.32 32.529.699 20.385-7.869 43.472-8.746 61.054-.684 13.744 6.971 24.127 3.402 27.23-18.05 15.69-93 11.706-113.482-1.495-1.763-1.135 8.233-17.293 8.08-25.726-.372-20.643-3.55-47.519-3.185-62.996-4.189-4.766-28.523-29.1-25.66-32.896 17.058-22.602 49.157-60.599 94.941-56.63Z" clip-rule="evenodd"/><path fill="#D78271" fill-rule="evenodd" d="M575.895 299.393c-4.202-4.699-28.563-29.115-25.702-32.909 10.389-13.772 26.366-33.258 47.62-45.483-12.24 21.221-21.92 78.438-21.918 78.392Z" clip-rule="evenodd"/><path fill="#CD7C6C" fill-rule="evenodd" d="M576.14 299.732c-1.702-1.901-6.954-7.376-12.119-13.067l20.13-21.999c-4.488 18.584-8.011 35.092-8.011 35.066Z" clip-rule="evenodd"/><path fill="#D78271" fill-rule="evenodd" d="M675.677 219.014c15.868 3.267 45.903 29.882 53.857 46.901 3.337 7.144-25.437 33.797-41.059 35.556-.235-3.639-2.878-41.947-12.798-82.457Z" clip-rule="evenodd"/><path fill="#CD7C6C" fill-rule="evenodd" d="M701.155 296.926c-4.297 2.407-8.057 3.705-11.369 4.393-.746-1.99-3.894-13.212-4.447-31.593l15.816 27.2Z" clip-rule="evenodd"/><path fill="#C35334" d="M666.966 125.576c7.05 0 12.766-5.833 12.766-13.027 0-7.195-5.716-13.027-12.766-13.027-7.051 0-12.767 5.832-12.767 13.027 0 7.194 5.716 13.027 12.767 13.027Z"/><path fill="#C35334" fill-rule="evenodd" d="M608.63 137.941c-1.766 14.033 22.054 42.121 40.847 46.367 21.228 4.794 42.196-42.804 20.034-64.852-19.513-19.417-57.138-11.254-60.881 18.485Z" clip-rule="evenodd"/><path fill="#D5987B" fill-rule="evenodd" d="M666.788 128.607a.41.41 0 1 1 .662.49c-.015.02-4.906 6.72-17.731 15.439a.41.41 0 0 1-.571-.11.414.414 0 0 1 .11-.573c12.704-8.636 17.515-15.227 17.53-15.246ZM668.288 137.117a.412.412 0 0 1 .816.11c-.783 5.709-5.078 11.521-9.241 17.155l-.567.767a.407.407 0 0 1-.574.084.408.408 0 0 1-.086-.575l.566-.767c4.103-5.548 8.332-11.274 9.086-16.774ZM657.282 115.531a.411.411 0 1 1-.077.82c-.038-.004-13.471-1.449-23.486 11.035a.411.411 0 1 1-.64-.517c10.296-12.835 24.165-11.344 24.203-11.338ZM659.672 118.084a.416.416 0 0 1 .583.04.416.416 0 0 1-.04.582c-.032.027-10.715 9.346-15.294 13.958a.412.412 0 1 1-.583-.581c4.618-4.651 15.302-13.972 15.334-13.999Z" clip-rule="evenodd"/><path fill="#D5987B" fill-rule="evenodd" d="M654.599 112.518a.411.411 0 0 1 .326.482.41.41 0 0 1-.482.328c-.073-.014-25.722-5.23-34.868 17.851a.41.41 0 1 1-.765-.303c9.403-23.725 35.712-18.373 35.789-18.358Z" clip-rule="evenodd"/><path fill="#729FA3" fill-rule="evenodd" d="M672.369 169.396c3.631-6.509 6.059-14.427 6.519-22.368-5.003-13.726-14.71-41.017-46.893-36.429-7.514 2.295-14.197 6.92-18.527 13.697 33.342-17.372 63.548 15.352 58.901 45.1Z" clip-rule="evenodd"/><path fill="#D5987B" fill-rule="evenodd" d="M673.291 106.941a.411.411 0 0 1-.594.572c-.009-.009-3.454-3.621-4.743-2.792-.082.054-.059.222.039.461.137.343.423.761.807 1.201.401.46.896.935 1.439 1.368 1.671 1.337 3.791 2.362 4.86 1.524.22-.172.352-.376.407-.599.114-.466-.075-1.053-.471-1.677-.427-.677-1.095-1.377-1.887-2.006-1.566-1.242-3.609-2.205-5.33-2.205a.41.41 0 0 1 0-.823c1.917 0 4.153 1.04 5.843 2.382.866.686 1.596 1.455 2.073 2.21.512.805.744 1.61.574 2.311a1.904 1.904 0 0 1-.701 1.055c-1.436 1.126-3.957.007-5.879-1.53a11.897 11.897 0 0 1-1.55-1.469c-.442-.506-.778-1.001-.95-1.432-.259-.631-.2-1.156.28-1.466 1.864-1.197 5.77 2.902 5.783 2.915Z" clip-rule="evenodd"/><path fill="#E4B095" fill-rule="evenodd" d="M655.037 213.503c7.456 20.673-48.063 35.763-38.688 8.182 1.942-5.71 5.656-14.177 6.68-29.533 1.437-21.627 15.077-20.765 23.387-19.338 14.409 2.474 1.196 20.095 8.621 40.689Z" clip-rule="evenodd"/><path fill="#D38078" fill-rule="evenodd" d="M620.905 207.106c.865-3.954 1.836-9.386 2.204-14.952 1.132-16.992 9.794-20.101 17.484-19.96 3.897.486 8.168 2.654 12.808 7.111.499 3.037-.139 7.739-.524 12.286-9.315 15.891-20.446 17.278-31.972 15.515Z" clip-rule="evenodd"/><path fill="#E0AB8E" fill-rule="evenodd" d="M663.248 157.133s1.662-2.679 3.167-3.27c3.36-1.318 7.995-.034 6.141 9.376-2.685 13.623-19.479 11.05-9.308-6.106Z" clip-rule="evenodd"/><path fill="#E4B095" fill-rule="evenodd" d="M608.575 138.99c-3.92 14.301-8.576 54.853 19.691 57.853 24.328 2.583 35.055-18.897 35.866-37.846.141-3.323-3.325 4.686-3.774 1.661-.488-3.277-.82-9.65-1.865-15.436-1.105-6.104-9.079-14.982-14.592-17.167-14.459-5.735-31.792-1.966-35.326 10.935Z" clip-rule="evenodd"/><path fill="#5C474C" fill-rule="evenodd" d="M644.165 153.717a.584.584 0 0 1 .892.753c-.015.019-5.194 6.262-10.031.387a.586.586 0 0 1 .079-.821.584.584 0 0 1 .822.081c3.936 4.781 8.225-.386 8.238-.4ZM622.344 155.962a.587.587 0 0 1 .824-.07.585.585 0 0 1 .068.823c-.015.019-5.196 6.262-10.031.387a.583.583 0 0 1 .901-.741c3.936 4.783 8.225-.385 8.238-.399ZM639.148 175.081a.581.581 0 0 1 .81-.154.581.581 0 0 1 .154.812c-.022.032-7.547 11.261-17.542 5.271a.58.58 0 0 1-.2-.799.58.58 0 0 1 .798-.2c9.041 5.416 15.959-4.903 15.98-4.93ZM610.955 146.485c1.224-2.776 5.792-5.335 9.097-4.233 4.192 1.398 3.785 2.26.196 2.993-3.512.719-9.084 1.73-9.293 1.24Z" clip-rule="evenodd"/><path fill="#DA8D73" fill-rule="evenodd" d="M648.141 158.903a5.187 5.187 0 1 0-3.227 9.86 5.187 5.187 0 0 0 3.227-9.86ZM614.453 160.532a5.187 5.187 0 1 0-3.224 9.86 5.187 5.187 0 0 0 3.224-9.86Z" clip-rule="evenodd"/><path fill="#729FA3" fill-rule="evenodd" d="M488.838 252.993c-1.744-3.675 1.332-30.701 1.567-37.265 1.225-33.852 15.2-36.365 20.81-30.162 4.185 4.627 1.7 10.998-3.373 29.582-.625 2.291 10.801 28.328 10.392 33.124-.485 5.682-27.045 9.667-29.396 4.721Z" clip-rule="evenodd"/><path fill="#587D84" fill-rule="evenodd" d="M509.376 209.597c-.479 1.72-.991 3.565-1.534 5.551-.282 1.038 1.908 6.951 4.351 13.555a34.77 34.77 0 0 1-2.06-.768c-9.086-3.718-17.141-8.673-15.695-21.063 0 0 8.165 1.45 14.938 2.725Z" clip-rule="evenodd"/><path fill="#7E7F51" fill-rule="evenodd" d="M536.071 145.337a.584.584 0 0 1 .732.91c-.081.066-28.104 21.911-43.813 96.083a.586.586 0 0 1-.693.451.587.587 0 0 1-.451-.693c15.798-74.581 44.144-96.685 44.225-96.751Z" clip-rule="evenodd"/><path fill="#A5B53E" fill-rule="evenodd" d="m533.491 149.282.009.002c2.817.409 5.904-.956 8.644-3.052 2.059-1.575 3.93-3.565 5.333-5.515 1.421-1.973 2.38-3.924 2.595-5.386.119-.824.011-1.517-.371-2.016-.57-.742-1.652-.922-3.018-.658-1.486.288-3.351 1.108-5.227 2.287-1.864 1.172-3.743 2.7-5.275 4.416-2.615 2.931-4.22 6.414-3.042 9.636a.441.441 0 0 0 .352.286ZM534.909 154.247c-2.75-.092-5.482.289-7.927 1.493-.016.009-.033.016-.046.027a.441.441 0 0 0-.126.611c4.841 7.404 13.784 7.743 19.739 6.481 1.599-.339 2.987-.796 4.024-1.262 1.104-.497 1.843-1.034 2.067-1.492.172-.351.132-.668-.145-.93l-.033-.033c-.571-.499-1.796-1.057-3.276-1.603-1.957-.721-4.39-1.438-6.32-1.964-2.492-.681-5.232-1.237-7.957-1.328Z" clip-rule="evenodd"/><path fill="#8E9B39" fill-rule="evenodd" d="M520.917 165.328c.029-.268.699-7.257-8.156-11.087a26.32 26.32 0 0 1-.66-.302c-1.99-.923-7.529-3.494-8.231-3.353h-.002c-.319.064-.455.251-.391.574.186.915 1.088 4.816 3.606 8.352 2.544 3.569 6.716 6.769 13.432 6.219a.443.443 0 0 0 .402-.403Z" clip-rule="evenodd"/><path fill="#A5B53E" fill-rule="evenodd" d="M520.968 166.023c.009-.018 3.234-6.485-3.943-13.194l-.519-.51c-1.562-1.54-5.915-5.825-6.624-5.927-.321-.048-.512.084-.562.409-.133.924-.597 4.9.584 9.076 1.19 4.217 4.045 8.635 10.554 10.381a.44.44 0 0 0 .51-.235ZM527.644 170.153c-9.39-1.146-12.413 4.955-12.631 5.425a.44.44 0 0 0 .136.57c5.517 3.866 10.736 3.215 14.732 1.42 3.962-1.779 6.709-4.688 7.333-5.383.218-.246.194-.477-.046-.693-.536-.479-6.615-1.06-8.8-1.267a31.344 31.344 0 0 1-.724-.072ZM511.67 182.481c1.161-2.602.68-5.948-.596-9.155-.959-2.41-2.37-4.748-3.866-6.628-1.515-1.904-3.133-3.355-4.482-3.954-.76-.34-1.457-.422-2.04-.189-.871.346-1.337 1.342-1.452 2.729-.123 1.509.161 3.526.788 5.648.622 2.106 1.587 4.331 2.825 6.273 2.112 3.312 5.032 5.799 8.452 5.54a.454.454 0 0 0 .371-.264Z" clip-rule="evenodd"/><path fill="#7E7F51" fill-rule="evenodd" d="M521.197 150.705a.585.585 0 0 1 1.033.545c-.083.156-28.898 54.167-15.255 76.206a.583.583 0 1 1-.992.615c-14.001-22.617 15.13-77.21 15.214-77.366Z" clip-rule="evenodd"/><path fill="#D47A66" fill-rule="evenodd" d="M521.617 151.38c.008-.042 1.985-14.692-3.578-14.246-2.934.236-3.224 2.316-2.21 5.228.919 2.634 2.964 5.998 4.98 9.196a.44.44 0 0 0 .808-.178Z" clip-rule="evenodd"/><path fill="#B16658" fill-rule="evenodd" d="M521.374 150.929c-.562-.315-12.908-7.189-14.531-1.975-.877 2.808.948 3.851 4.025 3.996 2.79.13 6.673-.513 10.39-1.192.24-.042.4-.271.354-.512a.43.43 0 0 0-.238-.317Z" clip-rule="evenodd"/><path fill="#D47A66" fill-rule="evenodd" d="M521.227 150.885c-.04-.005-14.738-1.608-14.151 3.941.31 2.926 2.399 3.164 5.283 2.075 2.614-.987 5.922-3.118 9.066-5.211a.44.44 0 0 0-.198-.805Z" clip-rule="evenodd"/><path fill="#D47A66" fill-rule="evenodd" d="M520.765 151.175c-.015.04-5.018 13.951.513 14.681 2.918.385 3.637-1.588 3.255-4.649-.346-2.768-1.643-6.485-2.941-10.034a.443.443 0 0 0-.565-.262.449.449 0 0 0-.262.264Z" clip-rule="evenodd"/><path fill="#D47A66" fill-rule="evenodd" d="M520.754 151.435c.011.042 3.728 14.349 8.707 11.831 2.625-1.327 2.104-3.363.063-5.674-1.851-2.094-5.016-4.431-8.088-6.626a.44.44 0 0 0-.682.469Z" clip-rule="evenodd"/><path fill="#D47A66" fill-rule="evenodd" d="M521.016 151.732c.07.03 13.704 5.653 14.687.167.519-2.897-1.418-3.706-4.494-3.468-2.787.217-6.556 1.337-10.16 2.472a.44.44 0 0 0-.286.552c.038.132.136.23.253.277Z" clip-rule="evenodd"/><path fill="#D47A66" fill-rule="evenodd" d="M521.395 151.708c.039-.02 12.97-7.181 9.29-11.379-1.941-2.212-3.78-1.202-5.513 1.353-1.565 2.307-3.039 5.957-4.402 9.482a.441.441 0 0 0 .625.544Z" clip-rule="evenodd"/><path fill="#BF4B18" fill-rule="evenodd" d="M521.759 149.576a2.092 2.092 0 0 0-1.552.154 1.942 1.942 0 0 0-.977 1.188 1.96 1.96 0 0 0 .199 1.526c.261.444.694.796 1.235.952a2.094 2.094 0 0 0 1.551-.154c.464-.244.826-.661.978-1.191.15-.53.064-1.074-.2-1.526a2.1 2.1 0 0 0-1.234-.949Z" clip-rule="evenodd"/><path fill="#7E7F51" fill-rule="evenodd" d="M501.051 171.307a.533.533 0 1 1 .957-.472c.031.061 10.476 20.89 4.33 35.936-1.142 2.798-2.314 5.205-3.429 7.497-4.862 9.988-8.679 17.827-2.616 42.481a.536.536 0 0 1-.392.646.537.537 0 0 1-.646-.391c-6.156-25.031-2.265-33.021 2.693-43.204 1.12-2.305 2.3-4.726 3.405-7.429 5.961-14.595-4.275-35.004-4.302-35.064Z" clip-rule="evenodd"/><path fill="#C98583" fill-rule="evenodd" d="M500.741 167.547c-.011-.04-3.89-14.305-8.842-11.729-2.61 1.359-2.067 3.388 0 5.675 1.871 2.069 5.066 4.37 8.165 6.534a.44.44 0 0 0 .613-.11.447.447 0 0 0 .064-.37Z" clip-rule="evenodd"/><path fill="#D47A66" fill-rule="evenodd" d="M500.339 167.224c-.638-.073-14.688-1.601-14.154 3.835.286 2.927 2.371 3.18 5.265 2.115 2.619-.965 5.944-3.07 9.106-5.141a.44.44 0 0 0-.217-.809Z" clip-rule="evenodd"/><path fill="#C98583" fill-rule="evenodd" d="M500.187 167.242c-.038.011-14.202 4.255-11.499 9.137 1.423 2.575 3.439 1.981 5.672-.144 2.027-1.926 4.246-5.176 6.324-8.33a.442.442 0 0 0-.125-.611.448.448 0 0 0-.372-.052Z" clip-rule="evenodd"/><path fill="#C98583" fill-rule="evenodd" d="M500.268 167.457c-.031.029-10.94 10.008-6.382 13.231 2.402 1.698 3.957.287 5.045-2.597.987-2.616 1.57-6.506 2.074-10.251a.44.44 0 0 0-.379-.495.446.446 0 0 0-.358.112Z" clip-rule="evenodd"/><path fill="#C98583" fill-rule="evenodd" d="M499.875 167.69c.002.042.806 14.804 6.186 13.324 2.838-.781 2.733-2.879 1.189-5.55-1.396-2.413-4.035-5.335-6.614-8.099a.44.44 0 0 0-.761.325Z" clip-rule="evenodd"/><path fill="#C98583" fill-rule="evenodd" d="M499.965 167.934c.028.033 9.02 11.767 12.626 7.51 1.901-2.245.631-3.917-2.15-5.252-2.52-1.211-6.345-2.132-10.03-2.957a.44.44 0 0 0-.446.699Z" clip-rule="evenodd"/><path fill="#AB7474" fill-rule="evenodd" d="M500.323 168.104c.075-.001 14.82-.124 13.592-5.56-.65-2.87-2.75-2.863-5.488-1.445-2.481 1.283-5.52 3.785-8.398 6.23a.439.439 0 0 0 .294.775Z" clip-rule="evenodd"/><path fill="#C98583" fill-rule="evenodd" d="M500.387 168.214c.073.021 14.29 3.938 14.597-1.628.163-2.938-1.862-3.507-4.882-2.892-2.74.555-6.346 2.129-9.783 3.693a.44.44 0 0 0 .068.827Z" clip-rule="evenodd"/><path fill="#C98583" fill-rule="evenodd" d="M500.662 167.936c.028-.033 9.154-11.663 4.132-14.096-2.646-1.282-3.952.365-4.552 3.391-.543 2.734-.482 6.67-.365 10.45a.44.44 0 0 0 .785.255Z" clip-rule="evenodd"/><path fill="#924A4A" fill-rule="evenodd" d="M500.167 165.828a2.096 2.096 0 0 0-1.368.747 1.947 1.947 0 0 0-.437 1.476 1.94 1.94 0 0 0 .778 1.328c.413.308.948.464 1.508.396a2.103 2.103 0 0 0 1.368-.746 1.932 1.932 0 0 0-.343-2.804 2.087 2.087 0 0 0-1.506-.397Z" clip-rule="evenodd"/><path fill="#7E7F51" fill-rule="evenodd" d="M511.895 134.133a.584.584 0 0 1 1.148-.216c2.805 14.932 1.268 32.533-3.306 49.393-4.758 17.54-12.805 34.296-22.676 46.42a.583.583 0 1 1-.904-.737c9.762-11.996 17.735-28.597 22.452-45.991 4.53-16.7 6.058-34.118 3.286-48.869Z" clip-rule="evenodd"/><path fill="#D47A66" fill-rule="evenodd" d="M513.64 134.518c-.004-.042-1.15-14.782-6.496-13.175-2.817.847-2.663 2.942-1.06 5.575 1.45 2.381 4.159 5.24 6.802 7.943a.44.44 0 0 0 .754-.343Z" clip-rule="evenodd"/><path fill="#DFA2A0" fill-rule="evenodd" d="M513.471 134.537c-.018-.039-5.979-13.566-10.492-10.28-2.379 1.731-1.541 3.657.845 5.612 2.159 1.768 5.66 3.567 9.049 5.244a.44.44 0 0 0 .598-.576Z" clip-rule="evenodd"/><path fill="#D47A66" fill-rule="evenodd" d="M513.308 134.128c-.615-.191-14.131-4.316-14.625 1.124-.264 2.929 1.737 3.567 4.778 3.059 2.753-.458 6.413-1.905 9.905-3.349a.44.44 0 0 0-.058-.834Z" clip-rule="evenodd"/><path fill="#DFA2A0" fill-rule="evenodd" d="M513.152 134.117c-.041.005-14.747 1.527-13.007 6.83.919 2.795 3.01 2.587 5.603.917 2.348-1.515 5.135-4.292 7.767-7.001a.438.438 0 0 0-.011-.623.43.43 0 0 0-.352-.123Z" clip-rule="evenodd"/><path fill="#D47A66" fill-rule="evenodd" d="M513.192 134.344c-.037.022-12.616 7.787-8.745 11.804 2.044 2.118 3.837 1.023 5.444-1.61 1.456-2.385 2.758-6.099 3.952-9.682a.441.441 0 0 0-.651-.512Z" clip-rule="evenodd"/><path fill="#DFA2A0" fill-rule="evenodd" d="M512.763 134.498c-.006.041-1.972 14.694 3.589 14.245 2.934-.239 3.222-2.32 2.204-5.231-.918-2.633-2.967-5.995-4.984-9.192a.441.441 0 0 0-.607-.137.425.425 0 0 0-.2.315h-.002Z" clip-rule="evenodd"/><path fill="#D47A66" fill-rule="evenodd" d="M512.805 134.753c.02.039 6.663 13.245 11 9.737 2.287-1.851 1.352-3.731-1.129-5.561-2.251-1.658-5.836-3.279-9.3-4.777a.441.441 0 0 0-.571.601Z" clip-rule="evenodd"/><path fill="#DFA2A0" fill-rule="evenodd" d="M513.055 134.887c.075-.007 14.758-1.363 13.08-6.678-.886-2.806-2.979-2.622-5.59-.981-2.366 1.488-5.185 4.233-7.848 6.911a.44.44 0 0 0 .358.748Z" clip-rule="evenodd"/><path fill="#D47A66" fill-rule="evenodd" d="M513.166 135.111c.068.033 13.302 6.536 14.643 1.128.708-2.858-1.174-3.791-4.257-3.755-2.793.035-6.63.906-10.299 1.801a.441.441 0 0 0-.087.826Z" clip-rule="evenodd"/><path fill="#D47A66" fill-rule="evenodd" d="M513.489 134.887c.033-.029 11.173-9.75 6.691-13.078-2.361-1.754-3.949-.378-5.104 2.481-1.044 2.584-1.721 6.463-2.311 10.197a.441.441 0 0 0 .724.4Z" clip-rule="evenodd"/><path fill="#D27272" fill-rule="evenodd" d="M513.396 132.725a2.09 2.09 0 0 0-1.484.477 1.95 1.95 0 0 0-.706 1.368 1.94 1.94 0 0 0 .517 1.449 2.1 2.1 0 0 0 1.407.671 2.09 2.09 0 0 0 1.483-.477c.404-.336.67-.818.706-1.368a1.94 1.94 0 0 0-.515-1.449 2.085 2.085 0 0 0-1.408-.671Z" clip-rule="evenodd"/><path fill="#729FA3" fill-rule="evenodd" d="M671.38 216.111a101.77 101.77 0 0 1 13.113 5.854c-.275 20.471-.066 54.775 5.392 71.587-.035.005-.068.013-.102.018 1.243 33.02 2.791 73.832-5.343 80.26-18.05 14.263-88.595 9.14-109.077-2.863-6.072-3.558-.026-59.339.49-79.157l-.004-.004c1.773-6.217 9.363-38.028 11.558-65.052 4.59-3.074 9.478-5.891 14.657-8.299-1.28 14.828-1.291 46.334 21.662 46.641 24.696.335 43.115-25.669 47.654-48.985Z" clip-rule="evenodd"/><path fill="#6A9295" fill-rule="evenodd" d="M685.005 258.44c.686 13.482 2.105 26.56 4.882 35.114-.035.005-.068.013-.103.018 1.244 33.019 2.792 73.831-5.342 80.26-.492.387-1.025.757-1.588 1.115-3.958-30.032-1.204-84.762 2.151-116.507Z" clip-rule="evenodd"/><path fill="#93B5B8" fill-rule="evenodd" d="M663.417 250.733a.583.583 0 1 1 .95.677c-.055.077-19.105 27.501-57.25 17.387a.584.584 0 1 1 .297-1.13c37.358 9.905 55.95-16.857 56.003-16.934ZM661.064 288.622a.581.581 0 1 1 .941.686c-.066.088-22.166 30.945-67.238 37.415a.583.583 0 1 1-.164-1.157c44.583-6.399 66.397-36.854 66.461-36.944ZM656.589 320.763a.584.584 0 0 1 .807-.176c.271.174.35.535.178.807-.046.075-15.969 25.379-52.299 41.457a.584.584 0 1 1-.471-1.069c36.001-15.935 51.737-40.948 51.785-41.019Z" clip-rule="evenodd"/><path fill="#729FA3" fill-rule="evenodd" d="M719.849 368.984c-3.543 3.677-22.747 18.746-26.78 24.596-3.074 4.46 1.221 23.805-6.788 32.467-2.043 2.209-6.723-20.579-7.987-27.26-2.078-10.991-1.837-18.687 4.448-22.947 5.935-4.026 13.359-18.14 19.004-23.96 3.184-3.279 21.126 13.966 18.103 17.104Z" clip-rule="evenodd"/><path fill="#D38078" fill-rule="evenodd" d="M621.394 169.854c.292 1.464 2.076 2.39 5.97.844l3.894-1.546s-3.601 13.003-9.864.702Z" clip-rule="evenodd"/><path fill="#fff" fill-rule="evenodd" d="M624.565 168.077c.087-1.566-.174-3.89-.554-3.661-.377.231-.729 2.929-.816 4.497-.148 2.7 1.282.776 1.37-.836Z" clip-rule="evenodd"/><path fill="#D38078" fill-rule="evenodd" d="M669.9 157.335c1.337.937 1.92 3.248.13 6.694-1.79 3.446-3.708 4.826-3.708 4.826s1.135-3.758-.204-3.958c-1.342-.198-2.644.361-2.644.361s2.287-7.362 6.426-7.923Z" clip-rule="evenodd"/><path fill="#935B47" fill-rule="evenodd" d="M670.58 157.592a.412.412 0 1 1-.427.706 1.658 1.658 0 0 0-1.414-.171c-.488.158-1.034.538-1.636 1.242-1.003 1.176-2.135 3.591-2.696 4.871.842-.216 2.034-.326 2.494.582.657 1.294-.04 2.751-.042 2.754a.41.41 0 0 1-.546.198.408.408 0 0 1-.198-.546s.526-1.101.053-2.036c-.363-.717-2.1.006-2.313.099a.422.422 0 0 1-.345.017.415.415 0 0 1-.227-.538c.005-.013 1.702-4.19 3.193-5.936.708-.829 1.383-1.288 2.008-1.491a2.473 2.473 0 0 1 2.096.249Z" clip-rule="evenodd"/><path fill="#82BBBF" fill-rule="evenodd" d="M637.915 106.766c-1.131-3.044-3.593-3.941-10.032-4.777-8.93-1.159-10.786-10.67-11.019-6.03-1.201 24.023 25.264 22.143 21.051 10.807Z" clip-rule="evenodd"/><path fill="#82BBBF" fill-rule="evenodd" d="M638.196 106.508c2.321-4.085 5.324-3.98 11.954-6.632 8.658-3.463 9.647-5.194 9.647-5.194-2.568 26.892-28.204 23.446-21.601 11.826Z" clip-rule="evenodd"/><path fill="#5C474C" fill-rule="evenodd" d="M648.259 145.143c-1.223-2.777-5.792-5.335-9.097-4.233-4.192 1.397-3.785 2.259-.196 2.995 3.512.717 9.086 1.727 9.293 1.238Z" clip-rule="evenodd"/><path fill="#729FA3" fill-rule="evenodd" d="M502.463 184.192c5.988-3.097 15.281-2.065 17.139 6.608.992 4.627-1.372 10.195-3.767 15.206-2.095 4.379-3.918 8.433-7.384 9.781-7.433 2.89-5.988-5.369-12.596-3.511-6.608 1.858-.205-25.193 6.608-28.084Z" clip-rule="evenodd"/><path fill="#587D84" fill-rule="evenodd" d="M503.49 204.689a.584.584 0 0 1 .215-1.146c2.455.464 4.178 1.74 5.361 3.229 1.889 2.383 2.373 5.363 2.235 6.403a.581.581 0 1 1-1.155-.15c.117-.873-.325-3.419-1.994-5.524a7.626 7.626 0 0 0-4.662-2.812ZM508.035 198.288a.585.585 0 1 1 .214-1.148c2.454.464 4.178 1.741 5.361 3.23 1.887 2.382 2.373 5.364 2.236 6.403a.582.582 0 1 1-1.156-.151c.118-.873-.324-3.418-1.993-5.524a7.643 7.643 0 0 0-4.662-2.81ZM511.131 190.133a.585.585 0 0 1 .214-1.149c2.454.464 4.178 1.741 5.361 3.23 1.889 2.383 2.373 5.363 2.236 6.403a.584.584 0 0 1-1.157-.151c.115-.873-.325-3.418-1.994-5.524-1.027-1.296-2.527-2.406-4.66-2.809ZM682.331 414.847a.584.584 0 0 1-.778-.873c.833-.739 1.345-1.678 1.653-2.962.323-1.355.422-3.096.422-5.377v-5.471a.584.584 0 1 1 1.168 0v5.471c0 2.366-.108 4.187-.455 5.645-.361 1.53-.985 2.656-2.01 3.567ZM684.268 423.951a.581.581 0 0 1-.818-.092.579.579 0 0 1 .091-.818c3.586-2.868 3.942-11.297 4.297-19.708l.026-.612a.585.585 0 0 1 1.168.046l-.027.612c-.367 8.677-.734 17.37-4.737 20.572Z" clip-rule="evenodd"/><path fill="#878B9D" fill-rule="evenodd" d="M662.833 423.392a.582.582 0 1 1 1.165.003c-.002.255-.97 87.202 38.054 231.798a.585.585 0 0 1-1.13.301c-39.061-144.74-38.09-231.849-38.089-232.102ZM683.822 659.33a.587.587 0 0 1-1.132.303c-4.4-16.372-13.896-58.077-21.894-111.208-5.124-34.052-9.634-72.81-11.791-112.621a.585.585 0 0 1 1.166-.058c2.155 39.748 6.662 78.471 11.782 112.506 7.993 53.084 17.476 94.734 21.869 111.078ZM636.672 448.184a.584.584 0 0 1 1.166-.063c.02.34 6.573 117.143 24.82 212.057a.586.586 0 0 1-1.149.218c-18.261-94.983-24.817-211.871-24.837-212.212ZM715.732 631.853a.63.63 0 1 1-1.215.325c-3.84-14.221-9.067-34.545-15.374-61.423-4.55-19.401-11.158-56.732-17.412-94.881-2.399-14.63-4.567-35.193-6.811-46.327a.626.626 0 1 1 1.23-.242c2.542 12.618 3.809 29.822 6.529 46.618 5.946 36.719 13.372 76.168 17.684 94.554 6.277 26.75 11.512 47.095 15.369 61.376ZM580.56 421.704a.584.584 0 1 1 1.167.074c-.028.425-9.484 147.558-17.462 237.798a.584.584 0 0 1-.634.532.585.585 0 0 1-.534-.633c7.987-90.315 17.436-237.345 17.463-237.771ZM591.729 434.752a.586.586 0 0 1 .62-.547.586.586 0 0 1 .547.62l-14.318 226.387a.585.585 0 0 1-1.167-.073l14.318-226.387ZM602.41 428.375a.585.585 0 1 1 1.167.101c-.035.396-11.943 137.172-11.325 233.167a.582.582 0 0 1-1.165.004c-.62-96.095 11.29-232.876 11.323-233.272ZM612.27 461.528a.583.583 0 1 1 1.168.04l-7.668 199.679a.581.581 0 0 1-.603.563.581.581 0 0 1-.563-.602l7.666-199.68Z" clip-rule="evenodd"/><path fill="#984A2C" fill-rule="evenodd" d="M538.773 679.647a.583.583 0 1 1 .539-1.034c2.457 1.287 6.417 2.641 11.897 2.641 3.969 0 8.728-.712 14.276-2.676 13.28-4.7 20.181-12.614 20.201-12.638a.58.58 0 0 1 .824-.049.578.578 0 0 1 .049.821c-.022.026-7.121 8.167-20.685 12.967-5.691 2.015-10.583 2.745-14.665 2.745-5.702.004-9.852-1.421-12.436-2.777ZM715.741 679.855a.581.581 0 0 1 .785.247c.15.285.04.639-.246.787-2.584 1.354-6.736 2.78-12.436 2.78-4.086 0-8.976-.73-14.667-2.745-13.564-4.8-20.665-12.944-20.684-12.966a.584.584 0 0 1 .05-.822.578.578 0 0 1 .821.049c.023.024 6.922 7.938 20.204 12.638 5.548 1.963 10.307 2.676 14.276 2.676 5.478-.003 9.441-1.357 11.897-2.644Z" clip-rule="evenodd"/><path fill="#E0AB8E" fill-rule="evenodd" d="M233.984 198.129c-7.112-19.87 12.504 2.841 32.999 24.086 14.828 20.034 61.087 50.693 89.202 51.427 3.674.095 14.749-10.929 23.191-9.781 3.479.473-3.573 7.718-2.098 10.72 1.414 2.876 11.374 1.176 14.96 1.632 14.393 1.823 30.617 34.16-34.336 32.464-26.599-.693-63.194-14.661-86.486-35.758-26.144-23.677-26.92-45.422-37.432-74.79Z" clip-rule="evenodd"/><path fill="#586589" fill-rule="evenodd" d="M251.557 347.494c-3.97-12.879-25.428-16.539-37.769-12.395-2.668.897-6.072 1.453-9.726 1.906-5.603-6.502-17.047-8.479-26.606-7.516-9.192.926-28.599-4.134-38.891 5.172-10.654 9.632-5.148 56.031-4.398 69.507 5.483 98.625 6.233 92.897-29.308 220.267-.302.634-.577 1.26-.845 1.882 6.621 8.031 22.775 11.902 30.035 11.449 7.261-.453 3.393-.675 5.631-1.188-.334-.497 51.519-127.733 54.33-145.332 3.872-24.24 6.806-52.401 8.932-77.455 27.871 78.521 22.928 111.984 11.677 227.916-.118.468-.213.925-.314 1.385 8.205 4.426 28.658 6.729 36.948 2.25-.662-.608 2.113-10.352 2.441-11.541 16.126-58.611 17.172-85.334 17.834-134.071.44-32.663-.895-90.645-19.971-152.236Z" clip-rule="evenodd"/><path fill="#495575" fill-rule="evenodd" d="M251.557 347.494c-3.97-12.879-25.428-16.539-37.769-12.395-2.669.897-6.072 1.453-9.726 1.906-5.603-6.502-17.047-8.479-26.606-7.516-9.192.926-28.599-4.134-38.891 5.172-4.525 4.092-6.135 14.819-6.43 26.835 26.789 22.226 87.316 34.459 122.927-2.025a404.023 404.023 0 0 0-3.505-11.977Z" clip-rule="evenodd"/><path fill="#6A6A98" fill-rule="evenodd" d="M104.582 625.511c-1.621 3.113-6.411 16.719-5.79 19.617 4.248 19.77 60.291 45.289 69.302 39.207 13.782-11.048-17.533-30.373-27.965-48.925-17.645 3.145-29.342-4.134-35.547-9.899Z" clip-rule="evenodd"/><path fill="#A4ADD4" fill-rule="evenodd" d="M133.679 647.162a.582.582 0 1 1 .178-1.152c.022.002 7.502 1.225 10.732-2.738a.583.583 0 0 1 .906.735c-3.657 4.49-11.793 3.158-11.816 3.155ZM141.282 655.248a.584.584 0 0 1 .178-1.154c.022.004 7.503 1.225 10.733-2.738a.585.585 0 0 1 .906.737c-3.659 4.49-11.793 3.159-11.817 3.155ZM148.336 663.565a.582.582 0 1 1 .18-1.152c.022.004 7.501 1.225 10.732-2.738a.586.586 0 0 1 .822-.086.585.585 0 0 1 .084.822c-3.66 4.487-11.794 3.158-11.818 3.154Z" clip-rule="evenodd"/><path fill="#6A6A98" fill-rule="evenodd" d="m214.619 643.021-.002.051c-3.124 11.805-7.496 19.864.698 23.903 32.22 15.876 70.677 22.273 76.308 15.645 10.292-14.343-25.027-24.518-40.084-39.563-16.106 7.026-28.677 4.178-36.92-.036Z" clip-rule="evenodd"/><path fill="#A4ADD4" fill-rule="evenodd" d="M251.302 658.259a.584.584 0 0 1-.156-1.157c.022-.002 7.533-.994 9.48-5.722a.585.585 0 0 1 .761-.317.582.582 0 0 1 .318.761c-2.205 5.353-10.379 6.432-10.403 6.435ZM260.918 663.803a.584.584 0 1 1-.156-1.157c.022-.002 7.532-.994 9.48-5.722a.584.584 0 0 1 1.078.444c-2.204 5.353-10.38 6.432-10.402 6.435ZM270.073 669.724a.584.584 0 0 1-.156-1.156c.022-.002 7.534-.994 9.48-5.722a.585.585 0 0 1 .761-.317.582.582 0 0 1 .318.761c-2.203 5.353-10.379 6.432-10.403 6.434Z" clip-rule="evenodd"/><path fill="#807EA5" fill-rule="evenodd" d="M283.961 231.451c-31.056-41.936-52.757-69.821-66.971-62.721-12.434 6.21-20.111 27.268 6.395 82.385 9.115 18.954 69.116-8.13 60.576-19.664Z" clip-rule="evenodd"/><path fill="#6A6A98" fill-rule="evenodd" d="M205.735 188.37c-1.058 12.919 3.251 32.807 17.65 62.743 6.52 13.559 39.074 3.56 53.956-7.451-30.167-40.682-51.35-67.449-65.306-60.478a18.113 18.113 0 0 0-6.3 5.186Z" clip-rule="evenodd"/><path fill="#807EA5" fill-rule="evenodd" d="M123.407 339.118c11.763 30.508 94.091 58.501 136.875 11.301 3.627-4.002-10.089-15.177-10.498-30.463-1.412-52.845 2.828-107.931-31.793-161.871-5.637-8.785-19.578-9.977-27.317-8.722-43.594 7.066-44.839 44.889-55.546 97.213-3.942 19.264-3.111 47.698-3.709 71.214-.209 8.174-10.332 15.312-8.012 21.328Z" clip-rule="evenodd"/><path fill="#6A6A98" fill-rule="evenodd" d="M123.407 339.118c5.736 14.879 28.258 29.153 54.787 34.405-6.289-3.471-11.401-7.213-14.355-11.152-14.866-19.824.827-127.201 2.478-178.413-6.79 7.919-15.177 17.344-24.4 27.673-2.197 10.663-4.222 22.382-6.791 34.941-3.941 19.264-3.111 47.699-3.709 71.214-.207 8.178-10.33 15.316-8.01 21.332Z" clip-rule="evenodd"/><path fill="#D57B19" d="M254.464 385.822a3.3 3.3 0 0 1-2.712-1.414c-14.373-20.596-8.715-42.024 1.373-55.21 4.584-5.99 10.465-10.817 16.561-13.592 6.665-3.034 13.203-3.556 18.907-1.508 5.708 2.049 10.282 6.654 13.229 13.313 3.138 7.089 4.515 16.536 4.095 28.082a3.304 3.304 0 0 1-6.604-.24c.383-10.536-.805-19.004-3.532-25.17-2.229-5.036-5.398-8.322-9.42-9.768-8.368-3.004-19.877 2.298-27.985 12.897-8.669 11.331-13.538 29.737-1.203 47.413a3.305 3.305 0 0 1-2.709 5.197Z"/><path fill="#EFC61C" fill-rule="evenodd" d="M354.788 360.623s-37.13 79.387-41.062 79.548c-12.552.514-63.52-34.241-68.441-53.083-.827-3.168 62.044-62.022 62.044-62.022s36.425 23.289 47.459 35.557Z" clip-rule="evenodd"/><path fill="#F4E497" d="M303.217 428.133a.427.427 0 0 1-.256-.09.411.411 0 0 1-.068-.58c23.838-30.035 35.614-59.61 35.73-59.906a.413.413 0 0 1 .77.301c-.116.297-11.934 29.982-35.851 60.119a.423.423 0 0 1-.325.156ZM257.6 390.479a.413.413 0 0 1-.334-.657c22.702-31.06 48.183-50.338 48.438-50.528a.414.414 0 1 1 .497.66c-.255.191-25.639 19.398-48.267 50.356a.418.418 0 0 1-.334.169ZM267.555 404.281a.412.412 0 0 1-.332-.658c22.703-31.064 48.183-50.338 48.438-50.53a.414.414 0 0 1 .497.66c-.253.191-25.639 19.398-48.265 50.356a.425.425 0 0 1-.338.172ZM283.188 417.052a.413.413 0 0 1-.29-.707c27.347-26.879 42.667-54.785 42.819-55.063a.413.413 0 1 1 .726.396c-.152.278-15.527 28.287-42.965 55.256a.422.422 0 0 1-.29.118Z"/><path fill="#E1A517" fill-rule="evenodd" d="M325.816 349.999c-13.337-9.649-21.639-20.69-18.725-24.717 2.912-4.026 15.935.486 29.272 10.135 13.339 9.646 21.544 20.823 18.632 24.848-2.913 4.03-15.842-.619-29.179-10.266Z" clip-rule="evenodd"/><path fill="#E7BA4C" d="M350.3 357.518a.416.416 0 0 1-.147-.027c-14.186-5.372-23.708-13.02-29.197-18.489-5.959-5.938-8.598-10.681-8.626-10.729a.413.413 0 0 1 .725-.398c.026.046 2.624 4.708 8.51 10.568 5.428 5.405 14.848 12.962 28.88 18.277a.414.414 0 0 1 .24.532.415.415 0 0 1-.385.266Z"/><path fill="#D57B19" fill-rule="evenodd" d="M321.154 386.259c-10.461 5.159-6.865 24.99 3.211 25.155.064-.031 14.39-7.818 30.641-6.703 9.118.625 18.842 4.051 26.994 13.221 2.535 1.207 13.794-8.31 12.213-10.826-10.536-11.853-22.323-18.067-33.304-21.102-21.362-5.909-39.667.211-39.755.255Z" clip-rule="evenodd"/><path fill="#DE9C53" d="M387.897 408.575a.41.41 0 0 1-.261-.094c-17.386-14.059-34.653-17.318-46.077-17.579-12.374-.286-20.719 2.79-20.801 2.821a.413.413 0 1 1-.29-.774c.084-.033 8.574-3.16 21.109-2.872 11.553.262 29.012 3.556 46.58 17.762a.414.414 0 0 1-.26.736Z"/><path fill="#EBC3A4" fill-rule="evenodd" d="M152.837 213.256c-9.524 23.955-10.857 42.912-4.73 57.109 12.196 28.247 64.645 38.35 91.933 42.143l18.261-.037c11.253-3.469 12.458-3.954 19.365-.898l-9.65 7.64s15.38 5.601 18.021 9.95c2.641 4.348-2.284 11.216-7.586 10.186-5.304-1.031-6.424-.776-6.424-.776s-16.184 15.354-27.587 15.479c-11.404.123-85.965-12.367-115.924-43.493-29.956-31.125-19.649-77.265-1.671-106.466 16.763-27.226 38.689-22.775 25.992 9.163Z" clip-rule="evenodd"/><path fill="#807EA5" fill-rule="evenodd" d="M150.796 264.435c6.708-18.545 38.018-104.93 20.447-106.948-12.651-1.452-38.406 13.987-59.497 51.626-3.835 6.841-11.362 28.867-14.778 37.195-3.97 9.674 51.555 24.407 53.828 18.127Z" clip-rule="evenodd"/><path fill="#81ADA5" fill-rule="evenodd" d="M175.923 171.437c33.452 18.171 34.279 20.236 34.279 20.236s16.932-20.236 18.584-27.669c4.098-18.436-112.519-24.974-52.863 7.433Z" clip-rule="evenodd"/><path fill="#D89282" fill-rule="evenodd" d="M247.849 112.802c3.209-3.143 6.701-5.876 7.505-.547.803 5.33-3.522 13.667-8.314 13.258-4.794-.41.809-12.711.809-12.711Z" clip-rule="evenodd"/><path fill="#5C474C" fill-rule="evenodd" d="M257.197 89.39c.99 9.25-8.095 24.118-10.903 27.753-2.808 3.633-1.983-28.084-1.983-28.084l12.886.33Z" clip-rule="evenodd"/><path fill="#E4B095" fill-rule="evenodd" d="M198.863 95.905c-1.486 5.222-7.393 22.522-12.141 37.335-3.588 11.193-5.726 16.838-5.578 18.909 1.044 14.622 20.477 25.87 33.995 18.85 2.148-1.116 7.406-30.177 8.848-35.347 11.943-42.868-22.406-36.091-25.124-39.747Z" clip-rule="evenodd"/><path fill="#D89282" fill-rule="evenodd" d="M196.754 102.645c-2.086 6.417-5.198 15.709-8.153 24.781-4.161 12.778 16.131 31.822 29.266 35.881 2.674-10.709 5.144-24.16 6.12-27.655 2.837-10.184 3.059-17.563 1.716-22.949-6.756-6.628-16.088-10.69-28.949-10.058Z" clip-rule="evenodd"/><path fill="#EBC3A4" fill-rule="evenodd" d="M191.354 101.459c-4.264-7.38-14.329-5.194-14.098 5.194.233 10.387 11.47 11.754 11.47 11.754s-2.146 19.326 9.493 28.416c11.64 9.087 32.37 11.44 39.323 4.607 6.954-6.834 15.926-57.738 14.716-64.845-1.209-7.107-16.853-19.84-35.083-16.013-18.224 3.826-25.821 30.887-25.821 30.887Z" clip-rule="evenodd"/><path fill="#D89282" fill-rule="evenodd" d="M191.355 101.459c-.978-1.691-2.26-2.878-3.654-3.582.413 2.789 1.055 6.065 2.362 12.213.417 1.955 4.112-4.661 11.43-9.616 3.572-2.421 5.647-14.038 6.782-12.314 3.272 4.972 19.428 11.105 33.98 11.472 2.882.073 6.076-.079 9.15-.545.811-6.039 1.165-10.694.857-12.504-1.209-7.107-16.853-19.84-35.083-16.013-18.228 3.828-25.824 30.889-25.824 30.889ZM184.108 101.789c-1.904.937-3.336 3.248-2.283 6.694 1.054 3.446 2.92 4.825 2.92 4.825s-.171-3.758 1.503-3.958a6.871 6.871 0 0 1 3.06.362s-.409-7.362-5.2-7.923Z" clip-rule="evenodd"/><path fill="#8C6237" fill-rule="evenodd" d="M228.821 135.434c-5.905 1.795-8.359 6.523-8.104 7.403.255.883-2.016-.588-5.706-3.004-3.69-2.415-4.955-6.861-5.091-9.591-.136-2.731 1.52-5.27 2.602-4.175 1.084 1.095 4.778 5.605 9.312 6.885 4.531 1.28 6.987 2.482 6.987 2.482Z" clip-rule="evenodd"/><path fill="#D47851" fill-rule="evenodd" d="M220.41 143.318c-.286-3.756-3.818-7.622-7.334-8.902-3.515-1.28-2.622-.47-2.622-.47s1.968 7.868 9.956 9.372Z" clip-rule="evenodd"/><path fill="#fff" fill-rule="evenodd" d="M230.771 134.495c-1.2 8.155-18.786 1.166-20.73-6.286-.655-2.505 1.986-2.521 1.986-2.521s6.812 10.261 18.744 8.807Z" clip-rule="evenodd"/><path fill="#8C6237" fill-rule="evenodd" d="M234.622 133.082a.484.484 0 0 1 .433.866c-2.971 1.482-7.763 1.555-12.271.158-3.905-1.209-7.619-3.52-9.783-6.973-.539-.86-1.016-1.24-1.405-1.253-.526-.014-.986.708-1.254 1.845-.306 1.31-.317 3.109.123 5.031.997 4.352 4.317 9.287 11.754 10.507a.483.483 0 1 1-.158.954c-7.925-1.301-11.468-6.583-12.537-11.245-.475-2.07-.459-4.029-.121-5.465.378-1.608 1.185-2.624 2.221-2.593.704.02 1.462.541 2.195 1.707 2.03 3.237 5.541 5.414 9.245 6.56 4.285 1.328 8.796 1.281 11.558-.099Z" clip-rule="evenodd"/><path fill="#D89282" fill-rule="evenodd" d="M231.996 122.464c-.294 1.463-2.076 2.389-5.97.843l-3.891-1.546s3.596 13.003 9.861.703Z" clip-rule="evenodd"/><path fill="#fff" fill-rule="evenodd" d="M228.823 120.685c-.086-1.567.174-3.89.552-3.661.378.231.73 2.931.818 4.497.148 2.699-1.28.777-1.37-.836Z" clip-rule="evenodd"/><path fill="#6A4F2F" fill-rule="evenodd" d="M219.218 108.773c-.172 1.749-1.373 3.063-2.686 2.934-1.312-.128-2.238-1.65-2.066-3.4.171-1.75 1.374-3.065 2.685-2.936 1.314.13 2.238 1.652 2.067 3.402Z" clip-rule="evenodd"/><path fill="#5C474C" fill-rule="evenodd" d="M207.862 84.032c3.272 4.972 19.428 11.105 33.981 11.472 12.419.313 30.664-3.538 19.906-18.797-16.671-23.642-57.252-33.3-63.13-11.756-.048.176-13.983 1.407-12.038 22.492.539 5.836 1.423 12.813 3.69 23.472.416 1.955 3.491-9.616 10.809-14.571 3.573-2.42 5.645-14.038 6.782-12.312Z" clip-rule="evenodd"/><path fill="#935B47" fill-rule="evenodd" d="M183.516 102.776a.414.414 0 0 1-.541-.215.41.41 0 0 1 .215-.541c.757-.328 1.604-.475 2.448-.226.693.204 1.372.673 1.973 1.524 1.253 1.768 1.968 5.979 1.97 5.99a.413.413 0 0 1-.591.439c-.238-.098-2.198-.857-2.983-.008-.879.948-.604 2.014-.604 2.014a.41.41 0 0 1-.299.501.41.41 0 0 1-.5-.299c-.002-.004-.386-1.495.799-2.777.836-.902 2.35-.664 3.235-.418-.249-1.222-.847-3.767-1.7-4.972-.482-.682-1.007-1.053-1.531-1.209-.635-.181-1.293-.062-1.891.197Z" clip-rule="evenodd"/><path fill="#6A4F2F" fill-rule="evenodd" d="M240.74 113.033c-.17 1.75-1.373 3.065-2.685 2.936-1.311-.128-2.237-1.65-2.065-3.4.173-1.75 1.374-3.063 2.687-2.936 1.311.13 2.236 1.652 2.063 3.4Z" clip-rule="evenodd"/><path fill="#DA8D73" fill-rule="evenodd" d="M205.779 112.921a5.25 5.25 0 1 1 .398 10.493 5.25 5.25 0 0 1-.398-10.493ZM240.471 122.917c2.897-.098 5.335 1.878 5.445 4.41.11 2.531-2.15 4.662-5.045 4.76-2.898.097-5.336-1.879-5.446-4.411-.112-2.533 2.148-4.664 5.046-4.759Z" clip-rule="evenodd"/><path fill="#5C474C" fill-rule="evenodd" d="M223.266 100.866c-5.641-3.002-8.455-2.314-10.619-2.008-3.505.497 1.625-5.48 6.434-4.18 5.276 1.424 8.047 8.244 4.185 6.188ZM246.36 106.854c-4.079-3.002-6.564-2.314-8.427-2.008-3.019.497 2.479-5.48 6.217-4.181 4.101 1.425 5.003 8.245 2.21 6.189Z" clip-rule="evenodd"/><path fill="#CC8766" fill-rule="evenodd" d="M377.173 277.503a.584.584 0 0 1 .989-.622c1.869 2.951 2.74 6.835 2.883 10.74.165 4.535-.649 9.122-2.014 12.306a.582.582 0 0 1-.765.308.587.587 0 0 1-.31-.767c1.304-3.042 2.082-7.442 1.921-11.809-.136-3.714-.952-7.391-2.704-10.156ZM383.967 282.32a.585.585 0 0 1 0-1.17c2.872 0 15.713-1.027 15.75-1.03a.586.586 0 0 1 .092 1.166c-.037.004-12.934 1.034-15.842 1.034ZM383.657 289.444a.586.586 0 0 1 0-1.17c1.201 0 19.39-2.26 19.442-2.267a.584.584 0 0 1 .651.51.588.588 0 0 1-.51.653c-.051.005-18.307 2.274-19.583 2.274ZM383.554 296.776a.584.584 0 1 1 0-1.17c1.431 0 19.108-1.337 19.16-1.339a.584.584 0 1 1 .088 1.165c-.051.003-17.788 1.344-19.248 1.344Z" clip-rule="evenodd"/><path fill="#DF9E73" fill-rule="evenodd" d="M271.599 337.938a.585.585 0 0 1 .07 1.167c-1.865.11-11.435-2.907-11.461-2.916a.585.585 0 0 1 .349-1.117c.022.009 9.395 2.964 11.042 2.866ZM261.426 345.487a.584.584 0 1 1-.238 1.143c-3.969-.835-8.013-2.287-8.026-2.291a.585.585 0 1 1 .391-1.102c.011.003 3.994 1.434 7.873 2.25ZM252.067 351.382a.585.585 0 0 1-.312 1.126c-4.95-1.369-6.668-2.551-6.674-2.553a.585.585 0 1 1 .65-.974c.007 0 1.581 1.086 6.336 2.401ZM268.316 317.915a.583.583 0 1 1-.183 1.152c-3.242-.523-5.841-1.251-5.849-1.253a.584.584 0 1 1 .316-1.124c.009.001 2.556.715 5.716 1.225Z" clip-rule="evenodd"/><path fill="#785D5B" fill-rule="evenodd" d="M192.706 101.864a.583.583 0 0 1-1.152-.183c1.326-8.283 7.079-19.382 9.922-24.866.73-1.41 1.266-2.444 1.473-2.938.075-.18.103-.278.09-.302-.009-.015-.035.023-.123.025-.235.004-.563.09-.961.26-1.72.736-4.385 2.904-6.636 6.731-4.055 6.893-4.256 13.746-4.256 13.765a.583.583 0 1 1-1.167-.037c0-.02.211-7.17 4.417-14.318 2.397-4.073 5.294-6.406 7.183-7.215.538-.23 1.018-.347 1.407-.352.536-.007.933.183 1.152.565.192.34.2.787-.026 1.326-.222.532-.768 1.586-1.513 3.024-2.817 5.432-8.513 16.423-9.81 24.515ZM239.031 60.971a.583.583 0 1 1-.464 1.07c-5.75-2.5-11.712-2.979-16.981-2.423-7.534.796-13.606 3.68-15.607 5.797-.283.299-.435.723-.457 1.243-.04.967.348 2.229 1.155 3.643.835 1.463 2.106 3.068 3.804 4.671 5.216 4.928 14.384 9.768 27.105 10.316 22.925.989 18.056-7.792 18.041-7.818a.584.584 0 0 1 1.034-.545c.017.032 5.854 10.606-19.127 9.528-13.045-.561-22.475-5.552-27.854-10.632-1.785-1.685-3.129-3.385-4.019-4.946-.917-1.607-1.357-3.085-1.305-4.27.034-.803.291-1.483.772-1.991 2.136-2.262 8.513-5.334 16.339-6.159 5.441-.572 11.605-.075 17.564 2.516Z" clip-rule="evenodd"/><path fill="#785D5B" fill-rule="evenodd" d="M205.036 69.307a.583.583 0 1 1-.205-1.148c6.694-1.218 16.751-2.577 26.228-2.443 6.703.095 13.126.937 17.89 3.103a.583.583 0 1 1-.478 1.066c-4.609-2.095-10.87-2.911-17.425-3.005-9.388-.13-19.365 1.22-26.01 2.427Z" clip-rule="evenodd"/><path fill="#785D5B" fill-rule="evenodd" d="M206.52 68.632a.584.584 0 1 1 .544-1.034c8.908 4.71 16.738 6.758 23.208 7.525 6.467.766 11.587.254 15.068-.155a.585.585 0 0 1 .134 1.163c-3.54.416-8.745.937-15.338.154-6.591-.783-14.56-2.866-23.616-7.653Z" clip-rule="evenodd"/><path fill="#495575" fill-rule="evenodd" d="M143.019 376.777a.583.583 0 0 1 .631-.534.588.588 0 0 1 .536.631c-1.321 15.593-1.119 32.2-.233 47.57.888 15.386 2.457 29.528 3.868 40.174 2.725 20.559-12.583 72.931-24.22 112.738-4.998 17.097-9.315 31.869-11.228 40.779a.587.587 0 0 1-.693.451.587.587 0 0 1-.451-.693c1.916-8.926 6.243-23.732 11.251-40.862 11.606-39.704 26.876-91.945 24.184-112.261-1.416-10.677-2.99-24.854-3.878-40.261-.889-15.428-1.093-32.09.233-47.732ZM212.856 418.754a.586.586 0 0 1 .325-.76.586.586 0 0 1 .759.325c12.128 30.32 16.656 63.062 17.131 96.01.474 32.918-3.099 66.039-7.183 97.152a.584.584 0 0 1-1.158-.15c4.079-31.072 7.648-64.142 7.175-96.988-.471-32.815-4.979-65.416-17.049-95.589Z" clip-rule="evenodd"/><path fill="#BF6719" fill-rule="evenodd" d="M387.106 411.326c4.585-4.101 9.574-6.001 11.144-4.246 1.572 1.755-.873 6.503-5.456 10.602-4.584 4.099-9.574 6.001-11.144 4.246-1.57-1.755.873-6.503 5.456-10.602Z" clip-rule="evenodd"/></svg>