<svg width="1440" height="1025" viewBox="0 0 1440 1025" fill="none" xmlns="http://www.w3.org/2000/svg">
<g clip-path="url(#clip0_1_769)">
<path d="M0 1025L1449 1025L1449 0L0 0L0 1025Z" fill="white"/>
<path opacity="0.12" d="M1449 6.10352e-05V820C1367.3 844.34 1285.6 868.68 1181.84 886.435C1078.08 904.191 952.271 915.362 846.759 890.231C741.248 865.101 656.036 803.67 574.317 783.935C492.598 764.2 414.37 786.16 319.233 799.12C224.095 812.08 112.048 816.04 0 820V6.10352e-05L1449 6.10352e-05Z" fill="#27A348"/>
<path opacity="0.24" d="M1449 0V615C1327.77 597.154 1206.55 579.308 1119.96 595.069C1033.37 610.831 981.412 660.201 883.739 666.25C786.067 672.299 642.676 635.026 550.922 636.829C459.168 638.631 419.05 679.51 335.836 682.384C252.622 685.259 126.311 650.129 0 615V0L1449 0Z" fill="#27A348"/>
<path opacity="0.36" d="M1449 -6.10352e-05V410C1359.08 380.856 1269.16 351.711 1172.78 337.87C1076.41 324.029 973.576 325.491 868.645 357.801C763.715 390.11 656.686 453.267 565.261 474.537C473.835 495.807 398.013 475.191 306.403 457.454C214.793 439.716 107.397 424.858 0 410V-6.10352e-05L1449 -6.10352e-05Z" fill="#27A348"/>
<path opacity="0.48" d="M1449 0V205C1365.19 184.048 1281.38 163.095 1172.03 161.343C1062.68 159.59 927.789 177.036 820.345 171.782C712.902 166.528 632.905 138.574 539.602 130.972C446.298 123.371 339.689 136.122 247.537 151.852C155.386 167.582 77.6931 186.291 0 205V0L1449 0Z" fill="#27A348"/>
</g>
<defs>
<clipPath id="clip0_1_769">
<rect width="1449" height="1025" fill="white" transform="matrix(-1 0 0 -1 1449 1025)"/>
</clipPath>
</defs>
</svg>
